<?xml version="1.0" encoding="utf-8"?>
<!-- Generator: Adobe Illustrator 22.0.0, SVG Export Plug-In . SVG Version: 6.00 Build 0)  -->
<svg version="1.1" id="Layer_1" xmlns="http://www.w3.org/2000/svg" xmlns:xlink="http://www.w3.org/1999/xlink" x="0px" y="0px"
	 viewBox="0 0 20 20" style="enable-background:new 0 0 20 20;" xml:space="preserve">
<style type="text/css">
	.st0{clip-path:url(#SVGID_2_);}
	.st1{clip-path:url(#SVGID_4_);fill:none;stroke:#EEEEEE;stroke-width:0.3966;stroke-miterlimit:10;}
	.st2{clip-path:url(#SVGID_4_);fill:none;stroke:#EEEEEE;stroke-width:0.661;stroke-miterlimit:10;}
	.st3{clip-path:url(#SVGID_6_);fill:none;stroke:#EEEEEE;stroke-width:0.3966;stroke-miterlimit:10;}
	.st4{clip-path:url(#SVGID_6_);fill:none;stroke:#EEEEEE;stroke-width:0.661;stroke-miterlimit:10;}
	.st5{clip-path:url(#SVGID_8_);fill:none;stroke:#EEEEEE;stroke-width:0.3966;stroke-miterlimit:10;}
	.st6{clip-path:url(#SVGID_8_);fill:none;stroke:#EEEEEE;stroke-width:0.661;stroke-miterlimit:10;}
	.st7{clip-path:url(#SVGID_10_);fill:none;stroke:#EEEEEE;stroke-width:0.3966;stroke-miterlimit:10;}
	.st8{clip-path:url(#SVGID_10_);fill:none;stroke:#EEEEEE;stroke-width:0.661;stroke-miterlimit:10;}
	.st9{clip-path:url(#SVGID_12_);fill:none;stroke:#EEEEEE;stroke-width:0.3966;stroke-miterlimit:10;}
	.st10{clip-path:url(#SVGID_12_);fill:none;stroke:#EEEEEE;stroke-width:0.661;stroke-miterlimit:10;}
</style>
<g>
	<g>
		<defs>
			<rect id="SVGID_1_" x="-2" y="-2" width="24" height="24"/>
		</defs>
		<clipPath id="SVGID_2_">
			<use xlink:href="#SVGID_1_"  style="overflow:visible;"/>
		</clipPath>
		<g class="st0">
			<defs>
				<rect id="SVGID_3_" x="3.7" y="11.2" width="12.6" height="8.1"/>
			</defs>
			<clipPath id="SVGID_4_">
				<use xlink:href="#SVGID_3_"  style="overflow:visible;"/>
			</clipPath>
			<path class="st1" d="M10.2,12.1c0,0.9,0,2.5,0,3.3c0,0.9,0.4,1.5,1.1,1.9c0.8,0.4,1.5,0.8,2.2,1.3"/>
			<path class="st1" d="M6.5,18.6c0.7-0.4,1.5-0.9,2.2-1.3c0.8-0.4,1.1-1.1,1.1-1.9c0-0.9,0-2.5,0-3.3"/>
			<path class="st2" d="M8.9,11.7c-0.7,0.4-1.5,0.9-2.2,1.3c-0.8,0.4-1.1,1.1-1.1,1.9c0,0.9,0,2.1,0,2.9c0,0.9,0.4,1.3,1.1,0.8
				c0.8-0.4,1.5-0.8,2.2-1.3c0.7-0.4,1.5-0.4,2.2,0c0.7,0.4,1.5,0.9,2.2,1.3c0.8,0.4,1.1,0,1.1-0.8c0-0.9,0-2.1,0-2.9
				c0-0.9-0.4-1.5-1.1-1.9c-0.8-0.4-1.5-0.8-2.2-1.3"/>
			<path class="st2" d="M7.9,17.9c0.4,0.5,1.2,0.9,2.1,0.9c0.9,0,1.7-0.3,2.1-0.9"/>
		</g>
		<rect x="9.7" y="15.2" class="st0" width="0.7" height="1.8"/>
		<g class="st0">
			<defs>
				<rect id="SVGID_5_" x="8.5" y="7.8" transform="matrix(0.309 -0.951 0.951 0.309 -1.11 22.2931)" width="12.6" height="8.1"/>
			</defs>
			<clipPath id="SVGID_6_">
				<use xlink:href="#SVGID_5_"  style="overflow:visible;"/>
			</clipPath>
			<path class="st3" d="M11.8,10.7c0.8,0.3,2.4,0.8,3.2,1c0.8,0.3,1.5,0.1,2.2-0.5c0.6-0.6,1.3-1.2,1.9-1.7"/>
			<path class="st3" d="M16.9,16.3c-0.2-0.8-0.4-1.7-0.5-2.5c-0.2-0.8-0.7-1.4-1.5-1.6c-0.8-0.3-2.4-0.8-3.2-1"/>
			<path class="st4" d="M11,11.8c0.2,0.8,0.4,1.7,0.5,2.5c0.2,0.8,0.7,1.4,1.5,1.6c0.8,0.3,2,0.6,2.8,0.9c0.8,0.3,1.3,0.1,1.1-0.8
				c-0.2-0.8-0.3-1.7-0.5-2.5c-0.2-0.8,0-1.5,0.7-2.1c0.6-0.6,1.3-1.1,1.9-1.7c0.6-0.6,0.4-1.1-0.5-1.3c-0.8-0.3-2-0.6-2.8-0.9
				C15,7.3,14.2,7.4,13.6,8c-0.6,0.6-1.3,1.2-1.9,1.7"/>
			<path class="st4" d="M16.6,14.7c0.6-0.2,1.2-0.9,1.5-1.7c0.3-0.8,0.2-1.7-0.2-2.2"/>
		</g>
		<rect x="15.2" y="11.3" transform="matrix(0.309 -0.9511 0.9511 0.309 -0.8304 23.1518)" class="st0" width="0.7" height="1.8"/>
		<g class="st0">
			<defs>

					<rect id="SVGID_7_" x="1.2" y="5.6" transform="matrix(0.9511 -0.309 0.309 0.9511 -3.4171 2.1965)" width="8.1" height="12.6"/>
			</defs>
			<clipPath id="SVGID_8_">
				<use xlink:href="#SVGID_7_"  style="overflow:visible;"/>
			</clipPath>
			<path class="st5" d="M8.3,11.1c-0.8,0.3-2.4,0.8-3.2,1c-0.8,0.3-1.3,0.8-1.5,1.6c-0.2,0.8-0.3,1.7-0.5,2.5"/>
			<path class="st5" d="M1,9.6c0.6,0.6,1.3,1.1,1.9,1.7S4.2,12,5,11.8c0.8-0.3,2.4-0.8,3.2-1"/>
			<path class="st6" d="M8.3,9.7C7.7,9.2,7,8.6,6.4,8C5.8,7.4,5.1,7.3,4.2,7.5c-0.8,0.3-2,0.7-2.8,0.9C0.6,8.7,0.4,9.2,1,9.8
				c0.6,0.6,1.3,1.2,1.9,1.7c0.6,0.6,0.9,1.3,0.7,2.1c-0.2,0.8-0.4,1.7-0.5,2.5c-0.2,0.8,0.3,1.1,1.1,0.8C5,16.6,6.2,16.2,7,16
				c0.8-0.3,1.3-0.8,1.5-1.6c0.2-0.8,0.3-1.7,0.5-2.5"/>
			<path class="st6" d="M2.1,10.7c-0.4,0.6-0.5,1.4-0.2,2.3c0.3,0.8,0.8,1.5,1.5,1.7"/>
		</g>
		<rect x="3.6" y="11.8" transform="matrix(0.9511 -0.3089 0.3089 0.9511 -3.5248 1.9817)" class="st0" width="1.8" height="0.7"/>
		<g class="st0">
			<defs>

					<rect id="SVGID_9_" x="0.7" y="2.2" transform="matrix(0.809 -0.5878 0.5878 0.809 -2.3707 5.3192)" width="12.6" height="8.1"/>
			</defs>
			<clipPath id="SVGID_10_">
				<use xlink:href="#SVGID_9_"  style="overflow:visible;"/>
			</clipPath>
			<path class="st7" d="M8.7,9c-0.5-0.7-1.5-2-2-2.7c-0.5-0.7-1.2-1-2-0.9C3.9,5.5,3,5.6,2.2,5.7"/>
			<path class="st7" d="M7.9,1.5c-0.3,0.8-0.7,1.6-1,2.4C6.5,4.7,6.6,5.4,7.1,6.1c0.5,0.7,1.5,2,2,2.7"/>
			<path class="st8" d="M10,8.6c0.3-0.8,0.7-1.6,1-2.4c0.4-0.8,0.3-1.5-0.2-2.2c-0.5-0.7-1.2-1.7-1.7-2.4c-0.5-0.7-1-0.8-1.4,0
				C7.4,2.4,7,3.2,6.7,4C6.3,4.8,5.7,5.2,4.9,5.3C4,5.3,3.2,5.4,2.3,5.5C1.5,5.6,1.4,6.2,1.9,6.9c0.5,0.7,1.2,1.7,1.7,2.4
				c0.5,0.7,1.2,1,2,0.9C6.5,10,7.4,10,8.2,9.9"/>
			<path class="st8" d="M7.1,3C6.5,2.8,5.7,3,4.9,3.5C4.2,4,3.8,4.7,3.8,5.4"/>
		</g>
		<rect x="6.2" y="4.8" transform="matrix(0.8091 -0.5877 0.5877 0.8091 -2.0919 4.9348)" class="st0" width="0.7" height="1.8"/>
		<g class="st0">
			<defs>
				<rect id="SVGID_11_" x="8.9" y="0" transform="matrix(0.5878 -0.809 0.809 0.5878 0.2558 13.1173)" width="8.1" height="12.6"/>
			</defs>
			<clipPath id="SVGID_12_">
				<use xlink:href="#SVGID_11_"  style="overflow:visible;"/>
			</clipPath>
			<path class="st9" d="M11,8.8c0.5-0.7,1.4-2,2-2.7c0.5-0.7,0.6-1.4,0.2-2.2c-0.4-0.8-0.7-1.6-1-2.4"/>
			<path class="st9" d="M17.8,5.7c-0.9-0.1-1.7-0.2-2.6-0.3c-0.9-0.1-1.5,0.2-2,0.9c-0.5,0.7-1.4,2-2,2.7"/>
			<path class="st10" d="M11.8,9.9c0.9,0.1,1.7,0.2,2.6,0.3c0.9,0.1,1.5-0.2,2-0.9c0.5-0.7,1.2-1.7,1.7-2.4c0.5-0.7,0.5-1.2-0.4-1.3
				c-0.9-0.1-1.7-0.2-2.6-0.3c-0.9-0.1-1.5-0.5-1.8-1.3c-0.3-0.8-0.7-1.6-1-2.4c-0.4-0.8-0.9-0.7-1.4,0C10.4,2.4,9.7,3.3,9.2,4
				C8.6,4.7,8.6,5.5,8.9,6.2C9.3,7,9.6,7.8,10,8.6"/>
			<path class="st10" d="M16.2,5.4c0-0.7-0.5-1.4-1.2-1.9C14.3,3,13.5,2.8,12.9,3"/>
		</g>
		<rect x="12.6" y="5.3" transform="matrix(0.5879 -0.8089 0.8089 0.5879 0.9427 13.2245)" class="st0" width="1.8" height="0.7"/>
	</g>
</g>
</svg>
