<?xml version="1.0" encoding="utf-8"?>
<!-- Generator: Adobe Illustrator 19.0.0, SVG Export Plug-In . SVG Version: 6.00 Build 0)  -->
<svg version="1.1" id="Layer_1" xmlns="http://www.w3.org/2000/svg" xmlns:xlink="http://www.w3.org/1999/xlink" x="0px" y="0px"
	 viewBox="-463 264.5 32 32" style="enable-background:new -463 264.5 32 32;" xml:space="preserve">
<style type="text/css">
	.st0{fill:#2170B0;}
</style>
<g>
	<path class="st0" d="M-448,282.5v-2h17v2H-448z M-448,267.5h17v2h-17V267.5z M-448,264.5h13v2h-13V264.5z M-442,272.5h-6v-2h6
		V272.5z M-435,279.5h-13v-2h13V279.5z M-442,285.5h-6v-2h6V285.5z"/>
	<path class="st0" d="M-463,287.5v-2v-6v-2h13v2v6v2H-463z M-452,279.5h-9v6h9V279.5z M-463,272.5v-6v-2h13v2v6v2h-13V272.5z
		 M-461,272.5h9v-6h-9V272.5z"/>
</g>
</svg>
