<?xml version="1.0" encoding="utf-8"?>
<!-- Generator: Adobe Illustrator 19.0.0, SVG Export Plug-In . SVG Version: 6.00 Build 0)  -->
<svg version="1.1" id="Layer_1" xmlns="http://www.w3.org/2000/svg" xmlns:xlink="http://www.w3.org/1999/xlink" x="0px" y="0px"
	 viewBox="-463 265 32 32" style="enable-background:new -463 265 32 32;" xml:space="preserve">
<style type="text/css">
	.st0{fill:#2170B0;}
	.st1{fill:#216EAF;}
</style>
<g>
	<path class="st0" d="M-463,265v20h9.6c0.1-0.9,0.6-1.6,1.4-2h-8.9v-16h28v16h-7c0.5,0.5,0.6,1.3,0.6,2h8.4v-20H-463z"/>
	<path class="st1" d="M-437.2,279.2v-4c0-0.2,0-0.3-0.1-0.4s-0.2-0.1-0.3-0.1c-0.1,0-0.2,0-0.3,0.1c-0.1,0-0.2,0.1-0.2,0.1
		s-0.1,0.1-0.2,0.2v4.2h-1.1V274h1.1v0.6c0.2-0.1,0.3-0.3,0.4-0.3c0.1-0.1,0.2-0.1,0.4-0.2c0.2-0.1,0.4-0.1,0.6-0.1s0.4,0.1,0.6,0.2
		c0.1,0.2,0.2,0.4,0.2,0.6v4.5h-1.1V279.2z M-441.7,279.3c-0.6,0-1-0.2-1.2-0.5s-0.4-0.8-0.4-1.4v-1.6c0-0.6,0.1-1.1,0.4-1.4
		s0.7-0.5,1.2-0.5s1,0.2,1.2,0.5s0.4,0.8,0.4,1.4v1.6c0,0.6-0.1,1.1-0.4,1.4S-441.2,279.3-441.7,279.3z M-441.2,275.8
		c0-0.1,0-0.2,0-0.2c0-0.1,0-0.1,0-0.2s0-0.2,0-0.2s0-0.1-0.1-0.2c0-0.1-0.1-0.1-0.1-0.1l-0.1-0.1c-0.1,0-0.1,0-0.2,0s-0.1,0-0.2,0
		s-0.1,0-0.1,0.1l-0.1,0.1c0,0.1,0,0.1-0.1,0.2c0,0,0,0.1,0,0.2s0,0.2,0,0.2c0,0.1,0,0.1,0,0.2v1.6c0,0.1,0,0.2,0,0.2
		c0,0.1,0,0.1,0,0.2s0,0.2,0,0.2s0,0.1,0.1,0.2s0.1,0.1,0.1,0.1l0.1,0.1c0.1,0,0.1,0,0.2,0s0.1,0,0.2,0s0.1,0,0.1-0.1l0.1-0.1
		c0,0,0-0.1,0.1-0.2c0,0,0-0.1,0-0.2s0-0.2,0-0.2c0-0.1,0-0.1,0-0.2V275.8z M-445.5,279c-0.2-0.2-0.3-0.5-0.3-1v-3.3h-0.5v-0.8h0.5
		v-1.8h1.1v1.9h0.8v0.8h-0.8v3.1c0,0.2,0,0.4,0.1,0.5s0.2,0.1,0.4,0.1c0.1,0,0.2,0,0.4,0v0.9c-0.3,0-0.5,0.1-0.7,0.1
		C-445.1,279.3-445.4,279.2-445.5,279z M-448.5,279c-0.2-0.2-0.3-0.5-0.3-1v-3.3h-0.5v-0.8h0.5v-1.8h1.1v1.9h0.8v0.8h-0.8v3.1
		c0,0.2,0,0.4,0.1,0.5s0.2,0.1,0.4,0.1c0.1,0,0.2,0,0.4,0v0.9c-0.3,0-0.5,0.1-0.7,0.1C-448,279.3-448.3,279.2-448.5,279z
		 M-451,278.7c-0.1,0.1-0.2,0.2-0.2,0.2s-0.1,0.1-0.2,0.2s-0.2,0.1-0.3,0.2c-0.1,0-0.2,0.1-0.3,0.1c-0.1,0-0.2,0-0.4,0
		c-0.2,0-0.4-0.1-0.6-0.2c-0.1-0.2-0.2-0.4-0.2-0.6v-4.5h1.1v4.2c0,0.1,0,0.2,0.1,0.3c0.1,0.1,0.2,0.1,0.3,0.1c0.1,0,0.1,0,0.2,0
		s0.1,0,0.2-0.1c0.1,0,0.1-0.1,0.1-0.1l0.1-0.1l0.1-0.1v-4.2h1.1v5.3h-1.1L-451,278.7L-451,278.7z M-453.8,277.1
		c0,0.7-0.2,1.2-0.6,1.6s-0.9,0.6-1.6,0.6h-1.9v-7.4h1.6c0.3,0,0.7,0,0.9,0.1c0.3,0.1,0.5,0.2,0.7,0.3c0.2,0.1,0.4,0.3,0.5,0.6
		c0.1,0.2,0.2,0.5,0.2,0.8c0,0.5-0.1,0.8-0.3,1.1c-0.2,0.2-0.5,0.4-0.9,0.5c0.4,0.1,0.8,0.4,1,0.6S-453.8,276.6-453.8,277.1z
		 M-454.9,273.6c0-0.1,0-0.3-0.1-0.4c0-0.1-0.1-0.2-0.1-0.3c-0.1-0.1-0.1-0.1-0.2-0.2s-0.2-0.1-0.3-0.1c-0.1,0-0.2,0-0.4-0.1
		c-0.2,0-0.3,0-0.4,0s-0.2,0-0.4,0v2.4h0.5C-455.3,275-454.9,274.5-454.9,273.6z M-455.2,276.1c-0.2-0.2-0.5-0.3-1-0.3h-0.5v2.7h0.5
		c0.5,0,0.8-0.1,1-0.3c0.2-0.2,0.3-0.5,0.3-1S-455,276.3-455.2,276.1z"/>
	<path class="st1" d="M-442.2,292c-0.1,0.1-0.2,0.2-0.4,0.2s-0.3,0-0.4-0.2c-0.1-0.1-0.1-0.2-0.1-0.4c0-0.1,0-0.3,0.1-0.4
		s0.2-0.2,0.4-0.2c0.1,0,0.3,0.1,0.4,0.2s0.1,0.2,0.1,0.4C-442.1,291.8-442.1,291.9-442.2,292z M-441.2,286.8
		c-0.2,0.5-0.4,1.1-0.5,1.6c-0.2,0.5-0.3,1-0.3,1.4v0.3h-5.3v-0.3c0-0.4-0.2-0.8-0.5-1.2c-0.1-0.2-0.4-0.5-0.9-0.8
		c-0.4-0.4-0.8-0.7-1.2-0.9c-0.1-0.1-0.3-0.2-0.5-0.3c-0.8-0.4-1.2-0.6-1.2-0.7c0-0.4,0.1-0.7,0.3-1c0.2-0.2,0.4-0.4,0.8-0.4
		c0.2,0,0.5,0,0.7,0.1s0.4,0.2,0.6,0.3c0.1,0.1,0.3,0.2,0.5,0.3s0.3,0.1,0.4,0.1v-4.8c0-0.3,0.1-0.5,0.3-0.7
		c0.2-0.2,0.5-0.3,0.7-0.3c0.3,0,0.5,0.1,0.7,0.3c0.2,0.2,0.3,0.5,0.3,0.7v2.7c0.1-0.1,0.2-0.1,0.4-0.2c0.2-0.1,0.3-0.1,0.5-0.1
		c0.4,0,0.7,0.1,1,0.4c0.2-0.1,0.4-0.1,0.6-0.1s0.4,0,0.6,0.1s0.3,0.2,0.4,0.4c0.2,0,0.3,0,0.5,0c0.9,0,1.4,0.5,1.4,1.6
		C-441,285.8-441.1,286.2-441.2,286.8z M-440.6,283.4c-0.4-0.5-1-0.7-1.8-0.7c-0.4-0.3-0.9-0.5-1.5-0.5c-0.1,0-0.2,0-0.4,0
		c-0.3-0.2-0.6-0.3-1-0.3v-1.4c0-0.6-0.2-1.1-0.6-1.5s-0.9-0.6-1.5-0.6s-1.1,0.2-1.5,0.6s-0.6,0.9-0.6,1.5v3.1
		c-0.3-0.1-0.7-0.2-1.1-0.2c-0.7,0-1.2,0.2-1.6,0.7c-0.4,0.4-0.5,1-0.5,1.7c0,0.2,0.1,0.4,0.1,0.6c0.1,0.2,0.2,0.3,0.4,0.4
		c0.2,0.1,0.4,0.2,0.5,0.3s0.4,0.2,0.6,0.3c0.2,0.1,0.4,0.2,0.5,0.3c0.3,0.2,0.7,0.5,1.1,0.8l0.1,0.1c0.1,0.1,0.1,0.1,0.2,0.1
		l0.2,0.2c0.1,0.1,0.1,0.1,0.2,0.2c0,0.1,0.1,0.1,0.1,0.2s0.1,0.1,0.1,0.2s0,0.1,0,0.2v2.4c0,0.3,0.1,0.5,0.3,0.7
		c0.2,0.2,0.5,0.3,0.7,0.3h5.3c0.3,0,0.5-0.1,0.8-0.3c0.2-0.2,0.3-0.5,0.3-0.7v-2.4c0-0.3,0.2-0.9,0.5-1.9c0.4-1,0.6-1.9,0.6-2.7
		C-439.9,284.5-440.1,283.9-440.6,283.4z"/>
</g>
</svg>
