<?xml version="1.0" encoding="utf-8"?>
<!-- Generator: Adobe Illustrator 19.0.0, SVG Export Plug-In . SVG Version: 6.00 Build 0)  -->
<svg version="1.1" id="Layer_1" xmlns="http://www.w3.org/2000/svg" xmlns:xlink="http://www.w3.org/1999/xlink" x="0px" y="0px"
	 viewBox="-471 264.5 32 32" style="enable-background:new -471 264.5 32 32;" xml:space="preserve">
<style type="text/css">
	.st0{fill:#216EAF;}
</style>
<path class="st0" d="M-443,268.5v19h-24v-19h4v-4h6v4h4v-4h6v4H-443z M-451,270.5h2v-4h-2V270.5z M-461,270.5h2v-4h-2V270.5z
	 M-445,274.5h-20v11h20V274.5z M-445,270.5h-2v2h-6v-2h-4v2h-6v-2h-2v3h20V270.5z M-462,279.5h2v-2h-2V279.5z M-459,279.5h2v-2h-2
	V279.5z M-456,279.5h2v-2h-2V279.5z M-453,279.5h2v-2h-2V279.5z M-450,279.5h2v-2h-2V279.5z M-462,282.5h2v-2h-2V282.5z M-459,282.5
	h2v-2h-2V282.5z M-456,282.5h2v-2h-2V282.5z"/>
</svg>
