<?xml version="1.0" encoding="utf-8"?>
<!-- Generator: Adobe Illustrator 19.0.0, SVG Export Plug-In . SVG Version: 6.00 Build 0)  -->
<svg version="1.1" id="Layer_1" xmlns="http://www.w3.org/2000/svg" xmlns:xlink="http://www.w3.org/1999/xlink" x="0px" y="0px"
	 viewBox="-463 265.1 32 32" style="enable-background:new -463 265.1 32 32;" xml:space="preserve">
<style type="text/css">
	.st0{fill:#216EAF;}
	.st1{fill:#2170B0;}
</style>
<g>
	<path class="st0" d="M-444.2,286.9v-6.8l3.4,3.4L-444.2,286.9z M-449.8,280.2v6.8l-3.4-3.4L-449.8,280.2z"/>
	<path class="st1" d="M-441,275.1v-2v-6v-2h10v2v6v2H-441z M-433,267.1h-6v6h6V267.1z M-452,273.1v-6v-2h10v2v6v2h-10V273.1z
		 M-450,273.1h6v-6h-6V273.1z M-463,273.1v-6v-2h10v2v6v2h-10V273.1z M-461,273.1h6v-6h-6V273.1z"/>
</g>
</svg>
