<?xml version="1.0" encoding="utf-8"?>
<!-- Generator: Adobe Illustrator 19.0.0, SVG Export Plug-In . SVG Version: 6.00 Build 0)  -->
<svg version="1.1" id="Layer_1" xmlns="http://www.w3.org/2000/svg" xmlns:xlink="http://www.w3.org/1999/xlink" x="0px" y="0px"
	 viewBox="-474.5 265.5 32 32" style="enable-background:new -474.5 265.5 32 32;" xml:space="preserve">
<style type="text/css">
	.st0{fill:#216EAF;}
</style>
<path class="st0" d="M-457,272.5h-6v-2h6V272.5z M-454,274.5h-9v-1h9V274.5z M-454,276.5h-9v-1h9V276.5z M-448,275.5v13h-21v-13l2,1
	v-11.1h17v11L-448,275.5z M-465,277.6l6.5,3.3l4.5-2.4h-9v-1h9v1l2-1.1v-9.9h-13V277.6z M-452.3,286.5l-14.7-7.8v7.8H-452.3z
	 M-450,278.7l-6.4,3.4l6.4,3.4V278.7z"/>
</svg>
