<?xml version="1.0" encoding="utf-8"?>
<!-- Generator: Adobe Illustrator 19.0.0, SVG Export Plug-In . SVG Version: 6.00 Build 0)  -->
<svg version="1.1" id="Layer_1" xmlns="http://www.w3.org/2000/svg" xmlns:xlink="http://www.w3.org/1999/xlink" x="0px" y="0px"
	 viewBox="-471 265 32 32" style="enable-background:new -471 265 32 32;" xml:space="preserve">
<style type="text/css">
	.st0{fill:#216EAF;}
</style>
<path class="st0" d="M-456,277h-7v-8h7V277z M-457,270h-5v5.5c0-0.4,0.2-0.8,0.7-1.1c0.5-0.3,1.1-0.4,1.8-0.4c0.7,0,1.3,0.1,1.8,0.4
	c0.5,0.3,0.7,0.6,0.7,1.1V270z M-459.5,271c0.4,0,0.8,0.1,1.1,0.4c0.3,0.3,0.4,0.6,0.4,1.1c0,0.4-0.1,0.8-0.4,1.1s-0.6,0.4-1.1,0.4
	c-0.4,0-0.8-0.1-1.1-0.4c-0.3-0.3-0.4-0.6-0.4-1.1c0-0.4,0.1-0.8,0.4-1.1C-460.3,271.1-459.9,271-459.5,271z M-443.6,265.5
	c0.4,0.4,0.6,0.8,0.6,1.4v12c0,0.6-0.2,1.1-0.6,1.5c-0.4,0.4-0.9,0.6-1.4,0.6h-20c-0.5,0-1-0.2-1.4-0.6c-0.4-0.4-0.6-0.9-0.6-1.5
	v-12c0-0.5,0.2-1,0.6-1.4s0.8-0.6,1.4-0.6h20C-444.5,265-444,265.2-443.6,265.5z M-445,267h-20v12h20V267z M-454,271h7v-2h-7V271z
	 M-454,273h7v-1h-7V273z M-454,275h7v-1h-7V275z M-454,277h3v-1h-3V277z M-450,277h1v-1h-1V277z"/>
</svg>
