<svg xmlns="http://www.w3.org/2000/svg" xmlns:xlink="http://www.w3.org/1999/xlink" preserveAspectRatio="xMidYMid" width="32" height="20.594" viewBox="0 0 32 20.594">
  <defs>
    <style>
      .cls-1, .cls-2 {
        fill: #2170b0;
      }

      .cls-1, .cls-3 {
        fill-rule: evenodd;
      }

      .cls-2 {
        stroke: #216eaf;
        stroke-linejoin: round;
        stroke-width: 2px;
        fill-opacity: 0;
      }

      .cls-3 {
        fill: #216eaf;
      }
    </style>
  </defs>
  <g>
    <path d="M3.000,11.000 L3.000,10.000 L6.000,10.000 L6.000,11.000 L3.000,11.000 ZM-0.000,8.000 L6.000,8.000 L6.000,9.000 L-0.000,9.000 L-0.000,8.000 ZM-0.000,6.000 L6.000,6.000 L6.000,7.000 L-0.000,7.000 L-0.000,6.000 ZM3.000,4.000 L6.000,4.000 L6.000,5.000 L3.000,5.000 L3.000,4.000 Z" class="cls-1"/>
    <rect x="7" y="1" width="16" height="13" class="cls-2"/>
    <path d="M31.501,10.221 L31.501,14.908 C31.501,15.560 32.000,17.000 32.000,17.000 C32.000,17.000 29.808,17.252 29.157,17.252 L28.278,17.252 C28.115,17.936 27.749,18.497 27.179,18.937 C26.609,19.376 25.966,19.596 25.251,19.596 C24.534,19.596 23.891,19.376 23.322,18.937 C22.752,18.497 22.386,17.936 22.223,17.252 L18.122,17.252 C17.958,17.936 17.592,18.497 17.023,18.937 C16.453,19.376 15.810,19.596 15.094,19.596 C14.378,19.596 13.735,19.376 13.166,18.937 C12.596,18.497 12.230,17.936 12.067,17.252 L11.188,17.252 C10.537,17.252 9.000,17.000 9.000,17.000 C9.000,17.000 8.844,15.560 8.844,14.908 L9.000,11.000 L21.000,11.000 L20.907,3.189 L26.032,3.189 C26.845,3.189 27.497,3.531 27.985,4.215 L31.110,8.902 C31.370,9.326 31.501,9.765 31.501,10.221 L31.501,10.221 ZM16.657,16.471 C16.657,16.015 16.510,15.641 16.217,15.348 C15.924,15.055 15.550,14.908 15.094,14.908 C14.638,14.908 14.264,15.055 13.971,15.348 C13.678,15.641 13.532,16.015 13.532,16.471 C13.532,16.927 13.678,17.301 13.971,17.594 C14.264,17.887 14.638,18.033 15.094,18.033 C15.550,18.033 15.924,17.887 16.217,17.594 C16.510,17.301 16.657,16.927 16.657,16.471 ZM26.813,16.471 C26.813,16.015 26.667,15.641 26.374,15.348 C26.081,15.055 25.706,14.908 25.251,14.908 C24.794,14.908 24.421,15.055 24.128,15.348 C23.835,15.641 23.688,16.015 23.688,16.471 C23.688,16.927 23.835,17.301 24.128,17.594 C24.421,17.887 24.794,18.033 25.251,18.033 C25.706,18.033 26.081,17.887 26.374,17.594 C26.667,17.301 26.813,16.927 26.813,16.471 ZM29.938,10.221 C29.938,10.091 29.889,9.945 29.792,9.781 L26.667,5.094 C26.503,4.866 26.292,4.752 26.032,4.752 L22.907,4.752 L22.907,10.221 C22.907,10.872 22.679,11.425 22.223,11.881 C21.767,12.337 21.214,12.564 20.563,12.564 L10.407,12.564 L10.407,14.908 C10.407,15.429 10.667,15.689 11.188,15.689 L12.067,15.689 C12.230,15.006 12.596,14.444 13.166,14.005 C13.735,13.565 14.378,13.346 15.094,13.346 C15.810,13.346 16.453,13.565 17.023,14.005 C17.592,14.444 17.958,15.006 18.122,15.689 L22.223,15.689 C22.386,15.006 22.752,14.444 23.322,14.005 C23.891,13.565 24.534,13.346 25.251,13.346 C25.966,13.346 26.609,13.565 27.179,14.005 C27.749,14.444 28.115,15.006 28.278,15.689 L29.157,15.689 C29.677,15.689 29.938,15.429 29.938,14.908 L29.938,10.221 Z" class="cls-3"/>
  </g>
</svg>
