<svg xmlns="http://www.w3.org/2000/svg" width="22.906" height="22.938" viewBox="0 0 22.906 22.938">
  <defs>
    <style>
      .cls-1 {
        fill: #216eaf;
        fill-rule: evenodd;
      }
    </style>
  </defs>
  <path id="Facebook" class="cls-1" d="M439.788,275.42A3.917,3.917,0,0,1,436,279.205h-4.084v-8.666H435.7v-3.785h-3.785V265.21a1.212,1.212,0,0,1,.224-0.747,0.616,0.616,0,0,1,.474-0.3H435.7v-3.785h-3.087a3.867,3.867,0,0,0-3.014,1.469,5.063,5.063,0,0,0-1.27,3.412v1.494h-2.789v3.785h2.789v8.666h-7.67a3.918,3.918,0,0,1-3.785-3.785V260.08a3.918,3.918,0,0,1,3.785-3.785H436a3.917,3.917,0,0,1,3.785,3.785v15.34Z" transform="translate(-416.875 -256.281)"/>
</svg>
