<?xml version="1.0" encoding="utf-8"?>
<!-- Generator: Adobe Illustrator 19.0.0, SVG Export Plug-In . SVG Version: 6.00 Build 0)  -->
<svg version="1.1" id="Layer_1" xmlns="http://www.w3.org/2000/svg" xmlns:xlink="http://www.w3.org/1999/xlink" x="0px" y="0px"
	 viewBox="-467 268 25 25" style="enable-background:new -467 268 25 25;" xml:space="preserve">
<style type="text/css">
	.st0{fill:none;}
	.st1{fill:#2170B0;}
</style>
<g>
	<path class="st0" d="M-454.5,270.3c-5.6,0-10.2,4.6-10.2,10.2s4.6,10.2,10.2,10.2c5.6,0,10.2-4.6,10.2-10.2
		S-448.9,270.3-454.5,270.3z M-454,287.8h-2.2v-2.2h2.2V287.8z M-451.6,280.5c-0.6,0.8-1.4,1.4-2.4,1.9v2.2v0h-2.2v-2.7
		c0.3-0.2,0.6-0.4,0.9-0.6s0.6-0.4,0.9-0.7s0.6-0.6,0.8-0.9s0.4-0.6,0.5-1c0.1-0.4,0.2-0.8,0.2-1.2c0-1.1-0.5-1.6-1.6-1.6
		c-0.6,0-1.1,0.2-1.3,0.6c-0.3,0.3-0.4,0.9-0.4,1.6h-2.2v-0.5c0-1.3,0.3-2.2,1-2.9c0.6-0.7,1.6-1,2.8-1c1.3,0,2.2,0.3,2.9,1
		c0.7,0.6,1,1.6,1,2.8S-451,279.7-451.6,280.5z"/>
	<path class="st1" d="M-454.5,268.3c-6.7,0-12.2,5.5-12.2,12.2c0,6.7,5.5,12.2,12.2,12.2c6.7,0,12.2-5.5,12.2-12.2
		C-442.3,273.8-447.8,268.3-454.5,268.3z M-454.5,290.7c-5.6,0-10.2-4.6-10.2-10.2s4.6-10.2,10.2-10.2c5.6,0,10.2,4.6,10.2,10.2
		S-448.9,290.7-454.5,290.7z"/>
	<rect x="-456.2" y="285.6" class="st1" width="2.2" height="2.2"/>
	<path class="st1" d="M-454.6,273.7c-1.2,0-2.2,0.3-2.8,1c-0.7,0.7-1,1.6-1,2.9v0.5h2.2c0-0.7,0.1-1.3,0.4-1.6
		c0.2-0.4,0.7-0.6,1.3-0.6c1.1,0,1.6,0.5,1.6,1.6c0,0.4-0.1,0.8-0.2,1.2c-0.1,0.4-0.3,0.7-0.5,1s-0.5,0.6-0.8,0.9s-0.6,0.5-0.9,0.7
		s-0.6,0.4-0.9,0.6v2.7h2.2v0v-2.2c1-0.5,1.8-1.1,2.4-1.9c0.6-0.8,0.9-1.8,0.9-3s-0.3-2.2-1-2.8C-452.4,274-453.3,273.7-454.6,273.7
		z"/>
</g>
</svg>
