<svg xmlns="http://www.w3.org/2000/svg" width="24" height="24" viewBox="0 0 24 24">
  <defs>
    <style>
      .cls-1 {
        fill: #216eaf;
        fill-rule: evenodd;
      }
    </style>
  </defs>
  <path id="Flickr" class="cls-1" d="M488.5,256h-15a4.508,4.508,0,0,0-4.5,4.5v15a4.508,4.508,0,0,0,4.5,4.5h15a4.508,4.508,0,0,0,4.5-4.5v-15a4.508,4.508,0,0,0-4.5-4.5h0Zm-9.562,14.344a3.321,3.321,0,1,1,.968-2.343,3.2,3.2,0,0,1-.968,2.343h0Zm8.811,0a3.316,3.316,0,1,1,.97-2.343,3.189,3.189,0,0,1-.97,2.343h0Zm0,0" transform="translate(-469 -256)"/>
</svg>
