<?xml version="1.0" encoding="utf-8"?>
<!-- Generator: Adobe Illustrator 19.0.0, SVG Export Plug-In . SVG Version: 6.00 Build 0)  -->
<svg version="1.1" id="Layer_1" xmlns="http://www.w3.org/2000/svg" xmlns:xlink="http://www.w3.org/1999/xlink" x="0px" y="0px"
	 viewBox="-465 265 32 32" style="enable-background:new -465 265 32 32;" xml:space="preserve">
<style type="text/css">
	.st0{fill:#216EAF;}
</style>
<g>
	<path class="st0" d="M-440,265v18h-24v-18H-440z M-442,267h-20v14h20V267z M-450.9,273.8c-0.4-0.4-0.6-0.9-0.6-1.4
		c0-0.6,0.2-1,0.6-1.4c0.4-0.4,0.9-0.6,1.4-0.6c0.6,0,1,0.2,1.4,0.6c0.4,0.4,0.6,0.9,0.6,1.4c0,0.5-0.2,1-0.6,1.4
		c-0.4,0.4-0.9,0.6-1.4,0.6C-450.1,274.4-450.5,274.2-450.9,273.8z M-450.5,273.4h2v-2h-2V273.4z M-443,280h-18v-12h18V280z
		 M-460,277.8l6-1.1l-6-1.7V277.8z M-444,276l-16,2.8v0.2h16V276z M-444,269h-16v5l8,2.5l8-1.5V269z"/>
	<path class="st0" d="M-457,289v-2h21v-16h2v16v1v1H-457z M-439,286h-22v-2h22v-16h2v18h-1H-439z"/>
</g>
</svg>
