<?xml version="1.0" encoding="utf-8"?>
<!-- Generator: Adobe Illustrator 19.0.0, SVG Export Plug-In . SVG Version: 6.00 Build 0)  -->
<svg version="1.1" id="Layer_1" xmlns="http://www.w3.org/2000/svg" xmlns:xlink="http://www.w3.org/1999/xlink" x="0px" y="0px"
	 viewBox="-472.5 265.4 32 32" style="enable-background:new -472.5 265.4 32 32;" xml:space="preserve">
<style type="text/css">
	.st0{fill:#216EAF;}
</style>
<path class="st0" d="M-445,270.3v18.3l-7.8-4.3l-6.8,4l-8.4-4.6v-18.3l8.2,4.6l7.2-4L-445,270.3z M-447,271.5l-5-2.7v6.3l5,2.6
	V271.5z M-459,278l5-2.9v-6.2l-5,2.8V278z M-459,285.4l5-2.9v-6.3l-5,2.9V285.4z M-466,268.9v6l5,3v-6.3L-466,268.9z M-466,282.6
	l5,2.9v-6.3l-5-3V282.6z M-447,285.2v-6.4l-5-2.6v6.3L-447,285.2z"/>
</svg>
