<?xml version="1.0" encoding="utf-8"?>
<!-- Generator: Adobe Illustrator 19.0.0, SVG Export Plug-In . SVG Version: 6.00 Build 0)  -->
<svg version="1.1" id="Layer_1" xmlns="http://www.w3.org/2000/svg" xmlns:xlink="http://www.w3.org/1999/xlink" x="0px" y="0px"
	 viewBox="-471 265 32 32" style="enable-background:new -471 265 32 32;" xml:space="preserve">
<style type="text/css">
	.st0{fill:#216EAF;}
</style>
<path class="st0" d="M-444.9,266.9c1.2,1.3,1.9,2.6,1.9,4.1s-0.6,2.9-1.9,4.1s-2.6,1.9-4.1,1.9h-4.5c-1.5,0-2.9-0.6-4.1-1.9
	c-1.3-1.3-1.9-2.6-1.9-4.1c0-0.3,0.1-0.8,0.2-1.5h3.2c-0.3,0.5-0.4,1-0.4,1.5c0,0.8,0.3,1.4,0.9,2.1c0.6,0.6,1.3,0.9,2.1,0.9h4.5
	c0.7,0,1.4-0.3,2-0.9c0.6-0.6,1-1.3,1-2.1s-0.3-1.4-0.9-2.1c-0.6-0.6-1.3-0.9-2.1-0.9h-0.7c-0.4-1.2-1.3-2.2-2.5-3h3.2
	C-447.5,265-446.1,265.6-444.9,266.9z M-457.8,277h-3.2c-1.5,0-2.9-0.6-4.1-1.9c-1.3-1.3-1.9-2.6-1.9-4.1s0.6-2.9,1.9-4.1
	c1.2-1.3,2.6-1.9,4.1-1.9h4.5c1.5,0,2.9,0.6,4.1,1.9c1.2,1.3,1.9,2.6,1.9,4.1c0,0.6-0.1,1.1-0.2,1.5h-3.2c0.3-0.5,0.4-1,0.4-1.5
	c0-0.8-0.3-1.4-1-2.1c-0.6-0.6-1.3-0.9-2-0.9h-4.5c-0.8,0-1.4,0.3-2.1,0.9c-0.6,0.6-0.9,1.3-0.9,2.1s0.3,1.4,0.9,2.1
	c0.6,0.6,1.3,0.9,2.1,0.9h0.7C-459.8,275.2-459,276.2-457.8,277L-457.8,277z"/>
</svg>
