<?xml version="1.0" encoding="utf-8"?>
<!-- Generator: Adobe Illustrator 19.0.0, SVG Export Plug-In . SVG Version: 6.00 Build 0)  -->
<svg version="1.1" id="Layer_1" xmlns="http://www.w3.org/2000/svg" xmlns:xlink="http://www.w3.org/1999/xlink" x="0px" y="0px"
	 viewBox="-471 265 32 32" style="enable-background:new -471 265 32 32;" xml:space="preserve">
<style type="text/css">
	.st0{fill:#216EAF;}
</style>
<path class="st0" d="M-443,265v22h-24v-22H-443z M-445,272h-20v13h20V272z M-445,267h-20v4h20V267z M-456,270h-2v-2h2V270z
	 M-459,270h-2v-2h2V270z M-462,270h-2v-2h2V270z M-459.4,280.5l2.5-2.4l-2.5-2.5l1.5-1.4l2.4,2.5l2.5-2.5l1.4,1.4l-2.4,2.5l2.4,2.4
	l-1.4,1.5l-2.5-2.5l-2.4,2.5L-459.4,280.5z"/>
</svg>
