<?xml version="1.0" encoding="utf-8"?>
<!-- Generator: Adobe Illustrator 19.0.0, SVG Export Plug-In . SVG Version: 6.00 Build 0)  -->
<svg version="1.1" id="Layer_1" xmlns="http://www.w3.org/2000/svg" xmlns:xlink="http://www.w3.org/1999/xlink" x="0px" y="0px"
	 viewBox="-475 265.5 32 32" style="enable-background:new -475 265.5 32 32;" xml:space="preserve">
<style type="text/css">
	.st0{fill:#216EAF;}
</style>
<path class="st0" d="M-465,274.5h12v6h-12V274.5z M-464,279.5h10v-4h-10V279.5z M-465,273.5h12v-1h-12V273.5z M-465,282.5h5v-1h-5
	V282.5z M-465,284.5h3v-1h-3V284.5z M-461,284.6h1v-1h-1V284.6z M-458.1,282.5h5v-1h-5V282.5z M-458.1,284.5h5v-1h-5V284.5z
	 M-449.1,268.5v20h-3.5h-14c-0.8,0-1.4-0.3-1.9-0.8c-0.4-0.5-0.7-1.3-0.7-2.1v-17c0-0.9,0.2-1.6,0.7-2.2c0.4-0.6,1.1-0.9,1.9-0.9h12
	c1.2,0,2,0.2,2.6,0.6c0.6,0.4,0.9,0.9,0.9,1.5v0.9H-449.1z M-451,270.5h-14v-2h12v-1h-13.4c-0.4,0-0.6,0.4-0.6,1.1v17
	c0,0.6,0.2,0.9,0.6,0.9h15.5V270.5z"/>
</svg>
