<?xml version="1.0" encoding="utf-8"?>
<!-- Generator: Adobe Illustrator 19.0.0, SVG Export Plug-In . SVG Version: 6.00 Build 0)  -->
<svg version="1.1" id="Layer_1" xmlns="http://www.w3.org/2000/svg" xmlns:xlink="http://www.w3.org/1999/xlink" x="0px" y="0px"
	 viewBox="-463 264.5 32 32" style="enable-background:new -463 264.5 32 32;" xml:space="preserve">
<style type="text/css">
	.st0{fill:#2170B0;}
</style>
<g>
	<path class="st0" d="M-443.7,284l-3.2-5.1l1.7-1.1l3.2,5.1L-443.7,284z M-446.8,284.7l-2.7-4.2l1.7-1.1l2.7,4.2L-446.8,284.7z
		 M-450.4,284.6l-1.6-2.5l1.7-1.1l1.6,2.5L-450.4,284.6z"/>
	<path class="st0" d="M-436,281.5v-2v-9v-2h5v2v9v2H-436z M-433,270.5h-1v9h1V270.5z M-463,279.5v-9v-2h5v2v9v2h-5V279.5z
		 M-460,279.5v-9h-1v9H-460z"/>
	<path class="st0" d="M-446,269.5l6.3,9.9l1.7-0.9h2v2h-2l-1,0.5v1.5l-12,3l-5-5h-2v-2h2l5,5l10.9-2.7l-5.9-9.3l-4,2l-2-2v-2l1.2-1
		h-1.2l-4,3h-2v-2h2l4-3h3.6l2.4-2h2l6,5h2v2h-2l-6-5h-2l-2,1.7v0.3h-0.4l-2.5,2.1l0.9,0.9L-446,269.5z"/>
</g>
</svg>
