<?xml version="1.0" encoding="utf-8"?>
<!-- Generator: Adobe Illustrator 19.0.0, SVG Export Plug-In . SVG Version: 6.00 Build 0)  -->
<svg version="1.1" id="Layer_1" xmlns="http://www.w3.org/2000/svg" xmlns:xlink="http://www.w3.org/1999/xlink" x="0px" y="0px"
	 viewBox="-465 265 32 32" style="enable-background:new -465 265 32 32;" xml:space="preserve">
<style type="text/css">
	.st0{fill:#2170B0;}
	.st1{fill:#216EAF;}
</style>
<g>
	<path class="st0" d="M-448.6,279.5v-0.9c0.7,0,1.2-0.3,1.6-0.7c0.4-0.4,0.7-0.9,0.7-1.5c0-0.3,0-0.5-0.1-0.8
		c-0.1-0.2-0.1-0.4-0.2-0.6c-0.1-0.2-0.2-0.3-0.4-0.5c-0.2-0.2-0.3-0.3-0.5-0.5c-0.2-0.1-0.4-0.3-0.6-0.5l-0.7-0.5
		c-0.3-0.2-0.5-0.4-0.6-0.6c-0.1-0.2-0.2-0.4-0.2-0.7c0-0.2,0.1-0.3,0.2-0.5c0.1-0.1,0.3-0.2,0.5-0.2c0.4,0,0.6,0.3,0.6,0.9
		c0,0.1,0,0.2,0,0.4l2-0.3v-0.2c0-0.6-0.2-1.1-0.7-1.6c-0.4-0.4-1-0.6-1.6-0.7v-1h-0.5v1.1c-0.7,0.1-1.3,0.3-1.7,0.7
		c-0.4,0.4-0.6,1-0.6,1.7c0,0.2,0,0.5,0.1,0.7c0.1,0.2,0.1,0.4,0.2,0.5c0.1,0.2,0.2,0.3,0.4,0.5c0.2,0.2,0.3,0.3,0.4,0.4
		c0.1,0.1,0.3,0.2,0.5,0.4l0.6,0.5c0,0,0.1,0.1,0.2,0.2c0.1,0.1,0.2,0.2,0.2,0.2c0,0,0.1,0.1,0.2,0.2c0.1,0.1,0.2,0.1,0.2,0.2
		c0,0.1,0.1,0.1,0.1,0.2c0,0.1,0.1,0.2,0.1,0.2c0,0.1,0,0.2,0,0.3c0,0.4-0.2,0.7-0.6,0.7c-0.1,0-0.2,0-0.3-0.1
		c-0.1-0.1-0.2-0.1-0.2-0.2c0-0.1-0.1-0.2-0.1-0.3c0-0.1,0-0.2-0.1-0.3c0-0.1,0-0.2,0-0.3v-0.3l-2,0.4c0,0.4,0,0.7,0.1,1
		c0.1,0.3,0.2,0.6,0.4,0.8c0.2,0.2,0.4,0.4,0.7,0.6c0.3,0.2,0.7,0.2,1.1,0.3v0.9H-448.6z"/>
	<rect x="-452" y="281" class="st1" width="6" height="2"/>
	<path class="st1" d="M-450,280v-2h2v2H-450z M-450,268h2v2h-2V268z"/>
	<path class="st0" d="M-441,285v2h-16v-2h-7v-2v-14v-2h7v-2h16v2h7v2v14v2H-441z M-462,269v14h5v-14H-462z M-443,283v-14v-2h-12v2
		v14v2h12V283z M-436,269h-5v14h5V269z"/>
</g>
</svg>
