<?xml version="1.0" encoding="utf-8"?>
<!-- Generator: Adobe Illustrator 19.0.0, SVG Export Plug-In . SVG Version: 6.00 Build 0)  -->
<svg version="1.1" id="Layer_1" xmlns="http://www.w3.org/2000/svg" xmlns:xlink="http://www.w3.org/1999/xlink" x="0px" y="0px"
	 viewBox="-477.3 265 32 32" style="enable-background:new -477.3 265 32 32;" xml:space="preserve">
<style type="text/css">
	.st0{fill:#216EAF;}
</style>
<path class="st0" d="M-469.2,268.6c0.5-1,1.1-1.7,1.7-2.1c0.6-0.4,1.3-0.8,2.1-1c0.8-0.2,1.4-0.4,1.7-0.4c0.3,0,0.6-0.1,0.7-0.1v3.5
	c-0.7,0-1.2,0.1-1.7,0.4c-0.5,0.3-0.8,0.5-1,0.8c-0.2,0.3-0.4,0.7-0.5,1.1c-0.1,0.4-0.2,0.7-0.2,0.8c0,0.1,0,0.3,0,0.4h3.5v7h-7v-7
	C-470,270.7-469.7,269.5-469.2,268.6z M-454.2,268.9c-0.5,0.3-0.8,0.5-1,0.8c-0.2,0.3-0.4,0.7-0.5,1.1c-0.1,0.4-0.2,0.7-0.2,0.8
	c0,0.1,0,0.3,0,0.4h3.5v7h-7v-7c0-1.3,0.3-2.5,0.8-3.4c0.5-1,1.1-1.7,1.7-2.1c0.6-0.4,1.3-0.8,2.1-1c0.8-0.2,1.4-0.4,1.7-0.4
	c0.3,0,0.6-0.1,0.7-0.1v3.5C-453.2,268.5-453.7,268.6-454.2,268.9z"/>
</svg>
