<svg xmlns="http://www.w3.org/2000/svg" width="251" height="84" viewBox="0 0 251 84">
  <defs>
    <style>
      .cls-1 {
        fill: #cdcdcd;
        fill-rule: evenodd;
      }
    </style>
  </defs>
  <path id="search-skin-dark" class="cls-1" d="M-2-2H253V86H-2V-2ZM0,0H251V84H0V0ZM184.686,55.823l-1.414,1.414-1.858-1.858a4.612,4.612,0,0,1-2.289.624,4.686,4.686,0,1,1,3.784-1.958ZM179.117,48.4a2.947,2.947,0,1,0,2.948,2.948A2.948,2.948,0,0,0,179.117,48.4ZM55,39H197V65H55V39Zm2,2H195V63H57V41ZM238.243,19.826l-1.415,1.415L234,18.413l-2.829,2.828-1.414-1.415L232.585,17l-2.828-2.828,1.414-1.415L234,15.584l2.828-2.828,1.415,1.415L235.414,17Zm-1.415-7.071,1.415,1.415-7.072,7.071-1.414-1.415Zm-5.657,0,7.072,7.071-1.415,1.415-7.071-7.071ZM0,0H251V84H0V0Z"/>
</svg>
