<?xml version="1.0" encoding="utf-8"?>
<!-- Generator: Adobe Illustrator 19.2.0, SVG Export Plug-In . SVG Version: 6.00 Build 0)  -->
<svg version="1.1" id="Layer_1" xmlns="http://www.w3.org/2000/svg" xmlns:xlink="http://www.w3.org/1999/xlink" x="0px" y="0px"
	 viewBox="0 0 17.5 17.5" style="enable-background:new 0 0 17.5 17.5;" xml:space="preserve">
<style type="text/css">
	.st0{fill:none;}
	.st1{fill:#216EAF;}
</style>
<g>
	<path class="st0" d="M7.4,2.7c-1.3,0-2.5,0.5-3.3,1.4C3.2,5,2.7,6.2,2.7,7.4c0,1.2,0.5,2.4,1.4,3.3c0.9,0.9,2.1,1.4,3.3,1.4
		c1.2,0,2.4-0.5,3.3-1.4c0.9-0.9,1.4-2.1,1.4-3.3c0-1.3-0.5-2.5-1.4-3.3C9.9,3.2,8.7,2.7,7.4,2.7z"/>
	<path class="st1" d="M17.1,15.2L17.1,15.2l-3.6-3.6c0.9-1.2,1.3-2.7,1.3-4.2c0-1-0.2-2-0.6-2.9c-0.3-0.9-0.9-1.7-1.6-2.4
		C12,1.5,11.2,1,10.3,0.6C9.4,0.2,8.4,0,7.4,0c-1,0-2,0.2-2.9,0.6C3.6,0.9,2.8,1.5,2.2,2.2C0.8,3.6,0,5.4,0,7.4c0,1,0.2,2,0.6,2.9
		C1,11.2,1.5,12,2.2,12.7c0.7,0.7,1.5,1.2,2.4,1.6c2.3,1,5,0.7,7.1-0.7l3.6,3.6c0.2,0.3,0.6,0.4,0.9,0.4c0.4,0,0.7-0.1,1-0.4
		c0.3-0.2,0.4-0.6,0.4-0.9C17.5,15.8,17.4,15.5,17.1,15.2z M10.7,10.8c-0.9,0.9-2.1,1.4-3.3,1.4c-1.3,0.1-2.5-0.4-3.3-1.4
		C3.2,9.9,2.7,8.7,2.7,7.4c0-1.3,0.5-2.5,1.4-3.3c0.9-0.9,2.1-1.4,3.3-1.4c1.3,0,2.5,0.5,3.3,1.4c0.9,0.9,1.4,2.1,1.4,3.3
		C12.1,8.7,11.6,9.9,10.7,10.8z"/>
</g>
</svg>
