<?xml version="1.0" encoding="utf-8"?>
<!-- Generator: Adobe Illustrator 19.0.0, SVG Export Plug-In . SVG Version: 6.00 Build 0)  -->
<svg version="1.1" id="Layer_1" xmlns="http://www.w3.org/2000/svg" xmlns:xlink="http://www.w3.org/1999/xlink" x="0px" y="0px"
	 viewBox="-463 265.2 32 32" style="enable-background:new -463 265.2 32 32;" xml:space="preserve">
<style type="text/css">
	.st0{fill:#2170B0;}
	.st1{fill:#216EAF;}
</style>
<g>
	<path class="st0" d="M-460,276.2v-1h3v1H-460z M-463,273.2h6v1h-6V273.2z M-463,271.2h6v1h-6V271.2z M-460,269.2h3v1h-3V269.2z"/>
	<path class="st0" d="M-456,278.2v-2v-9v-2h16v2v9v2H-456z M-442,267.2h-12v9h12V267.2z"/>
	<path class="st1" d="M-431,275.2v5c0,0.7,0,2,0,2s-2.3,0-3,0l-0.7,0.3c-0.2,0.7-0.5,1.2-1.1,1.7c-0.6,0.4-1.2,0.7-1.9,0.7
		c-0.7,0-1.4-0.2-1.9-0.7c-0.6-0.4-0.9-1-1.1-1.7h-4.1c-0.2,0.7-0.5,1.2-1.1,1.7c-0.6,0.4-1.2,0.7-1.9,0.7s-1.4-0.2-1.9-0.7
		c-0.6-0.4-0.9-1-1.1-1.7h-0.9c-0.7,0-2.2-0.3-2.2-0.3v-6h12l-0.1-7.8h5.1l2,1L-431,275.2z M-446.3,281.7c0-0.5-0.1-0.8-0.4-1.1
		s-0.7-0.4-1.1-0.4s-0.8,0.1-1.1,0.4s-0.4,0.7-0.4,1.1s0.1,0.8,0.4,1.1s0.7,0.4,1.1,0.4s0.8-0.1,1.1-0.4S-446.3,282.1-446.3,281.7z
		 M-436.2,281.7c0-0.5-0.1-0.8-0.4-1.1s-0.7-0.4-1.1-0.4c-0.5,0-0.8,0.1-1.1,0.4s-0.4,0.7-0.4,1.1s0.1,0.8,0.4,1.1s0.7,0.4,1.1,0.4
		c0.5,0,0.8-0.1,1.1-0.4S-436.2,282.1-436.2,281.7z M-433.1,275.4l-3.9-5.2h-3v8h-12l-0.6,1.9c0,0.5,0.3,0.8,0.8,0.8h0.9
		c0.2-0.7,0.5-1.2,1.1-1.7c0.6-0.4,1.2-0.7,1.9-0.7s1.4,0.2,1.9,0.7c0.6,0.4,0.9,1,1.1,1.7h4.1c0.2-0.7,0.5-1.2,1.1-1.7
		c0.6-0.4,1.2-0.7,1.9-0.7c0.7,0,1.4,0.2,1.9,0.7c0.6,0.4,0.9,1,1.1,1.7l0.7-0.7h1L-433.1,275.4z"/>
</g>
</svg>
