<svg xmlns="http://www.w3.org/2000/svg" width="85" height="14" viewBox="0 0 85 14">
  <defs>
    <style>
      .cls-1 {
        fill: #555d66;
        fill-rule: evenodd;
      }
    </style>
  </defs>
  <path id="Shortcodes" class="cls-1" d="M712.468,282.557a2.882,2.882,0,0,0-.873-0.135q-0.791,0-.791.428a0.5,0.5,0,0,0,.255.416,6.926,6.926,0,0,0,1.116.521,5.2,5.2,0,0,1,1.125.58,1.723,1.723,0,0,1,.528.621,1.916,1.916,0,0,1,.17.838,1.8,1.8,0,0,1-.7,1.535,3.454,3.454,0,0,1-2.094.528,6.53,6.53,0,0,1-1.219-.1,4.578,4.578,0,0,1-.943-0.284v-1.477a6.212,6.212,0,0,0,1.122.393,4.563,4.563,0,0,0,1.1.158q0.974,0,.973-0.562a0.469,0.469,0,0,0-.129-0.343,1.852,1.852,0,0,0-.445-0.3q-0.317-.166-0.844-0.39a5.273,5.273,0,0,1-1.11-.586,1.63,1.63,0,0,1-.516-0.618,2.043,2.043,0,0,1-.161-0.858,1.558,1.558,0,0,1,.677-1.351,3.3,3.3,0,0,1,1.919-.477,5.454,5.454,0,0,1,2.3.515l-0.539,1.289Q712.9,282.692,712.468,282.557Zm-8.267,3.574a1.588,1.588,0,0,0,1.183.428,4.923,4.923,0,0,0,1.12-.123,5.593,5.593,0,0,0,1.1-.393v1.383a4.229,4.229,0,0,1-1,.349,6.328,6.328,0,0,1-1.3.114,3.38,3.38,0,0,1-2.472-.873,3.306,3.306,0,0,1-.891-2.473,3.635,3.635,0,0,1,.823-2.546,2.935,2.935,0,0,1,2.277-.9,2.884,2.884,0,0,1,2.162.791,2.994,2.994,0,0,1,.773,2.185v0.868H703.75A1.719,1.719,0,0,0,704.2,286.131Zm2.1-2.379a1.488,1.488,0,0,0-.345-1.022,1.17,1.17,0,0,0-.9-0.361,1.13,1.13,0,0,0-.89.361,1.664,1.664,0,0,0-.369,1.022H706.3Zm-7.546,3.17h-0.077a2.043,2.043,0,0,1-1.857.967,2.125,2.125,0,0,1-1.813-.9,5.019,5.019,0,0,1,.011-5,2.181,2.181,0,0,1,1.849-.9,2.137,2.137,0,0,1,1.887.961h0.058a7.3,7.3,0,0,1-.135-1.307v-2.1h1.793v9.118H699.1Zm0.046-2.4a2.679,2.679,0,0,0-.325-1.512,1.206,1.206,0,0,0-1.057-.457,1.049,1.049,0,0,0-.929.507,2.7,2.7,0,0,0-.331,1.473,2.563,2.563,0,0,0,.334,1.451,1.092,1.092,0,0,0,.955.483,1.213,1.213,0,0,0,1-.4,2.315,2.315,0,0,0,.348-1.354V284.52Zm-8.724,3.369a3.289,3.289,0,0,1-1.664-.413,2.75,2.75,0,0,1-1.108-1.187,4,4,0,0,1-.386-1.805,3.5,3.5,0,0,1,.838-2.5,3.077,3.077,0,0,1,2.355-.89,3.308,3.308,0,0,1,1.664.41,2.734,2.734,0,0,1,1.108,1.178,3.956,3.956,0,0,1,.386,1.8,3.516,3.516,0,0,1-.844,2.5A3.056,3.056,0,0,1,690.074,287.889Zm1.049-4.863a1.345,1.345,0,0,0-2.069,0,2.7,2.7,0,0,0-.316,1.461,2.748,2.748,0,0,0,.319,1.471,1.143,1.143,0,0,0,1.04.5,1.125,1.125,0,0,0,1.029-.495,2.789,2.789,0,0,0,.313-1.474A2.7,2.7,0,0,0,691.123,283.026Zm-6.434-.378a2.5,2.5,0,0,0-.726-0.109q-1.395,0-1.395,1.981,0,1.922,1.395,1.922a3.176,3.176,0,0,0,.955-0.138,3.435,3.435,0,0,0,.879-0.431V287.4a2.883,2.883,0,0,1-.876.381,4.893,4.893,0,0,1-1.117.106q-3.058,0-3.058-3.358a3.579,3.579,0,0,1,.832-2.551,3.119,3.119,0,0,1,2.385-.882,4.548,4.548,0,0,1,2.039.445l-0.528,1.383Q685.053,282.756,684.689,282.648Zm-6.51,5.241a2.007,2.007,0,0,1-1.561-.542,2.359,2.359,0,0,1-.489-1.626v-3.158h-0.856v-0.756l0.984-.6,0.516-1.383h1.143v1.395h1.834v1.342h-1.834v3.158a0.7,0.7,0,0,0,.214.562,0.843,0.843,0,0,0,.565.182,3.87,3.87,0,0,0,1.125-.2v1.33A4.014,4.014,0,0,1,678.179,287.889Zm-4.1-5.121a1.893,1.893,0,0,0-1.333.439,1.587,1.587,0,0,0-.478,1.231v3.334h-1.787v-6.551h1.353l0.264,1.1h0.088a2.461,2.461,0,0,1,.823-0.887,2.028,2.028,0,0,1,1.128-.337,2.829,2.829,0,0,1,.6.053l-0.135,1.675A2.052,2.052,0,0,0,674.084,282.768Zm-8.268,5.121a3.289,3.289,0,0,1-1.664-.413,2.748,2.748,0,0,1-1.107-1.187,3.983,3.983,0,0,1-.387-1.805,3.5,3.5,0,0,1,.838-2.5,3.077,3.077,0,0,1,2.355-.89,3.308,3.308,0,0,1,1.664.41,2.734,2.734,0,0,1,1.108,1.178,3.943,3.943,0,0,1,.386,1.8,3.52,3.52,0,0,1-.843,2.5A3.06,3.06,0,0,1,665.816,287.889Zm1.049-4.863a1.344,1.344,0,0,0-2.068,0,2.7,2.7,0,0,0-.317,1.461,2.748,2.748,0,0,0,.319,1.471,1.143,1.143,0,0,0,1.04.5,1.125,1.125,0,0,0,1.029-.495,2.789,2.789,0,0,0,.313-1.474A2.7,2.7,0,0,0,666.865,283.026Zm-7.436.919q0-1.417-1.054-1.418a1.2,1.2,0,0,0-1.084.51,3.112,3.112,0,0,0-.334,1.653v3.082H655.17v-9.118h1.787v1.858q0,0.216-.041,1.019l-0.041.528h0.093a2.071,2.071,0,0,1,1.9-.961,2.323,2.323,0,0,1,1.752.621,2.469,2.469,0,0,1,.6,1.781v4.272h-1.787v-3.827Zm-8.915-1.719a11.018,11.018,0,0,0,1.152.6,4.586,4.586,0,0,1,1.646,1.152,2.244,2.244,0,0,1,.445,1.415,2.213,2.213,0,0,1-.835,1.828,3.627,3.627,0,0,1-2.323.668,5.457,5.457,0,0,1-2.426-.516v-1.687a10.213,10.213,0,0,0,1.468.545,4.37,4.37,0,0,0,1.1.158,1.558,1.558,0,0,0,.917-0.229,0.78,0.78,0,0,0,.319-0.679,0.757,0.757,0,0,0-.14-0.449,1.608,1.608,0,0,0-.414-0.378,10.592,10.592,0,0,0-1.11-.58,5.263,5.263,0,0,1-1.178-.709,2.675,2.675,0,0,1-.627-0.791,2.256,2.256,0,0,1-.234-1.054,2.212,2.212,0,0,1,.771-1.787,3.2,3.2,0,0,1,2.129-.651,5.05,5.05,0,0,1,1.275.158,8.749,8.749,0,0,1,1.268.446L653.13,281.1a8.466,8.466,0,0,0-1.133-.393,3.662,3.662,0,0,0-.882-0.111,1.167,1.167,0,0,0-.791.24,0.791,0.791,0,0,0-.276.627,0.778,0.778,0,0,0,.112.419A1.231,1.231,0,0,0,650.514,282.226ZM638,290v-2h3V278h-3v-2h5v14h-5Zm-9,0V276h5v2h-3v10h3v2h-5Z" transform="translate(-629 -276)"/>
</svg>
