<?xml version="1.0" encoding="utf-8"?>
<!-- Generator: Adobe Illustrator 19.2.0, SVG Export Plug-In . SVG Version: 6.00 Build 0)  -->
<svg version="1.1" id="Layer_1" xmlns="http://www.w3.org/2000/svg" xmlns:xlink="http://www.w3.org/1999/xlink" x="0px" y="0px"
	 viewBox="0 0 19.2 20.8" style="enable-background:new 0 0 19.2 20.8;" xml:space="preserve">
<style type="text/css">
	.st0{fill:none;}
	.st1{fill:#216EAF;}
</style>
<g>
	<path class="st0" d="M2.4,16c-0.2,0-0.4,0.1-0.6,0.2c0,0,0,0,0,0c-0.3,0.3-0.3,0.8,0,1.1c0.1,0.2,0.3,0.3,0.6,0.2
		c0.2,0,0.4-0.1,0.6-0.2c0,0,0,0,0,0c0.3-0.3,0.3-0.8,0-1.1C2.8,16.1,2.6,16,2.4,16z"/>
	<path class="st0" d="M16,8h-4.4c0.1-0.7,0.3-1.4,0.6-2c0.3-0.6,0.5-1.3,0.6-2c0-0.6-0.1-1.3-0.4-1.8c-0.4-0.5-1-0.7-1.6-0.6
		c-0.2,0.3-0.4,0.7-0.5,1.1c-0.1,0.5-0.2,1-0.4,1.6c-0.1,0.5-0.4,1-0.7,1.4C9,5.8,8.7,6.2,8.2,6.7L7.9,7.1C7.8,7.3,7.6,7.5,7.5,7.6
		C7.4,7.7,7.3,7.9,7.1,8.1C7,8.3,6.8,8.5,6.6,8.7L6.1,9.1C6,9.3,5.8,9.4,5.6,9.5C5.5,9.6,5.3,9.6,5.2,9.6H4.8v8h0.4
		c0.1,0,0.2,0,0.4,0c0.1,0,0.3,0,0.4,0.1c0.2,0.1,0.3,0.1,0.5,0.1c0.2,0,0.3,0.1,0.4,0.2c0.1,0.1,0.3,0.1,0.4,0.2
		c0.1,0,0.2,0.1,0.4,0.1c1.4,0.5,2.8,0.8,4.3,0.9h1.5c1.6,0,2.4-0.7,2.4-2.1c0-0.2,0-0.5,0-0.7c0.3-0.2,0.5-0.4,0.6-0.7
		c0.1-0.3,0.2-0.6,0.2-0.9c0-0.3-0.1-0.6-0.2-0.8c0.4-0.4,0.7-0.9,0.6-1.5c0-0.2,0-0.5-0.1-0.7c0-0.2-0.2-0.4-0.3-0.6
		c0.3-0.1,0.6-0.3,0.7-0.6c0.2-0.3,0.3-0.7,0.3-1c0-0.4-0.2-0.8-0.5-1.1C16.8,8.2,16.4,8,16,8z"/>
	<path class="st1" d="M18.6,11.6c0.4-0.6,0.6-1.3,0.6-2c0-0.8-0.3-1.7-0.9-2.2v0c-0.6-0.6-1.4-0.9-2.3-0.9h-2.2
		c0.4-0.7,0.6-1.6,0.6-2.4c0-0.8-0.1-1.6-0.4-2.3c-0.3-0.6-0.7-1-1.3-1.3C12.1,0.1,11.4,0,10.8,0c-0.4,0-0.8,0.2-1.1,0.5
		C9.3,0.8,9,1.3,8.9,1.8C8.7,2.3,8.6,2.9,8.5,3.4c0,0.4-0.2,0.7-0.4,1.1c-0.4,0.4-0.9,1-1.3,1.6C6.2,6.8,5.7,7.4,5,8H1.6
		C1.2,8,0.8,8.2,0.5,8.5C0.2,8.8,0,9.2,0,9.6v8c0,0.9,0.7,1.6,1.6,1.6h3.6c0.6,0.1,1.2,0.3,1.7,0.5c1,0.3,1.9,0.6,2.7,0.8
		c0.8,0.2,1.6,0.3,2.4,0.3h1.6c1,0,2-0.3,2.8-1c0.7-0.7,1.1-1.7,1.1-2.8c0.5-0.6,0.7-1.4,0.7-2.2c0-0.2,0-0.4,0-0.5
		c0.3-0.6,0.5-1.2,0.5-1.8C18.7,12.2,18.6,11.9,18.6,11.6z M3,17.3C3,17.3,3,17.3,3,17.3c-0.2,0.2-0.4,0.3-0.6,0.3
		c-0.2,0-0.4-0.1-0.6-0.2c-0.3-0.3-0.3-0.8,0-1.1c0,0,0,0,0,0C2,16.1,2.2,16,2.4,16c0.2,0,0.4,0.1,0.6,0.2C3.3,16.5,3.3,17,3,17.3z
		 M17.3,10.6c-0.1,0.3-0.4,0.5-0.7,0.6c0.2,0.2,0.3,0.4,0.3,0.6c0.1,0.2,0.1,0.5,0.1,0.7c0,0.6-0.2,1.1-0.6,1.5
		c0.1,0.3,0.2,0.6,0.2,0.8c0,0.3-0.1,0.6-0.2,0.9c-0.1,0.3-0.3,0.5-0.6,0.7c0,0.2,0,0.5,0,0.7c0,1.4-0.8,2.1-2.4,2.1H12
		c-1.5-0.1-2.9-0.4-4.3-0.9c-0.1-0.1-0.2-0.1-0.4-0.1c-0.2,0-0.3-0.1-0.4-0.2c-0.1-0.1-0.3-0.1-0.4-0.2c-0.2,0-0.3-0.1-0.5-0.1
		c-0.1,0-0.3-0.1-0.4-0.1c-0.2,0-0.3,0-0.4,0H4.8v-8h0.4c0.2,0,0.3,0,0.4-0.1C5.8,9.4,6,9.3,6.1,9.1l0.5-0.4C6.8,8.5,7,8.3,7.1,8.1
		c0.2-0.2,0.3-0.4,0.4-0.5c0.1-0.1,0.2-0.3,0.4-0.5l0.3-0.4c0.4-0.6,0.8-0.9,1-1.1c0.4-0.4,0.6-0.9,0.7-1.4c0.1-0.6,0.3-1.1,0.4-1.6
		c0.1-0.4,0.2-0.8,0.5-1.1c0.6-0.1,1.2,0.1,1.6,0.6c0.3,0.6,0.4,1.2,0.4,1.8c0,0.7-0.2,1.4-0.6,2c-0.3,0.6-0.5,1.3-0.6,2H16
		c0.4,0,0.8,0.2,1.1,0.5c0.3,0.3,0.5,0.7,0.5,1.1C17.6,9.9,17.5,10.3,17.3,10.6z"/>
</g>
</svg>
