<?xml version="1.0" encoding="utf-8"?>
<!-- Generator: Adobe Illustrator 19.0.0, SVG Export Plug-In . SVG Version: 6.00 Build 0)  -->
<svg version="1.1" id="Layer_1" xmlns="http://www.w3.org/2000/svg" xmlns:xlink="http://www.w3.org/1999/xlink" x="0px" y="0px"
	 viewBox="-463.3 265.4 32 32" style="enable-background:new -463.3 265.4 32 32;" xml:space="preserve">
<style type="text/css">
	.st0{fill:#216EAF;}
</style>
<path class="st0" d="M-461.8,272.5v5.3c-0.8-0.7-1.2-1.6-1.2-2.7C-463,274.1-462.6,273.2-461.8,272.5L-461.8,272.5z M-459.4,271.6
	h0.3v7h-0.3c-0.5,0-0.8,0-1-0.1v-6.7C-460,271.7-459.7,271.6-459.4,271.6L-459.4,271.6z M-456.5,269.9v8.8h-1.3v-6.6
	c0.1,0.1,0.2,0.1,0.3,0.1C-457.4,271.3-457.1,270.6-456.5,269.9L-456.5,269.9z M-453.8,268v10.7h-1.4v-10
	C-454.7,268.3-454.3,268.1-453.8,268L-453.8,268z M-452.1,267.7c0.4,0,0.6,0,0.8,0.1v10.9h-1.3v-10.9H-452.1z M-448.6,267.7v10.9h-2
	v-10.7c0.4,0.1,0.9,0.3,1.4,0.5C-448.9,268.1-448.7,267.8-448.6,267.7L-448.6,267.7z M-447.9,267c1.2-1.1,2.7-1.6,4.4-1.6
	c1.7,0,3.2,0.6,4.5,1.7c1.3,1.1,2,2.6,2.2,4.2c0.5-0.2,1-0.3,1.5-0.3c1,0,1.9,0.4,2.6,1.1c0.7,0.8,1.1,1.7,1.1,2.7
	c0,2.4-1.3,3.7-3.8,3.8h-12.5V267L-447.9,267z"/>
</svg>
