<?xml version="1.0" encoding="utf-8"?>
<!-- Generator: Adobe Illustrator 19.0.0, SVG Export Plug-In . SVG Version: 6.00 Build 0)  -->
<svg version="1.1" id="Layer_1" xmlns="http://www.w3.org/2000/svg" xmlns:xlink="http://www.w3.org/1999/xlink" x="0px" y="0px"
	 viewBox="-471 265 32 32" style="enable-background:new -471 265 32 32;" xml:space="preserve">
<style type="text/css">
	.st0{fill:#216EAF;}
</style>
<path class="st0" d="M-443,284.9l-1,0.4c-0.1,0.1-0.6,0.3-1.3,0.5c-0.8,0.3-1.9,0.5-3.5,0.8c-1.6,0.3-3.1,0.4-4.6,0.4
	c-1.5,0-3.1-0.1-4.7-0.4c-1.6-0.3-2.7-0.5-3.5-0.8c-0.8-0.3-1.2-0.4-1.3-0.5l-1-0.4l0.4-0.9c0.2-0.4,0.3-0.8,0.6-1.1
	c-1.9-0.4-2.9-0.7-3-0.9l-1-0.4l0.4-0.9c1.2-2.7,3.3-4.5,6.4-5.3c-1.4-1.2-2.1-3.2-2.1-5.9c0-1.5,0.5-2.7,1.5-3.4
	c1-0.8,2-1.1,3.2-1.1c1.2,0,2.3,0.4,3.2,1.2c0.4-0.1,0.8-0.1,1-0.1c1.2,0,2.4,0.4,3.5,1.2c1.1,0.8,1.7,2.1,1.7,3.9
	c0,3.1-0.8,5.3-2.4,6.6c1.5,0.5,2.9,1.3,4.2,2.3c1.4,1,2.4,2.3,3,3.8L-443,284.9z M-450.7,269.5c-0.3-0.5-0.6-0.8-1-0.9
	c-0.4-0.2-0.7-0.3-1-0.4c-0.3-0.1-0.5-0.1-0.7-0.1c-0.2,0-0.5,0-0.7,0.1c-0.3,0.1-0.6,0.2-1,0.4c-0.4,0.2-0.7,0.5-1,0.9
	c-0.3,0.5-0.4,1-0.4,1.7c0,1.7,0.3,3.1,0.8,4.1s1.3,1.5,2.3,1.5c1,0,1.7-0.5,2.3-1.5c0.6-1,0.8-2.4,0.8-4.1
	C-450.3,270.5-450.5,270-450.7,269.5z M-458.3,267.1c-0.2,0-0.5,0.1-0.8,0.3c-0.3,0.1-0.6,0.4-0.8,0.8c-0.2,0.4-0.3,0.9-0.3,1.4
	c0,2.7,0.7,4.2,2,4.6c-0.2-0.8-0.3-1.8-0.3-3c0-1.8,0.6-3.1,1.9-4c-0.3-0.1-0.6-0.2-0.9-0.2C-457.9,267-458.1,267-458.3,267.1z
	 M-459,277.1c-0.6,0.1-1.4,0.4-2.5,1c-1.1,0.6-2,1.4-2.7,2.4c1,0.3,2,0.5,3.2,0.7c1.5-1.4,3.3-2.4,5.6-2.9c-0.6-0.3-1.1-0.7-1.5-1.2
	c-0.3-0.1-0.6-0.1-0.7-0.1C-458,277-458.5,277.1-459,277.1z M-445.8,283.8c-0.7-1.1-1.6-2-2.7-2.9c-1.2-0.8-2.2-1.3-3.2-1.6
	c-0.9-0.2-1.5-0.2-1.8-0.2l-1.1,0.1c-0.7,0.1-1.6,0.3-2.8,0.8s-2.1,1.1-3,1.9c-0.7,0.8-1.1,1.4-1.3,1.9c2.6,0.8,5.3,1.2,8.1,1.2
	C-450.9,285-448.4,284.6-445.8,283.8L-445.8,283.8z"/>
</svg>
