<?xml version="1.0" encoding="utf-8"?>
<!-- Generator: Adobe Illustrator 19.0.0, SVG Export Plug-In . SVG Version: 6.00 Build 0)  -->
<svg version="1.1" id="Layer_1" xmlns="http://www.w3.org/2000/svg" xmlns:xlink="http://www.w3.org/1999/xlink" x="0px" y="0px"
	 viewBox="-472.5 265.5 32 32" style="enable-background:new -472.5 265.5 32 32;" xml:space="preserve">
<style type="text/css">
	.st0{fill:#216EAF;}
</style>
<path class="st0" d="M-445.9,266.4c0.6,0.6,0.9,1.3,0.9,2.1v11c0,0.8-0.3,1.5-0.9,2.1c-0.6,0.6-1.3,0.9-2.1,0.9h-8l-9,6v-6
	c-0.7,0-1.4-0.1-2-0.4c-0.6-0.3-1-0.8-1-1.6v-12c0-0.8,0.3-1.5,0.9-2.1c0.6-0.6,1.3-0.9,2.1-0.9h17
	C-447.2,265.5-446.5,265.8-445.9,266.4z M-447,268.5c0-0.3-0.1-0.5-0.3-0.7c-0.2-0.2-0.4-0.3-0.7-0.3h-17c-0.3,0-0.5,0.1-0.7,0.3
	c-0.2,0.2-0.3,0.4-0.3,0.7v11c0,0.3,0.1,0.5,0.3,0.7c0.2,0.2,0.4,0.3,0.7,0.3h2v5l6-5h9c0.3,0,0.5-0.1,0.7-0.3
	c0.2-0.2,0.3-0.4,0.3-0.7V268.5z M-464,272.5h12v-2h-12V272.5z M-464,274.5h15v-1h-15V274.5z M-464,276.5h15v-1h-15V276.5z
	 M-464,278.5h8v-1h-8V278.5z"/>
</svg>
