<?xml version="1.0" encoding="UTF-8"?> <svg xmlns="http://www.w3.org/2000/svg" xmlns:xlink="http://www.w3.org/1999/xlink" id="Layer_35" height="512" viewBox="0 0 64 64" width="512"><linearGradient id="SVGID_1_" gradientUnits="userSpaceOnUse" x1="32" x2="32" y1="63" y2="1"><stop offset="0" stop-color="#9f2fff"></stop><stop offset="1" stop-color="#0bb1d3"></stop></linearGradient><path d="m48.883 18.686.217 1.988c-.67.073-1.347.134-2.029.183l-.143-1.995c.657-.047 1.309-.106 1.955-.176zm1.941-.254.301 1.978c.683-.104 1.356-.222 2.016-.354l-.393-1.961c-.629.125-1.272.238-1.924.337zm3.823-.769.496 1.938c.68-.174 1.341-.365 1.981-.572l-.616-1.903c-.6.194-1.222.374-1.861.537zm-3.823 16.769.301 1.978c.683-.104 1.356-.222 2.016-.354l-.393-1.961c-.629.125-1.272.238-1.924.337zm-3.895.43.143 1.995c.682-.049 1.358-.11 2.029-.183l-.217-1.988c-.647.07-1.299.129-1.955.176zm7.718-1.199.496 1.938c.68-.174 1.341-.365 1.981-.572l-.616-1.903c-.6.194-1.222.374-1.861.537zm8.353-24.663v24c0 5.15-10.123 7.949-19.743 7.998-2.519 4.753-7.513 8.002-13.257 8.002-3.008 0-5.806-.899-8.157-2.429l-1.929 1.929 1.5 1.5-11.464 11.464c-.991.991-2.307 1.536-3.707 1.536-2.891 0-5.243-2.352-5.243-5.243 0-1.4.545-2.717 1.536-3.707l11.464-11.464 1.5 1.5 1.929-1.929c-1.53-2.351-2.429-5.149-2.429-8.157 0-5.743 3.248-10.737 8-13.256v-11.744c0-5.196 10.305-8 20-8s20 2.804 20 8zm-44.414 41-4.586-4.586-10.05 10.05c-.613.613-.95 1.427-.95 2.293 0 1.788 1.455 3.243 3.243 3.243.866 0 1.68-.337 2.293-.95zm1.643-4.643c-.567-.489-1.097-1.019-1.586-1.586l-1.729 1.729 1.586 1.586zm22.771-11.357c0-7.168-5.832-13-13-13s-13 5.832-13 13 5.832 13 13 13 13-5.832 13-13zm18-1v-4.365c-3.131 2.596-9.524 4.079-16.053 4.322.024.346.053.691.053 1.043 0 1.747-.316 3.418-.867 4.979 9.992-.217 16.867-3.244 16.867-5.979zm0-8v-4.36c-3.463 2.851-10.892 4.36-18 4.36-.353 0-.701-.027-1.054-.034 1.323 1.745 2.286 3.777 2.744 5.997 9.65-.321 16.31-3.338 16.31-5.963zm0-8v-4.36c-3.463 2.851-10.892 4.36-18 4.36s-14.537-1.509-18-4.36v7.235c1.567-.556 3.245-.875 5-.875 3.873 0 7.395 1.488 10.06 3.906.97.056 1.954.094 2.94.094 10.608 0 18-3.162 18-6zm0-8c0-2.838-7.392-6-18-6s-18 3.162-18 6 7.392 6 18 6 18-3.162 18-6zm-4 0c0 3.888-12.567 4-14 4s-14-.112-14-4 12.567-4 14-4 14 .112 14 4zm-2.055 0c-.717-.767-5.016-2-11.945-2s-11.228 1.233-11.945 2c.717.767 5.016 2 11.945 2s11.228-1.233 11.945-2zm-53.945 0c0-4.411 3.589-8 8-8h4c4.411 0 8 3.589 8 8v8h-12c-4.411 0-8-3.589-8-8zm2 0c0 3.309 2.691 6 6 6h10v-6c0-3.309-2.691-6-6-6h-4c-3.309 0-6 2.691-6 6zm60 41c0 3.86-3.14 7-7 7h-6c-3.86 0-7-3.14-7-7v-7h13c3.86 0 7 3.14 7 7zm-2 0c0-2.757-2.243-5-5-5h-11v5c0 2.757 2.243 5 5 5h6c2.757 0 5-2.243 5-5zm-44-39h-2v-6h-2v6h-2v-4h-2v4h-2v-6h-2v8h12zm24 23c0 6.065-4.935 11-11 11s-11-4.935-11-11 4.935-11 11-11 11 4.935 11 11zm-11-9c-1.652 0-3.197.455-4.529 1.236 1.399 1.924 5.94 3.905 12.926 4.552-1.297-3.379-4.567-5.788-8.397-5.788zm0 18c2.385 0 4.55-.939 6.162-2.458-8.057-1.103-13.162-3.983-13.162-7.542v-4.644c-1.248 1.545-2 3.508-2 5.644 0 4.962 4.038 9 9 9zm9-9c0-.396-.034-.783-.084-1.165-6.287-.494-11.299-2.049-13.916-4.224v4.389c0 2.127 4.438 4.805 12.656 5.707.847-1.372 1.344-2.98 1.344-4.707zm10 13h-2v2h2zm4 0h-2v2h2zm-6 6h12v-2h-12zm10-6h-2v2h2z" fill="url(#SVGID_1_)"></path></svg> 