<?xml version="1.0" encoding="UTF-8"?> <svg xmlns="http://www.w3.org/2000/svg" xmlns:xlink="http://www.w3.org/1999/xlink" id="Layer_35" height="512" viewBox="0 0 64 64" width="512"><linearGradient id="SVGID_1_" gradientUnits="userSpaceOnUse" x1="32" x2="32" y1="63" y2="1"><stop offset="0" stop-color="#9f2fff"></stop><stop offset="1" stop-color="#0bb1d3"></stop></linearGradient><path d="m10 23.753c0 5.571 2.088 10.887 5.879 14.97l5.251 5.654c.188.203.348.432.511.658-1.484.181-2.641 1.434-2.641 2.965 0 .771.301 1.468.78 2-.48.532-.78 1.229-.78 2 0 1.451 1.035 2.663 2.406 2.94 1.306 4.712 5.641 8.06 10.594 8.06s9.288-3.348 10.594-8.06c1.371-.277 2.406-1.489 2.406-2.94 0-.771-.301-1.468-.78-2 .48-.532.78-1.229.78-2 0-1.531-1.157-2.784-2.641-2.964.163-.226.322-.455.511-.658l5.251-5.655c3.791-4.082 5.879-9.399 5.879-14.97v-.753c0-12.127-9.869-21.993-22-21.994-12.131 0-22 9.867-22 21.994zm22 37.247c-3.841 0-7.225-2.462-8.478-6h16.955c-1.252 3.538-4.636 6-8.477 6zm10-8h-20c-.552 0-1-.449-1-1s.448-1 1-1h20c.552 0 1 .449 1 1s-.448 1-1 1zm1-5c0 .551-.448 1-1 1h-20c-.552 0-1-.449-1-1s.448-1 1-1h20c.552 0 1 .449 1 1zm-1.595-4.982c-.543.584-.978 1.262-1.352 1.982h-16.107c-.374-.721-.809-1.398-1.352-1.983l-5.251-5.654c-.108-.117-.201-.244-.307-.363h29.925c-.105.119-.198.246-.306.362zm-2.405-20.018h6v12h-6zm-2 12h-2v-8h-6v8h-2v-22h10zm-4 0h-2v-6h2zm-8 0h-6v-12h6zm-13-12c0-11.024 8.972-19.993 20-19.994 11.028 0 20 8.97 20 19.994v.753c0 4.053-1.233 7.947-3.485 11.247h-1.515v-14h-8v-10h-14v10h-8v14h-1.516c-2.251-3.3-3.484-7.194-3.484-11.247zm19-6h-2v-2h2zm4 0h-2v-2h2zm-4 4h-2v-2h2zm4 0h-2v-2h2zm-4 4h-2v-2h2zm4 0h-2v-2h2zm-7.127-17.474-.5-1.937c.604-.156 1.221-.283 1.832-.377l.305 1.977c-.547.084-1.097.198-1.637.337zm3.297-.505-.104-1.997c.622-.032 1.254-.031 1.874 0l-.102 1.997c-.554-.028-1.117-.029-1.668 0zm4.963.506c-.536-.139-1.085-.252-1.634-.337l.305-1.977c.614.094 1.231.222 1.833.378zm19.867-4.527h-2v-2h2zm-2 2h2v2h-2zm2 0v-2h2v2zm-2 0h-2v-2h2zm0 36h-2v-2h2zm-2 4v-2h2v2zm2-2v-2h2v2zm-2-2v2h-2v-2zm9-14h-2v-2h2zm-2 2h2v2h-2zm2-2h2v2h-2zm-2 0v2h-2v-2zm-50-19h-2v-2h2zm-2 2h2v2h-2zm2 0v-2h2v2zm-2 0h-2v-2h2zm-2 11h-2v-2h2zm-2 2h2v2h-2zm2 0v-2h2v2zm-2 0h-2v-2h2zm7 14h-2v-2h2zm-2 4v-2h2v2zm2-2v-2h2v2zm-2-2v2h-2v-2z" fill="url(#SVGID_1_)"></path></svg> 