<?xml version="1.0" encoding="UTF-8"?> <svg xmlns="http://www.w3.org/2000/svg" xmlns:xlink="http://www.w3.org/1999/xlink" id="Layer_35" height="512" viewBox="0 0 64 64" width="512"><linearGradient id="SVGID_1_" gradientUnits="userSpaceOnUse" x1="32" x2="32" y1="63" y2="1"><stop offset="0" stop-color="#9f2fff"></stop><stop offset="1" stop-color="#0bb1d3"></stop></linearGradient><path d="m39 11h-2v-2h2zm-4-2h-2v2h2zm-10 10h2v-2h-2zm4-2v2h2v-2zm8 8v2h2v-2zm-4 2h2v-2h-2zm-8 8h2v-2h-2zm6-2h-2v2h2zm-20-16h-2v2h2zm4 0h-2v2h2zm-6 18h2v-2h-2zm4-2v2h2v-2zm50-19v28c0 2.757-2.243 5-5 5h-8c0 .023-.003.046-.003.069 3.941.493 7.003 3.858 7.003 7.931 0 4.411-3.589 8-8 8h-34c-4.411 0-8-3.589-8-8 0-4.139 3.16-7.554 7.195-7.959.003-.013.004-.027.006-.041h-8.201c-2.757 0-5-2.243-5-5v-28c0-2.757 2.243-5 5-5h11v-3c0-2.757 2.243-5 5-5h20c2.757 0 5 2.243 5 5v3h11c2.757 0 5 2.243 5 5zm-6 9h-10v6h10zm-10 8v6h10v-6zm10-16h-10v6h10zm-38-9v34.343c.628-.362 1.297-.658 2-.878v-32.465c0-1.103.897-2 2-2h18c1.103 0 2 .897 2 2v29.105c.707.326 1.375.717 2 1.168v-31.273c0-1.654-1.346-3-3-3h-20c-1.654 0-3 1.346-3 3zm19 29c1.038 0 2.039.146 3 .395v-4.395h-18v8.052c.329-.033.663-.052 1-.052 1.492 0 2.951.35 4.285.984 2.182-3.013 5.719-4.984 9.715-4.984zm3-28h-18v6h18zm-18 14h18v-6h-18zm0 8h18v-6h-18zm-6-14h-10v6h10zm-10 14h10v-6h-10zm0 8h10v-6h-10zm-2 7.816v-29.816c0-1.103.897-2 2-2h10v-2h-11c-1.654 0-3 1.346-3 3v28c0 1.302.839 2.402 2 2.816zm9.835.184c.517-1.188 1.257-2.248 2.165-3.137v-2.863h-10v6zm34.165 4c-3.309 0-6 2.691-6 6h-2c0-4.071 3.059-7.434 6.997-7.93 0-.024.003-.047.003-.07 0-5.514-4.486-10-10-10s-10 4.486-10 10h-2c0-1.905.458-3.702 1.252-5.303-1.019-.454-2.125-.697-3.252-.697-3.739 0-6.912 2.564-7.767 6.105 3.826.596 6.767 3.904 6.767 7.895h-2c0-3.309-2.691-6-6-6s-6 2.691-6 6 2.691 6 6 6h34c3.309 0 6-2.691 6-6s-2.691-6-6-6zm8-4v-6h-10v.089c1.442 1.638 2.441 3.668 2.819 5.911zm4-31c0-1.654-1.346-3-3-3h-11v2h10c1.103 0 2 .897 2 2v29.816c1.161-.414 2-1.514 2-2.816zm-6 3h-2v2h2zm-4 2v-2h-2v2zm4 14h-2v2h2zm-4 2v-2h-2v2zm-7.062 11.142 1.98-.283c-.559-3.911-3.963-6.859-7.918-6.859-.776 0-1.545.111-2.285.331l.57 1.918c.555-.165 1.132-.249 1.715-.249 2.967 0 5.52 2.21 5.938 5.142zm-28.938 12.858h2v-2h-2zm4 0h2v-2h-2zm4 0h2v-2h-2z" fill="url(#SVGID_1_)"></path></svg> 