<?xml version="1.0" encoding="UTF-8"?> <svg xmlns="http://www.w3.org/2000/svg" xmlns:xlink="http://www.w3.org/1999/xlink" id="Layer_35" height="512" viewBox="0 0 64 64" width="512"><linearGradient id="SVGID_1_" gradientUnits="userSpaceOnUse" x1="32" x2="32" y1="63" y2="1"><stop offset="0" stop-color="#9f2fff"></stop><stop offset="1" stop-color="#0bb1d3"></stop></linearGradient><path d="m54 15c-.425 0-.848.035-1.267.094-1.385-7.992-8.352-14.094-16.733-14.094-8.263 0-15.306 5.973-16.727 14.029-4.624.371-8.273 4.253-8.273 8.971 0 1.436.349 2.826.994 4.086-2.384 1.387-3.994 3.963-3.994 6.914 0 2.78 1.427 5.231 3.585 6.665-6.123 1.89-10.585 7.6-10.585 14.335v2c0 2.757 2.243 5 5 5h13.791 1.709 9.5v-7c0-1.026-.114-2.039-.319-3.032.108.007.21.032.319.032h7.98l-.8 4h-1.18c-2.206 0-4 1.794-4 4v2h20v-2c0-2.206-1.794-4-4-4h-1.18l-.8-4h7.98c2.757 0 5-2.243 5-5v-14c0-.982-.295-1.892-.786-2.666 2.36-1.676 3.786-4.389 3.786-7.334 0-4.962-4.038-9-9-9zm-44 20c0-3.309 2.691-6 6-6s6 2.691 6 6-2.691 6-6 6-6-2.691-6-6zm13.737-2h2.364c-.066.323-.101.658-.101 1v10.848c-1.626-1.463-3.53-2.54-5.602-3.172 2.168-1.434 3.602-3.889 3.602-6.676 0-.692-.097-1.359-.263-2zm-12.037 15.365-2.082-1.041-.47-2.351c.343-.214.696-.412 1.06-.594zm.158.423 2.7 7.212h-.097l-3.6-4.22zm5.584 7.212 2.7-7.212.997 2.992-3.6 4.22zm2.858-7.635 1.498-4.001c.361.18.715.376 1.058.59l-.474 2.37zm-.36-4.743-3.94 10.526-3.943-10.532c1.245-.398 2.568-.616 3.943-.616 1.36 0 2.682.224 3.94.622zm-.149 17.378h-13.791c-1.654 0-3-1.346-3-3v-2c0-3.857 1.698-7.316 4.374-9.699l.475 2.375 1.662.831-.905 2.713 3.226 3.78h-5.832v2h15.5c.827 0 1.5.673 1.5 1.5s-.673 1.5-1.5 1.5zm9.209-5v5h-4.351c.218-.456.351-.961.351-1.5 0-1.93-1.57-3.5-3.5-3.5h-1.332l3.226-3.78-.904-2.713 1.662-.831.475-2.377c.488.435.949.904 1.373 1.417v.284c0 1.822.99 3.403 2.45 4.277.359 1.204.55 2.453.55 3.723zm22 5h-16c0-1.103.897-2 2-2h12c1.103 0 2 .897 2 2zm-10.78-4 1.6-8h2.36l1.6 8zm17.78-9c0 1.654-1.346 3-3 3h-8.38l-.8-4h-5.64l-.8 4h-8.38c-1.654 0-3-1.346-3-3v-14c0-1.654 1.346-3 3-3h24c1.654 0 3 1.346 3 3zm-.198-18.138c-.8-.543-1.764-.862-2.802-.862h-24c-1.627 0-3.061.793-3.974 2h-4.108c-1.386-2.387-3.964-4-6.918-4-.747 0-1.468.111-2.155.303-.545-1.013-.845-2.137-.845-3.303 0-3.859 3.139-6.999 7.002-6.999h.002l1.014.024.111-.895c.933-7.485 7.326-13.13 14.871-13.13 8.271 0 15 6.729 15 15 0 1.945-.367 3.838-1.09 5.625l1.854.75c.82-2.026 1.236-4.171 1.236-6.375 0-.309-.03-.61-.046-.915.345-.052.694-.085 1.046-.085 3.86 0 7 3.14 7 7 0 2.391-1.216 4.576-3.198 5.862zm-30.302-16.862c-2.481 0-4.5 2.019-4.5 4.5v9.5h2v-4h5v4h2v-9.5c0-2.481-2.019-4.5-4.5-4.5zm-2.5 8v-3.5c0-1.378 1.122-2.5 2.5-2.5s2.5 1.122 2.5 2.5v3.5zm13-8h-4v14h2v-6h2c2.206 0 4-1.794 4-4s-1.794-4-4-4zm0 6h-2v-4h2c1.103 0 2 .897 2 2s-.897 2-2 2zm5-6h6v2h-2v10h2v2h-6v-2h2v-10h-2zm11 34h2v2h-2zm0-4h2v2h-2zm0-4h2v2h-2z" fill="url(#SVGID_1_)"></path></svg> 