<?xml version="1.0" encoding="UTF-8"?> <svg xmlns="http://www.w3.org/2000/svg" xmlns:xlink="http://www.w3.org/1999/xlink" id="Layer_35" height="512" viewBox="0 0 64 64" width="512"><linearGradient id="SVGID_1_" gradientUnits="userSpaceOnUse" x1="32" x2="32" y1="63" y2="1"><stop offset="0" stop-color="#9f2fff"></stop><stop offset="1" stop-color="#0bb1d3"></stop></linearGradient><path d="m36.237 17.822c-.531-.53-1.236-.822-1.986-.822h-.133c-1.07 0-2.033.595-2.513 1.553-.137.276-.415.447-.723.447h-.133c-.216 0-.419-.084-.572-.236l-.939-.941c-.154-.154-.238-.356-.238-.573v-.132c0-.309.171-.586.447-.724.958-.478 1.553-1.441 1.553-2.512v-.132c0-.751-.293-1.457-.823-1.986l-1.763-1.764c-1.291-1.289-3.537-1.29-4.828 0l-1.393 1.392c-.758.759-1.193 1.81-1.193 2.977 0 .555.111 1.095.33 1.605 1.867 4.357 5.23 7.924 9.47 10.044l1.104.552c.563.281 1.193.43 1.822.43 1.089 0 2.113-.424 2.882-1.194l1.392-1.391c.645-.645 1-1.502 1-2.415s-.355-1.77-1-2.414zm.349 5.178-1.393 1.392c-.618.618-1.611.78-2.396.389l-1.104-.552c-3.817-1.909-6.845-5.12-8.526-9.043-.11-.26-.167-.535-.167-.912 0-.546.222-1.082.607-1.468l1.393-1.391c.268-.268.622-.415 1-.415s.732.147 1 .414l1.763 1.764c.153.153.237.355.237.572v.132c0 .309-.171.586-.447.724-.958.478-1.553 1.441-1.553 2.512v.132c0 .751.293 1.457.823 1.986l.939.941c.532.531 1.237.823 1.987.823h.133c1.07 0 2.033-.595 2.513-1.553.137-.276.415-.447.723-.447h.133c.216 0 .419.084.572.237l1.763 1.763c.268.267.414.622.414 1s-.146.733-.414 1zm21.414 2h-9v-19c0-2.757-2.243-5-5-5h-24c-2.757 0-5 2.243-5 5v20c0 2.757 2.243 5 5 5h9v19c0 2.757 2.243 5 5 5h24c2.757 0 5-2.243 5-5v-20c0-2.757-2.243-5-5-5zm-41 1v-20c0-1.654 1.346-3 3-3h24c1.654 0 3 1.346 3 3v20c0 1.654-1.346 3-3 3h-24c-1.654 0-3-1.346-3-3zm44 24c0 1.654-1.346 3-3 3h-24c-1.654 0-3-1.346-3-3v-19h13c2.414 0 4.434-1.721 4.899-4h9.101c1.654 0 3 1.346 3 3zm-22-37h-2c0-1.103-.897-2-2-2v-2c2.206 0 4 1.794 4 4zm4 0h-2c0-3.309-2.691-6-6-6v-2c4.411 0 8 3.589 8 8zm-10 38h26v-18h-26zm13-6c1.21 0 2.387-.294 3.449-.824l5.789 4.824h-18.476l5.789-4.824c1.062.53 2.239.824 3.449.824zm5.176-1.988c.2-.18.392-.371.574-.573l5.25-5.833v11.259zm-.912-1.911c-1.086 1.207-2.64 1.899-4.264 1.899s-3.178-.692-4.264-1.899l-5.491-6.101h19.51zm-10.014 1.338c.182.202.373.393.573.573l-5.823 4.853v-11.259zm-9.25 19.561c0-6.735-4.462-12.445-10.585-14.335 2.158-1.434 3.585-3.885 3.585-6.665 0-4.411-3.589-8-8-8s-8 3.589-8 8c0 2.78 1.427 5.231 3.585 6.665-6.123 1.89-10.585 7.6-10.585 14.335v1h30zm-15-13c.808 0 1.597.08 2.365.221l-2.365 2.365-2.365-2.365c.768-.141 1.557-.221 2.365-.221zm-1.414 4-1.64 1.64-2.502-4.378c.321-.153.648-.294.983-.421zm1.414 1.414 2.026 2.026-2.026 3.545-2.026-3.545zm3.054.226-1.64-1.64 3.159-3.159c.335.126.662.268.983.421zm-9.054-13.64c0-3.309 2.691-6 6-6s6 2.691 6 6-2.691 6-6 6-6-2.691-6-6zm-1.291 10.257 5.568 9.743h-6.277v-4h-2v4h-2.962c.31-4.051 2.491-7.578 5.671-9.743zm17.291 9.743v-4h-2v4h-6.277l5.568-9.743c3.18 2.165 5.361 5.693 5.671 9.743z" fill="url(#SVGID_1_)"></path></svg> 