<?xml version="1.0" encoding="UTF-8"?> <svg xmlns="http://www.w3.org/2000/svg" xmlns:xlink="http://www.w3.org/1999/xlink" id="Layer_3" height="512" viewBox="0 0 64 64" width="512"><linearGradient id="SVGID_1_" gradientUnits="userSpaceOnUse" x1="32" x2="32" y1="63" y2="1"><stop offset="0" stop-color="#9f2fff"></stop><stop offset="1" stop-color="#0bb1d3"></stop></linearGradient><path d="m49 28h-34c-1.654 0-3 1.346-3 3s1.346 3 3 3h.448l11.552 18.289v10.711h10v-10.711l11.552-18.289h.448c1.654 0 3-1.346 3-3s-1.346-3-3-3zm-20 33v-8h6v8zm6.449-10h-6.898l-10.736-17h28.371zm13.551-19h-34c-.551 0-1-.448-1-1s.449-1 1-1h34c.551 0 1 .448 1 1s-.449 1-1 1zm-8.461 6.771-1.691-1.068 1.068-1.691 1.691 1.068zm-2.136 3.381-1.691-1.068 1.068-1.691 1.691 1.068zm-2.136 3.382-1.691-1.068 1.068-1.691 1.691 1.068zm-9.601-1.691 1.691-1.068 1.068 1.691-1.691 1.068zm-2.137-3.382 1.691-1.068 1.068 1.691-1.691 1.068zm-2.136-3.382 1.691-1.068 1.068 1.691-1.691 1.068zm40.607-28.079v2c-6.821 0-12.433 5.281-12.959 11.97l2.359-1.77 1.2 1.6-5.6 4.2v-3c0-8.271 6.729-15 15-15zm-51.4 12.2 2.359 1.77c-.526-6.689-6.138-11.97-12.959-11.97v-2c8.271 0 15 6.729 15 15v3l-5.6-4.2zm14.4-11.2v2h-2v-2zm2 2v-2h2v2zm0-4v2h-2v-2zm-2 4h2v2h-2zm10 2v2h-2v-2zm2 2v-2h2v2zm0-4v2h-2v-2zm-2 4h2v2h-2zm19-13v2h-2v-2zm2 2v-2h2v2zm0-4v2h-2v-2zm-2 4h2v2h-2zm-11 3v2h-2v-2zm2 2v-2h2v2zm0-4v2h-2v-2zm-2 4h2v2h-2zm-12-7v2h-2v-2zm2 2v-2h2v2zm0-4v2h-2v-2zm-2 4h2v2h-2zm-2 15v2h-2v-2zm2 2v-2h2v2zm-2-4h2v2h-2zm0 4h2v2h-2zm10 0v2h-2v-2zm2 2v-2h2v2zm0-4v2h-2v-2zm-2 4h2v2h-2zm-20-2v2h-2v-2zm2 2v-2h2v2zm0-4v2h-2v-2zm-2 4h2v2h-2zm-4-16v2h-2v-2zm2 2v-2h2v2zm0-4v2h-2v-2zm-2 4h2v2h-2zm-9-7v2h-2v-2zm2 2v-2h2v2zm0-4v2h-2v-2zm-2 4h2v2h-2z" fill="url(#SVGID_1_)"></path></svg> 