<?xml version="1.0" encoding="UTF-8"?> <svg xmlns="http://www.w3.org/2000/svg" xmlns:xlink="http://www.w3.org/1999/xlink" id="Layer_5" height="512" viewBox="0 0 64 64" width="512"><linearGradient id="SVGID_1_" gradientUnits="userSpaceOnUse" x1="32" x2="32" y1="63" y2="1"><stop offset="0" stop-color="#9f2fff"></stop><stop offset="1" stop-color="#0bb1d3"></stop></linearGradient><path d="m27.205 15-3.179 13.775 1.949.45.975-4.225h4.101l.975 4.225 1.949-.45-3.18-13.775zm.206 8 1.384-6h.409l1.384 6zm12.589-8h-4v14h2v-6h2c2.206 0 4-1.794 4-4s-1.794-4-4-4zm0 6h-2v-4h2c1.103 0 2 .897 2 2s-.897 2-2 2zm5-6h6v2h-2v10h2v2h-6v-2h2v-10h-2zm12 4.079c0-.026 0-.052 0-.079 0-6.065-4.935-11-11-11-.677 0-1.346.084-2.006.206-1.855-4.236-6.082-7.206-10.994-7.206-6.617 0-12 5.383-12 12 0 .687.065 1.369.181 2.042-4.58.415-8.181 4.272-8.181 8.958 0 1.875.599 3.71 1.683 5.229l-.096.406c-1.16.333-2.276.795-3.332 1.382l-2.302-1.425-5.363 5.363 1.425 2.302c-.586 1.056-1.049 2.172-1.382 3.332l-2.633.619v7.584l2.634.62c.333 1.16.795 2.276 1.382 3.332l-1.425 2.302 5.363 5.363 2.302-1.425c1.056.586 2.172 1.049 3.332 1.382l.62 2.634h7.584l.62-2.634c1.16-.333 2.276-.795 3.332-1.382l2.302 1.425 5.363-5.363-1.425-2.302c.313-.564.585-1.148.827-1.744h19.189v-1c0-2.757-2.243-5-5-5h-1v-4h11c2.757 0 5-2.243 5-5v-10c0-3.507-2.593-6.42-6-6.921zm-24.272 28.664-.146.595c-.337 1.376-.882 2.689-1.619 3.904l-.318.524 1.229 1.986-3.123 3.123-1.986-1.229-.524.318c-1.214.737-2.528 1.281-3.904 1.619l-.595.146-.534 2.271h-4.416l-.535-2.272-.595-.146c-1.376-.337-2.689-.882-3.904-1.619l-.524-.318-1.986 1.229-3.123-3.123 1.229-1.986-.318-.524c-.737-1.214-1.281-2.528-1.619-3.904l-.146-.595-2.271-.534v-4.416l2.272-.535.146-.595c.337-1.376.882-2.689 1.619-3.904l.318-.524-1.229-1.986 3.123-3.123 1.986 1.229.524-.318c1.214-.737 2.528-1.281 3.904-1.619l.595-.146.534-2.271h4.416l.535 2.272.595.146c1.376.337 2.689.882 3.904 1.619l.524.318 1.986-1.229 3.123 3.123-1.229 1.986.318.524c.736 1.213 1.281 2.527 1.619 3.904l.146.595 2.271.534v4.416zm18.101 1.257h-14.713l.884-.208v-1.792h11c1.304 0 2.416.836 2.829 2zm-5.829-4h-8v-3.792l-.884-.208h8.884zm16-9c0 1.654-1.346 3-3 3h-24.189c-.242-.596-.514-1.18-.827-1.744l1.425-2.302-1.953-1.954h23.544c1.958 0 3.728-.81 5-2.11zm-5-5h-25.544l-1.409-1.409-2.302 1.425c-1.056-.586-2.172-1.049-3.332-1.382l-.621-2.634h-7.095c-.445-.93-.697-1.939-.697-3 0-3.86 3.14-7 7-7 .908 0 1.792.171 2.625.508l.751-1.854c-.687-.278-1.402-.458-2.131-.559-.148-.687-.245-1.385-.245-2.095 0-5.514 4.486-10 10-10s10 4.486 10 10h2c0-.997-.136-1.96-.366-2.887.451-.069.906-.113 1.366-.113 4.962 0 9 4.038 9 9 0 .305-.016.605-.046.902l-.06 1.098h1.106c2.757 0 5 2.243 5 5s-2.243 5-5 5zm1 4h2v2h-2zm-4 0h2v2h-2zm-4 0h2v2h-2zm-30-2c-6.617 0-12 5.383-12 12s5.383 12 12 12 12-5.383 12-12-5.383-12-12-12zm0 22c-5.514 0-10-4.486-10-10s4.486-10 10-10 10 4.486 10 10-4.486 10-10 10zm0-16c-3.309 0-6 2.691-6 6s2.691 6 6 6 6-2.691 6-6-2.691-6-6-6zm0 10c-2.206 0-4-1.794-4-4s1.794-4 4-4 4 1.794 4 4-1.794 4-4 4zm9.074-39.428-1.641-1.144c.268-.385.574-.75.91-1.085 1.511-1.511 3.52-2.343 5.657-2.343s4.146.832 5.657 2.343l-1.414 1.414c-1.134-1.133-2.64-1.757-4.243-1.757s-3.109.624-4.243 1.757c-.252.253-.482.527-.683.815zm-1.074 3.428h-2c0-.776.112-1.545.332-2.285l1.917.57c-.165.555-.249 1.132-.249 1.715z" fill="url(#SVGID_1_)"></path></svg> 