<?xml version="1.0" encoding="UTF-8"?> <svg xmlns="http://www.w3.org/2000/svg" xmlns:xlink="http://www.w3.org/1999/xlink" id="Layer_5" height="512" viewBox="0 0 64 64" width="512"><linearGradient id="SVGID_1_" gradientUnits="userSpaceOnUse" x1="32" x2="32" y1="63" y2="1"><stop offset="0" stop-color="#9f2fff"></stop><stop offset="1" stop-color="#0bb1d3"></stop></linearGradient><path d="m58 43h-19.051c-.209-3.989-1.644-7.651-3.949-10.619v-16.381c0-8.271-6.729-15-15-15s-15 6.729-15 15v16.381c-2.497 3.216-4 7.241-4 11.619 0 10.477 8.523 19 19 19 4.212 0 8.327-1.425 11.643-4h26.357c2.757 0 5-2.243 5-5v-6c0-2.757-2.243-5-5-5zm-38-40c7.168 0 13 5.832 13 13v14.182c-1.201-1.131-2.537-2.119-4-2.909v-11.273c0-4.963-4.038-9-9-9s-9 4.037-9 9v11.273c-1.463.79-2.799 1.778-4 2.909v-14.182c0-7.168 5.832-13 13-13zm7 23.353c-2.169-.864-4.527-1.353-7-1.353s-4.831.489-7 1.353v-10.353c0-3.859 3.14-7 7-7s7 3.141 7 7zm-7 34.647c-9.374 0-17-7.626-17-17s7.626-17 17-17c9.036 0 16.427 7.092 16.949 16h-1.983c-.516-7.807-7.031-14-14.966-14-4.141 0-7.996 1.65-10.855 4.647-2.857 2.995-4.323 6.929-4.128 11.076.377 8.006 7.132 14.277 15.379 14.277h7.579c-2.442 1.296-5.184 2-7.975 2zm41-7c0 1.654-1.346 3-3 3h-37.604c-7.177 0-13.054-5.434-13.38-12.37-.169-3.597 1.101-7.006 3.577-9.602 2.477-2.597 5.818-4.028 9.407-4.028 7.168 0 13 5.832 13 13v1h25c1.654 0 3 1.346 3 3zm-41-21c-3.86 0-7 3.141-7 7 0 2.288 1.136 4.437 3 5.738v9.262h8v-9.262c1.864-1.302 3-3.45 3-5.738 0-3.859-3.14-7-7-7zm2.499 11.325-.499.289v8.386h-4v-8.386l-.499-.289c-1.543-.893-2.501-2.551-2.501-4.325 0-2.757 2.243-5 5-5s5 2.243 5 5c0 1.774-.958 3.432-2.501 4.325zm31.501 2.675h2v2h-2zm-3 3h2v2h-2zm3 3h2v2h-2zm3-3h2v2h-2zm-13-3h2v2h-2zm-3 3h2v2h-2zm3 3h2v2h-2zm3-3h2v2h-2zm-13-3h2v2h-2zm-3 3h2v2h-2zm3 3h2v2h-2zm3-3h2v2h-2z" fill="url(#SVGID_1_)"></path></svg> 