<?xml version="1.0" encoding="UTF-8"?> <svg xmlns="http://www.w3.org/2000/svg" xmlns:xlink="http://www.w3.org/1999/xlink" id="Layer_5" height="512" viewBox="0 0 64 64" width="512"><linearGradient id="SVGID_1_" gradientUnits="userSpaceOnUse" x1="32" x2="32" y1="63" y2="1"><stop offset="0" stop-color="#9f2fff"></stop><stop offset="1" stop-color="#0bb1d3"></stop></linearGradient><path d="m53 1h-.414l-4.63 4.63c-1.316-.897-3.22-.779-4.37.37l-13 13h-29.586v44h48v-33.586l9-9c.352-.352.608-.77.777-1.223l.102.102c.723.723 1.121 1.685 1.121 2.707s-.398 1.984-1.121 2.707l-6.965 6.965c-.59.589-.914 1.373-.914 2.207 0 1.721 1.4 3.121 3.121 3.121.822 0 1.626-.333 2.207-.914l1.379-1.379-1.414-1.414-1.379 1.379c-.209.208-.498.328-.793.328-.618 0-1.121-.503-1.121-1.121 0-.3.116-.581.328-.793l6.965-6.965c1.101-1.1 1.707-2.564 1.707-4.121s-.606-3.021-1.707-4.121l-1.879-1.879 4.586-4.586v-.414c0-5.514-4.486-10-10-10zm-29.481 38.933.549.549c.056.056.124.096.182.15l-2.644 1.763 1.763-2.644c.053.058.093.125.15.182zm1.962-.866-.549-.549c-.601-.601-.932-1.4-.932-2.251 0-.631.185-1.242.535-1.767l4.62-6.931 7.275 7.275-6.931 4.621c-1.231.822-2.97.65-4.018-.398zm3.933-14.067c-.268-.267-.414-.622-.414-1s.146-.733.414-1l9.586-9.586 11.586 11.586-9.586 9.585c-.535.535-1.465.535-2 0zm11-13 1.586-1.586 11.586 11.586-1.586 1.586zm-11.829 9-.585.585c-.645.645-1 1.502-1 2.415 0 .772.268 1.496.736 2.093l-.604.907h-24.132v-6zm18.415 40h-44v-32h22.798l-2.927 4.391c-.569.854-.871 1.848-.871 2.876 0 .534.103 1.048.258 1.543l-3.258 4.887v2.303h2.303l4.887-3.258c.495.154 1.009.258 1.543.258 1.027 0 2.021-.301 2.875-.871l7.298-4.865c.599.469 1.323.736 2.094.736.911 0 1.769-.355 2.414-1l4.586-4.586zm9.586-42-1.586 1.586-11.586-11.586 1.586-1.586c.535-.535 1.465-.533 2 0l9.586 9.586c.268.267.414.622.414 1s-.146.733-.414 1zm.414-4.414-7.586-7.586 3.99-3.99c4.091.204 7.381 3.495 7.586 7.585zm-50 10.414h-2v-2h2zm4 0h-2v-2h2zm4 0h-2v-2h2zm-10 6h2v2h-2zm14 6h-10v-6h2v4h8zm-14-2h2v2h-2zm0 6h2v2h-2zm12 2h-6v16h-2v-18h8zm-12 2h2v2h-2zm0 4h2v2h-2zm0 4h2v2h-2zm0 4h2v2h-2zm14-24h-6v-2h6zm-6 14v-2h4v2zm0 2h12v2h-12zm0 4h12v2h-12zm0 4h12v2h-12zm28.707-8.707 4.707 4.707-4.707 4.707-1.414-1.414 3.293-3.293-3.293-3.293zm-8 1.414-3.293 3.293 3.293 3.293-1.414 1.414-4.707-4.707 4.707-4.707zm3.307-2.872 1.973.329-2 12-1.973-.329zm7.986-7.835h-2v-2h2zm0 4h-2v-2h2zm0 4h-2v-2h2z" fill="url(#SVGID_1_)"></path></svg> 