<?xml version="1.0" encoding="UTF-8"?> <svg xmlns="http://www.w3.org/2000/svg" xmlns:xlink="http://www.w3.org/1999/xlink" height="496pt" viewBox="0 0 496 496" width="496pt"><linearGradient id="a" gradientUnits="userSpaceOnUse" x1="248" x2="248" y1="496" y2="0"><stop offset="0" stop-color="#9f2fff"></stop><stop offset="1" stop-color="#0bb1d3"></stop></linearGradient><path d="m296 144v-16c22.054688 0 40-17.945312 40-40s-17.945312-40-40-40v-16c30.878906 0 56 25.121094 56 56s-25.121094 56-56 56zm88-56c0-48.519531-39.480469-88-88-88v16c39.695312 0 72 32.304688 72 72s-32.304688 72-72 72v16c48.519531 0 88-39.480469 88-88zm-184-40v-16c-30.878906 0-56 25.121094-56 56s25.121094 56 56 56v-16c-22.054688 0-40-17.945312-40-40s17.945312-40 40-40zm0 128v-16c-39.695312 0-72-32.304688-72-72s32.304688-72 72-72v-16c-48.519531 0-88 39.480469-88 88s39.480469 88 88 88zm296 240c0 26.472656-21.527344 48-48 48h-112.542969c-23.664062 19.9375-54.160156 32-87.457031 32-72.289062 0-131.414062-56.734375-135.59375-128h-64.40625c-26.472656 0-48-21.527344-48-48 0-24.519531 18.488281-44.769531 42.246094-47.625 6.832031-23.734375 28.464844-40.375 53.753906-40.375 4.96875 0 9.855469.648438 14.601562 1.9375 11.621094-25.386719 36.972657-41.9375 65.398438-41.9375 13.960938 0 27.296875 3.992188 38.769531 11.359375l7.710938-96.113281c-4.199219-5.535156-6.480469-12.246094-6.480469-19.246094 0-17.648438 14.351562-32 32-32s32 14.351562 32 32c0 7-2.28125 13.710938-6.488281 19.257812l9.761719 121.550782c34.519531 9.296875 63.574218 31.800781 81.480468 61.808594 6.238282-1.738282 12.6875-2.617188 19.246094-2.617188 39.695312 0 72 32.304688 72 72 0 2.894531-.199219 5.785156-.542969 8.640625 22.925781 3.597656 40.542969 23.429687 40.542969 47.359375zm-142.398438.929688-10.410156-18.210938c-2.367187-4.144531-6.800781-6.71875-11.574218-6.71875h-22.289063c-7.34375 0-13.328125 5.984375-13.328125 13.335938 0 9.183593-4.382812 17.960937-11.726562 23.472656l-14.9375 11.191406c-3.34375 2.503906-5.335938 6.496094-5.335938 10.664062v28.136719c38.742188-5.191406 71.71875-28.824219 89.601562-61.871093zm-97.601562-176.523438v16.273438c0 11.59375 6.175781 22.496093 16.121094 28.464843 14.726562 8.839844 23.878906 25 23.878906 42.183594v8.671875c0 4.40625 3.59375 8 8 8s8-3.59375 8-8v-5.054688c0-14.378906 6.265625-27.992187 17.175781-37.351562l11.441407-9.808594c-20.425782-24.785156-50.625-41.121094-84.617188-43.378906zm-24-152.40625c0 4.113281 1.601562 8.039062 4.496094 11.0625l2.496094 2.59375-9.953126 123.824219c6.21875-.871094 12.511719-1.480469 18.960938-1.480469s12.742188.609375 18.960938 1.480469l-9.945313-123.824219 2.496094-2.59375c2.886719-3.023438 4.488281-6.949219 4.488281-11.0625 0-8.824219-7.175781-16-16-16s-16 7.175781-16 16zm-184 264h64.40625c3.472656-59.214844 44.898438-108.273438 100.320312-123.199219l.519532-6.527343c-10.269532-9.195313-23.351563-14.273438-37.246094-14.273438-24.238281 0-45.609375 15.488281-53.175781 38.527344l-2.746094 8.359375-8.0625-3.527344c-5.09375-2.230469-10.488281-3.359375-16.015625-3.359375-16.769531 0-31.230469 10.273438-37.136719 25.289062 21.25 4.941407 37.136719 23.984376 37.136719 46.710938h-16c0-17.648438-14.351562-32-32-32s-32 14.351562-32 32 14.351562 32 32 32zm136 109.328125v-38.273437c0-17.238282 10.992188-32.496094 27.351562-37.941407l11.207032-3.738281c5.648437-1.878906 9.441406-7.136719 9.441406-13.078125v-10.496094c0-7.617187-6.183594-13.800781-13.792969-13.800781h-4.414062c-16.433594 0-29.792969-13.359375-29.792969-29.792969 0-4.101562-1.808594-7.96875-4.960938-10.597656l-23.703124-19.753906c-17.070313 20.730469-27.335938 47.257812-27.335938 76.144531 0 42.632812 22.40625 80.039062 56 101.328125zm64 18.671875v-29.335938c0-9.183593 4.382812-17.960937 11.726562-23.472656l14.9375-11.199218c3.34375-2.496094 5.335938-6.488282 5.335938-10.65625 0-16.175782 13.160156-29.335938 29.335938-29.335938h22.289062c10.496094 0 20.253906 5.664062 25.464844 14.785156l4.4375 7.773438c4.128906-12.125 6.472656-25.0625 6.472656-38.558594 0-23.160156-6.703125-44.726562-18.113281-63.078125l-10.292969 8.820313c-7.371094 6.3125-11.59375 15.496093-11.59375 25.203124v5.054688c0 13.230469-10.769531 24-24 24s-24-10.769531-24-24v-8.671875c0-11.59375-6.175781-22.496094-16.121094-28.464844-14.726562-8.847656-23.878906-25.007812-23.878906-42.191406v-16.273437c-28.351562 1.882812-53.992188 13.617187-73.59375 31.859374l22.875 19.0625c6.816406 5.671876 10.71875 14.015626 10.71875 22.886719 0 7.609375 6.183594 13.792969 13.792969 13.792969h4.414062c16.433594 0 29.792969 13.359375 29.792969 29.792969v10.496093c0 12.839844-8.183594 24.199219-20.367188 28.261719l-11.21875 3.738281c-9.820312 3.277344-16.414062 12.429688-16.414062 22.773438v46.847656c14.710938 6.449219 30.929688 10.089844 48 10.089844zm232-64c0-17.648438-14.351562-32-32-32s-32 14.351562-32 32h-16c0-23.464844 16.9375-43.015625 39.222656-47.160156.464844-2.910156.777344-5.855469.777344-8.839844 0-30.878906-25.121094-56-56-56-3.9375 0-7.808594.449219-11.601562 1.246094 7.410156 16.777344 11.601562 35.273437 11.601562 54.753906 0 33.558594-12.28125 64.257812-32.496094 88h96.496094c17.648438 0 32-14.351562 32-32zm0 0" fill="url(#a)"></path></svg> 