<?xml version="1.0" encoding="UTF-8"?> <svg xmlns="http://www.w3.org/2000/svg" xmlns:xlink="http://www.w3.org/1999/xlink" id="Layer_3" height="512" viewBox="0 0 64 64" width="512"><linearGradient id="SVGID_1_" gradientUnits="userSpaceOnUse" x1="32" x2="32" y1="63" y2="1"><stop offset="0" stop-color="#9f2fff"></stop><stop offset="1" stop-color="#0bb1d3"></stop></linearGradient><path d="m9 30h-2v-2h2zm4-1h-2v2h2zm-6 17h2v-2h-2zm4 1h2v-2h-2zm14-9h2v-2h-2zm-4 1h2v-2h-2zm42-35v12c0 1.654-1.346 3-3 3h-14c-1.654 0-3-1.346-3-3v-5h-1c-1.654 0-3 1.346-3 3v17h4v-3c0-1.654 1.346-3 3-3h6.586l1.121-1.121c.566-.567 1.32-.879 2.121-.879h4.172c1.654 0 3 1.346 3 3v12c0 1.654-1.346 3-3 3h-14c-1.654 0-3-1.346-3-3v-5h-4v17c0 1.654 1.346 3 3 3h1v-3c0-1.654 1.346-3 3-3h6.586l1.121-1.121c.566-.567 1.32-.879 2.121-.879h4.172c1.654 0 3 1.346 3 3v12c0 1.654-1.346 3-3 3h-14c-1.654 0-3-1.346-3-3v-5h-1c-2.757 0-5-2.243-5-5v-17h-4v12c0 3.939-8.049 6-16 6s-16-2.061-16-6v-25c0-3.991 6.879-7 16-7s16 3.009 16 7v11h4v-17c0-2.757 2.243-5 5-5h1v-3c0-1.654 1.346-3 3-3h6.586l1.121-1.121c.566-.567 1.32-.879 2.121-.879h4.172c1.654 0 3 1.346 3 3zm-60 16c0 1.27 1.67 2.615 4.484 3.591-.312-.497-.484-1.029-.484-1.591 0-2.851 4.299-5 10-5s10 2.149 10 5c0 .562-.172 1.094-.484 1.591 2.814-.976 4.484-2.321 4.484-3.591 0-2.365-5.75-5-14-5s-14 2.635-14 5zm14 5c4.884 0 8-1.777 8-3s-3.116-3-8-3-8 1.777-8 3 3.116 3 8 3zm-14 4c0 1.631 5.454 4 14 4s14-2.369 14-4v-5.515c-2.679 2.131-7.821 3.515-14 3.515s-11.321-1.384-14-3.515zm28 16v-4.944c-2.879 1.94-8.459 2.944-14 2.944s-11.121-1.004-14-2.944v4.944c0 1.631 5.454 4 14 4s14-2.369 14-4zm0-8v-4.944c-2.879 1.94-8.459 2.944-14 2.944s-11.121-1.004-14-2.944v4.944c0 1.631 5.454 4 14 4s14-2.369 14-4zm30 23v-7h-16v7c0 .551.448 1 1 1h14c.552 0 1-.449 1-1zm-16-10v1h16v-3c0-.551-.448-1-1-1h-4.172c-.263 0-.521.107-.707.293l-1.707 1.707h-7.414c-.552 0-1 .449-1 1zm16-12v-7h-16v7c0 .551.448 1 1 1h14c.552 0 1-.449 1-1zm-16-10v1h16v-3c0-.551-.448-1-1-1h-4.172c-.263 0-.521.107-.707.293l-1.707 1.707h-7.414c-.552 0-1 .449-1 1zm0-22v1h16v-3c0-.551-.448-1-1-1h-4.172c-.263 0-.521.107-.707.293l-1.707 1.707h-7.414c-.552 0-1 .449-1 1zm16 10v-7h-16v7c0 .551.448 1 1 1h14c.552 0 1-.449 1-1zm-4-1h2v-2h-2zm-4 0h2v-2h-2zm4 22h2v-2h-2zm-4 0h2v-2h-2zm4 22h2v-2h-2zm-4 0h2v-2h-2z" fill="url(#SVGID_1_)"></path></svg> 