<?xml version="1.0" encoding="UTF-8"?> <svg xmlns="http://www.w3.org/2000/svg" xmlns:xlink="http://www.w3.org/1999/xlink" height="496pt" viewBox="0 0 496 496" width="496pt"><linearGradient id="a" gradientUnits="userSpaceOnUse" x1="248" x2="248" y1="496" y2="0"><stop offset="0" stop-color="#9f2fff"></stop><stop offset="1" stop-color="#0bb1d3"></stop></linearGradient><path d="m360 128c13.230469 0 24-10.769531 24-24s-10.769531-24-24-24-24 10.769531-24 24 10.769531 24 24 24zm0-32c4.40625 0 8 3.59375 8 8s-3.59375 8-8 8-8-3.59375-8-8 3.59375-8 8-8zm50.664062 31.703125c3.382813-7.207031 5.335938-15.222656 5.335938-23.703125 0-22.28125-13.113281-41.511719-32-50.519531v-37.480469c0-8.824219-7.175781-16-16-16h-16c-8.824219 0-16 7.175781-16 16v37.480469c-18.886719 9.007812-32 28.238281-32 50.519531 0 8.480469 1.953125 16.496094 5.335938 23.703125l-20.335938 48.296875h-41v-176h-96v176h-16v-106.425781l-40-60-40 60v106.425781h-56v251.3125l68.6875 68.6875h427.3125v-320h-65zm36.457032 127.832031c.582031 1.375.878906 2.839844.878906 4.34375v.882813c0 6.199219-5.039062 11.238281-11.230469 11.238281-4.53125 0-8.59375-2.695312-10.355469-6.863281l-45.917968-109.074219c7.328125-2.894531 13.910156-7.261719 19.359375-12.78125zm.878906 80.464844v80h-96v-80zm-65.113281-133.03125c-14.453125 6.4375-31.320313 6.4375-45.773438 0l18.191407-43.207031c1.550781.132812 3.109374.238281 4.695312.238281s3.144531-.105469 4.695312-.238281zm-30.886719-186.96875h16v32.640625c-2.625-.375-5.28125-.640625-8-.640625s-5.375.265625-8 .640625zm8 48c22.054688 0 40 17.945312 40 40s-17.945312 40-40 40-40-17.945312-40-40 17.945312-40 40-40zm-39.855469 79.28125c5.441407 5.519531 12.023438 9.886719 19.359375 12.78125l-45.929687 109.074219c-1.75 4.167969-5.8125 6.863281-10.34375 6.863281-6.191407 0-11.230469-5.039062-11.230469-11.230469v-.882812c0-1.503907.296875-2.964844.878906-4.351563zm-184.144531 208.71875v-48h-88v-16h48v-8c0-13.230469 10.769531-24 24-24h8v-32h16v72h96v-72h28.792969l-10.65625 25.3125c-1.417969 3.359375-2.136719 6.910156-2.136719 10.566406v.882813c0 11 6.59375 20.445312 16 24.742187v22.945313c-4.726562-2.753907-10.144531-4.449219-16-4.449219-17.648438 0-32 14.351562-32 32s14.351562 32 32 32 32-14.351562 32-32v-48.464844c6.28125-1.109375 11.929688-4.351562 16-9.167968v105.632812h-128v-32zm24 16v16h-112v-64h72v48zm-112-96v-48h64v16.808594c-15.648438 3.183594-28.007812 15.542968-31.191406 31.191406zm112 8v-56h64v56zm112 56c0 8.824219-7.175781 16-16 16s-16-7.175781-16-16 7.175781-16 16-16 16 7.175781 16 16zm-104-320h64v16h-32v16h32v16h-16v16h16v16h-32v16h32v16h-16v16h16v32h-64zm-72 22.425781 17.054688 25.574219h-34.101563zm24 41.574219v96h-16v-96zm-48 0h16v96h-16zm-8 388.6875-36.6875-36.6875h36.6875zm416-276.6875v288h-400v-64h-64v-224h266.265625l-6.738281 16h-243.527344v192h288v-156.390625l10.886719-25.855469c9.167969 4.078125 19.074219 6.246094 29.113281 6.246094s19.945312-2.167969 29.113281-6.246094l22.558594 53.582032c3.632813 8.625 11.335937 14.609374 20.328125 16.199218v32.464844h-96v112h128v-112h-16v-34.496094c9.40625-4.296875 16-13.742187 16-24.742187v-.882813c0-3.65625-.71875-7.207031-2.136719-10.566406l-24.128906-57.3125zm-384 272h176v-48h-176zm144-32h16v16h-16zm-32 0h16v16h-16zm-32 0h16v16h-16zm-32 0h16v16h-16zm-32 0h16v16h-16zm176 16h176v16h-176zm0 0" fill="url(#a)"></path></svg> 