<?xml version="1.0" encoding="UTF-8"?> <svg xmlns="http://www.w3.org/2000/svg" xmlns:xlink="http://www.w3.org/1999/xlink" height="496pt" viewBox="0 0 496 496" width="496pt"><linearGradient id="a" gradientUnits="userSpaceOnUse" x1="248" x2="248" y1="496" y2="0"><stop offset="0" stop-color="#9f2fff"></stop><stop offset="1" stop-color="#0bb1d3"></stop></linearGradient><path d="m248 160c30.878906 0 56-25.121094 56-56s-25.121094-56-56-56-56 25.121094-56 56 25.121094 56 56 56zm0-96c22.054688 0 40 17.945312 40 40 0 19.3125-13.769531 35.472656-32 39.191406v-31.191406h-16v31.191406c-18.230469-3.71875-32-19.871094-32-39.191406 0-22.054688 17.945312-40 40-40zm8 32h-16v-16h16zm240 321.664062c0-18.886718-12.878906-34.953124-31.328125-39.046874l-40.671875-9.03125v-11.691407c14.488281-10.132812 24-26.910156 24-45.886719v-16c0-28.152343-20.902344-51.457031-48-55.359374v-38.054688l-73.929688-29.578125 11.417969-11.414063-11.425781-17.136718c2.304688-4.441406 4.226562-9.074219 5.738281-13.855469l20.199219-4.050781v-45.117188l-20.191406-4.042968c-1.511719-4.78125-3.441406-9.414063-5.738282-13.855469l11.425782-17.136719-31.894532-31.894531-17.136718 11.425781c-4.441406-2.304688-9.074219-4.226562-13.855469-5.738281l-4.050781-20.199219h-45.117188l-4.042968 20.191406c-4.78125 1.511719-9.414063 3.441406-13.855469 5.738282l-17.136719-11.425782-31.894531 31.894532 11.425781 17.136718c-2.304688 4.441406-4.226562 9.074219-5.738281 13.855469l-20.199219 4.050781v45.117188l20.191406 4.042968c1.511719 4.78125 3.441406 9.414063 5.738282 13.855469l-11.425782 17.136719 11.417969 11.414062-73.921875 29.578126v38.054687c-27.097656 3.902344-48 27.207031-48 55.359375v16c0 18.984375 9.511719 35.761719 24 45.886719v11.6875l-40.671875 9.042969c-18.449219 4.101562-31.328125 20.160156-31.328125 39.046874v78.335938h496zm-88-43.863281c-1.984375 3.0625-7.496094 10.199219-16 10.199219s-14.015625-7.144531-16-10.199219v-8.152343c5.070312 1.511718 10.441406 2.351562 16 2.351562s10.929688-.839844 16-2.359375zm24-77.800781v16c0 22.054688-17.945312 40-40 40s-40-17.945312-40-40v-16c0-22.054688 17.945312-40 40-40s40 17.945312 40 40zm-48-82.585938v27.226563c-27.097656 3.902344-48 27.207031-48 55.359375v16c0 18.984375 9.511719 35.761719 24 45.886719v11.6875l-40 8.890625-40-8.890625v-11.6875c14.488281-10.132813 24-26.910157 24-45.886719v-16c0-28.152344-20.902344-51.457031-48-55.359375v-32.640625h14.558594l4.042968-20.191406c4.78125-1.511719 9.414063-3.441406 13.855469-5.738282l17.136719 11.425782 8.167969-8.167969zm-48 266.585938h-176v-62.335938c0-11.335937 7.726562-20.96875 18.792969-23.433593l41.542969-9.230469c4.574218 6.0625 13.671874 15 27.664062 15s23.089844-8.9375 27.664062-14.992188l41.542969 9.230469c11.066407 2.457031 18.792969 12.097657 18.792969 23.425781zm-88-224c22.054688 0 40 17.945312 40 40v16c0 22.054688-17.945312 40-40 40s-40-17.945312-40-40v-16c0-22.054688 17.945312-40 40-40zm0 112c5.558594 0 10.929688-.839844 16-2.359375v8.152344c-1.984375 3.070312-7.496094 10.207031-16 10.207031s-14.015625-7.144531-16-10.199219v-8.152343c5.070312 1.511718 10.441406 2.351562 16 2.351562zm-88-254.558594v-18.882812l17.054688-3.414063 1.242187-4.878906c1.703125-6.707031 4.351563-13.097656 7.863281-19l2.582032-4.335937-9.652344-14.480469 13.351562-13.351563 14.480469 9.65625 4.335937-2.585937c5.902344-3.511719 12.292969-6.167969 19-7.863281l4.878907-1.242188 3.421875-17.0625h18.882812l3.414063 17.054688 4.878906 1.242187c6.707031 1.703125 13.097656 4.351563 19 7.863281l4.335937 2.582032 14.480469-9.652344 13.351563 13.351562-9.65625 14.480469 2.585937 4.335937c3.511719 5.902344 6.167969 12.292969 7.863281 19l1.242188 4.878907 17.0625 3.421875v18.882812l-17.054688 3.414063-1.242187 4.878906c-1.703125 6.707031-4.351563 13.097656-7.863281 19l-2.582032 4.335937 9.652344 14.480469-13.351562 13.351563-14.480469-9.65625-4.335937 2.585937c-5.902344 3.511719-12.292969 6.167969-19 7.863281l-4.878907 1.242188-3.421875 17.0625h-18.882812l-3.414063-17.054688-4.878906-1.242187c-6.707031-1.703125-13.097656-4.351563-19-7.863281l-4.335937-2.582032-14.480469 9.652344-13.351563-13.351562 9.65625-14.480469-2.585937-4.335937c-3.511719-5.902344-6.167969-12.292969-7.863281-19l-1.242188-4.878907zm22.238281 71.878906 8.167969 8.167969 17.136719-11.425781c4.441406 2.304688 9.074219 4.226562 13.855469 5.738281l4.042968 20.199219h14.558594v32.640625c-27.097656 3.902344-48 27.207031-48 55.359375v16c0 18.984375 9.511719 35.761719 24 45.886719v11.6875l-40 8.890625-40-8.890625v-11.6875c14.488281-10.132813 24-26.910157 24-45.886719v-16c0-28.152344-20.902344-51.457031-48-55.359375v-27.226563zm-118.238281 126.679688v-16c0-22.054688 17.945312-40 40-40s40 17.945312 40 40v16c0 22.054688-17.945312 40-40 40s-40-17.945312-40-40zm40 56c5.558594 0 10.929688-.839844 16-2.359375v8.152344c-1.984375 3.070312-7.496094 10.207031-16 10.207031-8.519531 0-14.039062-7.167969-16-10.199219v-8.160156c5.070312 1.519531 10.441406 2.359375 16 2.359375zm-88 49.664062c0-11.335937 7.726562-20.96875 18.792969-23.433593l41.542969-9.230469c4.574218 6.0625 13.671874 15 27.664062 15s23.089844-8.9375 27.664062-14.992188l23.359376 5.191407c-6.847657 7.207031-11.023438 16.839843-11.023438 27.464843v62.335938h-128zm464 62.335938h-128v-62.335938c0-10.625-4.175781-20.265624-11.023438-27.472656l23.359376-5.191406c4.574218 6.0625 13.671874 15 27.664062 15s23.089844-8.9375 27.664062-14.992188l41.542969 9.230469c11.066407 2.457031 18.792969 12.097657 18.792969 23.425781zm-80-408h-16v-16h16zm0 48h-16v-16h16zm-16 32h16v16h-16zm48-32h-16v-16h16zm0 48h-16v-16h16zm-16 32h16v16h-16zm-304-128h-16v-16h16zm0 48h-16v-16h16zm-16 32h16v16h-16zm-16-32h-16v-16h16zm0 48h-16v-16h16zm-16 32h16v16h-16zm0 0" fill="url(#a)"></path></svg> 