<svg xmlns="http://www.w3.org/2000/svg" width="48" height="58" viewBox="0 0 48 58">
  <defs>
    <style>
      .cls-1 {
        fill: #3d3d3d;
        fill-rule: evenodd;
      }
    </style>
  </defs>
  <path id="_" data-name="" class="cls-1" d="M396.913,369.151a7.085,7.085,0,0,1,2.084,5.1v39.879a3.25,3.25,0,0,1-2.366,3.4v6.231A1.1,1.1,0,0,1,395.392,425H354.6a1.1,1.1,0,0,1-1.239-1.246v-6.231a3.251,3.251,0,0,1-2.367-3.4V374.249a7.078,7.078,0,0,1,2.085-5.1A6.861,6.861,0,0,1,358.209,367h33.577A6.864,6.864,0,0,1,396.913,369.151Zm-2.648,48.6H355.73v4.872h38.535v-4.872Zm2.366-43.5a4.721,4.721,0,0,0-1.408-3.456,4.67,4.67,0,0,0-3.437-1.416H358.209a4.821,4.821,0,0,0-4.845,4.872v39.879a1.1,1.1,0,0,0,1.239,1.246h40.789a1.1,1.1,0,0,0,1.239-1.246V374.249Zm-3.549-1.416a3.01,3.01,0,0,1,1.183,2.435v24.585a3.008,3.008,0,0,1-1.183,2.436,4.406,4.406,0,0,1-2.873.963H359.786a4.4,4.4,0,0,1-2.873-.963,3.008,3.008,0,0,1-1.183-2.436V375.268a3.01,3.01,0,0,1,1.183-2.435,4.41,4.41,0,0,1,2.873-.963h30.423A4.412,4.412,0,0,1,393.082,372.833Zm-1.3,2.435q0-1.018-1.577-1.019H359.786c-1.053,0-1.577.34-1.577,1.019v24.585c0,0.68.524,1.02,1.577,1.02h30.423q1.576,0,1.577-1.02V375.268Zm-27.605,33.988a1.1,1.1,0,0,1-1.24,1.246h-4.732a1.1,1.1,0,0,1-1.24-1.246,1.051,1.051,0,0,1,1.24-1.133h4.732a1.052,1.052,0,0,1,1.24,1.133h0Zm28.845,0a1.1,1.1,0,0,1-1.24,1.246H379.842a1.1,1.1,0,0,1-1.239-1.246,1.051,1.051,0,0,1,1.239-1.133h11.944a1.052,1.052,0,0,1,1.24,1.133h0Zm-25.24-24.131a1.1,1.1,0,0,1-1.239,1.246,1.051,1.051,0,0,1-1.127-1.246v-4.872a1,1,0,0,1,1.127-1.133,1.052,1.052,0,0,1,1.239,1.133v4.872Zm16.789-4.872v4.872a1.052,1.052,0,0,1-1.127,1.246,1.1,1.1,0,0,1-1.239-1.246v-4.872a1.051,1.051,0,0,1,1.239-1.133,1,1,0,0,1,1.127,1.133h0ZM372.631,390a1.052,1.052,0,0,1,1.127-1.246H375v-6a1.1,1.1,0,0,1,1.239-1.246,1.053,1.053,0,0,1,1.127,1.246V390a1,1,0,0,1-1.127,1.133h-2.479A1,1,0,0,1,372.631,390h0Zm9.664,7.185a3.515,3.515,0,0,0-3.6-3.523h-7.2a3.515,3.515,0,0,0-3.6,3.523,1.037,1.037,0,0,0,1.237,1.1,0.985,0.985,0,0,0,1.125-1.1,1.081,1.081,0,0,1,1.236-1.211h7.2a1.082,1.082,0,0,1,1.237,1.211,0.984,0.984,0,0,0,1.125,1.1,1.038,1.038,0,0,0,1.237-1.1h0Z" transform="translate(-351 -367)"/>
</svg>
