<svg xmlns="http://www.w3.org/2000/svg" width="23" height="36" viewBox="0 0 23 36">
  <defs>
    <style>
      .cls-1 {
        fill: #bbb;
        fill-rule: evenodd;
      }
    </style>
  </defs>
  <path id="reply" class="cls-1" d="M268.283,2114.44a0.768,0.768,0,0,1,1.218,0l7.05,7.01a0.278,0.278,0,0,1,.174.08,0.613,0.613,0,0,1,.174.61h0a0.59,0.59,0,0,1-.174.6,0.249,0.249,0,0,1-.174.09l-7.05,7a0.858,0.858,0,0,1-1.218-1.21l5.657-5.62v-1.73l-5.657-5.61A0.762,0.762,0,0,1,268.283,2114.44ZM254,2094.15v15.72a12.761,12.761,0,0,0,3.864,9.36,12.566,12.566,0,0,0,9.239,3.88,0.91,0.91,0,0,0,0-1.82,10.842,10.842,0,0,1-7.952-3.37,11,11,0,0,1-3.359-8.05v-15.72H254Z" transform="translate(-254 -2094.16)"/>
</svg>
