<svg xmlns="http://www.w3.org/2000/svg" width="23" height="36" viewBox="0 0 23 36">
  <defs>
    <style>
      .cls-1 {
        fill: #bbb;
        fill-rule: evenodd;
      }
    </style>
  </defs>
  <path id="reply_icon" data-name="reply icon" class="cls-1" d="M487.714,2228.29a0.769,0.769,0,0,0-1.219,0l-7.051,7.01a0.28,0.28,0,0,0-.174.08,0.613,0.613,0,0,0-.174.61h0a0.59,0.59,0,0,0,.174.6,0.251,0.251,0,0,0,.174.09l7.051,7a0.859,0.859,0,1,0,1.219-1.21l-5.658-5.62v-1.73l5.658-5.62A0.753,0.753,0,0,0,487.714,2228.29ZM502,2207.99v15.73a12.793,12.793,0,0,1-3.864,9.36,12.57,12.57,0,0,1-9.24,3.88,0.91,0.91,0,0,1,0-1.82,10.88,10.88,0,0,0,7.952-3.37,11.009,11.009,0,0,0,3.36-8.05v-15.73H502Z" transform="translate(-479 -2208)"/>
</svg>
