<svg xmlns="http://www.w3.org/2000/svg" width="26" height="26" viewBox="0 0 26 26">
  <metadata><?xpacket begin="﻿" id="W5M0MpCehiHzreSzNTczkc9d"?>
<x:xmpmeta xmlns:x="adobe:ns:meta/" x:xmptk="Adobe XMP Core 5.6-c142 79.160924, 2017/07/13-01:06:39        ">
   <rdf:RDF xmlns:rdf="http://www.w3.org/1999/02/22-rdf-syntax-ns#">
      <rdf:Description rdf:about=""/>
   </rdf:RDF>
</x:xmpmeta>
                                                                                                    
                                                                                                    
                                                                                                    
                                                                                                    
                                                                                                    
                                                                                                    
                                                                                                    
                                                                                                    
                                                                                                    
                                                                                                    
                                                                                                    
                                                                                                    
                                                                                                    
                                                                                                    
                                                                                                    
                                                                                                    
                                                                                                    
                                                                                                    
                                                                                                    
                                                                                                    
                           
<?xpacket end="w"?></metadata>
<defs>
    <style>
      .cls-1 {
        fill: #3d3d3d;
        fill-rule: evenodd;
      }
    </style>
  </defs>
  <path id="thin_arrow_medium" data-name="thin arrow medium" class="cls-1" d="M681.5,195A11.5,11.5,0,1,1,693,183.5,11.5,11.5,0,0,1,681.5,195Zm0-22A10.5,10.5,0,1,0,692,183.5,10.5,10.5,0,0,0,681.5,173ZM671,193h1v1h-1v-1Zm-1,1h1v1h-1v-1Zm-1,1h1v1h-1v-1Zm-1,1h1v1h-1v-1Zm-1,1h1v1h-1v-1Zm5-4h1v1h-1v-1Zm-1,1h1v1h-1v-1Zm-1,1h1v1h-1v-1Zm-1,1h1v1h-1v-1Zm-1,1h1v1h-1v-1Zm13-19h1v11h-1V178Zm-5,5h11v1H676v-1Z" transform="translate(-667 -172)"/>
</svg>
