<svg xmlns="http://www.w3.org/2000/svg" width="78" height="78" viewBox="0 0 78 78">
  <defs>
    <style>
      .cls-1 {
        fill: #0077a3;
        fill-rule: evenodd;
      }
    </style>
  </defs>
  <path class="cls-1" d="M-2,80V-2H80V80H-2ZM78,0H0V78H78V0ZM11.94,54.832L14.611,62h-1.24l-0.713-1.982H9.929L9.23,62H8l2.671-7.168h1.27Zm0.41,4.18-0.669-1.943q-0.073-.2-0.2-0.615T11.3,55.838a10.942,10.942,0,0,1-.386,1.314l-0.644,1.86h2.08Zm4.922-2.51a1.862,1.862,0,0,1,1.621.786h0.059a6.886,6.886,0,0,1-.083-0.918V54.4h1.152V62h-0.9l-0.2-.708H18.869a1.834,1.834,0,0,1-1.616.806,1.881,1.881,0,0,1-1.577-.733,4.014,4.014,0,0,1,.007-4.123A1.9,1.9,0,0,1,17.273,56.5Zm-0.664,4.2a1.071,1.071,0,0,0,.952.471,1.249,1.249,0,0,0,1.03-.4,2.1,2.1,0,0,0,.332-1.291V59.319a2.421,2.421,0,0,0-.332-1.45,1.232,1.232,0,0,0-1.04-.43,1.055,1.055,0,0,0-.933.491,2.514,2.514,0,0,0-.327,1.4A2.452,2.452,0,0,0,16.608,60.7ZM23.5,56.5a1.862,1.862,0,0,1,1.621.786h0.059A6.869,6.869,0,0,1,25.1,56.37V54.4h1.152V62h-0.9l-0.2-.708H25.1a1.835,1.835,0,0,1-1.616.806,1.881,1.881,0,0,1-1.577-.733,4.013,4.013,0,0,1,.007-4.123A1.9,1.9,0,0,1,23.5,56.5Zm-0.664,4.2a1.071,1.071,0,0,0,.952.471,1.249,1.249,0,0,0,1.03-.4,2.1,2.1,0,0,0,.332-1.291V59.319a2.421,2.421,0,0,0-.332-1.45,1.232,1.232,0,0,0-1.04-.43,1.055,1.055,0,0,0-.933.491,2.515,2.515,0,0,0-.327,1.4A2.451,2.451,0,0,0,22.839,60.7Zm8.94,1.3H30.612V54.861h1.167V62ZM34.6,57.308H34.66a1.5,1.5,0,0,1,.652-0.6,2.1,2.1,0,0,1,.94-0.21,1.642,1.642,0,0,1,1.65.85h0.078a1.645,1.645,0,0,1,.674-0.625,2.139,2.139,0,0,1,1-.225,1.815,1.815,0,0,1,1.409.488A2.163,2.163,0,0,1,41.5,58.48V62H40.354V58.67a1.5,1.5,0,0,0-.237-0.925,0.872,0.872,0,0,0-.735-0.305,1.139,1.139,0,0,0-.979.417,2.152,2.152,0,0,0-.31,1.282V62H36.94V58.67a1.511,1.511,0,0,0-.234-0.925,0.865,0.865,0,0,0-.733-0.305,1.117,1.117,0,0,0-.974.432,2.535,2.535,0,0,0-.31,1.438V62H33.542V56.6h0.9Zm10.63,1.421,0.933-.029V58.411a1.092,1.092,0,0,0-.242-0.774,0.986,0.986,0,0,0-.75-0.256,2.593,2.593,0,0,0-.8.122,6.019,6.019,0,0,0-.733.288l-0.371-.82a4,4,0,0,1,.962-0.349,4.428,4.428,0,0,1,.986-0.12,2.336,2.336,0,0,1,1.555.449,1.759,1.759,0,0,1,.525,1.411V62h-0.82l-0.229-.752H46.213a2.212,2.212,0,0,1-.786.671,2.487,2.487,0,0,1-1.016.178,1.718,1.718,0,0,1-1.243-.43,1.608,1.608,0,0,1-.447-1.216,1.427,1.427,0,0,1,.62-1.26A3.576,3.576,0,0,1,45.231,58.729Zm-1.1,2.293a0.923,0.923,0,0,0,.645.2,1.421,1.421,0,0,0,1-.349,1.266,1.266,0,0,0,.378-0.979V59.422l-0.693.029a2.371,2.371,0,0,0-1.179.271,0.823,0.823,0,0,0-.369.74A0.721,0.721,0,0,0,44.128,61.021ZM32,27.5A2.5,2.5,0,1,1,34.5,30,2.5,2.5,0,0,1,32,27.5ZM17,45V17H59V32H57V19H19V43H47.051C47.018,42.671,47,42.338,47,42a10.078,10.078,0,0,1,.06-1.078L47,41H29l1.117-1H20l11-9,2.611,5.875L48,24l4.315,9.169A10,10,0,1,1,47.459,45H17Zm40,5a8,8,0,1,0-8-8A8,8,0,0,0,57,50ZM56,37h2v4h4v2H58v4H56V43H52V41h4V37ZM49.392,61.59a0.861,0.861,0,0,1-.378-0.315,0.794,0.794,0,0,1-.149-0.457,0.786,0.786,0,0,1,.171-0.513,1.97,1.97,0,0,1,.508-0.415,1.5,1.5,0,0,1-.681-0.588,1.73,1.73,0,0,1-.261-0.954,1.711,1.711,0,0,1,.554-1.362,2.33,2.33,0,0,1,1.58-.483,3.857,3.857,0,0,1,.481.032,3.058,3.058,0,0,1,.379.066h1.87v0.63l-0.923.171a1.493,1.493,0,0,1,.21.42,1.658,1.658,0,0,1,.083.527,1.616,1.616,0,0,1-.576,1.313,2.411,2.411,0,0,1-1.587.479A2.568,2.568,0,0,1,50.2,60.1a0.646,0.646,0,0,0-.371.537,0.3,0.3,0,0,0,.173.278,1.5,1.5,0,0,0,.637.093h0.942a2.1,2.1,0,0,1,1.357.381,1.34,1.34,0,0,1,.464,1.1,1.6,1.6,0,0,1-.757,1.416,3.985,3.985,0,0,1-2.187.5,3.019,3.019,0,0,1-1.684-.391A1.262,1.262,0,0,1,48.2,62.9a1.185,1.185,0,0,1,.315-0.837A1.687,1.687,0,0,1,49.392,61.59Zm0.584-2.461a0.988,0.988,0,0,0,.75.273,0.912,0.912,0,0,0,1-1.064,1.207,1.207,0,0,0-.247-0.813,0.937,0.937,0,0,0-.749-0.286,0.966,0.966,0,0,0-.754.283,1.19,1.19,0,0,0-.256.825A1.086,1.086,0,0,0,49.975,59.129Zm-0.42,4.282a1.837,1.837,0,0,0,.94.2,2.84,2.84,0,0,0,1.4-.269,0.805,0.805,0,0,0,.459-0.713,0.535,0.535,0,0,0-.252-0.5,2.019,2.019,0,0,0-.935-0.149H50.295a1.221,1.221,0,0,0-.784.232,0.76,0.76,0,0,0-.291.627A0.631,0.631,0,0,0,49.555,63.411ZM56.613,56.5a2.225,2.225,0,0,1,1.689.649,2.481,2.481,0,0,1,.62,1.787v0.62h-3.6a1.774,1.774,0,0,0,.425,1.209,1.48,1.48,0,0,0,1.128.422,4.16,4.16,0,0,0,.891-0.09,4.67,4.67,0,0,0,.886-0.3v0.933a3.517,3.517,0,0,1-.85.283,5.2,5.2,0,0,1-.981.083,2.612,2.612,0,0,1-1.97-.735,2.79,2.79,0,0,1-.71-2.024,3.061,3.061,0,0,1,.659-2.08A2.277,2.277,0,0,1,56.613,56.5Zm1.182,2.226a1.5,1.5,0,0,0-.322-1.013,1.1,1.1,0,0,0-.859-0.344,1.153,1.153,0,0,0-.876.347,1.652,1.652,0,0,0-.393,1.011h2.451Zm3.482-3.867h1a6.983,6.983,0,0,0-1.04,2.058,7.674,7.674,0,0,0-.361,2.332,7.463,7.463,0,0,0,.361,2.31,6.972,6.972,0,0,0,1.03,2.022H61.276a5.754,5.754,0,0,1-1.094-1.938,7.369,7.369,0,0,1-.376-2.383,7.566,7.566,0,0,1,.378-2.422A6.018,6.018,0,0,1,61.276,54.861Zm4.116,5.093a6.638,6.638,0,0,0-.747-0.332,3.454,3.454,0,0,1-1.262-.723,1.337,1.337,0,0,1-.33-0.937,1.231,1.231,0,0,1,.559-1.077,2.652,2.652,0,0,1,1.521-.383,4.308,4.308,0,0,1,1.8.386l-0.371.864a4.008,4.008,0,0,0-1.47-.361q-0.908,0-.908.518a0.521,0.521,0,0,0,.237.43,5.208,5.208,0,0,0,1.033.483,4.726,4.726,0,0,1,.972.474,1.418,1.418,0,0,1,.449.5,1.436,1.436,0,0,1,.146.671,1.413,1.413,0,0,1-.576,1.213,2.759,2.759,0,0,1-1.65.422,3.9,3.9,0,0,1-1.733-.327V60.779a4.255,4.255,0,0,0,1.772.44q1.06,0,1.06-.64a0.507,0.507,0,0,0-.117-0.342A1.389,1.389,0,0,0,65.393,59.954Zm2.349-5.093h1a5.991,5.991,0,0,1,1.094,1.985,7.6,7.6,0,0,1,.376,2.414,7.36,7.36,0,0,1-.378,2.393,5.724,5.724,0,0,1-1.091,1.929H67.751a7.008,7.008,0,0,0,1.033-2.026,7.467,7.467,0,0,0,.359-2.3,7.642,7.642,0,0,0-.361-2.332A7.064,7.064,0,0,0,67.741,54.861Z"/>
</svg>
