<svg xmlns="http://www.w3.org/2000/svg" width="251" height="40" viewBox="0 0 251 40">
  <defs>
    <style>
      .cls-1 {
        fill: #cdcdcd;
        fill-rule: evenodd;
      }
    </style>
  </defs>
  <path id="audio-player-dark" class="cls-1" d="M20.3,20.837h0v0.837H19.463v0.837H18.626v0.837H17.789v0.837H16.952v0.837H16.115v0.837H15.278V26.7H14.441V25.859h0V14.978h1.674v0.836h0.837v0.837h0.837v0.837h0.837v0.837h0.837v0.837H20.3V20h0.837v0.837H20.3Zm-5.859-6.7h0.837v0.837H14.441V14.141Zm187.268,7.533v0.837h0.837v0.837h0.837v0.837h0.837v0.837h0.837v0.837h0.837V26.7h0.837V25.859h0V14.978h-1.674v0.836H204.22v0.837h-0.837v0.837h-0.837v0.837h-0.837v0.837h0m0,0.837h0m5.022-5.859h-0.837v0.837h0.837V14.141Zm-7.7,3.348h2.511v5.859h-2.511V17.489Zm-167.96,4.5v-3h157.98v3H31.075ZM234.211,13.3h3.348V25.859h-3.348V13.3Zm-4.185,2.511h3.348V25.859h-3.348V15.814Zm-4.185,2.511h3.348v7.533h-3.348V18.325Zm-4.185,2.512H225v5.022h-3.348V20.837Zm-4.185,2.511h3.348v2.511h-3.348V23.348ZM-2-2H253V42H-2V-2Z"/>
</svg>
