<svg xmlns="http://www.w3.org/2000/svg" width="78" height="78" viewBox="0 0 78 78">
  <defs>
    <style>
      .cls-1 {
        fill: #cdcdcd;
        fill-rule: evenodd;
      }
    </style>
  </defs>
  <path class="cls-1" d="M-2,80V-2H80V80H-2Zm80-80H0V78H78v-78ZM5,5H73V7h0V39H71V38.068h0V7.926h0V7H7V39H5V7H5V5ZM7,39H73v2H5V39H7Zm64,0h0Zm0,0L39,23.462,39.956,23,71,38.068V39h0ZM39,22.533L71,7V7.926L39.956,23ZM38.043,23L7,7.926V7L39,22.533Zm0,0L39,23.462,7,39H7V38.068ZM57,49H5V47H57v2ZM45,61H5V60H45v1ZM9.5,65h12a4.5,4.5,0,0,1,0,9H9.5A4.5,4.5,0,0,1,9.5,65ZM7,69.525A2.475,2.475,0,0,0,9.475,72h12.05A2.475,2.475,0,0,0,24,69.525v-0.05A2.475,2.475,0,0,0,21.525,67H9.475A2.475,2.475,0,0,0,7,69.475v0.05ZM5,52h6v1H5V52Zm14,0v1H13V52h6Zm8,0v1H21V52h6Zm46,5H5V56H73v1Z"/>
</svg>
