<svg xmlns="http://www.w3.org/2000/svg" width="78" height="78" viewBox="0 0 78 78">
  <defs>
    <style>
      .cls-1 {
        fill: #cdcdcd;
        fill-rule: evenodd;
      }
    </style>
  </defs>
  <path class="cls-1" d="M38,53V52H71v1H38Zm0-38H71v1H38V15Zm16-3V11h6v1H54Zm-8,0V11h6v1H46ZM38,6H62V8H38V6ZM5,68H34v2H5V68Zm27-.929h0V45.928h0V45H7V68H5V45H5V43H34v2h0V68H32V67.071ZM18.974,56.5L19.5,56.964,7,68H7V67.071ZM32,68h0Zm0,0h0ZM19.5,56.964l0.526-.464L32,67.07V68Zm0-.929L32,45v0.928L20.026,56.5Zm-0.526.464L7,45.928V45L19.5,56.035ZM5,31H34v2H5V31Zm27-.929h0V8.928h0V8h2V31H32V30.071ZM32,8h0ZM18.974,19.5L7,8.928V8L19.5,19.035ZM7,31H7V30.071L18.974,19.5,19.5,19.964Zm25,0h0ZM19.5,19.964l0.526-.464L32,30.07V31Zm0-.928L32,8V8.928L20.026,19.5ZM32,8h0Zm0,23h0ZM5,31H5V8H7V31H5ZM5,8V6H34V8H5Zm39,4H38V11h6v1Zm7,8H38V19H51v1Zm3,29V48h6v1H54Zm-8,0V48h6v1H46Zm16-4H38V43H62v2ZM44,49H38V48h6v1Zm7,8H38V56H51v1ZM38,27H51v6H38V27Zm0,37H51v6H38V64Zm2-35h9v2H40V29Zm0,37h9v2H40V66Z" transform="translate(1 1)"/>
</svg>
