<svg xmlns="http://www.w3.org/2000/svg" width="78" height="78" viewBox="0 0 78 78">
  <defs>
    <style>
      .cls-1 {
        fill: #cdcdcd;
        fill-rule: evenodd;
      }
    </style>
  </defs>
  <path id="blog-layout-8-right" class="cls-1" d="M80-2H-2V80H80V-2Zm-2,2H0V78H78v-78ZM53,34V33H14v1H53Zm0-12H14v2H53V22Zm-37-.928h0V6.926h0V6H51V22h2V6h0V4H14V6h0V22h2V21.068ZM34.578,14l-1.078.464L51,22h0V21.068Zm-2.156,0L16,21.068V22h0l17.5-7.535ZM16,22h0Zm17.5-8.463L16,6V6.926L32.422,14ZM34.578,14L51,6.926V6L33.5,13.533ZM24,30H53V28H24v2Zm29,7H44v1h9V37Zm0,6H14v2h0V59h2V58.068h0V45.926h0V45H51V59h2V45h0V43ZM51,59H14v2H53V59H51ZM16,59h0Zm0,0,17.5-6.535L32.257,52,16,58.068V59h0Zm17.5-7.463L16,45v0.928L32.257,52ZM34.743,52L51,45.926V45L33.5,51.533Zm0,0-1.243.464L51,59h0V58.068ZM66,51H58v1h8V51Zm0-37H58v1h8V14Zm2-10.01H66v74h2v-74ZM24,67H53V65H24v2ZM14,71H53V70H14v1Zm30,4h9V74H44v1Z"/>
</svg>
