<svg xmlns="http://www.w3.org/2000/svg" width="78" height="78" viewBox="0 0 78 78">
  <defs>
    <style>
      .cls-1 {
        fill: #cdcdcd;
        fill-rule: evenodd;
      }
    </style>
  </defs>
  <path id="blog-layout-8-left" class="cls-1" d="M-2-2H80V80H-2V-2Zm2,2H78V78H0v-78ZM25,34V33H64v1H25Zm0-12H64v2H25V22Zm37-.928h0V6.926h0V6H27V22H25V6h0V4H64V6h0V22H62V21.068ZM43.422,14L44.5,14.461,27,22h0V21.068Zm2.156,0L62,21.068V22h0L44.5,14.461ZM62,22h0ZM44.5,13.533L62,6V6.926L45.578,14ZM43.422,14L27,6.926V6l17.5,7.536ZM54,30H25V28H54v2ZM25,37h9v1H25V37Zm0,6H64v2h0V59H62V58.068h0V45.926h0V45H27V59H25V45h0V43Zm2,16H64v2H25V59h2Zm35,0h0Zm0,0L44.5,52.461,45.743,52,62,58.068V59h0ZM44.5,51.533L62,45v0.928L45.743,52ZM43.257,52L27,45.926V45l17.5,6.535Zm0,0L44.5,52.461,27,59h0V58.068ZM12,51h8v1H12V51Zm0-37h8v1H12V14ZM10,3.987h2v74H10v-74ZM54,67H25V65H54v2Zm10,4H25V70H64v1ZM34,75H25V74h9v1Z"/>
</svg>
