<svg xmlns="http://www.w3.org/2000/svg" width="78" height="78" viewBox="0 0 78 78">
  <defs>
    <style>
      .cls-1 {
        fill: #cdcdcd;
        fill-rule: evenodd;
      }
    </style>
  </defs>
  <path id="Rectangle_7_copy_3" data-name="Rectangle 7 copy 3" class="cls-1" d="M-2,80V-2H80V80H-2Zm80-80H0V78H78v-78ZM6,7H25V9h0V22H23V21.069h0V9.926h0V9H8V22H6V9H6V7ZM8,22H25v2H6V22H8Zm15,0h0Zm0,0-7.5-6.035,0.577-.464L23,21.068V22h0Zm-7.5-6.963L23,9V9.926L16.077,15.5Zm-0.577.464L8,9.926V9l7.5,6.036Zm0,0L15.5,15.961,8,22H8V21.069ZM6,41H25v2h0V56H23V55.069h0V43.926h0V43H8V56H6V43H6V41ZM8,56H25v2H6V56H8Zm15,0h0Zm0,0-7.5-6.035,0.577-.464L23,55.068V56h0Zm-7.5-6.963L23,43v0.928L16.077,49.5Zm-0.577.464L8,43.926V43l7.5,6.036Zm0,0L15.5,49.961,8,56H8V55.069ZM25,64H6V62H25v2Zm0,4H6V67H25v1ZM15,72H6V71h9v1ZM29,7H48V9h0V22H46V21.068h0V9.926h0V9H31V22H29V9h0V7Zm2,15H48v2H29V22h2Zm15,0h0Zm0,0-7.5-6.035,0.577-.464L46,21.068V22h0Zm-7.5-6.963L46,9V9.926L39.077,15.5Zm-0.577.464L31,9.926V9l7.5,6.036Zm0,0L38.5,15.961,31,22h0V21.068ZM29,38V37h9v1H29Zm0-10H48v2H29V28Zm19,6H29V33H48v1ZM29,41H48v2h0V56H46V55.068h0V43.926h0V43H31V56H29V43h0V41Zm2,15H48v2H29V56h2Zm15,0h0Zm0,0-7.5-6.035,0.577-.464L46,55.068V56h0Zm-7.5-6.963L46,43v0.928L39.077,49.5Zm-0.577.464L31,43.926V43l7.5,6.035Zm0,0L38.5,49.961,31,56h0V55.068ZM48,64H29V62H48v2Zm0,4H29V67H48v1ZM38,72H29V71h9v1ZM52,7H71V9h0V22H69V21.068h0V9.926h0V9H54V22H52V9h0V7Zm2,15H71v2H52V22h2Zm15,0h0Zm0,0-7.5-6.035,0.577-.464L69,21.068V22h0Zm-7.5-6.963L69,9V9.926L62.077,15.5Zm-0.577.464L54,9.926V9l7.5,6.036Zm0,0L61.5,15.961,54,22h0V21.068ZM52,41H71v2h0V56H69V55.068h0V43.926h0V43H54V56H52V43h0V41Zm2,15H71v2H52V56h2Zm15,0h0Zm0,0-7.5-6.035,0.577-.464L69,55.068V56h0Zm-7.5-6.963L69,43v0.928L62.077,49.5Zm-0.577.464L54,43.926V43l7.5,6.035Zm0,0L61.5,49.961,54,56h0V55.068ZM71,64H52V62H71v2Zm0,4H52V67H71v1ZM61,72H52V71h9v1ZM52,38V37h9v1H52Zm0-5H71v1H52V33Zm0-5H71v2H52V28ZM6,38V37h9v1H6Zm0-5H25v1H6V33Zm0-5H25v2H6V28Z"/>
</svg>
