<svg xmlns="http://www.w3.org/2000/svg" width="78" height="78" viewBox="0 0 78 78">
  <defs>
    <style>
      .cls-1 {
        fill: #cdcdcd;
        fill-rule: evenodd;
      }
    </style>
  </defs>
  <path id="Rectangle_7_copy_3" data-name="Rectangle 7 copy 3" class="cls-1" d="M-2-2H80V80H-2V-2Zm2,2H78V78H0v-78ZM6,47h9v1H6V47Zm0-4H25v1H6V43Zm23-4h9v1H29V39Zm0-4H48v1H29V35ZM52,54h9v1H52V54Zm0-4H71v1H52V50ZM6,32H25v2H6V32ZM6,7H25V9H6V7ZM6,32V9H8V32H6Zm17,0V9h2V32H23Zm6-8H48v2H29V24ZM29,7H48V9H29V7Zm0,17V9h2V24H29Zm17,0V9h2V24H46Zm6,15H71v2H52V39ZM52,7H71V9H52V7Zm0,32V9h2V39H52Zm17,0V9h2V39H69ZM6,38H25v2H6V38Zm23-8H48v2H29V30ZM52,45H71v2H52V45ZM8,9L23,31.069V32L8,9.926V9ZM23,9L8,31.069V32L23,9.926V9Zm8,0L46,23.069V24L31,9.926V9ZM46,9L31,23.069V24L46,9.926V9Zm8,0L69,38.069V39L54,9.926V9ZM69,9L54,38.069V39L69,9.926V9ZM29,77h9v1H29V77Zm0-4H48v1H29V73ZM6,78H25v2H6V78ZM6,51H25v2H6V51ZM6,78V53H8V78H6Zm17,0V53h2V78H23Zm6-16H48v2H29V62Zm0-19H48v2H29V43Zm0,19V45h2V62H29Zm17,0V45h2V62H46Zm6-4H71v2H52V58Zm0,22V60h2V80H52Zm17,0V60h2V80H69ZM29,68H48v2H29V68ZM8,53L23,77.069V78L8,53.926V53Zm15,0L8,77.069V78L23,53.926V53Zm8-8L46,61.069V62L31,45.926V45Zm15,0L31,61.069V62L46,45.926V45Zm8,15L69,79.069V80L54,60.926V60Zm15,0L54,79.069V80L69,60.926V60Z"/>
</svg>
