<svg xmlns="http://www.w3.org/2000/svg" width="78" height="78" viewBox="0 0 78 78">
  <defs>
    <style>
      .cls-1 {
        fill: #cdcdcd;
        fill-rule: evenodd;
      }
    </style>
  </defs>
  <path id="Rectangle_7_copy_3" data-name="Rectangle 7 copy 3" class="cls-1" d="M-2-2H80V80H-2V-2Zm2,2H78V78H0v-78ZM6,35h9v1H6V35Zm0-4H25v1H6V31ZM52,58h9v1H52V58Zm0-4H71v1H52V54ZM6,77h9v1H6V77Zm0-4H25v1H6V73ZM29,14h8v1H29V14ZM39,37h8v1H39V37ZM29,56h8v1H29V56Zm8,21.988v-71h2v71H37ZM6,20H25v2H6V20ZM6,7H25V9H6V7ZM6,20V9H8V20H6Zm17,0V9h2V20H23ZM52,43H71v2H52V43Zm0-13H71v2H52V30Zm0,13V32h2V43H52Zm17,0V32h2V43H69ZM6,62H25v2H6V62ZM6,49H25v2H6V49ZM6,62V51H8V62H6Zm17,0V51h2V62H23ZM6,26H25v2H6V26ZM52,49H71v2H52V49ZM6,68H25v2H6V68ZM8,9L23,19.069V20L8,9.926V9ZM23,9L8,19.069V20L23,9.926V9ZM54,32L69,42.069V43L54,32.926V32Zm15,0L54,42.069V43L69,32.926V32ZM8,51L23,61.069V62L8,51.926V51Zm15,0L8,61.069V62L23,51.926V51Z"/>
</svg>
