<svg xmlns="http://www.w3.org/2000/svg" width="78" height="78" viewBox="0 0 78 78">
  <defs>
    <style>
      .cls-1 {
        fill: #cdcdcd;
        fill-rule: evenodd;
      }
    </style>
  </defs>
  <path id="Rectangle_7_copy_6" data-name="Rectangle 7 copy 6" class="cls-1" d="M71,7V7.928L39.956,23,39,22.535,71,7h0ZM38.043,23L7,7.928V7L39,22.535ZM7,39H7V38.071L38.043,23,39,23.464Zm0,0H73v2H5V39H7ZM5,39H5V7H7V39H5Zm66-.929h0V7.928h0V7h2V39H71V38.071ZM71,39h0L39,23.464,39.956,23,71,38.07V39Zm0,0h0ZM5,7V5H73V7H5ZM52,49H10V47H52v2ZM16,55H10V54h6v1Zm8-1v1H18V54h6Zm8,0v1H26V54h6Zm34,7H10V60H66v1Zm0,4H10V64H66v1ZM50,69H10V68H50v1Z" transform="translate(0 2)"/>
</svg>
