<svg xmlns="http://www.w3.org/2000/svg" width="81" height="46" viewBox="0 0 81 46">
  <defs>
    <style>
      .cls-1 {
        fill: #cdcdcd;
        fill-rule: evenodd;
      }
    </style>
  </defs>
  <path id="button-curved" class="cls-1" d="M-2,48V-2H83V48H-2ZM81,0H0V46H81V0ZM14,10H65a4,4,0,0,1,4,4V32a4,4,0,0,1-4,4H14a4,4,0,0,1-4-4V14A4,4,0,0,1,14,10ZM50.289,26h1.217V22.977q0-.549-0.083-1.837h0.04L54.257,26h1.731V19.575H54.762v3.041q0,0.519.066,1.771H54.8l-2.791-4.812H50.289V26Zm-6.3-.769a3.429,3.429,0,0,0,4.535,0,3.487,3.487,0,0,0,.791-2.452,3.5,3.5,0,0,0-.784-2.452,2.925,2.925,0,0,0-2.265-.853,2.966,2.966,0,0,0-2.274.846,3.452,3.452,0,0,0-.793,2.45A3.5,3.5,0,0,0,43.991,25.231Zm-5.986-4.522H39.75V26h1.362V20.709h1.745V19.575H38.005v1.134Zm-4.852,0H34.9V26H36.26V20.709H38V19.575H33.153v1.134ZM27.3,23.715a2.252,2.252,0,0,0,.686,1.738,2.726,2.726,0,0,0,1.925.635,3.292,3.292,0,0,0,1.424-.286,2.074,2.074,0,0,0,.921-0.822,2.4,2.4,0,0,0,.319-1.248V19.575H31.211V23.5a1.656,1.656,0,0,1-.3,1.1,1.214,1.214,0,0,1-.969.349,1.242,1.242,0,0,1-.989-0.347,1.647,1.647,0,0,1-.3-1.09V19.575H27.3v4.14ZM21.652,26h2.4a2.746,2.746,0,0,0,1.725-.492,1.637,1.637,0,0,0,.635-1.371,1.658,1.658,0,0,0-.27-0.993,1.416,1.416,0,0,0-.881-0.51V22.59a1.079,1.079,0,0,0,.719-0.444,1.559,1.559,0,0,0,.27-0.945,1.354,1.354,0,0,0-.617-1.237,3.853,3.853,0,0,0-1.984-.389h-2V26Zm2.933-5.148a0.567,0.567,0,0,1,.27.529,0.639,0.639,0,0,1-.248.567,1.446,1.446,0,0,1-.8.171H23.014V20.691h0.716A1.737,1.737,0,0,1,24.585,20.852ZM25,24a0.8,0.8,0,0,1-.268.659,1.317,1.317,0,0,1-.831.215H23.014V23.2h0.844Q25,23.2,25,24Zm21.267-3.393q1.622,0,1.622,2.171t-1.63,2.166a1.43,1.43,0,0,1-1.222-.545,2.683,2.683,0,0,1-.409-1.622,2.673,2.673,0,0,1,.413-1.624A1.44,1.44,0,0,1,46.267,20.608Z"/>
</svg>
