<svg xmlns="http://www.w3.org/2000/svg" width="81" height="46" viewBox="0 0 81 46">
  <defs>
    <style>
      .cls-1 {
        fill: #cdcdcd;
        fill-rule: evenodd;
      }
    </style>
  </defs>
  <path id="button-normal" class="cls-1" d="M-2,48V-2H83V48H-2ZM81,0H0V46H81V0ZM69,36H10V10H69V36ZM25.983,22.146a1.559,1.559,0,0,0,.27-0.945,1.354,1.354,0,0,0-.617-1.237,3.853,3.853,0,0,0-1.984-.389h-2V26h2.4a2.746,2.746,0,0,0,1.725-.492,1.637,1.637,0,0,0,.635-1.371,1.658,1.658,0,0,0-.27-0.993,1.416,1.416,0,0,0-.881-0.51V22.59A1.079,1.079,0,0,0,25.983,22.146Zm6.586-2.571H31.211V23.5a1.656,1.656,0,0,1-.3,1.1,1.214,1.214,0,0,1-.969.349,1.242,1.242,0,0,1-.989-0.347,1.647,1.647,0,0,1-.3-1.09V19.575H27.3v4.14a2.252,2.252,0,0,0,.686,1.738,2.726,2.726,0,0,0,1.925.635,3.292,3.292,0,0,0,1.424-.286,2.074,2.074,0,0,0,.921-0.822,2.4,2.4,0,0,0,.319-1.248V19.575Zm5.436,0H33.153v1.134H34.9V26H36.26V20.709H38V19.575Zm4.852,0H38.005v1.134H39.75V26h1.362V20.709h1.745V19.575Zm5.676,0.752a2.925,2.925,0,0,0-2.265-.853,2.966,2.966,0,0,0-2.274.846,3.452,3.452,0,0,0-.793,2.45,3.5,3.5,0,0,0,.791,2.461,3.429,3.429,0,0,0,4.535,0,3.487,3.487,0,0,0,.791-2.452A3.5,3.5,0,0,0,48.533,20.327Zm7.456-.751H54.762v3.041q0,0.519.066,1.771H54.8l-2.791-4.812H50.289V26h1.217V22.977q0-.549-0.083-1.837h0.04L54.257,26h1.731V19.575Zm-9.73,5.37a1.43,1.43,0,0,1-1.222-.545,2.683,2.683,0,0,1-.409-1.622,2.673,2.673,0,0,1,.413-1.624,1.44,1.44,0,0,1,1.226-.547q1.622,0,1.622,2.171T46.259,24.945ZM23.9,24.875H23.014V23.2h0.844Q25,23.2,25,24a0.8,0.8,0,0,1-.268.659A1.317,1.317,0,0,1,23.9,24.875Zm-0.1-2.755H23.014V20.691h0.716a1.737,1.737,0,0,1,.855.16,0.567,0.567,0,0,1,.27.529,0.639,0.639,0,0,1-.248.567A1.446,1.446,0,0,1,23.805,22.12Z"/>
</svg>
