<svg xmlns="http://www.w3.org/2000/svg" width="81" height="46" viewBox="0 0 81 46">
  <defs>
    <style>
      .cls-1 {
        fill: #cdcdcd;
        fill-rule: evenodd;
      }
    </style>
  </defs>
  <path id="button-outline" class="cls-1" d="M-2,48V-2H83V48H-2ZM81,0H0V46H81V0Zm-12,36H10V10H69v26ZM67,12H12V34H67V12ZM25.636,19.964a1.354,1.354,0,0,1,.617,1.237,1.559,1.559,0,0,1-.27.945,1.079,1.079,0,0,1-.719.444v0.044a1.416,1.416,0,0,1,.881.51,1.658,1.658,0,0,1,.27.993,1.637,1.637,0,0,1-.635,1.371A2.746,2.746,0,0,1,24.056,26h-2.4V19.575h2A3.853,3.853,0,0,1,25.636,19.964Zm-2.621,4.911H23.9a1.317,1.317,0,0,0,.831-0.215A0.8,0.8,0,0,0,25,24q0-.8-1.142-0.8H23.014v1.674Zm0-2.755h0.791a1.446,1.446,0,0,0,.8-0.171,0.639,0.639,0,0,0,.248-0.567,0.567,0.567,0,0,0-.27-0.529,1.737,1.737,0,0,0-.855-0.16H23.014V22.12Zm5.639,1.389a1.647,1.647,0,0,0,.3,1.09,1.242,1.242,0,0,0,.989.347A1.214,1.214,0,0,0,30.91,24.6a1.656,1.656,0,0,0,.3-1.1V19.575h1.358v4.157a2.4,2.4,0,0,1-.319,1.248,2.074,2.074,0,0,1-.921.822,3.292,3.292,0,0,1-1.424.286,2.726,2.726,0,0,1-1.925-.635,2.252,2.252,0,0,1-.686-1.738v-4.14h1.358v3.933ZM38,20.709H36.26V26H34.9V20.709H33.153V19.575H38v1.134Zm4.852,0H41.112V26H39.75V20.709H38.005V19.575h4.852v1.134Zm3.41-1.235a2.925,2.925,0,0,1,2.265.853,3.5,3.5,0,0,1,.784,2.452,3.487,3.487,0,0,1-.791,2.452,3.429,3.429,0,0,1-4.535,0A3.5,3.5,0,0,1,43.2,22.77a3.452,3.452,0,0,1,.793-2.45A2.966,2.966,0,0,1,46.267,19.474ZM45.037,24.4a1.43,1.43,0,0,0,1.222.545q1.63,0,1.63-2.166t-1.622-2.171a1.44,1.44,0,0,0-1.226.547,2.673,2.673,0,0,0-.413,1.624A2.683,2.683,0,0,0,45.037,24.4Zm9.761-.013h0.031q-0.066-1.253-.066-1.771V19.575h1.226V26H54.257l-2.795-4.86h-0.04q0.083,1.288.083,1.837V26H50.289V19.575h1.718Z"/>
</svg>
