<svg xmlns="http://www.w3.org/2000/svg" width="81" height="79" viewBox="0 0 81 79">
  <defs>
    <style>
      .cls-1 {
        fill: #cdcdcd;
        fill-rule: evenodd;
      }
    </style>
  </defs>
  <path id="stroke_copy_2" data-name="stroke copy 2" class="cls-1" d="M-2,79.994V-2H83v82H-2ZM81,52h0V-0.006H0V78H0v0H81V52ZM0,78V52H81V78H0ZM38.5,66.5l-3-3-2,2,5,5,2-2h0l7-7.005-2-2ZM23.2,31.291a4.8,4.8,0,0,1,1.326,3.616,4.98,4.98,0,0,1-1.374,3.784A5.519,5.519,0,0,1,19.2,40H16.4V30.006h3.09A5.113,5.113,0,0,1,23.2,31.291Zm-5.168.082v7.253H19.2q3.609,0,3.609-3.664,0-3.589-3.356-3.589H18.036ZM21.608,22H19.974V13.407H17.035v-1.4h7.513v1.4H21.608V22Zm5.906-7.937a12.6,12.6,0,0,1-.082,1.388h0.1a2.231,2.231,0,0,1,.913-0.848,2.941,2.941,0,0,1,1.364-.3,2.438,2.438,0,0,1,2.748,2.769V22H30.946V17.352a2.035,2.035,0,0,0-.352-1.306,1.361,1.361,0,0,0-1.118-.431,1.774,1.774,0,0,0-1.487.6,3.333,3.333,0,0,0-.475,2.027V22H25.908V11.363h1.607v2.7Zm2,18.239a3.116,3.116,0,0,1,2.365.909,3.475,3.475,0,0,1,.868,2.5v0.868H27.709a2.483,2.483,0,0,0,.595,1.692,2.071,2.071,0,0,0,1.579.591,5.825,5.825,0,0,0,1.248-.126,6.539,6.539,0,0,0,1.241-.42v1.306a4.929,4.929,0,0,1-1.189.4,7.3,7.3,0,0,1-1.374.116,3.657,3.657,0,0,1-2.758-1.029,3.905,3.905,0,0,1-.995-2.834,4.285,4.285,0,0,1,.923-2.912A3.188,3.188,0,0,1,29.514,32.3Zm1.654,3.117A2.093,2.093,0,0,0,30.717,34a1.543,1.543,0,0,0-1.2-.482A1.614,1.614,0,0,0,28.287,34a2.313,2.313,0,0,0-.55,1.415h3.432Zm3.739-3.5a2.751,2.751,0,0,1,.629-1.986,2.571,2.571,0,0,1,1.921-.646,5.125,5.125,0,0,1,1.668.28L38.7,30.785a3.7,3.7,0,0,0-1.135-.191,0.923,0.923,0,0,0-.8.338,1.7,1.7,0,0,0-.25,1.015V32.44h1.846v1.217H36.521V40H34.907V33.656H33.663V32.9l1.244-.492V31.92Zm5.079,4.149a5.008,5.008,0,0,1,2.645-.649l1.306-.041v-0.4a1.529,1.529,0,0,0-.338-1.084,1.38,1.38,0,0,0-1.049-.359,3.629,3.629,0,0,0-1.114.171,8.429,8.429,0,0,0-1.025.4l-0.52-1.148a5.593,5.593,0,0,1,1.347-.489,6.2,6.2,0,0,1,1.381-.167,3.271,3.271,0,0,1,2.177.629,2.463,2.463,0,0,1,.735,1.976V40H44.382l-0.321-1.053H44.006a3.1,3.1,0,0,1-1.1.94,3.482,3.482,0,0,1-1.422.249,2.406,2.406,0,0,1-1.74-.6,2.251,2.251,0,0,1-.625-1.7A2,2,0,0,1,39.986,36.069Zm1.1,2.56a1.292,1.292,0,0,0,.9.277,1.989,1.989,0,0,0,1.4-.489,1.772,1.772,0,0,0,.53-1.371V36.391l-0.971.041a3.322,3.322,0,0,0-1.651.379,1.153,1.153,0,0,0-.516,1.036A1.01,1.01,0,0,0,41.087,38.629Zm3.38-20.4V22H42.861V14.44h1.258l0.226,0.991h0.082a2.093,2.093,0,0,1,.913-0.834,2.943,2.943,0,0,1,1.316-.294,2.3,2.3,0,0,1,2.31,1.19h0.109a2.3,2.3,0,0,1,.943-0.875,2.994,2.994,0,0,1,1.395-.315,2.54,2.54,0,0,1,1.972.684A3.028,3.028,0,0,1,54,17.071V22H52.4V17.338a2.1,2.1,0,0,0-.332-1.3,1.221,1.221,0,0,0-1.029-.427,1.6,1.6,0,0,0-1.371.585,3.013,3.013,0,0,0-.434,1.794V22H47.619V17.338a2.114,2.114,0,0,0-.328-1.3,1.211,1.211,0,0,0-1.025-.427,1.564,1.564,0,0,0-1.364.6A3.549,3.549,0,0,0,44.467,18.233ZM49.324,37.1a2.022,2.022,0,0,0,.355,1.3,1.357,1.357,0,0,0,1.114.434,1.774,1.774,0,0,0,1.487-.6,3.334,3.334,0,0,0,.475-2.027V32.44h1.613V40H53.1l-0.226-.991H52.8a2.278,2.278,0,0,1-.954.827,3.189,3.189,0,0,1-1.412.3,2.77,2.77,0,0,1-2.051-.684,2.833,2.833,0,0,1-.677-2.071V32.44h1.62V37.1Zm9.929-22.8a3.116,3.116,0,0,1,2.365.909,3.475,3.475,0,0,1,.868,2.5v0.868H57.449a2.483,2.483,0,0,0,.595,1.692,2.071,2.071,0,0,0,1.579.591,5.824,5.824,0,0,0,1.248-.126,6.537,6.537,0,0,0,1.241-.42v1.306a4.928,4.928,0,0,1-1.189.4,7.3,7.3,0,0,1-1.374.116,3.657,3.657,0,0,1-2.758-1.029,3.905,3.905,0,0,1-.995-2.834,4.285,4.285,0,0,1,.923-2.912A3.188,3.188,0,0,1,59.253,14.3Zm1.654,3.117A2.093,2.093,0,0,0,60.457,16a1.543,1.543,0,0,0-1.2-.482A1.614,1.614,0,0,0,58.026,16a2.312,2.312,0,0,0-.55,1.415h3.432ZM58.266,40H56.659V29.363h1.606V40Zm3.069-9.242h0.991V32.44H64.48v1.217H62.326V37.7a1.135,1.135,0,0,0,.291.858,1.059,1.059,0,0,0,.762.277,3.906,3.906,0,0,0,1.176-.185v1.21a3.241,3.241,0,0,1-.687.195,4.743,4.743,0,0,1-.872.079q-2.283,0-2.283-2.406V33.656H59.681V32.945l1.107-.588ZM36.592,20.274a2.071,2.071,0,0,0,1.579.591,5.823,5.823,0,0,0,1.248-.126,6.537,6.537,0,0,0,1.241-.42v1.306a4.929,4.929,0,0,1-1.19.4,7.3,7.3,0,0,1-1.374.116,3.657,3.657,0,0,1-2.758-1.029,3.905,3.905,0,0,1-.995-2.834,4.285,4.285,0,0,1,.923-2.912A3.188,3.188,0,0,1,37.8,14.3a3.116,3.116,0,0,1,2.365.909,3.475,3.475,0,0,1,.868,2.5v0.868H36A2.483,2.483,0,0,0,36.592,20.274Zm2.864-2.854A2.093,2.093,0,0,0,39.005,16a1.543,1.543,0,0,0-1.2-.482A1.614,1.614,0,0,0,36.575,16a2.313,2.313,0,0,0-.55,1.415h3.432Z"/>
</svg>
