<svg xmlns="http://www.w3.org/2000/svg" width="251" height="88" viewBox="0 0 251 88">
  <defs>
    <style>
      .cls-1 {
        fill: #cdcdcd;
        fill-rule: evenodd;
      }
    </style>
  </defs>
  <path id="Theme_Default" data-name="Theme Default" class="cls-1" d="M-2,90V-2H253V90H-2ZM251,0H0V44H0V88H251v0h0V0ZM176.868,28.147q-2.447,0-2.446-2.578V21.2h-1.106V20.441l1.186-.63,0.586-1.714h1.062v1.8h2.308v1.3H176.15v4.336a1.215,1.215,0,0,0,.312.919,1.132,1.132,0,0,0,.816.3,4.185,4.185,0,0,0,1.26-.2v1.3a3.468,3.468,0,0,1-.736.209A5.086,5.086,0,0,1,176.868,28.147ZM170.079,16.6H171.8V28h-1.721V16.6Zm-4.051,10.334H165.94a2.437,2.437,0,0,1-1.021.886,3.418,3.418,0,0,1-1.513.322,2.968,2.968,0,0,1-2.2-.732,3.038,3.038,0,0,1-.725-2.219V19.9h1.736v5a2.166,2.166,0,0,0,.381,1.4,1.451,1.451,0,0,0,1.193.465,1.9,1.9,0,0,0,1.593-.648,3.567,3.567,0,0,0,.509-2.172V19.9h1.729V28H166.27Zm-9.448-.066h-0.059a3.308,3.308,0,0,1-1.179,1.007,3.728,3.728,0,0,1-1.523.267,2.578,2.578,0,0,1-1.864-.645,2.411,2.411,0,0,1-.67-1.824,2.141,2.141,0,0,1,.93-1.89,5.363,5.363,0,0,1,2.834-.7l1.4-.044V22.617a1.641,1.641,0,0,0-.362-1.161,1.481,1.481,0,0,0-1.125-.384,3.88,3.88,0,0,0-1.193.183,9.057,9.057,0,0,0-1.1.432l-0.557-1.23a6.01,6.01,0,0,1,1.443-.524,6.649,6.649,0,0,1,1.48-.18,3.5,3.5,0,0,1,2.332.674,2.638,2.638,0,0,1,.788,2.117V28h-1.231Zm-0.146-2.739-1.04.044a3.556,3.556,0,0,0-1.769.407,1.234,1.234,0,0,0-.553,1.11,1.082,1.082,0,0,0,.322.839,1.385,1.385,0,0,0,.967.3,2.131,2.131,0,0,0,1.505-.524,1.9,1.9,0,0,0,.568-1.469v-0.7Zm-6.812-6.211a0.988,0.988,0,0,0-.853.363,1.821,1.821,0,0,0-.268,1.088V19.9h1.978v1.3H148.5V28h-1.728V21.2H145.44V20.4l1.333-.527V19.343a2.944,2.944,0,0,1,.674-2.128,2.754,2.754,0,0,1,2.058-.692,5.5,5.5,0,0,1,1.787.3l-0.454,1.3A3.969,3.969,0,0,0,149.622,17.922ZM139.7,26.151a2.218,2.218,0,0,0,1.692.634,6.234,6.234,0,0,0,1.336-.135,7.006,7.006,0,0,0,1.33-.451v1.4a5.285,5.285,0,0,1-1.275.425,7.815,7.815,0,0,1-1.472.125,3.917,3.917,0,0,1-2.955-1.1,4.182,4.182,0,0,1-1.066-3.036,4.592,4.592,0,0,1,.989-3.12,3.415,3.415,0,0,1,2.717-1.135,3.338,3.338,0,0,1,2.534.974,3.723,3.723,0,0,1,.93,2.681v0.93h-5.4A2.655,2.655,0,0,0,139.7,26.151Zm3.069-3.058a2.241,2.241,0,0,0-.484-1.52,1.652,1.652,0,0,0-1.289-.516,1.73,1.73,0,0,0-1.315.52,2.479,2.479,0,0,0-.589,1.516h3.677ZM129.942,28h-3V17.292h3.311a5.477,5.477,0,0,1,3.977,1.377,5.147,5.147,0,0,1,1.421,3.875,5.338,5.338,0,0,1-1.472,4.054A5.914,5.914,0,0,1,129.942,28Zm0.271-9.243H128.7v7.771h1.245q3.867,0,3.867-3.926Q133.809,18.757,130.213,18.757ZM116.15,26.151a2.221,2.221,0,0,0,1.692.634,6.244,6.244,0,0,0,1.337-.135,6.975,6.975,0,0,0,1.329-.451v1.4a5.292,5.292,0,0,1-1.274.425,7.83,7.83,0,0,1-1.472.125,3.92,3.92,0,0,1-2.956-1.1,4.186,4.186,0,0,1-1.065-3.036,4.592,4.592,0,0,1,.988-3.12,3.417,3.417,0,0,1,2.718-1.135,3.338,3.338,0,0,1,2.534.974,3.723,3.723,0,0,1,.93,2.681v0.93h-5.4A2.665,2.665,0,0,0,116.15,26.151Zm3.069-3.058a2.246,2.246,0,0,0-.483-1.52,1.654,1.654,0,0,0-1.289-.516,1.73,1.73,0,0,0-1.315.52,2.479,2.479,0,0,0-.59,1.516h3.677ZM110.1,23a2.246,2.246,0,0,0-.356-1.388,1.308,1.308,0,0,0-1.1-.458,1.707,1.707,0,0,0-1.468.626,3.221,3.221,0,0,0-.466,1.923V28h-1.728V23a2.261,2.261,0,0,0-.352-1.388,1.3,1.3,0,0,0-1.1-.458,1.675,1.675,0,0,0-1.461.648,3.794,3.794,0,0,0-.466,2.157V28H99.883V19.9h1.348l0.242,1.062h0.088a2.241,2.241,0,0,1,.977-0.893,3.159,3.159,0,0,1,1.41-.315,2.465,2.465,0,0,1,2.476,1.274h0.117a2.467,2.467,0,0,1,1.011-.937,3.205,3.205,0,0,1,1.494-.337,2.721,2.721,0,0,1,2.113.732,3.243,3.243,0,0,1,.663,2.234V28H110.1V23ZM93.167,26.151a2.219,2.219,0,0,0,1.692.634,6.242,6.242,0,0,0,1.337-.135,7.005,7.005,0,0,0,1.329-.451v1.4a5.286,5.286,0,0,1-1.274.425,7.825,7.825,0,0,1-1.472.125,3.918,3.918,0,0,1-2.955-1.1,4.184,4.184,0,0,1-1.066-3.036,4.591,4.591,0,0,1,.989-3.12,3.415,3.415,0,0,1,2.717-1.135A3.338,3.338,0,0,1,97,20.727a3.723,3.723,0,0,1,.93,2.681v0.93h-5.4A2.66,2.66,0,0,0,93.167,26.151Zm3.069-3.058a2.243,2.243,0,0,0-.483-1.52,1.653,1.653,0,0,0-1.289-.516,1.729,1.729,0,0,0-1.315.52,2.478,2.478,0,0,0-.59,1.516h3.677Zm-9.119-.073a2.18,2.18,0,0,0-.377-1.4,1.458,1.458,0,0,0-1.2-.461,1.9,1.9,0,0,0-1.593.648,3.571,3.571,0,0,0-.509,2.172V28H81.719V16.6H83.44V19.5a13.5,13.5,0,0,1-.088,1.487h0.11a2.391,2.391,0,0,1,.978-0.908,3.152,3.152,0,0,1,1.461-.322q2.944,0,2.944,2.966V28H87.117V23.02Zm-10,4.98H75.362V18.794H72.212v-1.5h8.049v1.5H77.112V28ZM251,88H0V44H251V88Zm-120.492-26.5-7,7.006-3-3-2,2,5,5,2-2h0l7-7.006Z"/>
</svg>
