<svg xmlns="http://www.w3.org/2000/svg" width="251" height="40" viewBox="0 0 251 40">
  <defs>
    <style>
      .cls-1 {
        fill: #cdcdcd;
        fill-rule: evenodd;
      }
    </style>
  </defs>
  <path id="Theme_Default" data-name="Theme Default" class="cls-1" d="M0-2V42H-2V-2H0ZM253-2V42h-2V-2h2ZM0-2H251V0H0V-2ZM0,40H251v2H0V40Zm0,0V20H251V40H0ZM129.106,26.027l-5.055,5.055-2.167-2.166L120.44,30.36l3.611,3.611,1.444-1.444,5.055-5.056Zm40.78-10.9a1.926,1.926,0,0,1-2.12-2.234V9.109h-0.959V8.449l1.028-.546,0.508-1.485h0.921V7.979h2v1.13h-2v3.758a1.057,1.057,0,0,0,.269.8,0.984,0.984,0,0,0,.708.257,3.628,3.628,0,0,0,1.092-.171v1.124a3.008,3.008,0,0,1-.638.181A4.4,4.4,0,0,1,169.886,15.127ZM164,5.123h1.492V15H164V5.123Zm-3.51,8.957h-0.076a2.119,2.119,0,0,1-.885.768,2.966,2.966,0,0,1-1.311.279,2.574,2.574,0,0,1-1.905-.635,2.635,2.635,0,0,1-.628-1.923V7.979h1.5v4.329a1.872,1.872,0,0,0,.331,1.209,1.257,1.257,0,0,0,1.034.4,1.648,1.648,0,0,0,1.381-.562,3.1,3.1,0,0,0,.441-1.882v-3.5h1.5V15H160.7Zm-8.188-.057h-0.051a2.879,2.879,0,0,1-1.022.873,3.234,3.234,0,0,1-1.32.232,2.235,2.235,0,0,1-1.616-.559,2.091,2.091,0,0,1-.581-1.581,1.855,1.855,0,0,1,.807-1.638,4.646,4.646,0,0,1,2.456-.6l1.212-.038V10.335a1.417,1.417,0,0,0-.314-1.006A1.28,1.28,0,0,0,150.9,9a3.371,3.371,0,0,0-1.035.159,7.848,7.848,0,0,0-.952.375l-0.482-1.066a5.191,5.191,0,0,1,1.25-.454,5.756,5.756,0,0,1,1.282-.156,3.038,3.038,0,0,1,2.022.584,2.286,2.286,0,0,1,.682,1.834V15H152.6Zm-0.127-2.374-0.9.038a3.087,3.087,0,0,0-1.533.352,1.071,1.071,0,0,0-.479.962,0.936,0.936,0,0,0,.28.727,1.2,1.2,0,0,0,.837.257,1.849,1.849,0,0,0,1.305-.454,1.645,1.645,0,0,0,.492-1.273V11.648Zm-5.9-5.383a0.857,0.857,0,0,0-.739.314,1.579,1.579,0,0,0-.232.943V7.979h1.714v1.13H145.3V15h-1.5V9.109h-1.155v-0.7l1.155-.457V7.5a2.556,2.556,0,0,1,.584-1.844,2.388,2.388,0,0,1,1.784-.6,4.762,4.762,0,0,1,1.549.26l-0.394,1.13A3.439,3.439,0,0,0,146.272,6.266Zm-8.6,7.132a1.924,1.924,0,0,0,1.467.549,5.416,5.416,0,0,0,1.158-.117,6.049,6.049,0,0,0,1.152-.39v1.212a4.581,4.581,0,0,1-1.1.368,6.775,6.775,0,0,1-1.276.108,3.394,3.394,0,0,1-2.561-.955,3.625,3.625,0,0,1-.924-2.631,3.981,3.981,0,0,1,.857-2.7,2.959,2.959,0,0,1,2.355-.984,2.892,2.892,0,0,1,2.2.844,3.223,3.223,0,0,1,.806,2.323v0.806h-4.678A2.3,2.3,0,0,0,137.671,13.4Zm2.66-2.65a1.94,1.94,0,0,0-.419-1.317,1.433,1.433,0,0,0-1.117-.448,1.5,1.5,0,0,0-1.139.451,2.14,2.14,0,0,0-.511,1.314h3.186ZM129.216,15h-2.6V5.72h2.869a4.748,4.748,0,0,1,3.447,1.193,4.459,4.459,0,0,1,1.231,3.358,4.626,4.626,0,0,1-1.275,3.513A5.126,5.126,0,0,1,129.216,15Zm0.235-8.011h-1.314v6.735h1.079q3.352,0,3.352-3.4Q132.568,6.989,129.451,6.989ZM117.264,13.4a1.922,1.922,0,0,0,1.466.549,5.4,5.4,0,0,0,1.158-.117,6.08,6.08,0,0,0,1.153-.39v1.212a4.588,4.588,0,0,1-1.1.368,6.767,6.767,0,0,1-1.276.108,3.4,3.4,0,0,1-2.561-.955,3.625,3.625,0,0,1-.924-2.631,3.981,3.981,0,0,1,.857-2.7,2.961,2.961,0,0,1,2.355-.984,2.892,2.892,0,0,1,2.2.844,3.224,3.224,0,0,1,.807,2.323v0.806h-4.679A2.31,2.31,0,0,0,117.264,13.4Zm2.659-2.65A1.94,1.94,0,0,0,119.5,9.43a1.431,1.431,0,0,0-1.117-.448,1.5,1.5,0,0,0-1.139.451,2.146,2.146,0,0,0-.511,1.314h3.186Zm-7.9-.076a1.949,1.949,0,0,0-.308-1.2,1.136,1.136,0,0,0-.956-0.4,1.479,1.479,0,0,0-1.272.543,2.8,2.8,0,0,0-.4,1.666V15h-1.5V10.671a1.964,1.964,0,0,0-.3-1.2,1.125,1.125,0,0,0-.952-0.4,1.453,1.453,0,0,0-1.267.562,3.3,3.3,0,0,0-.4,1.869V15h-1.491V7.979h1.167l0.21,0.92h0.076a1.945,1.945,0,0,1,.848-0.774,2.73,2.73,0,0,1,1.221-.273,2.135,2.135,0,0,1,2.146,1.1h0.1a2.136,2.136,0,0,1,.876-0.812,2.777,2.777,0,0,1,1.294-.292,2.36,2.36,0,0,1,1.832.635,2.811,2.811,0,0,1,.574,1.936V15h-1.491V10.671ZM97.345,13.4a1.923,1.923,0,0,0,1.466.549,5.414,5.414,0,0,0,1.158-.117,6.088,6.088,0,0,0,1.153-.39v1.212a4.588,4.588,0,0,1-1.105.368,6.766,6.766,0,0,1-1.276.108,3.4,3.4,0,0,1-2.561-.955,3.626,3.626,0,0,1-.924-2.631,3.979,3.979,0,0,1,.857-2.7,2.96,2.96,0,0,1,2.355-.984,2.9,2.9,0,0,1,2.2.844,3.228,3.228,0,0,1,.806,2.323v0.806H96.793A2.305,2.305,0,0,0,97.345,13.4ZM100,10.747a1.942,1.942,0,0,0-.419-1.317,1.433,1.433,0,0,0-1.117-.448,1.5,1.5,0,0,0-1.139.451,2.147,2.147,0,0,0-.511,1.314H100Zm-7.9-.063a1.889,1.889,0,0,0-.327-1.212,1.264,1.264,0,0,0-1.038-.4,1.647,1.647,0,0,0-1.381.562,3.1,3.1,0,0,0-.441,1.882V15H87.423V5.123h1.492V7.63a11.72,11.72,0,0,1-.076,1.289h0.1a2.072,2.072,0,0,1,.847-0.787,2.731,2.731,0,0,1,1.266-.279A2.264,2.264,0,0,1,93.6,10.423V15H92.1V10.684ZM83.431,15H81.914V7.021h-2.73V5.72H86.16v1.3h-2.73V15Z"/>
</svg>
