<svg xmlns="http://www.w3.org/2000/svg" width="81" height="96" viewBox="0 0 81 96">
  <defs>
    <style>
      .cls-1 {
        fill: #cdcdcd;
        fill-rule: evenodd;
      }
    </style>
  </defs>
  <path id="Theme_Default" data-name="Theme Default" class="cls-1" d="M-2-2H83V98H-2V-2ZM0,0H81V96H0V0ZM47.505,74.5l-7,7.006h0l-2,2-5-5,2-2,3,3,7-7.006ZM0,60H81V96H0V60ZM19.112,16.794h3.149v-1.5H14.212v1.5h3.149V26h1.751V16.794Zm11.733,3.926q0-2.966-2.944-2.966a3.152,3.152,0,0,0-1.461.322,2.391,2.391,0,0,0-.978.908h-0.11A13.5,13.5,0,0,0,25.44,17.5V14.6H23.719V26H25.44V21.979a3.571,3.571,0,0,1,.509-2.172,1.9,1.9,0,0,1,1.593-.648,1.458,1.458,0,0,1,1.2.461,2.18,2.18,0,0,1,.377,1.4V26h1.729V20.719Zm7.4,5.3a5.286,5.286,0,0,0,1.274-.425V24.2a7.005,7.005,0,0,1-1.329.451,6.242,6.242,0,0,1-1.337.135,2.219,2.219,0,0,1-1.692-.634,2.66,2.66,0,0,1-.637-1.813h5.4v-0.93A3.723,3.723,0,0,0,39,18.727a3.338,3.338,0,0,0-2.534-.974,3.415,3.415,0,0,0-2.717,1.135,4.591,4.591,0,0,0-.989,3.12,4.184,4.184,0,0,0,1.066,3.036,3.918,3.918,0,0,0,2.955,1.1A7.825,7.825,0,0,0,38.251,26.022Zm-0.5-6.449a2.243,2.243,0,0,1,.483,1.52H34.559a2.478,2.478,0,0,1,.59-1.516,1.729,1.729,0,0,1,1.315-.52A1.653,1.653,0,0,1,37.752,19.573ZM48.71,21.708a3.227,3.227,0,0,1,.465-1.923,1.708,1.708,0,0,1,1.468-.626,1.308,1.308,0,0,1,1.1.458A2.249,2.249,0,0,1,52.1,21v5h1.721V20.719a3.244,3.244,0,0,0-.663-2.234,2.721,2.721,0,0,0-2.113-.732,3.208,3.208,0,0,0-1.494.337,2.47,2.47,0,0,0-1.011.938H48.424a2.464,2.464,0,0,0-2.476-1.274,3.154,3.154,0,0,0-1.41.315,2.245,2.245,0,0,0-.978.893H43.473L43.231,17.9H41.883V26H43.6V21.964a3.8,3.8,0,0,1,.465-2.157,1.676,1.676,0,0,1,1.461-.648,1.3,1.3,0,0,1,1.1.458A2.265,2.265,0,0,1,46.981,21v5H48.71V21.708Zm12.524,4.314a5.286,5.286,0,0,0,1.274-.425V24.2a7.005,7.005,0,0,1-1.329.451,6.242,6.242,0,0,1-1.337.135,2.219,2.219,0,0,1-1.692-.634,2.66,2.66,0,0,1-.637-1.813h5.4v-0.93a3.723,3.723,0,0,0-.93-2.681,3.338,3.338,0,0,0-2.534-.974,3.415,3.415,0,0,0-2.717,1.135,4.591,4.591,0,0,0-.989,3.12,4.184,4.184,0,0,0,1.066,3.036,3.918,3.918,0,0,0,2.955,1.1A7.825,7.825,0,0,0,61.234,26.022Zm-0.5-6.449a2.243,2.243,0,0,1,.483,1.52H57.543a2.478,2.478,0,0,1,.59-1.516,1.729,1.729,0,0,1,1.315-.52A1.653,1.653,0,0,1,60.736,19.573ZM22.7,36.669a5.478,5.478,0,0,0-3.977-1.377h-3.31V46h3a5.913,5.913,0,0,0,4.241-1.4,5.336,5.336,0,0,0,1.472-4.054A5.146,5.146,0,0,0,22.7,36.669Zm-4.292,7.859H17.164V36.757H18.68q3.6,0,3.6,3.845,0,3.926-3.867,3.926h0Zm12.839,1.494a5.285,5.285,0,0,0,1.274-.425V44.2a7,7,0,0,1-1.329.45,6.242,6.242,0,0,1-1.337.136,2.219,2.219,0,0,1-1.692-.634,2.66,2.66,0,0,1-.637-1.813h5.4v-0.93A3.723,3.723,0,0,0,32,38.727a3.338,3.338,0,0,0-2.534-.974,3.415,3.415,0,0,0-2.717,1.135,4.591,4.591,0,0,0-.989,3.12,4.185,4.185,0,0,0,1.066,3.036,3.919,3.919,0,0,0,2.955,1.1A7.823,7.823,0,0,0,31.249,46.022Zm-0.5-6.449a2.244,2.244,0,0,1,.483,1.52H27.557a2.478,2.478,0,0,1,.59-1.516,1.729,1.729,0,0,1,1.315-.52A1.654,1.654,0,0,1,30.751,39.573Zm8.2-1.674H36.969V37.372a1.826,1.826,0,0,1,.267-1.088,0.989,0.989,0,0,1,.853-0.362,3.969,3.969,0,0,1,1.216.205l0.454-1.3a5.5,5.5,0,0,0-1.787-.3,2.755,2.755,0,0,0-2.058.692,2.947,2.947,0,0,0-.674,2.128V37.87l-1.333.527V39.2H35.24V46h1.729V39.2h1.977V37.9ZM46.622,46V40.544a2.639,2.639,0,0,0-.787-2.117,3.5,3.5,0,0,0-2.333-.674,6.641,6.641,0,0,0-1.48.18,5.991,5.991,0,0,0-1.443.524l0.557,1.23a9.034,9.034,0,0,1,1.1-.432,3.889,3.889,0,0,1,1.194-.183,1.479,1.479,0,0,1,1.124.385,1.638,1.638,0,0,1,.363,1.161v0.432l-1.4.044a5.364,5.364,0,0,0-2.834.7,2.141,2.141,0,0,0-.93,1.89,2.412,2.412,0,0,0,.67,1.824,2.578,2.578,0,0,0,1.864.645,3.732,3.732,0,0,0,1.524-.267,3.319,3.319,0,0,0,1.179-1.007h0.059L45.392,46h1.231Zm-4.761-1.468a1.082,1.082,0,0,1-.322-0.839,1.235,1.235,0,0,1,.553-1.11,3.559,3.559,0,0,1,1.769-.407l1.04-.044v0.7a1.9,1.9,0,0,1-.568,1.468,2.132,2.132,0,0,1-1.505.524A1.385,1.385,0,0,1,41.861,44.532ZM56.092,46V37.9H54.364v4.036a3.571,3.571,0,0,1-.509,2.172,1.9,1.9,0,0,1-1.593.648,1.454,1.454,0,0,1-1.194-.465,2.166,2.166,0,0,1-.381-1.4v-5H48.951v5.3a3.036,3.036,0,0,0,.725,2.219,2.969,2.969,0,0,0,2.2.732,3.417,3.417,0,0,0,1.513-.322,2.442,2.442,0,0,0,1.022-.886H54.5L54.737,46h1.355Zm4.175-11.4H58.546V46h1.721V34.6Zm4.662,9.855a1.216,1.216,0,0,1-.311-0.919V39.2h2.307V37.9H64.618V36.1H63.556L62.97,37.812l-1.187.63V39.2h1.106v4.365q0,2.578,2.446,2.578a5.085,5.085,0,0,0,.934-0.084,3.473,3.473,0,0,0,.736-0.209v-1.3a4.184,4.184,0,0,1-1.26.2A1.135,1.135,0,0,1,64.929,44.458Z"/>
</svg>
