<svg xmlns="http://www.w3.org/2000/svg" width="78" height="78" viewBox="0 0 78 78">
  <metadata><?xpacket begin="﻿" id="W5M0MpCehiHzreSzNTczkc9d"?>
<x:xmpmeta xmlns:x="adobe:ns:meta/" x:xmptk="Adobe XMP Core 5.6-c138 79.159824, 2016/09/14-01:09:01        ">
   <rdf:RDF xmlns:rdf="http://www.w3.org/1999/02/22-rdf-syntax-ns#">
      <rdf:Description rdf:about=""/>
   </rdf:RDF>
</x:xmpmeta>
                                                                                                    
                                                                                                    
                                                                                                    
                                                                                                    
                                                                                                    
                                                                                                    
                                                                                                    
                                                                                                    
                                                                                                    
                                                                                                    
                                                                                                    
                                                                                                    
                                                                                                    
                                                                                                    
                                                                                                    
                                                                                                    
                                                                                                    
                                                                                                    
                                                                                                    
                                                                                                    
                           
<?xpacket end="w"?></metadata>
<defs>
    <style>
      .cls-1 {
        fill: #cdcdcd;
        fill-rule: evenodd;
      }
    </style>
  </defs>
  <path id="filter-left" class="cls-1" d="M-2-2H80v82H-2V-2Zm2,2H78v78H0v-78ZM48,27.005H30V25H48v2Zm0,11H30V36H48v2Zm0-11v9H46v-9h2Zm-16,0v9H30v-9h2Zm-5,0H9V25H27v2Zm0,11H9V36H27v2Zm0-11v9H25v-9h2Zm-16,0v9H9v-9h2Zm37,16H30V41H48v2Zm0,11H30V52H48v2Zm0-11v9H46v-9h2Zm-16,0v9H30v-9h2Zm-5,0H9V41H27v2Zm0,11H9V52H27v2Zm0-11v9H25v-9h2Zm-16,0v9H9v-9h2Zm58-16H51V25H69v2Zm0,11H51V36H69v2Zm0-11v9H67v-9h2Zm-16,0v9H51v-9h2Zm16,16H51V41H69v2Zm0,11H51V52H69v2Zm0-11v9H67v-9h2Zm-16,0v9H51v-9h2Zm-5,16H30V57H48v2Zm0,11H30V68H48v2Zm0-11v9H46v-9h2Zm-16,0v9H30v-9h2Zm-5,0H9V57H27v2Zm0,11H9V68H27v2Zm0-11v9H25v-9h2Zm-16,0v9H9v-9h2Zm58,0H51V57H69v2Zm0,11H51V68H69v2Zm0-11v9H67v-9h2Zm-16,0v9H51v-9h2Zm-36-43H9v-3h8v3Zm11,0H20v-3h8v3Zm11,0H31v-3h8v3Zm11,0H42v-3h8v3ZM46,36L32,27.933V27.005l14,8.071V36ZM32,36l14-8.071V27.005L32,35.076V36Zm-7,0L11,27.933V27.005l14,8.071V36ZM11,36l14-8.071V27.005L11,35.076V36ZM46,52L32,43.933V43.005l14,8.071V52ZM32,52l14-8.071V43.005L32,51.076V52Zm-7,0L11,43.933V43.005l14,8.071V52ZM11,52l14-8.071V43.005L11,51.076V52ZM67,36L53,27.933V27.005l14,8.071V36ZM53,36l14-8.071V27.005L53,35.076V36ZM67,52L53,43.933V43.005l14,8.071V52ZM53,52l14-8.071V43.005L53,51.076V52ZM46,68L32,59.933V59.005l14,8.071V68ZM32,68l14-8.071V59.005L32,67.076V68Zm-7,0L11,59.933V59.005l14,8.071V68ZM11,68l14-8.071V59.005L11,67.076V68Zm56,0L53,59.933V59.005l14,8.071V68ZM53,68l14-8.071V59.005L53,67.076V68Z"/>
</svg>
