<svg xmlns="http://www.w3.org/2000/svg" width="77" height="78" viewBox="0 0 77 78">
  <metadata><?xpacket begin="﻿" id="W5M0MpCehiHzreSzNTczkc9d"?>
<x:xmpmeta xmlns:x="adobe:ns:meta/" x:xmptk="Adobe XMP Core 5.6-c138 79.159824, 2016/09/14-01:09:01        ">
   <rdf:RDF xmlns:rdf="http://www.w3.org/1999/02/22-rdf-syntax-ns#">
      <rdf:Description rdf:about=""/>
   </rdf:RDF>
</x:xmpmeta>
                                                                                                    
                                                                                                    
                                                                                                    
                                                                                                    
                                                                                                    
                                                                                                    
                                                                                                    
                                                                                                    
                                                                                                    
                                                                                                    
                                                                                                    
                                                                                                    
                                                                                                    
                                                                                                    
                                                                                                    
                                                                                                    
                                                                                                    
                                                                                                    
                                                                                                    
                                                                                                    
                           
<?xpacket end="w"?></metadata>
<defs>
    <style>
      .cls-1 {
        fill: #cdcdcd;
        fill-rule: evenodd;
      }
    </style>
  </defs>
  <path id="gallery-tile" class="cls-1" d="M-2-2.005H80v82H-2v-82Zm2,2H78v78H0v-78Zm6,37H72v2H6v-2ZM6,7H40V9H6V7ZM6,37V9H8V37H6Zm32,0V9h2V37H38ZM8,9l30,27.07V37L8,9.924V9ZM38,9L8,36.067V37L38,9.924V9Zm-32,59H72v2H6v-2Zm0,0v-29H8v29H6Zm64,0v-29h2v29H70Zm-62-29L70,67.067v0.927L8,39.924v-0.93Zm62,0L8,67.067v0.927l62-28.07v-0.93Zm-30-17H72v2H40v-2ZM54,7H72V9H54V7Zm0,15V9h2v13H54Zm16,0V9h2v13H70ZM56,9L70,21.067v0.928L56,9.924V9ZM70,9L56,21.067v0.928L70,9.924V9ZM40,7H54V9H40V7Zm0,2L54,21.067v0.928L40,9.924V9ZM54,9L40,21.067v0.928L54,9.924V9Zm0,28V24h2V37H54Zm16,0V24h2V37H70ZM56,24L70,36.067V37L56,24.922V24Zm14,0L56,36.067V37L70,24.922V24ZM40,24L54,36.067V37L40,24.922V24Zm14,0L40,36.067V37L54,24.922V24Z"/>
</svg>
