<svg xmlns="http://www.w3.org/2000/svg" width="77" height="78" viewBox="0 0 77 78">
  <metadata><?xpacket begin="﻿" id="W5M0MpCehiHzreSzNTczkc9d"?>
<x:xmpmeta xmlns:x="adobe:ns:meta/" x:xmptk="Adobe XMP Core 5.6-c138 79.159824, 2016/09/14-01:09:01        ">
   <rdf:RDF xmlns:rdf="http://www.w3.org/1999/02/22-rdf-syntax-ns#">
      <rdf:Description rdf:about=""/>
   </rdf:RDF>
</x:xmpmeta>
                                                                                                    
                                                                                                    
                                                                                                    
                                                                                                    
                                                                                                    
                                                                                                    
                                                                                                    
                                                                                                    
                                                                                                    
                                                                                                    
                                                                                                    
                                                                                                    
                                                                                                    
                                                                                                    
                                                                                                    
                                                                                                    
                                                                                                    
                                                                                                    
                                                                                                    
                                                                                                    
                           
<?xpacket end="w"?></metadata>
<defs>
    <style>
      .cls-1 {
        fill: #cdcdcd;
        fill-rule: evenodd;
      }
    </style>
  </defs>
  <path id="gallery-masonry" class="cls-1" d="M-2-2.005H80v82H-2v-82Zm2,2H78v78H0v-78ZM6,46H25v2H6V46ZM6,7H25V9H6V7ZM6,46V9H8V46H6Zm17,0V9h2V46H23Zm6-17H48v2H29v-2ZM29,7H48V9H29V7Zm0,22V9h2V29H29Zm17,0V9h2V29H46Zm6,10H71v2H52v-2ZM52,7H71V9H52V7Zm0,32V9h2v30H52Zm17,0V9h2v30H69ZM8,9L23,45.067V46L8,9.925V9ZM23,9L8,45.067V46L23,9.925V9Zm8,0L46,28.068V29L31,9.925V9ZM46,9L31,28.068V29L46,9.925V9Zm8,0,15,29.07v0.928L54,9.925V9ZM69,9L54,38.066v0.928L69,9.925V9Zm-63,69H25v2H6v-2ZM6,51H25v2H6V51Zm0,27V53H8v25H6Zm17,0V53h2v25H23Zm6-5H48v2H29v-2Zm0-39H48v2H29V34Zm0,39v-37h2V73H29Zm17,0v-37h2V73H46Zm6-29H71v2H52v-2Zm0,15V46h2V59H52Zm17,0V46h2V59H69Zm-17,0H71v2H52v-2Zm0,5H71v2H52v-2Zm0,14V66h2V78H52Zm17,0V66h2V78H69ZM8,53L23,77.068v0.927L8,53.924V53Zm15,0L8,77.068v0.927l15-24.07V53Zm8-17L46,72.066V73L31,36.925v-0.93Zm15,0L31,72.066V73l15-36.07v-0.93Zm8,10L69,58.066V59L54,46.923V46Zm15,0L54,58.066V59L69,46.923V46ZM54,66L64,77.066V78L54,66.923V66Zm15,0L59,77.066V78L69,66.923V66Z"/>
</svg>
