<svg xmlns="http://www.w3.org/2000/svg" width="77" height="78" viewBox="0 0 77 78">
  <defs>
    <style>
      .cls-1 {
        fill: #cdcdcd;
        fill-rule: evenodd;
      }
    </style>
  </defs>
  <path id="gallery-grid" class="cls-1" d="M-2-2.005H80v82H-2v-82Zm2,2H78v78H0v-78Zm6,23H25v2H6v-2ZM6,7H25V9H6V7Zm0,16V9H8v14H6Zm17,0V9h2v14H23Zm6,0H48v2H29v-2ZM29,7H48V9H29V7Zm0,16V9h2v14H29Zm17,0V9h2v14H46Zm6,0H71v2H52v-2ZM52,7H71V9H52V7Zm0,16V9h2v14H52Zm17,0V9h2v14H69Zm-63,23H25v2H6v-2ZM6,30H25v2H6V30Zm0,16V32H8v14H6Zm17,0V32h2v14H23Zm6,0H48v2H29v-2Zm0-16H48v2H29V30Zm0,16V32h2v14H29Zm17,0V32h2v14H46Zm6,0H71v2H52v-2Zm0-16H71v2H52V30Zm0,16V32h2v14H52Zm17,0V32h2v14H69Zm-63,23H25v2H6v-2ZM6,53H25v2H6V53Zm0,16V55H8v14H6Zm17,0V55h2v14H23Zm6,0H48v2H29v-2Zm0-16H48v2H29V53Zm0,16V55h2v14H29Zm17,0V55h2v14H46Zm6,0H71v2H52v-2Zm0-16H71v2H52V53Zm0,16V55h2v14H52Zm17,0V55h2v14H69ZM8,9L23,22.067v0.928L8,9.924V9ZM23,9L8,22.067v0.928L23,9.924V9Zm8,0,15,13.07v0.928L31,9.924V9ZM46,9L31,22.066v0.928L46,9.924V9Zm8,0L69,22.067v0.928L54,9.924V9ZM69,9L54,22.067v0.928L69,9.924V9ZM8,32L23,45.066v0.928L8,32.923V32Zm15,0L8,45.066v0.928L23,32.923V32Zm8,0L46,45.066v0.928L31,32.923V32Zm15,0L31,45.066v0.928L46,32.923V32Zm8,0L69,45.066v0.928L54,32.923V32Zm15,0L54,45.066v0.928L69,32.923V32ZM8,55L23,68.066v0.928L8,55.923V55Zm15,0L8,68.066v0.928L23,55.923V55Zm8,0L46,68.066v0.928L31,55.923V55Zm15,0L31,68.066v0.928L46,55.923V55Zm8,0L69,68.066v0.928L54,55.923V55Zm15,0L54,68.066v0.928L69,55.923V55Z"/>
</svg>
