<svg xmlns="http://www.w3.org/2000/svg" width="81" height="86" viewBox="0 0 81 86">
  <defs>
    <style>
      .cls-1 {
        fill: #cdcdcd;
        fill-rule: evenodd;
      }
    </style>
  </defs>
  <path id="goto-top-left" class="cls-1" d="M81,30H20v2H81V30Zm0,12H36v2H81V42Zm0-6H20v2H81V36Zm0-23H10v2H81V13ZM12,13V0H10V13h2Zm69,7H25v4H81V20ZM-2-2H83V88H-2V-2ZM0,0H81V86H0V0ZM19.5,57A9.5,9.5,0,1,0,29,66.5,9.5,9.5,0,0,0,19.5,57Zm0,1.258A8.243,8.243,0,1,0,27.743,66.5,8.243,8.243,0,0,0,19.5,58.257ZM16,66.674a0.886,0.886,0,0,0,.23.618,0.807,0.807,0,0,0,1.174,0l1.276-1.378v5.073h1.633V65.915l1.276,1.35a0.808,0.808,0,0,0,1.174,0,0.911,0.911,0,0,0,0-1.209l-2.706-2.811a0.729,0.729,0,0,0-.561-0.253,0.757,0.757,0,0,0-.587.253l-2.68,2.811A0.887,0.887,0,0,0,16,66.674Z"/>
</svg>
