<svg xmlns="http://www.w3.org/2000/svg" width="81" height="86" viewBox="0 0 81 86">
  <defs>
    <style>
      .cls-1 {
        fill: #cdcdcd;
        fill-rule: evenodd;
      }
    </style>
  </defs>
  <path id="goto-top-right" class="cls-1" d="M0,30H61v2H0V30ZM0,42H45v2H0V42Zm0-6H61v2H0V36ZM0,13H71v2H0V13Zm69,0V0h2V13H69ZM0,20H56v4H0V20ZM-2-2H83V88H-2V-2ZM0,0H81V86H0V0ZM61.5,57A9.5,9.5,0,1,1,52,66.5,9.5,9.5,0,0,1,61.5,57Zm0,1.258A8.243,8.243,0,1,1,53.257,66.5,8.243,8.243,0,0,1,61.5,58.257ZM65,66.674a0.886,0.886,0,0,1-.23.618,0.807,0.807,0,0,1-1.174,0l-1.276-1.378v5.073H60.684V65.915l-1.276,1.35a0.808,0.808,0,0,1-1.174,0,0.911,0.911,0,0,1,0-1.209l2.705-2.811a0.729,0.729,0,0,1,.561-0.253,0.757,0.757,0,0,1,.587.253l2.68,2.811A0.887,0.887,0,0,1,65,66.674Z"/>
</svg>
