<svg xmlns="http://www.w3.org/2000/svg" width="81" height="86" viewBox="0 0 81 86">
  <defs>
    <style>
      .cls-1 {
        fill: #cdcdcd;
        fill-rule: evenodd;
      }
    </style>
  </defs>
  <path id="goto-top-center" class="cls-1" d="M13,13V0H11V13h2Zm58,0V0H69V13h2ZM11,13H71v2H11V13Zm0,17H71v2H11V30Zm0,12H71v2H11V42Zm0-6H71v2H11V36Zm0-16H71v4H11V20ZM-2-2H83V88H-2V-2ZM0,0H81V86H0V0ZM40.5,57A9.5,9.5,0,1,1,31,66.5,9.5,9.5,0,0,1,40.5,57Zm0,1.258A8.243,8.243,0,1,1,32.257,66.5,8.243,8.243,0,0,1,40.5,58.257ZM44,66.674a0.886,0.886,0,0,1-.23.618,0.807,0.807,0,0,1-1.174,0l-1.276-1.378v5.073H39.684V65.915l-1.276,1.35a0.808,0.808,0,0,1-1.174,0,0.911,0.911,0,0,1,0-1.209l2.705-2.811a0.729,0.729,0,0,1,.561-0.253,0.757,0.757,0,0,1,.587.253l2.68,2.811A0.887,0.887,0,0,1,44,66.674Z"/>
</svg>
