<svg xmlns="http://www.w3.org/2000/svg" width="78" height="78" viewBox="0 0 78 78">
  <defs>
    <style>
      .cls-1 {
        fill: #cdcdcd;
        fill-rule: evenodd;
      }
    </style>
  </defs>
  <path id="Rectangle_7_copy_3" data-name="Rectangle 7 copy 3" class="cls-1" d="M-2,79.994V-2H80v82H-2Zm80-5h0V67h0V65h0V54h0V53h0V49h0V48h0V43h0V41h0V35h0V33h0V26h0V25.068h0V21.925h0V21h0V12h0V10h0v-10H0V78H9v0h2v0H45v0h2v0H57v0h2v0H78v-2.07h0V75Zm-3,3h0V77.068L78,75v0.929ZM57,67V65H78v2H57Zm14-8H58V58H71v1ZM9,33H9V12H9V10H47v2h0V33h0v2H9V33Zm2,0H45V32.068h0V12.925h0V12H11V33ZM27.214,22.5L28,22.96,11,33V32.068Zm1.572,0L45,32.068v0.927L28,22.96ZM28,22.032L45,12v0.929L28.786,22.5Zm-0.786.464L11,12.925V12L28,22.032ZM34,43H10V41H34v2Zm10,6H10V48H44v1Zm0,5H10V53H44v1ZM23,59H10V58H23v1Zm35-6H78v1H58V53Zm0-5H78v1H58V48Zm0-7H78v2H58V41Zm-1-8h0V12h0V10H78v2H59V33H78v2H57V33Zm18.527-9.629L78,25.068V26l-3.2-2.2Zm-0.731-.5L78,21v0.929l-2.473,1.441Zm-0.73.425L59,12.925V12L74.8,22.863Zm0,0,0.731,0.5L59,33V32.068ZM11,67V78H9V67h2Zm0,0L28,77.068V78h0L11,67.925V67Zm34,0v0h0v0.927L28,78h0V77.068Zm0,0.929V67h2V78H45V67.925h0ZM9,67V65H47v2H9Zm50,0V78H57V67h2Zm0,0L75,77.068V78h0L59,67.925V67Z"/>
</svg>
