<svg xmlns="http://www.w3.org/2000/svg" width="78" height="78" viewBox="0 0 78 78">
  <defs>
    <style>
      .cls-1 {
        fill: #cdcdcd;
        fill-rule: evenodd;
      }
    </style>
  </defs>
  <path class="cls-1" d="M-2-2H80v82H-2V-2Zm2,2H78V78H0v-78ZM16,48H40v1H16V48Zm0,5h9v1H16V53Zm48-5H78v1H64V48Zm0,5h9v1H64V53ZM11,35H45v2H11V35ZM9,10H47v2H9V10ZM9,58.99v-47h2v47H9Zm36,0v-47h2v47H45ZM16,42H33v2H16V42Zm48,0H78v2H64V42ZM11,12L45,34.068V35L11,12.925V12Zm34,0L11,34.068V35l34-22.07V12ZM59,35H78v2H59V35ZM57,10H78v2H57V10ZM57,58.99v-47h2v47H57ZM9,59H47v2H9V59Zm48,0H78v2H57V59Zm2-47L78,25.068V26L59,12.925V12Zm19,9L59,34.068V35l19-13.07V21ZM9,71H47v2H9V71Zm0,7V73h2v5H9Zm36,0V73h2v5H45Zm0-5-7,4.072V78l7-4.07V73ZM11,73l7,4.072V78l-7-4.07V73Zm48,0,7,4.072V78l-7-4.07V73Zm-2-2H78v2H57V71Zm0,7V73h2v5H57Z"/>
</svg>
