<svg xmlns="http://www.w3.org/2000/svg" width="251" height="88" viewBox="0 0 251 88">
  <metadata><?xpacket begin="﻿" id="W5M0MpCehiHzreSzNTczkc9d"?>
<x:xmpmeta xmlns:x="adobe:ns:meta/" x:xmptk="Adobe XMP Core 5.6-c138 79.159824, 2016/09/14-01:09:01        ">
   <rdf:RDF xmlns:rdf="http://www.w3.org/1999/02/22-rdf-syntax-ns#">
      <rdf:Description rdf:about=""/>
   </rdf:RDF>
</x:xmpmeta>
                                                                                                    
                                                                                                    
                                                                                                    
                                                                                                    
                                                                                                    
                                                                                                    
                                                                                                    
                                                                                                    
                                                                                                    
                                                                                                    
                                                                                                    
                                                                                                    
                                                                                                    
                                                                                                    
                                                                                                    
                                                                                                    
                                                                                                    
                                                                                                    
                                                                                                    
                                                                                                    
                           
<?xpacket end="w"?></metadata>
<defs>
    <style>
      .cls-1 {
        fill: #cdcdcd;
        fill-rule: evenodd;
      }
    </style>
  </defs>
  <path id="lines_copy" data-name="lines copy" class="cls-1" d="M-2,89.993v-92H253v92H-2Zm253-90H0v88H251v-88Zm0,88H0v-88H251v88ZM78.89,38.093a5.994,5.994,0,1,0,5.993,5.993A5.993,5.993,0,0,0,78.89,38.093Zm22.509,0.2h-1.6V43.9q0,0.593.044,1.652T99.9,46.781H99.854L94.6,38.292H92.478V49h1.589V43.434q0-1.128-.1-2.49l-0.037-.476h0.059L99.253,49H101.4V38.292Zm8.8,3.593a3.571,3.571,0,0,0-2.784-1.132,3.666,3.666,0,0,0-2.849,1.106,4.39,4.39,0,0,0-1.01,3.076,5.02,5.02,0,0,0,.468,2.227,3.389,3.389,0,0,0,1.341,1.472,3.883,3.883,0,0,0,2.006.513,3.649,3.649,0,0,0,2.835-1.113,4.42,4.42,0,0,0,1.018-3.1A4.374,4.374,0,0,0,110.2,41.885Zm15.527-3.593h-1.758v4.38h-4.936v-4.38h-1.751V49h1.751V44.173h4.936V49h1.758V38.292Zm9.324,6.116a3.723,3.723,0,0,0-.93-2.681,3.34,3.34,0,0,0-2.535-.974,3.415,3.415,0,0,0-2.717,1.135,4.592,4.592,0,0,0-.989,3.12,4.186,4.186,0,0,0,1.066,3.036,3.918,3.918,0,0,0,2.955,1.1,7.815,7.815,0,0,0,1.472-.125,5.285,5.285,0,0,0,1.275-.425V47.2a7.022,7.022,0,0,1-1.329.45,6.251,6.251,0,0,1-1.337.136,2.218,2.218,0,0,1-1.692-.634,2.66,2.66,0,0,1-.637-1.813h5.4v-0.93Zm8.254-.864a2.638,2.638,0,0,0-.787-2.117,3.505,3.505,0,0,0-2.333-.674,6.649,6.649,0,0,0-1.48.18,5.987,5.987,0,0,0-1.442.524l0.556,1.23a9.057,9.057,0,0,1,1.1-.432,3.891,3.891,0,0,1,1.194-.183,1.478,1.478,0,0,1,1.124.385,1.637,1.637,0,0,1,.363,1.161v0.432l-1.4.044a5.364,5.364,0,0,0-2.835.7,2.141,2.141,0,0,0-.93,1.89,2.411,2.411,0,0,0,.67,1.824,2.578,2.578,0,0,0,1.864.645,3.736,3.736,0,0,0,1.524-.267,3.325,3.325,0,0,0,1.179-1.007h0.058L142.078,49h1.23V43.544ZM152.6,37.6h-1.728v2.952a10.3,10.3,0,0,0,.124,1.377H150.9a2.791,2.791,0,0,0-2.431-1.179,2.847,2.847,0,0,0-2.384,1.11,4.953,4.953,0,0,0-.861,3.1,4.934,4.934,0,0,0,.85,3.084,2.821,2.821,0,0,0,2.365,1.1,2.752,2.752,0,0,0,2.425-1.209h0.08l0.3,1.062H152.6V37.6Zm9.148,6.8a3.723,3.723,0,0,0-.93-2.681,3.338,3.338,0,0,0-2.534-.974,3.414,3.414,0,0,0-2.717,1.135,4.587,4.587,0,0,0-.989,3.12,4.186,4.186,0,0,0,1.065,3.036,3.92,3.92,0,0,0,2.956,1.1,7.83,7.83,0,0,0,1.472-.125,5.278,5.278,0,0,0,1.274-.425V47.2a6.975,6.975,0,0,1-1.329.45,6.244,6.244,0,0,1-1.337.136,2.221,2.221,0,0,1-1.692-.634,2.665,2.665,0,0,1-.637-1.813h5.4v-0.93Zm6.065-3.655a2.5,2.5,0,0,0-1.4.425,3.215,3.215,0,0,0-1.051,1.15h-0.088L165.046,40.9H163.7V49h1.721V44.767a2.433,2.433,0,0,1,.641-1.75,2.2,2.2,0,0,1,1.673-.674,3.252,3.252,0,0,1,.762.088l0.169-1.6A4.153,4.153,0,0,0,167.808,40.753Zm-9.529,1.3a1.654,1.654,0,0,1,1.289.516,2.246,2.246,0,0,1,.483,1.52h-3.676a2.479,2.479,0,0,1,.589-1.516A1.73,1.73,0,0,1,158.279,42.057Zm-9.375,5.7a1.606,1.606,0,0,1-1.428-.707A3.673,3.673,0,0,1,147,44.994a3.774,3.774,0,0,1,.49-2.1,1.583,1.583,0,0,1,1.4-.736,1.848,1.848,0,0,1,1.56.645,3.631,3.631,0,0,1,.5,2.175v0.242a3.146,3.146,0,0,1-.5,1.937A1.872,1.872,0,0,1,148.9,47.755Zm-9.39.073a1.385,1.385,0,0,1-.967-0.3,1.082,1.082,0,0,1-.322-0.839,1.234,1.234,0,0,1,.553-1.11,3.559,3.559,0,0,1,1.769-.407l1.04-.044v0.7a1.9,1.9,0,0,1-.568,1.468A2.131,2.131,0,0,1,139.514,47.828Zm-7.925-5.771a1.652,1.652,0,0,1,1.289.516,2.241,2.241,0,0,1,.484,1.52h-3.677a2.473,2.473,0,0,1,.59-1.516A1.727,1.727,0,0,1,131.589,42.057ZM107.405,47.74q-2.073,0-2.073-2.805a3.65,3.65,0,0,1,.487-2.058,1.761,1.761,0,0,1,1.571-.718q2.066,0,2.066,2.776Q109.456,47.74,107.405,47.74Zm-28.452.577a4.268,4.268,0,0,1-2.243-.637l5.9-5.9A4.288,4.288,0,0,1,78.953,48.317Zm-4.294-4.294A4.287,4.287,0,0,1,81.2,40.366l-5.9,5.9A4.267,4.267,0,0,1,74.659,44.023Z"/>
</svg>
