<svg xmlns="http://www.w3.org/2000/svg" width="78" height="78" viewBox="0 0 78 78">
  <defs>
    <style>
      .cls-1 {
        fill: #cdcdcd;
        fill-rule: evenodd;
      }
    </style>
  </defs>
  <path id="Rectangle_7_copy_36" data-name="Rectangle 7 copy 36" class="cls-1" d="M-2-2.007H80v82H-2v-82Zm2,2H78v78H0v-78Zm6,19H25v2H6v-2Zm23,0H48v2H29v-2Zm23,0H71v2H52v-2Zm-46,24H25v2H6v-2Zm0-12H25v2H6v-2Zm0,12v-10H8v10H6Zm17,0v-10h2v10H23Zm6,0H48v2H29v-2Zm0-12H48v2H29v-2Zm0,12v-10h2v10H29Zm17,0v-10h2v10H46Zm6,0H71v2H52v-2Zm0-12H71v2H52v-2Zm0,12v-10h2v10H52Zm17,0v-10h2v10H69Zm-63-36H25v2H6v-2Zm0,12v-10H8v10H6Zm17,0v-10h2v10H23Zm6-12H48v2H29v-2Zm0,12v-10h2v10H29Zm17,0v-10h2v10H46Zm6-12H71v2H52v-2Zm0,12v-10h2v10H52Zm17,0v-10h2v10H69Zm-63,6H25v2H6v-2Zm23,0H48v2H29v-2Zm23,0H71v2H52v-2Zm-46,24H25v2H6v-2Zm23,0H48v2H29v-2Zm23,0H71v2H52v-2Zm-44-16,15,9.072v0.927L8,33.922V32.994Zm15,0L8,42.066v0.927l15-9.071V32.994Zm8,0,15,9.072v0.927L31,33.922V32.994Zm15,0L31,42.066v0.927l15-9.071V32.994Zm8,0,15,9.072v0.927L54,33.922V32.994Zm15,0L54,42.066v0.927l15-9.071V32.994Zm-61-24,15,9.072v0.928L8,9.921V8.994Zm15,0L8,18.066v0.928L23,9.921V8.994Zm8,0,15,9.072v0.928L31,9.921V8.994Zm15,0L31,18.066v0.928L46,9.921V8.994Zm8,0,15,9.072v0.928L54,9.921V8.994Zm15,0L54,18.066v0.928L69,9.921V8.994Z"/>
</svg>
