<svg xmlns="http://www.w3.org/2000/svg" width="78" height="78" viewBox="0 0 78 78">
  <metadata><?xpacket begin="﻿" id="W5M0MpCehiHzreSzNTczkc9d"?>
<x:xmpmeta xmlns:x="adobe:ns:meta/" x:xmptk="Adobe XMP Core 5.6-c138 79.159824, 2016/09/14-01:09:01        ">
   <rdf:RDF xmlns:rdf="http://www.w3.org/1999/02/22-rdf-syntax-ns#">
      <rdf:Description rdf:about=""/>
   </rdf:RDF>
</x:xmpmeta>
                                                                                                    
                                                                                                    
                                                                                                    
                                                                                                    
                                                                                                    
                                                                                                    
                                                                                                    
                                                                                                    
                                                                                                    
                                                                                                    
                                                                                                    
                                                                                                    
                                                                                                    
                                                                                                    
                                                                                                    
                                                                                                    
                                                                                                    
                                                                                                    
                                                                                                    
                                                                                                    
                           
<?xpacket end="w"?></metadata>
<defs>
    <style>
      .cls-1 {
        fill: #cdcdcd;
        fill-rule: evenodd;
      }
    </style>
  </defs>
  <path id="load-more-infinite" class="cls-1" d="M-2-2.005H80v82H-2v-82Zm2,2H78v78H0v-78Zm6,20H25v2H6v-2Zm0-13H25V9H6v-2Zm0,13V9H8v11H6Zm17,0V9h2v11H23Zm6,0H48v2H29v-2Zm0-13H48V9H29v-2Zm0,13V9h2v11H29Zm17,0V9h2v11H46Zm6,0H71v2H52v-2Zm0-13H71V9H52v-2Zm0,13V9h2v11H52Zm17,0V9h2v11H69Zm-63,30H25v2H6v-2Zm0-13H25v2H6v-2Zm0,13V39H8v11H6Zm17,0V39h2v11H23Zm6,0H48v2H29v-2Zm0-13H48v2H29v-2Zm0,13V39h2v11H29Zm17,0V39h2v11H46Zm6,0H71v2H52v-2Zm0-13H71v2H52v-2Zm0,13V39h2v11H52Zm17,0V39h2v11H69Zm-63,16H25v2H6v-2Zm0,13V68H8v11H6Zm17,0V68h2v11H23Zm6-13H48v2H29v-2Zm0,13V68h2v11H29Zm17,0V68h2v11H46Zm6-13H71v2H52v-2Zm0,13V68h2v11H52Zm17,0V68h2v11H69Zm-63-53H25v2H6v-2Zm23,0H48v2H29v-2Zm23,0H71v2H52v-2Zm-46,30H25v2H6v-2Zm23,0H48v2H29v-2Zm23,0H71v2H52v-2ZM8,9L23,19.067v0.927L8,9.922V9ZM23,9L8,19.067v0.927L23,9.922V9Zm8,0L46,19.067v0.927L31,9.922V9ZM46,9L31,19.067v0.927L46,9.922V9Zm8,0L69,19.067v0.927L54,9.922V9ZM69,9L54,19.067v0.927L69,9.922V9ZM8,39L23,49.067v0.927L8,39.923V39Zm15,0L8,49.067v0.927L23,39.923V39Zm8,0L46,49.067v0.927L31,39.923V39Zm15,0L31,49.067v0.927L46,39.923V39Zm8,0L69,49.067v0.927L54,39.923V39Zm15,0L54,49.067v0.927L69,39.923V39ZM8,68L23,78.067v0.927L8,68.923V68Zm15,0L8,78.067v0.927L23,68.923V68Zm8,0L46,78.067v0.927L31,68.923V68Zm15,0L31,78.067v0.927L46,68.923V68Zm8,0L69,78.067v0.927L54,68.923V68Zm15,0L54,78.067v0.927L69,68.923V68Z"/>
</svg>
