<svg xmlns="http://www.w3.org/2000/svg" width="78" height="78" viewBox="0 0 78 78">
  <metadata><?xpacket begin="﻿" id="W5M0MpCehiHzreSzNTczkc9d"?>
<x:xmpmeta xmlns:x="adobe:ns:meta/" x:xmptk="Adobe XMP Core 5.6-c138 79.159824, 2016/09/14-01:09:01        ">
   <rdf:RDF xmlns:rdf="http://www.w3.org/1999/02/22-rdf-syntax-ns#">
      <rdf:Description rdf:about=""/>
   </rdf:RDF>
</x:xmpmeta>
                                                                                                    
                                                                                                    
                                                                                                    
                                                                                                    
                                                                                                    
                                                                                                    
                                                                                                    
                                                                                                    
                                                                                                    
                                                                                                    
                                                                                                    
                                                                                                    
                                                                                                    
                                                                                                    
                                                                                                    
                                                                                                    
                                                                                                    
                                                                                                    
                                                                                                    
                                                                                                    
                           
<?xpacket end="w"?></metadata>
<defs>
    <style>
      .cls-1 {
        fill: #cdcdcd;
        fill-rule: evenodd;
      }
    </style>
  </defs>
  <path id="load-more-buton" class="cls-1" d="M-2-2.005H80v82H-2v-82Zm2,2H78v78H0v-78Zm6,19H25v2H6v-2Zm23,0H48v2H29v-2Zm23,0H71v2H52v-2Zm-46,24H25v2H6v-2Zm0-12H25v2H6v-2Zm0,12V33H8v10H6Zm17,0V33h2v10H23Zm6,0H48v2H29v-2Zm0-12H48v2H29v-2Zm0,12V33h2v10H29Zm17,0V33h2v10H46Zm6,0H71v2H52v-2Zm0-12H71v2H52v-2Zm0,12V33h2v10H52Zm17,0V33h2v10H69Zm-63-36H25V9H6v-2Zm0,12V9H8v10H6Zm17,0V9h2v10H23Zm6-12H48V9H29v-2Zm0,12V9h2v10H29Zm17,0V9h2v10H46Zm6-12H71V9H52v-2Zm0,12V9h2v10H52Zm17,0V9h2v10H69Zm-63,6H25v2H6v-2Zm23,0H48v2H29v-2Zm23,0H71v2H52V25Zm-46,24H25v2H6v-2Zm23,0H48v2H29v-2Zm23,0H71v2H52v-2ZM8,33l15,9.072v0.927L8,33.923V33Zm15,0L8,42.067v0.927l15-9.072V33Zm8,0,15,9.072v0.927L31,33.923V33Zm15,0L31,42.067v0.927l15-9.072V33Zm8,0,15,9.072v0.927L54,33.923V33Zm15,0L54,42.067v0.927l15-9.072V33ZM8,9l15,9.072v0.927L8,9.922V9ZM23,9L8,18.067v0.927L23,9.922V9Zm8,0,15,9.072v0.927L31,9.922V9ZM46,9L31,18.067v0.927L46,9.922V9Zm8,0,15,9.072v0.927L54,9.922V9ZM69,9L54,18.067v0.927L69,9.922V9ZM36,63h1V62H36v1Zm1,1h1V63H37v1Zm1,1h1V64H38v1Zm1-1h1V63H39v1Zm1-1h1V62H40v1Zm-4,1h1V63H36v1Zm1,1h1V64H37v1Zm1,1h1V65H38v1Zm1-1h1V64H39v1Zm1-1h1V63H40v1Zm-9-.5A7.5,7.5,0,1,1,38.5,71,7.5,7.5,0,0,1,31,63.5Zm2,0A5.5,5.5,0,1,1,38.5,69,5.5,5.5,0,0,1,33,63.5Z"/>
</svg>
