<svg xmlns="http://www.w3.org/2000/svg" width="120" height="112" viewBox="0 0 120 112">
  <defs>
    <style>
      .cls-1 {
        fill: #cdcdcd;
        fill-rule: evenodd;
      }
    </style>
  </defs>
  <path id="login-skin-simple-light" class="cls-1" d="M-2,114V-2H122V114H-2ZM120,0H0V112H120V0ZM60,51H38V49H60v2ZM51,68H38V66H51v2ZM83,79H38V77H83v2ZM44,89H38V87h6v2Zm-6-2V83h2v0h0v2h0v2H38Zm6-4v2H40V83h4Zm0,2h0v2H42V85h2Zm10,2H46V85h8v2Zm29,3H64V83H83v7ZM81,73h2v4H81V73Zm0,0H40V71H83v2H81ZM40,73h0v4H38V71h2v0h0v2ZM83,62H38V60H83v2Zm-2-6h2v4H81V56Zm0,0H40V54H83v2H81ZM40,56h0v4H38V54h2v0h0v2ZM59.5,35A13.5,13.5,0,1,1,73,21.5,13.514,13.514,0,0,1,59.5,35Zm0-25.361A11.862,11.862,0,1,0,71.36,21.5,11.875,11.875,0,0,0,59.5,9.64ZM70.164,21.5a10.661,10.661,0,0,1-5.3,9.218L68.118,21.3a10.064,10.064,0,0,0,.811-3.82,8.172,8.172,0,0,0-.072-1.1A10.606,10.606,0,0,1,70.164,21.5Zm-5.392-5.98a4.993,4.993,0,0,0,1.047,2.5,5.616,5.616,0,0,1,.879,2.941,12.891,12.891,0,0,1-.812,3.448l-1.064,3.554L60.969,16.5c0.642-.034,1.221-0.1,1.221-0.1a0.441,0.441,0,0,0-.068-0.879s-1.727.136-2.842,0.136c-1.048,0-2.809-.136-2.809-0.136a0.441,0.441,0,0,0-.068.879s0.544,0.068,1.118.1l1.662,4.552-2.334,7L52.965,16.5c0.642-.034,1.22-0.1,1.22-0.1a0.441,0.441,0,0,0-.068-0.879s-1.727.136-2.842,0.136c-0.2,0-.436-0.005-0.687-0.013A10.662,10.662,0,0,1,66.7,13.637c-0.046,0-.091-0.009-0.138-0.009A1.847,1.847,0,0,0,64.772,15.521ZM48.835,21.5a10.627,10.627,0,0,1,.923-4.34L54.845,31.1A10.667,10.667,0,0,1,48.835,21.5Zm14.13,9.914a0.94,0.94,0,0,0,.076.147,10.671,10.671,0,0,1-6.554.17l3.2-9.3Z"/>
</svg>
