<svg xmlns="http://www.w3.org/2000/svg" width="171" height="38" viewBox="0 0 171 38">
  <defs>
    <style>
      .cls-1 {
        fill: #cdcdcd;
        fill-rule: evenodd;
      }
    </style>
  </defs>
  <path id="paginationstyle-1" class="cls-1" d="M-2,39.994v-42H173v42H-2Zm173-40H0V38H171v-38ZM132,16h1v1h-1V16Zm1,5h-1V20h1v1Zm0-4V16h1v2h-1V17Zm1,3v1h-1V19h1v1Zm0-2V17h1v3h-1V18Zm2,0v1h-1V18h1ZM139,13H128V24h-2V13H115V24h-2V13H102V24h-2V13H89V24H87V13H76V24H74V13H63V24H61V13H50V24H48V13H37V24H35V13H18V24H16V13h0V11H139v2ZM18,24H139v2H16V24h2Zm13-5H22V18h9v1Zm10,0H40V18h1v1Zm1-1v2H41V17h1v1Zm1-1v1H42V16h1v1Zm0,3v1H42V19h1v1Zm1-3H43V16h1v1Zm0,4H43V20h1v1Zm12-5v5H55V17H54V16h2Zm13,1H66V16h3v1Zm1,1H69V17h1v1Zm-3,1V18h2v1H67Zm3,1v1H66V19h1v1h3Zm13-3H80V16h3v1Zm1,1H83V17h1v1Zm0,2H83V19h1v1Zm-4,1V20h3v1H80Zm1-2V18h2v1H81Zm12,0h1V18H93V17h1V16h1v3h1v1H95v1H94V20H92V18h1v1Zm13,0h-1V18h1v1Zm2,0h-1V18h1v1Zm2,0h-1V18h1v1Zm9-1h-1V17h1v1Zm2-1h-2V16h3v4h-1V19h-2V18h2V17Zm-2,4V20h2v1h-2Zm20-10h21v2h0V24h-2V13H141V24h-2V13h0V11Zm2,13h19v2H139V24h2Zm13-5h-9V18h9v1Z"/>
</svg>
