<svg xmlns="http://www.w3.org/2000/svg" width="171" height="38" viewBox="0 0 171 38">
  <defs>
    <style>
      .cls-1 {
        fill: #cdcdcd;
        fill-rule: evenodd;
      }
    </style>
  </defs>
  <path id="paginationstyle-2" class="cls-1" d="M-2,39.994v-42H173v42H-2Zm173-40H0V38H171v-38ZM16,11H50v2h0V24H48V13H37V24H35V13H18V24H16V13h0V11Zm2,13H50v2H16V24h2Zm13-6v1H22V18h9Zm10,0v1H40V18h1Zm1,0v2H41V17h1v1Zm1-1v1H42V16h1v1Zm0,3v1H42V19h1v1Zm1-3H43V16h1v1Zm0,4H43V20h1v1Zm12-5v5H55V17H54V16h2Zm13,1H66V16h3v1Zm1,1H69V17h1v1Zm-3,1V18h2v1H67Zm3,1v1H66V19h1v1h3Zm19,5.969H75V10.976H89V25.969ZM84,19H83V18h1V17H83V16H80v1h3v1H81v1h2v1H80v1h3V20h1V19Zm9,0h1V18H93V17h1V16h1v3h1v1H95v1H94V20H92V18h1v1Zm13,0h-1V18h1v1Zm2,0h-1V18h1v1Zm2,0h-1V18h1v1Zm9-1h-1V17h1v1Zm2-1h-2V16h3v4h-1V19h-2V18h2V17Zm-2,4V20h2v1h-2Zm7-10h34v2h0V24h-2V13H141V24h-2V13H128V24h-2V13h0V11Zm2,13h32v2H126V24h2Zm5-8v1h-1V16h1Zm0,5h-1V20h1v1Zm1-4v1h-1V16h1v1Zm0,3v1h-1V19h1v1Zm1-2v2h-1V17h1v1Zm1,1h-1V18h1v1Zm18-1v1h-9V18h9Z"/>
</svg>
