<svg xmlns="http://www.w3.org/2000/svg" width="77" height="78" viewBox="0 0 77 78">
  <metadata><?xpacket begin="﻿" id="W5M0MpCehiHzreSzNTczkc9d"?>
<x:xmpmeta xmlns:x="adobe:ns:meta/" x:xmptk="Adobe XMP Core 5.6-c142 79.160924, 2017/07/13-01:06:39        ">
   <rdf:RDF xmlns:rdf="http://www.w3.org/1999/02/22-rdf-syntax-ns#">
      <rdf:Description rdf:about=""/>
   </rdf:RDF>
</x:xmpmeta>
                                                                                                    
                                                                                                    
                                                                                                    
                                                                                                    
                                                                                                    
                                                                                                    
                                                                                                    
                                                                                                    
                                                                                                    
                                                                                                    
                                                                                                    
                                                                                                    
                                                                                                    
                                                                                                    
                                                                                                    
                                                                                                    
                                                                                                    
                                                                                                    
                                                                                                    
                                                                                                    
                           
<?xpacket end="w"?></metadata>
<defs>
    <style>
      .cls-1 {
        fill: #d8d8d8;
        fill-rule: evenodd;
      }
    </style>
  </defs>
  <path id="portfolio-single-info_on_bottom_metadata_blow" data-name="portfolio-single-info on bottom metadata blow" class="cls-1" d="M-2,79.991v-82H79v82H-2Zm79-80h0v0H0v78H77v-43h0v-2h0V32.065h0V0.92h0V-0.006Zm-37.387,16.5L38.5,16.03,77-.006V0.92ZM30,44.994H15v-3H30v3Zm31,4H15v-1H61v1Zm0,4H15V52H61v1Zm-38,4H15v-1h8v1Zm0,9H15v-2h8v2Zm4,4H15v-1H27v1Zm13-4H32v-2h8v2Zm4,4H32v-1H44v1Zm13-4H49v-2h8v2Zm4,4H49v-1H61v1Zm-61-37H77v2H0v-2ZM38.5,16.957l1.113-.464L77,32.065v0.928h0ZM0,32.993H0V32.065L37.387,16.493,38.5,16.957ZM0,0.92V-0.006L38.5,16.03l-1.113.463Z"/>
</svg>
