<svg xmlns="http://www.w3.org/2000/svg" width="77" height="78" viewBox="0 0 77 78">
  <metadata><?xpacket begin="﻿" id="W5M0MpCehiHzreSzNTczkc9d"?>
<x:xmpmeta xmlns:x="adobe:ns:meta/" x:xmptk="Adobe XMP Core 5.6-c138 79.159824, 2016/09/14-01:09:01        ">
   <rdf:RDF xmlns:rdf="http://www.w3.org/1999/02/22-rdf-syntax-ns#">
      <rdf:Description rdf:about=""/>
   </rdf:RDF>
</x:xmpmeta>
                                                                                                    
                                                                                                    
                                                                                                    
                                                                                                    
                                                                                                    
                                                                                                    
                                                                                                    
                                                                                                    
                                                                                                    
                                                                                                    
                                                                                                    
                                                                                                    
                                                                                                    
                                                                                                    
                                                                                                    
                                                                                                    
                                                                                                    
                                                                                                    
                                                                                                    
                                                                                                    
                           
<?xpacket end="w"?></metadata>
<defs>
    <style>
      .cls-1 {
        fill: #d8d8d8;
        fill-rule: evenodd;
      }
    </style>
  </defs>
  <path id="portfolio-single-classic-left-algin" class="cls-1" d="M-2,79.993v-82H79v82H-2Zm79-80H0v78H77v-78ZM21,10H6V8H21v2Zm5,4H6V13H26v1Zm0,4H6V17H26v1ZM14,22H6V21h8v1Zm0,8H6V28h8v2Zm4,4H6v-1H18v1Zm-4,6H6V38h8v2Zm4,4H6V43H18v1Zm-4,6H6V48h8v2Zm4,4H6V53H18v1ZM71,10h0v23H69V10H35v0.927h0V32.066h0v0.928H33V10h0V8H71v2Zm-36,23H71v2H33v-2h2Zm17.715-11.5L52,21.031,69,10v0.927Zm-1.429,0L35,10.923V10L52,21.031ZM52,21.959L35,32.994h0V32.066L51.286,21.495ZM35,32.994h0Zm17.714-11.5L69,32.066v0.928h0L52,21.959Z"/>
</svg>
