<svg xmlns="http://www.w3.org/2000/svg" width="77" height="78" viewBox="0 0 77 78">
  <defs>
    <style>
      .cls-1 {
        fill: #d8d8d8;
        fill-rule: evenodd;
      }
    </style>
  </defs>
  <path id="portfolio-single-info_on_top_metadata_on_blow" data-name="portfolio-single-info on top metadata on blow" class="cls-1" d="M-2,79.991v-82H79v82H-2ZM77,77.08h0V45.934h0V45.007h0v-2h0V-0.008H0v78H0v0.014l0.033-.014H76.967L77,78.006V77.08Zm-0.033.912L38.5,61.97l1.113-.464L77,77.08v0.912H76.967ZM38.5,61.043L77,45.007h0v0.928L39.613,61.506ZM0,45.007H0v-2H77v2H0ZM30,10.994H15v-3H30v3Zm31,4H15v-1H61v1Zm0,4H15v-1H61v1Zm-38,4H15v-1h8v1Zm0,9H15v-2h8v2Zm4,4H15v-1H27v1Zm13-4H32v-2h8v2Zm4,4H32v-1H44v1Zm13-4H49v-2h8v2Zm4,4H49v-1H61v1ZM37.387,61.506L38.5,61.97,0.033,77.992H0V77.08ZM0,45.934V45.007H0L38.5,61.043l-1.113.464Z"/>
</svg>
