<svg xmlns="http://www.w3.org/2000/svg" width="77" height="78" viewBox="0 0 77 78">
  <metadata><?xpacket begin="﻿" id="W5M0MpCehiHzreSzNTczkc9d"?>
<x:xmpmeta xmlns:x="adobe:ns:meta/" x:xmptk="Adobe XMP Core 5.6-c142 79.160924, 2017/07/13-01:06:39        ">
   <rdf:RDF xmlns:rdf="http://www.w3.org/1999/02/22-rdf-syntax-ns#">
      <rdf:Description rdf:about=""/>
   </rdf:RDF>
</x:xmpmeta>
                                                                                                    
                                                                                                    
                                                                                                    
                                                                                                    
                                                                                                    
                                                                                                    
                                                                                                    
                                                                                                    
                                                                                                    
                                                                                                    
                                                                                                    
                                                                                                    
                                                                                                    
                                                                                                    
                                                                                                    
                                                                                                    
                                                                                                    
                                                                                                    
                                                                                                    
                                                                                                    
                           
<?xpacket end="w"?></metadata>
<defs>
    <style>
      .cls-1 {
        fill: #d8d8d8;
        fill-rule: evenodd;
      }
    </style>
  </defs>
  <path id="portfolio-single-info_on_top_direction_reverse" data-name="portfolio-single-info on top direction reverse" class="cls-1" d="M-2,79.991v-82H79v82H-2ZM77,77.08h0V45.934h0V45.007h0v-2h0V-0.008H0v78H0v0.014l0.033-.014H76.967L77,78.006V77.08Zm-0.033.912L38.5,61.97l1.113-.464L77,77.08v0.912H76.967ZM38.5,61.043L77,45.007h0v0.928L39.613,61.506ZM0,45.007H0v-2H77v2H0ZM24,11.992H16v-2h8v2Zm4,4H16v-1H28v1Zm-4,6H16v-2h8v2Zm4,4H16v-1H28v1Zm-4,6H16v-2h8v2Zm4,4H16v-1H28v1Zm25-23H38v-3H53v3Zm9,4H38v-1H62v1Zm0,4H38v-1H62v1Zm0,4H38v-1H62v1Zm-16,4H38v-1h8v1ZM37.387,61.506L38.5,61.97,0.033,77.992H0V77.08ZM0,45.934V45.007H0L38.5,61.043l-1.113.464Z"/>
</svg>
