<svg xmlns="http://www.w3.org/2000/svg" width="78" height="78" viewBox="0 0 78 78">
  <defs>
    <style>
      .cls-1 {
        fill: #cdcdcd;
        fill-rule: evenodd;
      }
    </style>
  </defs>
  <path id="portfolio-style-2" class="cls-1" d="M-2-2H80v82H-2V-2Zm2,2H78v78H0v-78ZM6,28H25v2H6V28ZM6,7H25V9H6V7ZM6,28V9H8V28H6Zm17,0V9h2V28H23Zm6-10H48v2H29v-2ZM29,7H48V9H29V7Zm0,11V9h2v9H29Zm17,0V9h2v9H46Zm6,11H71v2H52V29ZM52,7H71V9H52V7Zm0,22V9h2V29H52Zm17,0V9h2V29H69ZM6,51H25v2H6V51ZM6,40H25v2H6V40ZM6,51V42H8v9H6Zm17,0V42h2v9H23Zm6,6H48v2H29V57Zm0-27H48v2H29V30Zm0,27V32h2V57H29Zm17,0V32h2V57H46Zm6,9H71v2H52V66Zm0-25H71v2H52V41Zm0,25V43h2V66H52Zm17,0V43h2V66H69ZM6,63H25v2H6V63ZM6,78V65H8V78H6Zm17,0V65h2V78H23Zm6-9H48v2H29V69Zm0,9V71h2v7H29Zm17,0V71h2v7H46ZM6,34H20v2H6V34ZM29,24H41v2H29V24ZM52,35H68v2H52V35ZM6,57H21v2H6V57Zm23,6H46v2H29V63Zm23,9H68v2H52V72ZM8,9L23,27.068V28L8,9.925V9ZM23,9L8,27.068V28L23,9.925V9Zm8,0,15,8.071V18L31,9.925V9ZM46,9L31,17.067V18L46,9.925V9Zm8,0L69,28.068V29L54,9.925V9ZM69,9L54,28.068V29L69,9.925V9ZM8,42l15,8.071V51L8,42.925V42Zm15,0L8,50.067V51l15-8.071V42Zm8-10L46,56.067V57L31,32.925V32Zm15,0L31,56.067V57L46,32.925V32Zm8,11L69,65.067V66L54,43.925V43Zm15,0L54,65.067V66L69,43.925V43ZM8,65L19,77.068V78L8,65.925V65Zm15,0L12,77.068V78L23,65.925V65Zm8,6,15,8.071V80L31,71.925V71Zm15,0L31,79.067V80l15-8.071V71Z"/>
</svg>
