<svg xmlns="http://www.w3.org/2000/svg" width="77" height="78" viewBox="0 0 77 78">
  <defs>
    <style>
      .cls-1 {
        fill: #cdcdcd;
        fill-rule: evenodd;
      }
    </style>
  </defs>
  <path id="portfolio-single-classic" class="cls-1" d="M-2,79.994V-2H79v82H-2Zm79-80H0v78H77v-78ZM9,33H7V10H9V33Zm0,0H45v2H7V33H9Zm34-.928h0V10.924h0V10h2V33H43V32.068Zm0-21.143L26.715,21.5,26,21.032,43,10h0v0.928ZM25.285,21.5L9,10.924V10L26,21.032ZM9,33H9V32.068L25.285,21.5,26,21.96ZM26.715,21.5L43,32.067V33h0L26,21.96ZM43,33h0ZM7,10V8H45v2H7Zm59,0H51V8H66v2Zm5,4H51V13H71v1Zm0,4H51V17H71v1ZM59,22H51V21h8v1Zm0,8H51V28h8v2Zm4,4H51V33H63v1Zm-4,6H51V38h8v2Zm4,4H51V43H63v1Zm-4,6H51V48h8v2Zm4,4H51V53H63v1Z"/>
</svg>
