<svg xmlns="http://www.w3.org/2000/svg" width="78" height="78" viewBox="0 0 78 78">
  <defs>
    <style>
      .cls-1 {
        fill: #cdcdcd;
        fill-rule: evenodd;
      }
    </style>
  </defs>
  <path id="portfolio-style-1" class="cls-1" d="M-2-2H80v82H-2V-2Zm2,2H78v78H0v-78ZM6,18H25v2H6V18ZM6,7H25V9H6V7ZM6,18V9H8v9H6Zm17,0V9h2v9H23Zm6,0H48v2H29v-2ZM29,7H48V9H29V7Zm0,11V9h2v9H29Zm17,0V9h2v9H46Zm6,0H71v2H52V18ZM52,7H71V9H52V7Zm0,11V9h2v9H52Zm17,0V9h2v9H69ZM6,41H25v2H6V41ZM6,30H25v2H6V30ZM6,41V32H8v9H6Zm17,0V32h2v9H23Zm6,0H48v2H29V41Zm0-11H48v2H29V30Zm0,11V32h2v9H29Zm17,0V32h2v9H46Zm6,0H71v2H52V41Zm0-11H71v2H52V30Zm0,11V32h2v9H52Zm17,0V32h2v9H69ZM6,64H25v2H6V64ZM6,53H25v2H6V53ZM6,64V55H8v9H6Zm17,0V55h2v9H23Zm6,0H48v2H29v-2Zm0-11H48v2H29V53Zm0,11V55h2v9H29Zm17,0V55h2v9H46Zm6,0H71v2H52V64Zm0-11H71v2H52V53Zm0,11V55h2v9H52Zm17,0V55h2v9H69ZM6,24H20v2H6V24Zm23,0H41v2H29V24Zm23,0H68v2H52V24ZM6,47H21v2H6V47Zm23,0H46v2H29V47Zm23,0H68v2H52V47ZM6,70H20v2H6V70Zm23,0H41v2H29V70Zm23,0H68v2H52V70ZM8,9l15,8.072V18L8,9.925V9ZM23,9L8,17.068V18L23,9.925V9Zm8,0,15,8.071V18L31,9.925V9ZM46,9L31,17.067V18L46,9.925V9Zm8,0,15,8.072V18L54,9.925V9ZM69,9L54,17.068V18L69,9.925V9ZM8,32l15,8.071V41L8,32.925V32Zm15,0L8,40.067V41l15-8.071V32Zm8,0,15,8.071V41L31,32.925V32Zm15,0L31,40.067V41l15-8.071V32Zm8,0,15,8.071V41L54,32.925V32Zm15,0L54,40.067V41l15-8.071V32ZM8,55l15,8.072V64L8,55.925V55Zm15,0L8,63.068V64l15-8.071V55Zm8,0,15,8.071V64L31,55.925V55Zm15,0L31,63.067V64l15-8.071V55Zm8,0,15,8.072V64L54,55.925V55Zm15,0L54,63.068V64l15-8.071V55Z"/>
</svg>
