<svg xmlns="http://www.w3.org/2000/svg" width="171" height="38" viewBox="0 0 171 38">
  <metadata><?xpacket begin="﻿" id="W5M0MpCehiHzreSzNTczkc9d"?>
<x:xmpmeta xmlns:x="adobe:ns:meta/" x:xmptk="Adobe XMP Core 5.6-c138 79.159824, 2016/09/14-01:09:01        ">
   <rdf:RDF xmlns:rdf="http://www.w3.org/1999/02/22-rdf-syntax-ns#">
      <rdf:Description rdf:about=""/>
   </rdf:RDF>
</x:xmpmeta>
                                                                                                    
                                                                                                    
                                                                                                    
                                                                                                    
                                                                                                    
                                                                                                    
                                                                                                    
                                                                                                    
                                                                                                    
                                                                                                    
                                                                                                    
                                                                                                    
                                                                                                    
                                                                                                    
                                                                                                    
                                                                                                    
                                                                                                    
                                                                                                    
                                                                                                    
                                                                                                    
                           
<?xpacket end="w"?></metadata>
<defs>
    <style>
      .cls-1 {
        fill: #cdcdcd;
        fill-rule: evenodd;
      }
    </style>
  </defs>
  <path id="post-navigation-4" class="cls-1" d="M-2,39.993v-42H173v42H-2Zm173-40H0v38H171v-38ZM3,10v1H2V10H3ZM4,9v1H3V9H4ZM5,8V9H4V8H5ZM6,7V8H5V7H6ZM2,12H1V11H2v1ZM3,30v1H2V30H3Zm1-1v1H3V29H4Zm1-1v1H4V28H5Zm1-1v1H5V27H6ZM2,32H1V31H2v1ZM8,35v1H7V35H8Zm1-1v1H8V34H9Zm1-1v1H9V33h1Zm1-1v1H10V32h1Zm1-1v1H11V31h1ZM7,37H6V36H7v1Zm7-8v1H13V29h1Zm1-1v1H14V28h1Zm1-1v1H15V27h1Zm1-1v1H16V26h1Zm1-1v1H17V25h1Zm1-1v1H18V24h1Zm-6,7H12V30h1v1Zm5,4v1H17V35h1Zm1-1v1H18V34h1Zm1-1v1H19V33h1Zm1-1v1H20V32h1Zm1-1v1H21V31h1Zm-5,6H16V36h1v1Zm7-8v1H23V29h1Zm1-1v1H24V28h1Zm1-1v1H25V27h1Zm1-1v1H26V26h1Zm1-1v1H27V25h1Zm1-1v1H28V24h1Zm-6,7H22V30h1v1Zm5,4v1H27V35h1Zm1-1v1H28V34h1Zm1-1v1H29V33h1Zm1-1v1H30V32h1Zm1-1v1H31V31h1Zm-5,6H26V36h1v1Zm7-8v1H33V29h1Zm1-1v1H34V28h1Zm1-1v1H35V27h1Zm1-1v1H36V26h1Zm1-1v1H37V25h1Zm1-1v1H38V24h1Zm-6,7H32V30h1v1Zm5,4v1H37V35h1Zm1-1v1H38V34h1Zm1-1v1H39V33h1Zm1-1v1H40V32h1Zm1-1v1H41V31h1Zm-5,6H36V36h1v1Zm7-8v1H43V29h1Zm1-1v1H44V28h1Zm1-1v1H45V27h1Zm1-1v1H46V26h1Zm1-1v1H47V25h1Zm1-1v1H48V24h1Zm1-1v1H49V23h1Zm1-1v1H50V22h1Zm-8,9H42V30h1v1Zm5,4v1H47V35h1Zm1-1v1H48V34h1Zm1-1v1H49V33h1Zm1-1v1H50V32h1Zm1-1v1H51V31h1Zm-5,6H46V36h1v1Zm7-8v1H53V29h1Zm1-1v1H54V28h1Zm1-1v1H55V27h1Zm1-1v1H56V26h1Zm1-1v1H57V25h1Zm1-1v1H58V24h1Zm1-1v1H59V23h1Zm1-1v1H60V22h1Zm-8,9H52V30h1v1Zm5,4v1H57V35h1Zm1-1v1H58V34h1Zm1-1v1H59V33h1Zm1-1v1H60V32h1Zm1-1v1H61V31h1Zm-5,6H56V36h1v1Zm7-8v1H63V29h1Zm1-1v1H64V28h1Zm1-1v1H65V27h1Zm1-1v1H66V26h1Zm1-1v1H67V25h1Zm1-1v1H68V24h1Zm1-1v1H69V23h1Zm1-1v1H70V22h1Zm-8,9H62V30h1v1Zm5,4v1H67V35h1Zm1-1v1H68V34h1Zm1-1v1H69V33h1Zm1-1v1H70V32h1Zm1-1v1H71V31h1Zm-5,6H66V36h1v1Zm7-8v1H73V29h1Zm1-1v1H74V28h1Zm1-1v1H75V27h1Zm1-1v1H76V26h1Zm1-1v1H77V25h1Zm1-1v1H78V24h1Zm1-1v1H79V23h1Zm1-1v1H80V22h1Zm-8,9H72V30h1v1Zm5,4v1H77V35h1Zm1-1v1H78V34h1Zm1-1v1H79V33h1Zm1-1v1H80V32h1Zm1-1v1H81V31h1Zm-5,6H76V36h1v1Zm7-8v1H83V29h1Zm1-1v1H84V28h1Zm1-1v1H85V27h1Zm1-1v1H86V26h1Zm1-1v1H87V25h1Zm1-1v1H88V24h1Zm1-1v1H89V23h1Zm1-1v1H90V22h1Zm-8,9H82V30h1v1Zm5,4v1H87V35h1Zm1-1v1H88V34h1Zm1-1v1H89V33h1Zm1-1v1H90V32h1Zm1-1v1H91V31h1Zm-5,6H86V36h1v1Zm7-8v1H93V29h1Zm1-1v1H94V28h1Zm1-1v1H95V27h1Zm1-1v1H96V26h1Zm1-1v1H97V25h1Zm1-1v1H98V24h1Zm1-1v1H99V23h1Zm1-1v1h-1V22h1Zm-8,9H92V30h1v1Zm5,4v1H97V35h1Zm1-1v1H98V34h1Zm1-1v1H99V33h1Zm1-1v1h-1V32h1Zm1-1v1h-1V31h1Zm-5,6H96V36h1v1Zm7-8v1h-1V29h1Zm1-1v1h-1V28h1Zm1-1v1h-1V27h1Zm1-1v1h-1V26h1Zm1-1v1h-1V25h1Zm1-1v1h-1V24h1Zm1-1v1h-1V23h1Zm1-1v1h-1V22h1Zm-8,9h-1V30h1v1Zm5,4v1h-1V35h1Zm1-1v1h-1V34h1Zm1-1v1h-1V33h1Zm1-1v1h-1V32h1Zm1-1v1h-1V31h1Zm-5,6h-1V36h1v1Zm7-8v1h-1V29h1Zm1-1v1h-1V28h1Zm1-1v1h-1V27h1Zm1-1v1h-1V26h1Zm1-1v1h-1V25h1Zm1-1v1h-1V24h1Zm1-1v1h-1V23h1Zm1-1v1h-1V22h1Zm-8,9h-1V30h1v1Zm5,4v1h-1V35h1Zm1-1v1h-1V34h1Zm1-1v1h-1V33h1Zm1-1v1h-1V32h1Zm1-1v1h-1V31h1Zm-5,6h-1V36h1v1Zm7-8v1h-1V29h1Zm1-1v1h-1V28h1Zm1-1v1h-1V27h1Zm1-1v1h-1V26h1Zm1-1v1h-1V25h1Zm1-1v1h-1V24h1Zm-6,7h-1V30h1v1Zm5,4v1h-1V35h1Zm1-1v1h-1V34h1Zm1-1v1h-1V33h1Zm1-1v1h-1V32h1Zm1-1v1h-1V31h1Zm-5,6h-1V36h1v1Zm7-8v1h-1V29h1Zm1-1v1h-1V28h1Zm1-1v1h-1V27h1Zm1-1v1h-1V26h1Zm1-1v1h-1V25h1Zm1-1v1h-1V24h1Zm-6,7h-1V30h1v1Zm5,4v1h-1V35h1Zm1-1v1h-1V34h1Zm1-1v1h-1V33h1Zm1-1v1h-1V32h1Zm1-1v1h-1V31h1Zm-5,6h-1V36h1v1Zm7-8v1h-1V29h1Zm1-1v1h-1V28h1Zm1-1v1h-1V27h1Zm1-1v1h-1V26h1Zm1-1v1h-1V25h1Zm1-1v1h-1V24h1Zm-6,7h-1V30h1v1Zm5,4v1h-1V35h1Zm1-1v1h-1V34h1Zm1-1v1h-1V33h1Zm1-1v1h-1V32h1Zm1-1v1h-1V31h1Zm-5,6h-1V36h1v1Zm7-8v1h-1V29h1Zm1-1v1h-1V28h1Zm1-1v1h-1V27h1Zm1-1v1h-1V26h1Zm1-1v1h-1V25h1Zm1-1v1h-1V24h1Zm-6,7h-1V30h1v1Zm5,4v1h-1V35h1Zm1-1v1h-1V34h1Zm1-1v1h-1V33h1Zm1-1v1h-1V32h1Zm1-1v1h-1V31h1Zm-5,6h-1V36h1v1Zm7-8v1h-1V29h1Zm1-1v1h-1V28h1Zm1-1v1h-1V27h1Zm1-1v1h-1V26h1Zm1-1v1h-1V25h1Zm1-1v1h-1V24h1Zm1-1v1h-1V23h1Zm-7,8h-1V30h1v1Zm5,4v1h-1V35h1Zm1-1v1h-1V34h1Zm1-1v1h-1V33h1Zm-3,4h-1V36h1v1Zm2-34h1V4h-1V3Zm-2,13V15h1v1h-1Zm2-2v1h-1V14h1Zm1-1v1h-1V13h1Zm-1-9V5h-1V4h1Zm-2,2V5h1V6h-1Zm-1,1V6h1V7h-1Zm-3,13V19h1v1h-1Zm2-2v1h-1V18h1Zm1-1v1h-1V17h1Zm1-1v1h-1V16h1Zm-1-9V8h-1V7h1Zm-2,2V8h1V9h-1Zm-1,1V9h1v1h-1Zm-1,1V10h1v1h-1Zm-1,1V11h1v1h-1Zm-1-9V2h1V3h-1Zm-1,1V3h1V4h-1Zm2-3h1V2h-1V1Zm-2,3V5h-1V4h1Zm-2,2V5h1V6h-1Zm-1,1V6h1V7h-1Zm0,0V8h-1V7h1Zm-2,2V8h1V9h-1Zm-1,1V9h1v1h-1Zm-1,1V10h1v1h-1Zm-1,1V11h1v1h-1Zm-1-9V2h1V3h-1Zm-1,1V3h1V4h-1Zm2-3h1V2h-1V1Zm-2,3V5h-1V4h1Zm-2,2V5h1V6h-1Zm-1,1V6h1V7h-1Zm0,0V8h-1V7h1Zm-2,2V8h1V9h-1Zm-1,1V9h1v1h-1Zm-1,1V10h1v1h-1Zm-1,1V11h1v1h-1Zm-1-9V2h1V3h-1Zm-1,1V3h1V4h-1Zm2-3h1V2h-1V1Zm-2,3V5h-1V4h1Zm-2,2V5h1V6h-1Zm-1,1V6h1V7h-1Zm13,7v1H137V14h12Zm12,8H128V20h33v2Zm-2-6V15h1v1h-1Zm0,1h-1V15h1v2Zm1-4v1h-1V13h1Zm0,1v0h1v1H151V14h7v0h1v0h0v0h1Zm-2-1V12h1v2h-1V13ZM136,7V8h-1V7h1Zm-2,2V8h1V9h-1Zm-1,1V9h1v1h-1Zm-1,1V10h1v1h-1Zm-1,1V11h1v1h-1Zm-1,1V12h1v1h-1Zm-1,1V13h1v1h-1Zm-1,1V14h1v1h-1Zm-1,1V15h1v1h-1Zm3-13V2h1V3h-1Zm-1,1V3h1V4h-1Zm2-3h1V2h-1V1Zm-2,3V5h-1V4h1Zm-2,2V5h1V6h-1Zm-1,1V6h1V7h-1Zm-5,15V21h1v1h-1Zm2-2v1h-1V20h1Zm1-1v1h-1V19h1Zm1-1v1h-1V18h1Zm1-1v1h-1V17h1Zm1-1v1h-1V16h1Zm-1-9V8h-1V7h1Zm-2,2V8h1V9h-1Zm-1,1V9h1v1h-1Zm-1,1V10h1v1h-1Zm-1,1V11h1v1h-1Zm-1,1V12h1v1h-1Zm-1,1V13h1v1h-1Zm-1,1V14h1v1h-1Zm-1,1V15h1v1h-1Zm3-13V2h1V3h-1Zm-1,1V3h1V4h-1Zm2-3h1V2h-1V1Zm-2,3V5h-1V4h1Zm-2,2V5h1V6h-1Zm-1,1V6h1V7h-1Zm-5,15V21h1v1h-1Zm2-2v1h-1V20h1Zm1-1v1h-1V19h1Zm1-1v1h-1V18h1Zm1-1v1h-1V17h1Zm1-1v1h-1V16h1Zm-1-9V8h-1V7h1Zm-2,2V8h1V9h-1Zm-1,1V9h1v1h-1Zm-1,1V10h1v1h-1Zm-1,1V11h1v1h-1Zm-1,1V12h1v1h-1Zm-1,1V13h1v1h-1Zm-1,1V14h1v1h-1Zm-1,1V15h1v1h-1Zm3-13V2h1V3h-1Zm-1,1V3h1V4h-1Zm2-3h1V2h-1V1Zm-2,3V5h-1V4h1Zm-2,2V5h1V6h-1Zm-1,1V6h1V7h-1Zm-5,15V21h1v1h-1Zm2-2v1h-1V20h1Zm1-1v1h-1V19h1Zm1-1v1h-1V18h1Zm1-1v1h-1V17h1Zm1-1v1h-1V16h1Zm-1-9V8h-1V7h1Zm-2,2V8h1V9h-1Zm-1,1V9h1v1h-1Zm-1,1V10h1v1h-1Zm-1,1V11h1v1h-1Zm-1,1V12h1v1h-1Zm-1,1V13h1v1H99Zm-1,1V14h1v1H98Zm-1,1V15h1v1H97Zm3-13V2h1V3h-1ZM99,4V3h1V4H99Zm2-3h1V2h-1V1ZM99,4V5H98V4h1ZM97,6V5h1V6H97ZM96,7V6h1V7H96ZM91,22V21h1v1H91Zm2-2v1H92V20h1Zm1-1v1H93V19h1Zm1-1v1H94V18h1Zm1-1v1H95V17h1Zm1-1v1H96V16h1ZM96,7V8H95V7h1ZM94,9V8h1V9H94Zm-1,1V9h1v1H93Zm-1,1V10h1v1H92Zm-1,1V11h1v1H91Zm-1,1V12h1v1H90Zm-1,1V13h1v1H89Zm-1,1V14h1v1H88Zm-1,1V15h1v1H87ZM90,3V2h1V3H90ZM89,4V3h1V4H89Zm2-3h1V2H91V1ZM89,4V5H88V4h1ZM87,6V5h1V6H87ZM86,7V6h1V7H86ZM81,22V21h1v1H81Zm2-2v1H82V20h1Zm1-1v1H83V19h1Zm1-1v1H84V18h1Zm1-1v1H85V17h1Zm1-1v1H86V16h1ZM86,7V8H85V7h1ZM84,9V8h1V9H84Zm-1,1V9h1v1H83Zm-1,1V10h1v1H82Zm-1,1V11h1v1H81Zm-1,1V12h1v1H80Zm-1,1V13h1v1H79Zm-1,1V14h1v1H78Zm-1,1V15h1v1H77ZM80,3V2h1V3H80ZM79,4V3h1V4H79Zm2-3h1V2H81V1ZM79,4V5H78V4h1ZM77,6V5h1V6H77ZM76,7V6h1V7H76ZM71,22V21h1v1H71Zm2-2v1H72V20h1Zm1-1v1H73V19h1Zm1-1v1H74V18h1Zm1-1v1H75V17h1Zm1-1v1H76V16h1ZM76,7V8H75V7h1ZM74,9V8h1V9H74Zm-1,1V9h1v1H73Zm-1,1V10h1v1H72Zm-1,1V11h1v1H71Zm-1,1V12h1v1H70Zm-1,1V13h1v1H69Zm-1,1V14h1v1H68Zm-1,1V15h1v1H67ZM70,3V2h1V3H70ZM69,4V3h1V4H69Zm2-3h1V2H71V1ZM69,4V5H68V4h1ZM67,6V5h1V6H67ZM66,7V6h1V7H66ZM61,22V21h1v1H61Zm2-2v1H62V20h1Zm1-1v1H63V19h1Zm1-1v1H64V18h1Zm1-1v1H65V17h1Zm1-1v1H66V16h1ZM66,7V8H65V7h1ZM64,9V8h1V9H64Zm-1,1V9h1v1H63Zm-1,1V10h1v1H62Zm-1,1V11h1v1H61Zm-1,1V12h1v1H60Zm-1,1V13h1v1H59Zm-1,1V14h1v1H58Zm-1,1V15h1v1H57ZM60,3V2h1V3H60ZM59,4V3h1V4H59Zm2-3h1V2H61V1ZM59,4V5H58V4h1ZM57,6V5h1V6H57ZM56,7V6h1V7H56ZM51,22V21h1v1H51Zm2-2v1H52V20h1Zm1-1v1H53V19h1Zm1-1v1H54V18h1Zm1-1v1H55V17h1Zm1-1v1H56V16h1ZM56,7V8H55V7h1ZM54,9V8h1V9H54Zm-1,1V9h1v1H53Zm-1,1V10h1v1H52Zm-1,1V11h1v1H51Zm-1,1V12h1v1H50Zm-1,1V13h1v1H49Zm-1,1V14h1v1H48Zm-1,1V15h1v1H47ZM50,3V2h1V3H50ZM49,4V3h1V4H49Zm2-3h1V2H51V1ZM49,4V5H48V4h1ZM47,6V5h1V6H47ZM46,7V6h1V7H46ZM45,18V17h1v1H45Zm2-2v1H46V16h1ZM46,7V8H45V7h1ZM44,9V8h1V9H44Zm-1,1V9h1v1H43Zm-1,1V10h1v1H42Zm-1,1V11h1v1H41Zm-1,1V12h1v1H40Zm-1,1V13h1v1H39Zm-1,1V14h1v1H38Zm-1,1V15h1v1H37ZM40,3V2h1V3H40ZM39,4V3h1V4H39Zm2-3h1V2H41V1ZM39,4V5H38V4h1ZM37,6V5h1V6H37ZM36,7V6h1V7H36Zm0,0V8H35V7h1ZM34,9V8h1V9H34Zm-1,1V9h1v1H33Zm-1,1V10h1v1H32Zm-1,1V11h1v1H31ZM30,3V2h1V3H30ZM29,4V3h1V4H29ZM28,5V4h1V5H28ZM27,6V5h1V6H27ZM26,7V6h1V7H26Zm5-6h1V2H31V1ZM24,9V8h1V9H24Zm-1,1V9h1v1H23Zm-1,1V10h1v1H22Zm-1,1V11h1v1H21Zm4-5h1V8H25V7ZM20,3V2h1V3H20ZM19,4V3h1V4H19ZM18,5V4h1V5H18ZM17,6V5h1V6H17ZM16,7V6h1V7H16Zm5-6h1V2H21V1ZM14,9V8h1V9H14Zm-1,1V9h1v1H13Zm2-3h1V8H15V7Zm5,7.992H10V14h1v0h1v0h0v0h1v0h7v1Zm-9-2h1v1H11V13Zm1,0V12h1v2H12V13Zm0,2v1H11V15h1Zm0,0h1v2H12V15Zm22-1v1H22V14H34Zm3,2v1H36V16h1Zm6,6H10V20H43v2ZM7,15H8v1H7V15ZM6,27V26H7v1H6Zm2-2v1H7V25H8Zm0,0V24H9v1H8ZM6,17v1H5V17H6Zm1-1v1H6V16H7ZM4,19V18H5v1H4ZM3,20V19H4v1H3ZM2,21V20H3v1H2Zm0,1H1V21H2v1H2ZM10,3V2h1V3H10ZM9,4V3h1V4H9ZM8,5V4H9V5H8ZM7,6V5H8V6H7ZM6,7V6H7V7H6Zm5-6h1V2H11V1ZM1,1H2V2H1V1Z"/>
</svg>
