<svg xmlns="http://www.w3.org/2000/svg" width="171" height="38" viewBox="0 0 171 38">
  <metadata><?xpacket begin="﻿" id="W5M0MpCehiHzreSzNTczkc9d"?>
<x:xmpmeta xmlns:x="adobe:ns:meta/" x:xmptk="Adobe XMP Core 5.6-c138 79.159824, 2016/09/14-01:09:01        ">
   <rdf:RDF xmlns:rdf="http://www.w3.org/1999/02/22-rdf-syntax-ns#">
      <rdf:Description rdf:about=""/>
   </rdf:RDF>
</x:xmpmeta>
                                                                                                    
                                                                                                    
                                                                                                    
                                                                                                    
                                                                                                    
                                                                                                    
                                                                                                    
                                                                                                    
                                                                                                    
                                                                                                    
                                                                                                    
                                                                                                    
                                                                                                    
                                                                                                    
                                                                                                    
                                                                                                    
                                                                                                    
                                                                                                    
                                                                                                    
                                                                                                    
                           
<?xpacket end="w"?></metadata>
<defs>
    <style>
      .cls-1 {
        fill: #d8d8d8;
        fill-rule: evenodd;
      }
    </style>
  </defs>
  <path id="post-navigation-6" class="cls-1" d="M166,17v1h-1V17h1Zm1,1v1h-1V18h1Zm1,1v1h-1V19h1Zm-1,1v1h-1V20h1Zm-1,1v1h-1V21h1Zm1-4v1h-1V17h1Zm1,1v1h-1V18h1Zm1,1v1h-1V19h1Zm-1,1v1h-1V20h1Zm-1,1v1h-1V21h1ZM5,17v1H6V17H5ZM4,18v1H5V18H4ZM3,19v1H4V19H3Zm1,1v1H5V20H4Zm1,1v1H6V21H5ZM4,17v1H5V17H4ZM3,18v1H4V18H3ZM2,19v1H3V19H2Zm1,1v1H4V20H3Zm1,1v1H5V21H4Zm167,7H161v2h10v-2Zm0-20H161v2h10V8Zm-8,20v-18h-2V28h2Zm-163,0H10v2H0v-2ZM0,8H10v2H0V8ZM8,28v-18h2V28H8Zm-10-30H173v42H-2v-42Zm2,2H171v38H0v-38Z"/>
</svg>
