<svg xmlns="http://www.w3.org/2000/svg" width="171" height="38" viewBox="0 0 171 38">
  <metadata><?xpacket begin="﻿" id="W5M0MpCehiHzreSzNTczkc9d"?>
<x:xmpmeta xmlns:x="adobe:ns:meta/" x:xmptk="Adobe XMP Core 5.6-c138 79.159824, 2016/09/14-01:09:01        ">
   <rdf:RDF xmlns:rdf="http://www.w3.org/1999/02/22-rdf-syntax-ns#">
      <rdf:Description rdf:about=""/>
   </rdf:RDF>
</x:xmpmeta>
                                                                                                    
                                                                                                    
                                                                                                    
                                                                                                    
                                                                                                    
                                                                                                    
                                                                                                    
                                                                                                    
                                                                                                    
                                                                                                    
                                                                                                    
                                                                                                    
                                                                                                    
                                                                                                    
                                                                                                    
                                                                                                    
                                                                                                    
                                                                                                    
                                                                                                    
                                                                                                    
                           
<?xpacket end="w"?></metadata>
<defs>
    <style>
      .cls-1 {
        fill: #cdcdcd;
        fill-rule: evenodd;
      }
    </style>
  </defs>
  <path id="post-navigation-3" class="cls-1" d="M-2-2.007H173v42H-2v-42Zm2,2H171v38H0v-38ZM40,13v1h1V13H40Zm0,2v1h1V15H40Zm0-3v1h1V12H40Zm-1,1v1h1V13H39Zm0,2v1h1V15H39Zm1,1v1h1V16H40ZM131,13v1h-1V13h1Zm0,2v1h-1V15h1Zm0-3v1h-1V12h1Zm1,1v1h-1V13h1Zm0,2v1h-1V15h1Zm-1,1v1h-1V16h1ZM38,14H48v1H38V14Zm12,0H62v1H50V14Zm83,0H123v1h10V14Zm-12,0H109v1h12V14ZM38,20H71v2H38V20ZM11,10L31,27v1L11,11V10Zm20,0L11,27v1L31,11V10Zm-22,18H33v2H9v-2ZM9,8H33v2H9V8ZM9,28v-18h2V28H9Zm22,0v-18h2V28H31Zm102-8H100v2h33V20Zm27-10L140,27v1l20-17V10Zm-20,0,20,17v1L140,11V10Zm22,18H138v2h24v-2Zm0-20H138v2h24V8Zm0,20v-18h-2V28h2Zm-22,0v-18h-2V28h2Z"/>
</svg>
