<svg xmlns="http://www.w3.org/2000/svg" width="171" height="38" viewBox="0 0 171 38">
  <metadata><?xpacket begin="﻿" id="W5M0MpCehiHzreSzNTczkc9d"?>
<x:xmpmeta xmlns:x="adobe:ns:meta/" x:xmptk="Adobe XMP Core 5.6-c138 79.159824, 2016/09/14-01:09:01        ">
   <rdf:RDF xmlns:rdf="http://www.w3.org/1999/02/22-rdf-syntax-ns#">
      <rdf:Description rdf:about=""/>
   </rdf:RDF>
</x:xmpmeta>
                                                                                                    
                                                                                                    
                                                                                                    
                                                                                                    
                                                                                                    
                                                                                                    
                                                                                                    
                                                                                                    
                                                                                                    
                                                                                                    
                                                                                                    
                                                                                                    
                                                                                                    
                                                                                                    
                                                                                                    
                                                                                                    
                                                                                                    
                                                                                                    
                                                                                                    
                                                                                                    
                           
<?xpacket end="w"?></metadata>
<defs>
    <style>
      .cls-1 {
        fill: #d8d8d8;
        fill-rule: evenodd;
      }
    </style>
  </defs>
  <path id="post-navigation-2" class="cls-1" d="M48,14H65v1H48V14Zm0,5H81v2H48V19ZM21,10L41,27v1L21,11V10Zm20,0L21,27v1L41,11V10ZM16,17v1h1V17H16Zm-1,1v1h1V18H15Zm-1,1v1h1V19H14Zm1,1v1h1V20H15Zm1,1v1h1V21H16Zm-1-4v1h1V17H15Zm-1,1v1h1V18H14Zm-1,1v1h1V19H13Zm1,1v1h1V20H14Zm1,1v1h1V21H15Zm-6,7H43v2H9v-2ZM9,8H43v2H9V8ZM9,28v-18h2V28H9Zm10,0v-18h2V28H19Zm22,0v-18h2V28H41Zm82-14H106v1h17V14Zm0,5H90v2h33V19Zm27-9L130,27v1l20-17V10Zm-20,0,20,17v1L130,11V10Zm25,7v1h-1V17h1Zm1,1v1h-1V18h1Zm1,1v1h-1V19h1Zm-1,1v1h-1V20h1Zm-1,1v1h-1V21h1Zm1-4v1h-1V17h1Zm1,1v1h-1V18h1Zm1,1v1h-1V19h1Zm-1,1v1h-1V20h1Zm-1,1v1h-1V21h1Zm6,7H128v2h34v-2Zm0-20H128v2h34V8Zm0,20v-18h-2V28h2Zm-10,0v-18h-2V28h2Zm-22,0v-18h-2V28h2Zm-132-30H173v42H-2v-42Zm2,2H171v38H0v-38Z"/>
</svg>
