<svg xmlns="http://www.w3.org/2000/svg" width="171" height="38" viewBox="0 0 171 38">
  <metadata><?xpacket begin="﻿" id="W5M0MpCehiHzreSzNTczkc9d"?>
<x:xmpmeta xmlns:x="adobe:ns:meta/" x:xmptk="Adobe XMP Core 5.6-c138 79.159824, 2016/09/14-01:09:01        ">
   <rdf:RDF xmlns:rdf="http://www.w3.org/1999/02/22-rdf-syntax-ns#">
      <rdf:Description rdf:about=""/>
   </rdf:RDF>
</x:xmpmeta>
                                                                                                    
                                                                                                    
                                                                                                    
                                                                                                    
                                                                                                    
                                                                                                    
                                                                                                    
                                                                                                    
                                                                                                    
                                                                                                    
                                                                                                    
                                                                                                    
                                                                                                    
                                                                                                    
                                                                                                    
                                                                                                    
                                                                                                    
                                                                                                    
                                                                                                    
                                                                                                    
                           
<?xpacket end="w"?></metadata>
<defs>
    <style>
      .cls-1 {
        fill: #d8d8d8;
        fill-rule: evenodd;
      }
    </style>
  </defs>
  <path id="post-navigation-5" class="cls-1" d="M12,13v1h1V13H12Zm0,2v1h1V15H12Zm0-3v1h1V12H12Zm-1,1v1h1V13H11Zm0,2v1h1V15H11Zm1,1v1h1V16H12ZM159,13v1h-1V13h1Zm0,2v1h-1V15h1Zm0-3v1h-1V12h1Zm1,1v1h-1V13h1Zm0,2v1h-1V15h1Zm-1,1v1h-1V16h1ZM10,14H20v1H10V14Zm12,0H34v1H22V14Zm139,0H151v1h10V14Zm-12,0H137v1h12V14ZM10,20H43v2H10V20Zm151,0H128v2h33V20ZM2,1.934H169V35.9H2V1.934Zm-4-3.94H173v42H-2v-42Zm2,2H171v38H0v-38Z"/>
</svg>
