<svg xmlns="http://www.w3.org/2000/svg" width="171" height="38" viewBox="0 0 171 38">
  <metadata><?xpacket begin="﻿" id="W5M0MpCehiHzreSzNTczkc9d"?>
<x:xmpmeta xmlns:x="adobe:ns:meta/" x:xmptk="Adobe XMP Core 5.6-c138 79.159824, 2016/09/14-01:09:01        ">
   <rdf:RDF xmlns:rdf="http://www.w3.org/1999/02/22-rdf-syntax-ns#">
      <rdf:Description rdf:about=""/>
   </rdf:RDF>
</x:xmpmeta>
                                                                                                    
                                                                                                    
                                                                                                    
                                                                                                    
                                                                                                    
                                                                                                    
                                                                                                    
                                                                                                    
                                                                                                    
                                                                                                    
                                                                                                    
                                                                                                    
                                                                                                    
                                                                                                    
                                                                                                    
                                                                                                    
                                                                                                    
                                                                                                    
                                                                                                    
                                                                                                    
                           
<?xpacket end="w"?></metadata>
<defs>
    <style>
      .cls-1 {
        fill: #cdcdcd;
        fill-rule: evenodd;
      }
    </style>
  </defs>
  <path id="post-navigation-1" class="cls-1" d="M32,13H49v1H32V13Zm107,0H122v1h17V13ZM32,18H70v2H32V18Zm107,0H101v2h38V18Zm-141-20H173v42H-2v-42Zm2,2H171v38H0v-38ZM18,16v1h1V16H18Zm-1,1v1h1V17H17Zm-1,1v1h1V18H16Zm1,1v1h1V19H17Zm1,1v1h1V20H18Zm-1-4v1h1V16H17Zm-1,1v1h1V17H16Zm-1,1v1h1V18H15Zm1,1v1h1V19H16Zm1,1v1h1V20H17ZM153,16v1h-1V16h1Zm1,1v1h-1V17h1Zm1,1v1h-1V18h1Zm-1,1v1h-1V19h1Zm-1,1v1h-1V20h1Zm1-4v1h-1V16h1Zm1,1v1h-1V17h1Zm1,1v1h-1V18h1Zm-1,1v1h-1V19h1Zm-1,1v1h-1V20h1ZM17.5,11A7.5,7.5,0,1,1,10,18.5,7.5,7.5,0,0,1,17.5,11Zm0,2A5.5,5.5,0,1,1,12,18.5,5.5,5.5,0,0,1,17.5,13Zm136-2a7.5,7.5,0,1,0,7.5,7.5A7.5,7.5,0,0,0,153.5,11Zm0,2a5.5,5.5,0,1,0,5.5,5.5A5.5,5.5,0,0,0,153.5,13Z"/>
</svg>
