<svg xmlns="http://www.w3.org/2000/svg" width="81" height="96" viewBox="0 0 81 96">
  <defs>
    <style>
      .cls-1 {
        fill: #cdcdcd;
        fill-rule: evenodd;
      }
    </style>
  </defs>
  <path id="sidebar-style-2" class="cls-1" d="M71,12V35H69V12h2Zm0,23v2H42V35H71ZM56.5,23.962l0.526-.464L69,34.069V35h0ZM69,12v0.928L57.026,23.5,56.5,23.033ZM55.974,23.5L44,12.927V12h0L56.5,23.033ZM44,12.927V34.068h0V35H42V12h2v0.928h0ZM44,35h0Zm0-.928L55.974,23.5,56.5,23.962,44,35h0V34.068ZM42,12V10H71v2H42ZM71,74H42V73H71v1Zm0-4H57V68H71v2Zm0-14H58V55H71v1Zm0-4H42V51H71v1Zm0-10v2H47V42H71Zm0,6H42V47H71v1Zm0,30H42V77H71v1ZM30,0h2V96H30V0ZM20,84H18V12h2V84h0Zm0,0v2H0V84H20ZM0,10H20v2H0V10ZM71,82H42V81H71v1Zm0,4H54V85H71v1ZM83-2H-2v100H83V-2ZM81,0H0V96H81V0Z"/>
</svg>
