<svg xmlns="http://www.w3.org/2000/svg" width="81" height="96" viewBox="0 0 81 96">
  <defs>
    <style>
      .cls-1 {
        fill: #cdcdcd;
        fill-rule: evenodd;
      }
    </style>
  </defs>
  <path id="sidebar-style-3" class="cls-1" d="M20,84H0v2H20V84Zm0-74H0v2H20V10ZM81.015,96V0H30.009V96H81.015ZM20,84V12H18V84h2Zm51-2V81H42v1H71Zm0-5H42v1H71V77Zm0-42H42v2H71V35Zm-27-.928h0V12.927h0V12H42V35h2V34.069ZM44,12h0ZM57.026,23.5L69,12.926V12L56.5,23.034ZM69,35h0V34.069L57.026,23.5l-0.526.464ZM44,35h0Zm0,0h0ZM56.5,23.962L55.974,23.5,44,34.069V35Zm0-.928L44,12v0.928L55.974,23.5ZM44,12h0ZM71,35h0V12H69V35h2Zm0-23V10H42v2H71ZM47,44H71V42H47v2Zm-5,4H71V47H42v1Zm0,4H71V51H42v1Zm16,4H71V55H58v1ZM57,70H71V68H57v2ZM42,74H71V73H42v1ZM54,86H71V85H54v1ZM83-2H-2v100H83V-2ZM81,0H0V96H81V0Z"/>
</svg>
