<svg xmlns="http://www.w3.org/2000/svg" width="251" height="88" viewBox="0 0 251 88">
  <defs>
    <style>
      .cls-1 {
        fill: #cdcdcd;
        fill-rule: evenodd;
      }
    </style>
  </defs>
  <path id="slider-skin-2" class="cls-1" d="M-2-2H253V90H-2V-2ZM0,0H251V88H0V0ZM85,43V38h81v5H85Zm52,8H114V49h23v2ZM60,27.977H191v32H60v-32ZM235.24,45.33h0l-3.5,3.66-1.75-1.83,3.5-3.66-3.5-3.66,1.75-1.83,5.251,5.49ZM19.26,48.99l-3.5-3.66L14.01,43.5l5.25-5.49,1.751,1.83-3.5,3.66,3.5,3.66Z"/>
</svg>
