<svg xmlns="http://www.w3.org/2000/svg" width="251" height="98" viewBox="0 0 251 98">
  <defs>
    <style>
      .cls-1 {
        fill: #cdcdcd;
        fill-rule: evenodd;
      }
    </style>
  </defs>
  <path id="slider-position-blow-header" class="cls-1" d="M61,84V98H59V84h2Zm170,0V98h-2V84h2ZM61,84H229v2H61V84ZM0,12H251v2H0V12ZM-2-2H253V100H-2V-2ZM0,0H251V98H0V0ZM167,0h13V2H167V0Zm17,0h13V2H184V0Zm17,0h13V2H201V0Zm17,0h13V2H218V0ZM20,0H37V3H20V0ZM41.01,52.16L39.26,53.99l-5.25-5.49,5.25-5.491,1.751,1.83-3.5,3.66Zm170.73,1.83-1.75-1.83,3.5-3.661-3.5-3.66,1.75-1.83,5.25,5.491ZM85,48V43h81v5H85Zm52,8H114V54h23v2ZM20,22.991H231V76H20V22.991ZM20,89H49v1H20V89Zm0,8H33v1H20V97Zm0-4H49v1H20V93Zm0-9H44v2H20V84Z"/>
</svg>
