<svg xmlns="http://www.w3.org/2000/svg" width="251" height="98" viewBox="0 0 251 98">
  <defs>
    <style>
      .cls-1 {
        fill: #cdcdcd;
        fill-rule: evenodd;
      }
    </style>
  </defs>
  <path id="slider-position-above-content" class="cls-1" d="M0,12H251v2H0V12ZM167,0h13V2H167V0Zm17,0h13V2H184V0Zm17,0h13V2H201V0Zm17,0h13V2H218V0ZM20,0H37V3H20V0ZM61,84V98H59V84h2Zm167,0V98h-2V84h2ZM61,84H226v2H61V84ZM20,61H49v1H20V61Zm0,12H33v1H20V73Zm0-4H49v1H20V69Zm0,20H49v1H20V89Zm0,8H33v1H20V97Zm0-4H49v1H20V93Zm0-28H49v1H20V65Zm0-17H49v2H20V48Zm0-25H49v2H20V23Zm0,25V25h2V48H20Zm27,0V25h2V48H47ZM20,56H44v2H20V56Zm0,28H44v2H20V84Zm2-59L47,47.07V48L22,25.927V25Zm25,0L22,47.07V48L47,25.927V25ZM-2-2H253V100H-2V-2ZM0,0H251V98H0V0ZM80.01,52.16L78.26,53.99l-5.25-5.49,5.25-5.491,1.751,1.83-3.5,3.66Zm128.73,1.83-1.75-1.83,3.5-3.661-3.5-3.66,1.75-1.83,5.25,5.491ZM103,48V43h81v5H103Zm52,8H132V54h23v2ZM59,22.991H228V76H59V22.991Z"/>
</svg>
