<svg xmlns="http://www.w3.org/2000/svg" width="251" height="96" viewBox="0 0 251 96">
  <defs>
    <style>
      .cls-1 {
        fill: #cdcdcd;
        fill-rule: evenodd;
      }
    </style>
  </defs>
  <path id="sub-menu-skin-5" class="cls-1" d="M0,22H251v2H0V22ZM-2-2H253V98H-2V-2ZM0,0H251V96H0V0ZM68,39h4v1H68V39Zm8-10H87v2H76V29Zm0,17H94v2H76V46Zm0,16H87v2H76V62Zm37.8-18.745a0.819,0.819,0,0,0-.6.246,0.927,0.927,0,0,0,0,1.258l1.34,1.367v1.75l-1.312,1.367a0.927,0.927,0,0,0,0,1.258,0.824,0.824,0,0,0,1.175,0l2.735-2.9a0.818,0.818,0,0,0,.246-0.6,0.852,0.852,0,0,0-.246-0.629L114.4,43.5A0.817,0.817,0,0,0,113.8,43.254ZM68,24h53V71H68V24Zm0,31h4v1H68V55Zm62-9h21v2H130V46Zm0,16h10v2H130V62Zm0,16h15v2H130V78Zm-8-38h53V87H122V40ZM74,39h4v1H74V39Zm0,16h4v1H74V55Zm6-16h4v1H80V39Zm0,16h4v1H80V55Zm6-16h4v1H86V39Zm0,16h4v1H86V55Zm6-16h4v1H92V39Zm0,16h4v1H92V55Zm6-16h4v1H98V39Zm0,16h4v1H98V55Zm24,0h4v1h-4V55Zm0,16h4v1h-4V71Zm6-16h4v1h-4V55Zm0,16h4v1h-4V71Zm6-16h4v1h-4V55Zm0,16h4v1h-4V71Zm6-16h4v1h-4V55Zm0,16h4v1h-4V71Zm6-16h4v1h-4V55Zm0,16h4v1h-4V71Zm6-16h4v1h-4V55Zm0,16h4v1h-4V71Zm6-16h4v1h-4V55Zm0,16h4v1h-4V71ZM104,39h4v1h-4V39Zm0,16h4v1h-4V55Zm6-16h4v1h-4V39Zm0,16h4v1h-4V55Zm6-16h4v1h-4V39Zm0,16h4v1h-4V55Zm48,0h4v1h-4V55Zm0,16h4v1h-4V71Zm6-16h4v1h-4V55Zm0,16h4v1h-4V71ZM78,10H99v2H78V10Zm27,0h21v2H105V10Zm27,0h21v2H132V10Zm27,0h21v2H159V10ZM74.243,9L70,13.243,65.757,9h8.485Z"/>
</svg>
