<svg xmlns="http://www.w3.org/2000/svg" width="251" height="96" viewBox="0 0 251 96">
  <defs>
    <style>
      .cls-1 {
        fill: #cdcdcd;
        fill-rule: evenodd;
      }
    </style>
  </defs>
  <path id="sub-menu-skin-4" class="cls-1" d="M113.138,41.6L110.4,44.5a0.824,0.824,0,0,1-1.175,0,0.927,0.927,0,0,1,0-1.258l1.312-1.367h-4.933v-1.75h4.933l-1.34-1.367a0.927,0.927,0,0,1,0-1.258,0.858,0.858,0,0,1,1.2,0l2.735,2.871a0.852,0.852,0,0,1,.246.629A0.818,0.818,0,0,1,113.138,41.6ZM82,40h19v2H82V40ZM0,22H251v2H0V22ZM-2-2H253V98H-2V-2ZM0,0H251V96H0V0ZM86,30H97v2H86V30Zm0,21H97v2H86V51Zm48-11h20v2H134V40Zm5,10h10v2H139V50Zm-3,11h16v2H136V61ZM68,60h53v2H68V60Zm2-36V60H68V24h2Zm51,0V60h-2V24h2Zm0,9h53V71H121V33ZM74.243,9L70,13.243,65.757,9h8.485ZM78,10H99v2H78V10Zm27,0h21v2H105V10Zm27,0h21v2H132V10Zm27,0h21v2H159V10Z"/>
</svg>
