<svg xmlns="http://www.w3.org/2000/svg" width="251" height="96" viewBox="0 0 251 96">
  <defs>
    <style>
      .cls-1 {
        fill: #cdcdcd;
        fill-rule: evenodd;
      }
    </style>
  </defs>
  <path id="sub-menu-skin-3" class="cls-1" d="M66,70h55v2H66V70Zm2-46V70H66V24h2Zm53,0V70h-2V24h2Zm10,22h21v2H131V46Zm0,16h10v2H131V62Zm0,16h15v2H131V78ZM0,22H251v2H0V22ZM-2-2H253V98H-2V-2ZM0,0H251V96H0V0ZM76,31H87v2H76V31Zm0,16H94v2H76V47Zm0,14H87v2H76V61Zm36.8-16.745a0.819,0.819,0,0,0-.6.246,0.927,0.927,0,0,0,0,1.258l1.34,1.367v1.75l-1.312,1.367a0.927,0.927,0,0,0,0,1.258,0.824,0.824,0,0,0,1.175,0l2.735-2.9a0.818,0.818,0,0,0,.246-0.6,0.852,0.852,0,0,0-.246-0.629L113.4,44.5A0.817,0.817,0,0,0,112.8,44.254ZM68,39h51V55H68V39Zm53,30v2m-2,15h55v2H119V86Zm2-14V86h-2V72h2Zm53-32V86h-2V40h2Zm-53-2h53v2H121V38Zm0,16h51v1H121V54Zm0,17h51v1H121V71ZM78,10H99v2H78V10Zm27,0h21v2H105V10Zm27,0h21v2H132V10Zm27,0h21v2H159V10ZM74.243,9L70,13.243,65.757,9h8.485Z"/>
</svg>
