<svg xmlns="http://www.w3.org/2000/svg" width="251" height="96" viewBox="0 0 251 96">
  <defs>
    <style>
      .cls-1 {
        fill: #cdcdcd;
        fill-rule: evenodd;
      }
    </style>
  </defs>
  <path id="sub-menu-skin-1" class="cls-1" d="M0,22H251v2H0V22ZM-2-2H253V98H-2V-2ZM0,0H251V96H0V0ZM78,10H99v2H78V10Zm27,0h21v2H105V10Zm27,0h21v2H132V10Zm27,0h21v2H159V10ZM74.243,9L70,13.243,65.757,9h8.485ZM76,30H87v2H76V30Zm0,14H94v2H76V44Zm0,15H87v2H76V59Zm33.8-17.745a0.819,0.819,0,0,0-.6.246,0.927,0.927,0,0,0,0,1.258l1.34,1.367h-4.933v1.75h4.933l-1.312,1.367a0.927,0.927,0,0,0,0,1.258,0.824,0.824,0,0,0,1.175,0l2.735-2.9a0.818,0.818,0,0,0,.246-0.6,0.852,0.852,0,0,0-.246-0.629L110.4,41.5A0.817,0.817,0,0,0,109.8,41.254ZM129,44h22v2H129V44Zm0,13h16v2H129V57Zm0,13h25v2H129V70ZM68,67h53v2H68V67Zm2-43V67H68V24h2Zm51,0V67h-2V24h2Zm0,12h53V81H121V36ZM74,37h41v1H74V37Zm0,15h41v1H74V52Zm0-15V53H73V37h1Zm42,0V53h-1V37h1Z"/>
</svg>
