<svg xmlns="http://www.w3.org/2000/svg" width="251" height="98" viewBox="0 0 251 98">
  <defs>
    <style>
      .cls-1 {
        fill: #cdcdcd;
        fill-rule: evenodd;
      }
    </style>
  </defs>
  <path id="titlebar-style-8" class="cls-1" d="M20,81H231v2H20V81Zm0,17V83h2V98H20Zm209,0V83h2V98h-2ZM22,83L77,99.07V100L22,83.927V83Zm207,0L175,99.07V100l54-16.071V83ZM0,12H251V37H0V12ZM0,37H18V56H0V37Zm233,0h18V56H233V37ZM-2-2H253V100H-2V-2ZM0,0H251V98H0V0ZM167,0h13V2H167V0Zm17,0h13V2H184V0Zm17,0h13V2H201V0Zm17,0h13V2H218V0ZM20,0H37V3H20V0ZM19.938,72V39H230.962V72H19.938ZM73,48H178v5H73V48ZM94,60h63v3H94V60Z"/>
</svg>
