<svg xmlns="http://www.w3.org/2000/svg" width="249" height="88" viewBox="0 0 249 88">
  <defs>
    <style>
      .cls-1 {
        fill: #cdcdcd;
        fill-rule: evenodd;
      }
    </style>
  </defs>
  <path id="content_copy_3" data-name="content copy 3" class="cls-1" d="M54.243,18L50,22.242,45.757,18l1.414-1.415L50,19.414l2.828-2.829Zm0,45L50,67.242,45.757,63l1.414-1.415L50,64.414l2.828-2.829ZM59,0H251V88H59V0ZM17,9H39v3H17V9Zm0,8H39v3H17V17Zm0,19H39v3H17V36Zm0,8H39v3H17V44Zm0,37H39v3H17V81Zm0-19H39v3H17V62ZM2,28H57V54H2V28ZM2,73H57V88H2V73Z" transform="translate(-2)"/>
</svg>
