<svg xmlns="http://www.w3.org/2000/svg" width="251" height="38" viewBox="0 0 251 38">
  <defs>
    <style>
      .cls-1 {
        fill: #cdcdcd;
        fill-rule: evenodd;
      }
    </style>
  </defs>
  <path id="Buy_cart" data-name="Buy cart" class="cls-1" d="M17,24.072a5.3,5.3,0,1,1,5.3-5.3A5.3,5.3,0,0,1,17,24.072Zm-0.02-1.209a3.98,3.98,0,0,0,1.564-.319,1.849,1.849,0,0,1-.641-0.264,3.317,3.317,0,0,1-1.625-2.625c0.125-.531.75-0.656,0.688-1.062a1.467,1.467,0,0,0-.781-0.656c-0.219-.219-0.031-0.156-0.906.25-0.775.36-1.815-.478-2.044-0.675A3.963,3.963,0,0,0,16.983,22.863Zm-3.547-5.805A5.189,5.189,0,0,1,14.8,15.523,4,4,0,0,0,13.436,17.058ZM17.327,14.9a0.557,0.557,0,0,1-.046.191,0.835,0.835,0,0,0-.062.813,10.192,10.192,0,0,0,.5,1.219c0.281,0.75.063,0.5-.25,0.281s-0.375-.062-0.375.219a2.851,2.851,0,0,0,.625.844c0.375,0.594,0,.406,1.125.5s0.469,0.313.313,0.781a5.19,5.19,0,0,0,.566,2.016A3.974,3.974,0,0,0,17.327,14.9ZM30,18H45v3H30V18Zm19,0H64v3H49V18Zm19,0H83v3H68V18Zm19,0h15v3H87V18Zm32,0h38v3H119V18ZM237,22.6l-1.42,1.383-1.866-1.817a4.72,4.72,0,0,1-2.3.611,4.558,4.558,0,1,1,4.68-4.556,4.446,4.446,0,0,1-.879,2.642Zm-5.592-7.259a2.883,2.883,0,1,0,2.96,2.882A2.922,2.922,0,0,0,231.406,15.345Zm-63.667,7.286V18.5h1.582l0.072-1.487h-1.654V15.926a0.779,0.779,0,0,1,.113-0.48,0.611,0.611,0,0,1,.52-0.172h0.976l0.036-1.382-0.3-.031c-0.2-.021-0.453-0.031-0.773-0.031a2.288,2.288,0,0,0-1.667.581,1.823,1.823,0,0,0-.52,1.329v1.276H165V18.5h1.121v4.127h1.618Zm14.878-1.879a1.12,1.12,0,0,0-.8-0.321h-2.242a1.094,1.094,0,0,1-.791-0.321,1.037,1.037,0,0,1-.33-0.77V18.566h3.2a1.03,1.03,0,0,0,.737-0.3,0.99,0.99,0,0,0,0-1.443,1.041,1.041,0,0,0-.746-0.3H178.45V14.931a1.047,1.047,0,0,0-.33-0.779,1.174,1.174,0,0,0-1.609,0,1.042,1.042,0,0,0-.33.783V19.34a3.127,3.127,0,0,0,.995,2.323,3.31,3.31,0,0,0,2.4.968h2.242a1.112,1.112,0,0,0,.8-0.326A1.068,1.068,0,0,0,182.617,20.752Zm7.223,1.879v-5.94h2.034v5.94H189.84Zm1-6.75a1.144,1.144,0,0,1-.813-0.3,1,1,0,0,1,.009-1.456,1.17,1.17,0,0,1,.831-0.286,1.14,1.14,0,0,1,.823.286,1.017,1.017,0,0,1,0,1.456,1.184,1.184,0,0,1-.841.3h-0.009ZM193,19.868q0.009-2.437-.009-3.177h2.025v0.862H195a2.347,2.347,0,0,1,.615-0.651,2.109,2.109,0,0,1,1.229-.352,2.241,2.241,0,0,1,1.668.656,2.832,2.832,0,0,1,.664,2.02v3.406h-2.025V19.454a1.676,1.676,0,0,0-.235-0.972,0.9,0.9,0,0,0-.795-0.374,1.02,1.02,0,0,0-.669.229,1.38,1.38,0,0,0-.371.493,0.926,0.926,0,0,0-.049.224,2.466,2.466,0,0,0-.014.26v3.318h-2.025Zm25.142-.6h-5.883v0.576h-0.057V21.8h5.377v1.106h-0.659v0.84h-0.7V22.777h-4.017V23.6h-1.012V20.163c0-.823-1.486-3.177-2.273-4.365h-0.172V15.539c-0.185-.276-0.306-0.45-0.306-0.45l0.306-.037V14.79h-0.993v-0.9h-0.917V13h1.833v0.9h10.086v0.037h0.5v0.241c0.215,0.02.345,0.055,0.336,0.113C219.5,14.847,218.145,19.268,218.145,19.268Z" transform="translate(1.141 0.469)"/>
</svg>
