<svg xmlns="http://www.w3.org/2000/svg" width="251" height="38" viewBox="0 0 251 38">
  <defs>
    <style>
      .cls-1 {
        fill: #cdcdcd;
        fill-rule: evenodd;
      }
    </style>
  </defs>
  <path id="Word" class="cls-1" d="M14,18H62v3H14V18Zm131,0h15v3H145V18Zm19,0h15v3H164V18Zm19,0h15v3H183V18Zm19,0h15v3H202V18Zm29,6.073a5.3,5.3,0,1,1,5.3-5.3A5.3,5.3,0,0,1,231,24.072Zm-0.02-1.209a3.976,3.976,0,0,0,1.564-.319,1.846,1.846,0,0,1-.641-0.264,3.318,3.318,0,0,1-1.625-2.625c0.125-.531.75-0.656,0.688-1.062a1.471,1.471,0,0,0-.782-0.656c-0.218-.219-0.031-0.156-0.906.25-0.775.36-1.815-.478-2.044-0.675a3.953,3.953,0,0,0-.252,1.354A4,4,0,0,0,230.983,22.863Zm-3.547-5.805a5.184,5.184,0,0,1,1.362-1.535A4,4,0,0,0,227.436,17.058Zm3.891-2.156a0.56,0.56,0,0,1-.046.191,0.834,0.834,0,0,0-.062.813,10.033,10.033,0,0,0,.5,1.219c0.281,0.75.062,0.5-.25,0.281s-0.375-.062-0.375.219a2.85,2.85,0,0,0,.625.844c0.375,0.594,0,.407,1.125.5s0.468,0.313.312,0.782a5.183,5.183,0,0,0,.566,2.015A3.974,3.974,0,0,0,231.327,14.9Z" transform="translate(0.344 0.234)"/>
</svg>
