<svg xmlns="http://www.w3.org/2000/svg" width="251" height="38" viewBox="0 0 251 38">
  <defs>
    <style>
      .cls-1 {
        fill: #cdcdcd;
        fill-rule: evenodd;
      }
    </style>
  </defs>
  <path id="Buy_cart" data-name="Buy cart" class="cls-1" d="M231,24.072a5.3,5.3,0,1,1,5.3-5.3A5.3,5.3,0,0,1,231,24.072Zm-0.02-1.209a3.976,3.976,0,0,0,1.564-.319,1.85,1.85,0,0,1-.641-0.264,3.318,3.318,0,0,1-1.625-2.625c0.125-.531.75-0.656,0.688-1.062a1.47,1.47,0,0,0-.782-0.656c-0.218-.219-0.031-0.156-0.906.25-0.775.36-1.815-.478-2.044-0.675a3.952,3.952,0,0,0-.251,1.354A4,4,0,0,0,230.983,22.863Zm-3.547-5.805a5.193,5.193,0,0,1,1.363-1.535A4,4,0,0,0,227.436,17.058Zm3.891-2.156a0.534,0.534,0,0,1-.046.191,0.835,0.835,0,0,0-.062.813,10.027,10.027,0,0,0,.5,1.219c0.281,0.75.062,0.5-.25,0.281s-0.375-.062-0.375.219a2.851,2.851,0,0,0,.625.844c0.375,0.594,0,.406,1.125.5s0.468,0.313.312,0.781a5.2,5.2,0,0,0,.566,2.016A3.974,3.974,0,0,0,231.327,14.9ZM14,18H29v3H14V18Zm19,0H48v3H33V18Zm19,0H67v3H52V18Zm19,0H86v3H71V18Zm32,0h38v3H103V18Zm116.686,4.824-1.414,1.414-1.858-1.858a4.61,4.61,0,0,1-2.289.624,4.686,4.686,0,1,1,3.784-1.958ZM214.117,15.4a2.948,2.948,0,1,0,2.948,2.948A2.948,2.948,0,0,0,214.117,15.4Zm-63.39,7.452V18.629H152.3l0.072-1.521h-1.647V15.992a0.811,0.811,0,0,1,.112-0.491,0.6,0.6,0,0,1,.518-0.175h0.972l0.036-1.413-0.3-.031a7.487,7.487,0,0,0-.769-0.032,2.247,2.247,0,0,0-1.661.594,1.894,1.894,0,0,0-.517,1.359v1.3H148v1.521h1.116V22.85h1.611Zm14.814-1.922a1.1,1.1,0,0,0-.8-0.328h-2.232a1.121,1.121,0,0,1-1.116-1.116V18.692h3.186a1.009,1.009,0,0,0,.733-0.306,1.031,1.031,0,0,0,0-1.476,1.02,1.02,0,0,0-.742-0.306h-3.177V14.975a1.122,1.122,0,0,0-1.13-1.125,1.1,1.1,0,0,0-.8.324,1.08,1.08,0,0,0-.328.8v4.509a3.38,3.38,0,0,0,3.375,3.366h2.232a1.137,1.137,0,0,0,1.134-1.125A1.078,1.078,0,0,0,165.541,20.929Zm7.191,1.922V16.775h2.025V22.85h-2.025Zm1-6.9a1.124,1.124,0,0,1-.81-0.306,1.034,1.034,0,0,1-.306-0.738,1.023,1.023,0,0,1,.315-0.751,1.149,1.149,0,0,1,.828-0.293,1.117,1.117,0,0,1,.819.293,1.059,1.059,0,0,1,0,1.489,1.16,1.16,0,0,1-.837.306h-0.009Zm2.151,4.077q0.009-2.493-.009-3.249h2.016v0.882h-0.018a2.379,2.379,0,0,1,.612-0.666,2.062,2.062,0,0,1,1.224-.36,2.2,2.2,0,0,1,1.66.671,2.947,2.947,0,0,1,.662,2.066V22.85h-2.016V19.6a1.753,1.753,0,0,0-.234-0.994,0.893,0.893,0,0,0-.792-0.383,1,1,0,0,0-.666.234,1.4,1.4,0,0,0-.369.5,0.964,0.964,0,0,0-.05.23,2.58,2.58,0,0,0-.013.265V22.85h-2.016Zm25.033-.613h-5.858V20H195v2h5.354v1.132H199.7V23.99H199V23h-4v0.837h-1.008V20.326c0-.842-1.479-3.248-2.262-4.465h-0.172V15.6c-0.184-.282-0.3-0.46-0.3-0.46l0.3-.037V14.831h-0.989V13.915h-0.913V13h1.826v0.916h10.041v0.038h0.494V14.2c0.214,0.02.343,0.056,0.334,0.116C202.265,14.889,200.915,19.411,200.915,19.411Z" transform="translate(0.344 0.375)"/>
</svg>
