<svg xmlns="http://www.w3.org/2000/svg" width="251" height="38" viewBox="0 0 251 38">
  <defs>
    <style>
      .cls-1 {
        fill: #cdcdcd;
        fill-rule: evenodd;
      }
    </style>
  </defs>
  <path id="Buy_cart" data-name="Buy cart" class="cls-1" d="M13,18H61v3H13V18Zm223.686,4.824-1.414,1.414-1.858-1.858a4.61,4.61,0,0,1-2.289.624,4.686,4.686,0,1,1,3.784-1.958ZM231.117,15.4a2.948,2.948,0,1,0,2.948,2.948A2.948,2.948,0,0,0,231.117,15.4Zm-63.39,7.452V18.629H169.3l0.072-1.521h-1.647V15.992a0.811,0.811,0,0,1,.112-0.491,0.6,0.6,0,0,1,.518-0.175h0.972l0.036-1.413-0.3-.031a7.487,7.487,0,0,0-.769-0.032,2.247,2.247,0,0,0-1.661.594,1.894,1.894,0,0,0-.517,1.359v1.3H165v1.521h1.116V22.85h1.611Zm14.814-1.922a1.1,1.1,0,0,0-.8-0.328h-2.232a1.121,1.121,0,0,1-1.116-1.116V18.692h3.186a1.009,1.009,0,0,0,.733-0.306,1.031,1.031,0,0,0,0-1.476,1.02,1.02,0,0,0-.742-0.306h-3.177V14.975a1.122,1.122,0,0,0-1.13-1.125,1.1,1.1,0,0,0-.8.324,1.08,1.08,0,0,0-.328.8v4.509a3.38,3.38,0,0,0,3.375,3.366h2.232a1.137,1.137,0,0,0,1.134-1.125A1.078,1.078,0,0,0,182.541,20.929Zm7.191,1.922V16.775h2.025V22.85h-2.025Zm1-6.9a1.124,1.124,0,0,1-.81-0.306,1.034,1.034,0,0,1-.306-0.738,1.023,1.023,0,0,1,.315-0.751,1.149,1.149,0,0,1,.828-0.293,1.117,1.117,0,0,1,.819.293,1.059,1.059,0,0,1,0,1.489,1.16,1.16,0,0,1-.837.306h-0.009Zm2.151,4.077q0.009-2.493-.009-3.249h2.016v0.882h-0.018a2.379,2.379,0,0,1,.612-0.666,2.062,2.062,0,0,1,1.224-.36,2.2,2.2,0,0,1,1.66.671,2.947,2.947,0,0,1,.662,2.066V22.85h-2.016V19.6a1.753,1.753,0,0,0-.234-0.994,0.893,0.893,0,0,0-.792-0.383,1,1,0,0,0-.666.234,1.4,1.4,0,0,0-.369.5,0.964,0.964,0,0,0-.05.23,2.58,2.58,0,0,0-.013.265V22.85h-2.016Zm25.033-.613h-5.858V20H212v2h5.354v1.132H216.7V23.99H216V23h-4v0.837h-1.008V20.326c0-.842-1.479-3.248-2.262-4.465h-0.172V15.6c-0.184-.282-0.3-0.46-0.3-0.46l0.3-.037V14.831h-0.989V13.916h-0.913V13h1.826v0.916h10.041v0.038h0.494V14.2c0.214,0.02.343,0.056,0.334,0.116C219.265,14.889,217.915,19.411,217.915,19.411Z" transform="translate(0.656 0.375)"/>
</svg>
