<svg xmlns="http://www.w3.org/2000/svg" viewBox="0 0 13.125 13.125">
  <defs>
    <style>
      .cls-1 {
        fill: #00ba26;
      }
    </style>
  </defs>
  <path id="check_icon" data-name="check icon" class="cls-1" d="M2.856-12.144A6.325,6.325,0,0,1,7.5-14.062a6.325,6.325,0,0,1,4.644,1.919A6.325,6.325,0,0,1,14.063-7.5a6.325,6.325,0,0,1-1.919,4.644A6.325,6.325,0,0,1,7.5-.937,6.325,6.325,0,0,1,2.856-2.856,6.325,6.325,0,0,1,.938-7.5,6.325,6.325,0,0,1,2.856-12.144ZM10.869-9.7a.119.119,0,0,0,.029-.088.17.17,0,0,0-.029-.117l-.908-.7a.17.17,0,0,0-.117-.029.119.119,0,0,0-.088.029L6.5-6.416,5.186-7.676a.253.253,0,0,0-.176-.088q-.029,0-.117.088l-.762.762A.17.17,0,0,0,4.1-6.8a.119.119,0,0,0,.029.088l.059.029L6.5-4.453a.24.24,0,0,0,.146.088A.24.24,0,0,0,6.8-4.453Z" transform="translate(-0.938 14.063)"/>
</svg>
