<svg xmlns="http://www.w3.org/2000/svg" viewBox="0 0 104 99">
  <defs>
    <style>
      .cls-1 {
        fill: #fff;
      }

      .cls-2 {
        fill: #263357;
      }

      .cls-3 {
        fill: #ffa658;
      }

      .cls-4 {
        fill: #61c4f2;
      }

      .cls-5 {
        fill: #80c4e8;
      }

      .cls-6 {
        fill: #e7f7ff;
      }

      .cls-7 {
        fill: #898989;
      }

      .cls-8 {
        fill: none;
      }
    </style>
  </defs>
  <g id="documentation" transform="translate(-992 -672)">
    <g id="Group_338" data-name="Group 338" transform="translate(997 678)">
      <g id="Group_314" data-name="Group 314" transform="translate(21.565 15.208)">
        <g id="Group_298" data-name="Group 298" transform="translate(32.304 32.436)">
          <rect id="Rectangle_216" data-name="Rectangle 216" class="cls-1" width="7.901" height="3.802" transform="translate(8.275 2.688) rotate(135)"/>
        </g>
        <g id="Group_299" data-name="Group 299" transform="translate(36.76 31.05)">
          <path id="Path_233" data-name="Path 233" class="cls-2" d="M101.1,82.461l-2.554-2.554a1.176,1.176,0,1,1,1.663-1.663l2.554,2.554a1.149,1.149,0,0,1,0,1.663A1.2,1.2,0,0,1,101.1,82.461Z" transform="translate(-98.179 -77.866)"/>
        </g>
        <g id="Group_300" data-name="Group 300" transform="translate(41.358 41.681)">
          <path id="Path_234" data-name="Path 234" class="cls-1" d="M116.838,109.745c-1.01-.713-.356-.238-.535-1.545a3.532,3.532,0,0,0-2.792-3.089c-1.069-.3-1.069-.119-1.6-1.188a4.559,4.559,0,0,0-1.01-1.723c-1.188-1.188-2.5-.653-3.861-1.307-2.436-1.129-.3-3.327.832-4.456.951-.951.832-.832,1.9-.059a6.774,6.774,0,0,0,4.456,1.545L124.5,108.2a4.061,4.061,0,0,1-3.743,6.832,3.435,3.435,0,0,1-.832-.3C120.581,110.636,117.551,110.22,116.838,109.745Z" transform="translate(-105.919 -95.762)"/>
        </g>
        <g id="Group_301" data-name="Group 301" transform="translate(48.76 43.05)">
          <path id="Path_235" data-name="Path 235" class="cls-2" d="M124.154,116.562a1.2,1.2,0,0,1,1.069-2.139,2.868,2.868,0,0,0,3.327-4.574l-9.8-9.743a1.176,1.176,0,1,1,1.663-1.663l9.743,9.743a5.307,5.307,0,0,1,0,7.426A5.129,5.129,0,0,1,124.154,116.562Z" transform="translate(-118.379 -98.066)"/>
        </g>
        <g id="Group_302" data-name="Group 302" transform="translate(54.436 59.21)">
          <path id="Path_236" data-name="Path 236" class="cls-2" d="M127.973,126.238a1.2,1.2,0,0,1,1.366-.951,1.167,1.167,0,0,1,.772.535,1.115,1.115,0,0,1-.178,1.485A1.166,1.166,0,0,1,127.973,126.238Z" transform="translate(-127.933 -125.269)"/>
        </g>
        <g id="Group_303" data-name="Group 303" transform="translate(59.723 42.882)">
          <path id="Path_237" data-name="Path 237" class="cls-2" d="M137.467,110.982a26.482,26.482,0,0,0,7.663-9.208c.535-1.129.891-2.257,1.307-3.267a1.186,1.186,0,0,1,2.2.891c-1.6,3.98-1.96,6.059-7.307,11.406a14.681,14.681,0,0,1-2.792,2.257C137.17,113.833,136.1,111.695,137.467,110.982Z" transform="translate(-136.833 -97.784)"/>
        </g>
        <g id="Group_304" data-name="Group 304">
          <path id="Path_238" data-name="Path 238" class="cls-2" d="M57.33,67.66A21.03,21.03,0,1,1,78.36,46.63,21.069,21.069,0,0,1,57.33,67.66Zm0-39.684A18.654,18.654,0,1,0,75.984,46.63,18.686,18.686,0,0,0,57.33,27.976Z" transform="translate(-36.3 -25.6)"/>
        </g>
        <g id="Group_305" data-name="Group 305" transform="translate(31.426 43.776)">
          <path id="Path_239" data-name="Path 239" class="cls-2" d="M90.448,108.5a4.231,4.231,0,0,1,0-6l1.9-1.9a1.176,1.176,0,1,1,1.663,1.663l-1.9,1.9a1.848,1.848,0,0,0,2.614,2.614l2.852-2.852a1.865,1.865,0,0,0,0-2.614,1.149,1.149,0,0,1,0-1.663c1.723-1.723,4.574,3.089,1.663,6L96.388,108.5A4.268,4.268,0,0,1,90.448,108.5Z" transform="translate(-89.2 -99.289)"/>
        </g>
        <g id="Group_306" data-name="Group 306" transform="translate(35.581 45.743)">
          <path id="Path_240" data-name="Path 240" class="cls-2" d="M100.416,115.491a4.21,4.21,0,0,1-2.97-7.188l4.456-4.456a4.243,4.243,0,1,1,6,6C103.267,114.422,102.614,115.491,100.416,115.491Zm3.149-9.98-4.455,4.455a1.848,1.848,0,0,0,2.614,2.614l4.456-4.456a1.848,1.848,0,0,0-2.614-2.614Z" transform="translate(-96.194 -102.6)"/>
        </g>
        <g id="Group_307" data-name="Group 307" transform="translate(40.04 49.842)">
          <path id="Path_241" data-name="Path 241" class="cls-2" d="M104.948,121.2a4.231,4.231,0,0,1,0-6l4.456-4.456a4.243,4.243,0,1,1,6,6l-4.456,4.455A4.23,4.23,0,0,1,104.948,121.2Zm6.119-8.733-4.456,4.456a1.848,1.848,0,0,0,2.614,2.614l4.456-4.456a1.848,1.848,0,0,0-2.614-2.614Z" transform="translate(-103.7 -109.5)"/>
        </g>
        <g id="Group_308" data-name="Group 308" transform="translate(46.04 54.773)">
          <path id="Path_242" data-name="Path 242" class="cls-2" d="M115.048,127.127a4.231,4.231,0,0,1,0-6l2.079-2.079a4.243,4.243,0,0,1,6,6l-2.079,2.079A4.231,4.231,0,0,1,115.048,127.127Zm3.8-6.357-2.079,2.079a1.848,1.848,0,0,0,2.614,2.614l2.079-2.079a1.848,1.848,0,0,0-2.614-2.614Z" transform="translate(-113.8 -117.8)"/>
        </g>
        <g id="Group_309" data-name="Group 309" transform="translate(31.456 26.733)">
          <path id="Path_243" data-name="Path 243" class="cls-2" d="M89.28,87.65c-.3-1.96,1.723-2.97,3.98-4.99A28.782,28.782,0,0,0,98.429,76.3a1.009,1.009,0,0,1,.356-.356c3.386-2.257,9.089-5.168,13.248-5.347a1.2,1.2,0,0,1,1.248,1.129,1.234,1.234,0,0,1-1.129,1.248c-2.436.119-4.218.891-6.891,2.139a32.844,32.844,0,0,0-4.871,2.733A28.7,28.7,0,0,1,94.924,84.5a25.294,25.294,0,0,0-3.208,2.911c.059.356,1.545,1.188,3.327,1.188,2.317,0,4.4-1.842,5.465-3.743a1.2,1.2,0,0,1,1.782-.3,11.742,11.742,0,0,0,10.753,1.96,1.184,1.184,0,0,1,.713,2.257,14,14,0,0,1-11.941-1.663C96.825,93.472,89.7,90.5,89.28,87.65Z" transform="translate(-89.251 -70.6)"/>
        </g>
        <g id="Group_310" data-name="Group 310" transform="translate(52.337 16.337)">
          <path id="Path_244" data-name="Path 244" class="cls-2" d="M143.41,82.566,124.756,63.971a1.149,1.149,0,0,1,0-1.663l8.852-8.852a1.176,1.176,0,0,1,1.663,1.663l-8.02,8.02,16.931,16.931,1.426-1.485a1.176,1.176,0,1,1,1.663,1.663l-2.317,2.317A1.013,1.013,0,0,1,143.41,82.566Z" transform="translate(-124.4 -53.1)"/>
        </g>
        <g id="Group_311" data-name="Group 311" transform="translate(31.354 36.753)">
          <path id="Path_245" data-name="Path 245" class="cls-2" d="M92,92.061l-2.554-2.554a1.176,1.176,0,1,1,1.663-1.663L93.666,90.4A1.176,1.176,0,0,1,92,92.061Z" transform="translate(-89.079 -87.466)"/>
        </g>
        <g id="Group_312" data-name="Group 312" transform="translate(4.129 4.126)">
          <circle id="Ellipse_28" data-name="Ellipse 28" class="cls-3" cx="14.733" cy="14.733" r="14.733" transform="translate(0 4.72) rotate(-9.218)"/>
        </g>
        <g id="Group_313" data-name="Group 313" transform="translate(14.97 10.79)">
          <path id="Path_246" data-name="Path 246" class="cls-1" d="M65.777,58.1c0-6,4.277-5.406,4.277-8.673,0-1.6-.772-2.376-2.2-2.376a2.23,2.23,0,0,0-2.317,2.376H61.5c.059-5.525,5.7-6.3,8.97-5.287,3.861,1.188,3.921,5.109,3.327,6.772-1.188,3.089-4.04,3.564-4.4,6.238a5.436,5.436,0,0,0-.059,1.01H65.777ZM69.7,61.488c1.188,2.911-3.208,4.1-4.218,1.663C64.352,60.36,68.688,59.053,69.7,61.488Z" transform="translate(-61.5 -43.763)"/>
        </g>
      </g>
      <g id="Group_315" data-name="Group 315" transform="translate(10.782 84.298)">
        <path id="Path_247" data-name="Path 247" class="cls-2" d="M28.754,144.276H19.308a1.189,1.189,0,0,1,0-2.376h9.446a1.188,1.188,0,0,1,0,2.376Z" transform="translate(-18.15 -141.9)"/>
      </g>
      <g id="Group_316" data-name="Group 316" transform="translate(57.417 84.298)">
        <path id="Path_248" data-name="Path 248" class="cls-2" d="M113.551,144.276H97.808a1.189,1.189,0,0,1,0-2.376h15.743a1.192,1.192,0,0,1,1.188,1.188A1.155,1.155,0,0,1,113.551,144.276Z" transform="translate(-96.65 -141.9)"/>
      </g>
      <g id="Group_317" data-name="Group 317" transform="translate(9.891 18.06)">
        <path id="Path_249" data-name="Path 249" class="cls-2" d="M30.521,32.776H17.808a1.189,1.189,0,0,1,0-2.376H30.521a1.188,1.188,0,1,1,0,2.376Z" transform="translate(-16.65 -30.4)"/>
      </g>
      <g id="Group_318" data-name="Group 318" transform="translate(59.733 18.06)">
        <path id="Path_250" data-name="Path 250" class="cls-2" d="M111.986,32.776H101.708a1.189,1.189,0,0,1,0-2.376h10.277a1.188,1.188,0,1,1,0,2.376Z" transform="translate(-100.55 -30.4)"/>
      </g>
      <g id="Group_319" data-name="Group 319" transform="translate(9.891 25.01)">
        <path id="Path_251" data-name="Path 251" class="cls-4" d="M26.957,44.476H17.808a1.189,1.189,0,0,1,0-2.376h9.149a1.188,1.188,0,1,1,0,2.376Z" transform="translate(-16.65 -42.1)"/>
      </g>
      <g id="Group_320" data-name="Group 320" transform="translate(63.12 25.01)">
        <path id="Path_252" data-name="Path 252" class="cls-4" d="M113.943,44.476h-6.535a1.189,1.189,0,0,1,0-2.376h6.535a1.192,1.192,0,0,1,1.188,1.188A1.155,1.155,0,0,1,113.943,44.476Z" transform="translate(-106.25 -42.1)"/>
      </g>
      <g id="Group_321" data-name="Group 321" transform="translate(9.891 31.961)">
        <path id="Path_253" data-name="Path 253" class="cls-4" d="M24.343,56.176H17.808a1.189,1.189,0,0,1,0-2.376H24.4a1.192,1.192,0,0,1,1.188,1.188A1.206,1.206,0,0,1,24.343,56.176Z" transform="translate(-16.65 -53.8)"/>
      </g>
      <g id="Group_322" data-name="Group 322" transform="translate(9.891 38.852)">
        <path id="Path_254" data-name="Path 254" class="cls-4" d="M24.343,67.776H17.808a1.189,1.189,0,0,1,0-2.376H24.4a1.192,1.192,0,0,1,1.188,1.188A1.206,1.206,0,0,1,24.343,67.776Z" transform="translate(-16.65 -65.4)"/>
      </g>
      <g id="Group_323" data-name="Group 323" transform="translate(9.891 45.803)">
        <path id="Path_255" data-name="Path 255" class="cls-2" d="M26.957,79.476H17.808a1.189,1.189,0,0,1,0-2.376h9.149a1.188,1.188,0,0,1,0,2.376Z" transform="translate(-16.65 -77.1)"/>
      </g>
      <g id="Group_324" data-name="Group 324" transform="translate(9.891 52.753)">
        <path id="Path_256" data-name="Path 256" class="cls-2" d="M30.521,91.176H17.808a1.189,1.189,0,0,1,0-2.376H30.521a1.188,1.188,0,0,1,0,2.376Z" transform="translate(-16.65 -88.8)"/>
      </g>
      <g id="Group_325" data-name="Group 325" transform="translate(74.437 8.317)">
        <path id="Path_257" data-name="Path 257" class="cls-4" d="M130.825,36.812,125.3,42.456V14h5.525Z" transform="translate(-125.3 -14)"/>
      </g>
      <g id="Group_326" data-name="Group 326" transform="translate(1.782 61.605)">
        <rect id="Rectangle_217" data-name="Rectangle 217" class="cls-5" width="49.248" height="3.98"/>
      </g>
      <g id="Group_327" data-name="Group 327" transform="translate(1.366 6.416)">
        <path id="Path_258" data-name="Path 258" class="cls-6" d="M2.3,70.623V14.78A3.98,3.98,0,0,1,6.28,10.8H80.063l.059,4.931H7.409V70.563H2.3Z" transform="translate(-2.3 -10.8)"/>
      </g>
      <g id="Group_328" data-name="Group 328" transform="translate(6.327 84.358)">
        <path id="Path_259" data-name="Path 259" class="cls-2" d="M11.808,144.376a1.189,1.189,0,0,1,0-2.376A1.189,1.189,0,1,1,11.808,144.376Z" transform="translate(-10.65 -142)"/>
      </g>
      <g id="Group_329" data-name="Group 329" transform="translate(70.367)">
        <path id="Path_260" data-name="Path 260" class="cls-2" d="M119.608,2.376a1.189,1.189,0,0,1,0-2.376A1.189,1.189,0,1,1,119.608,2.376Z" transform="translate(-118.45)"/>
      </g>
      <g id="Group_330" data-name="Group 330" transform="translate(37.604 67.189)">
        <path id="Path_261" data-name="Path 261" class="cls-7" d="M68.884,113.1v4.812a2.792,2.792,0,0,1-5.584,0V113.1Z" transform="translate(-63.3 -113.1)"/>
      </g>
      <g id="Group_331" data-name="Group 331" transform="translate(20.198 79.546)">
        <path id="Path_262" data-name="Path 262" class="cls-2" d="M73.208,141.029H35.188A1.192,1.192,0,0,1,34,139.841v-4.753a1.192,1.192,0,0,1,1.188-1.188h38.02a1.192,1.192,0,0,1,1.188,1.188v4.753A1.192,1.192,0,0,1,73.208,141.029Zm-36.832-2.376H72.02v-2.376H36.376Z" transform="translate(-34 -133.9)"/>
      </g>
      <g id="Group_332" data-name="Group 332" transform="translate(36.357 65.704)">
        <path id="Path_263" data-name="Path 263" class="cls-2" d="M65.18,121.353a3.98,3.98,0,0,1-3.98-3.98v-5.584a1.188,1.188,0,1,1,2.376,0v5.584a1.6,1.6,0,0,0,3.208,0v-5.584a1.189,1.189,0,0,1,2.376,0v5.584A3.98,3.98,0,0,1,65.18,121.353Z" transform="translate(-61.2 -110.6)"/>
      </g>
      <g id="Group_333" data-name="Group 333" transform="translate(27.323 65.763)">
        <path id="Path_264" data-name="Path 264" class="cls-2" d="M46.532,126.562c-1.782-1.188,1.426-2.376,1.426-7.485v-7.188a1.188,1.188,0,1,1,2.376,0v7.188a12.961,12.961,0,0,1-2.2,7.188A1.19,1.19,0,0,1,46.532,126.562Z" transform="translate(-45.993 -110.7)"/>
      </g>
      <g id="Group_334" data-name="Group 334" transform="translate(48.978 65.734)">
        <path id="Path_265" data-name="Path 265" class="cls-2" d="M84.676,126.185c-2.673-3.98-2.2-7.01-2.2-14.376a1.189,1.189,0,0,1,2.376,0c0,7.485-.416,9.8,1.782,13.069a1.179,1.179,0,0,1-.356,1.663A1.161,1.161,0,0,1,84.676,126.185Z" transform="translate(-82.445 -110.65)"/>
      </g>
      <g id="Group_335" data-name="Group 335" transform="translate(8.703 0.059)">
        <path id="Path_266" data-name="Path 266" class="cls-2" d="M73.314,2.476H15.808a1.189,1.189,0,0,1,0-2.376H73.314a1.188,1.188,0,1,1,0,2.376Z" transform="translate(-14.65 -0.1)"/>
      </g>
      <g id="Group_336" data-name="Group 336" transform="translate(0 5.406)">
        <path id="Path_267" data-name="Path 267" class="cls-2" d="M50.139,71.358H2.614A2.637,2.637,0,0,1,0,68.744V11.714A2.637,2.637,0,0,1,2.614,9.1H78.239a2.637,2.637,0,0,1,2.614,2.614V33.873a1.189,1.189,0,0,1-2.376,0V11.714a.256.256,0,0,0-.238-.238c-.356,0-75.862-.119-75.862.238V68.8a.256.256,0,0,0,.238.238H50.2a1.192,1.192,0,0,1,1.188,1.188A1.159,1.159,0,0,1,50.139,71.358Z" transform="translate(0 -9.1)"/>
      </g>
      <g id="Group_337" data-name="Group 337" transform="translate(4.753 10.218)">
        <path id="Path_268" data-name="Path 268" class="cls-2" d="M53.268,69.894H9.188A1.192,1.192,0,0,1,8,68.706V18.388A1.192,1.192,0,0,1,9.188,17.2H78.1a1.192,1.192,0,0,1,1.188,1.188V42.567a1.189,1.189,0,0,1-2.376,0V19.576H10.376V67.518H53.268a1.192,1.192,0,0,1,1.188,1.188A1.155,1.155,0,0,1,53.268,69.894Z" transform="translate(-8 -17.2)"/>
      </g>
    </g>
    <rect id="Rectangle_244" data-name="Rectangle 244" class="cls-8" width="104" height="99" transform="translate(992 672)"/>
  </g>
</svg>
