<svg xmlns="http://www.w3.org/2000/svg" viewBox="0 0 6.506 13.855">
  <defs>
    <style>
      .cls-1 {
        fill: #4267b2;
      }
    </style>
  </defs>
  <path id="facebook_icon" data-name="facebook icon" class="cls-1" d="M-1.959-12.507v1.9H-3.375V-8.26h1.416v6.927H.9V-8.26H2.86A21.109,21.109,0,0,0,3.1-10.609H.932v-1.6a.553.553,0,0,1,.2-.376.6.6,0,0,1,.437-.2H3.131v-2.41H.992a3.8,3.8,0,0,0-1.461.256,2.34,2.34,0,0,0-.889.572,2.266,2.266,0,0,0-.422.768,3.155,3.155,0,0,0-.166.648Q-1.959-12.748-1.959-12.507Z" transform="translate(3.375 15.188)"/>
</svg>
