<svg xmlns="http://www.w3.org/2000/svg" viewBox="0 0 13.129 13.127">
  <defs>
    <style>
      .cls-1 {
        fill: #949494;
      }
    </style>
  </defs>
  <g id="installing_icon" data-name="installing icon" transform="translate(-999.934 -531.938)">
    <path id="Path_101" data-name="Path 101" class="cls-1" d="M14.063-8.379a.889.889,0,0,1-.029.264.421.421,0,0,1-.674.205.616.616,0,0,1-.205-.322,2.469,2.469,0,0,0-.059-.41,6.692,6.692,0,0,0-.645-1.7,5.325,5.325,0,0,0-1.377-1.641,5.413,5.413,0,0,0-1.816-.967,5.782,5.782,0,0,0-1.875-.264H7.266A.889.889,0,0,0,7-13.184a4.757,4.757,0,0,0-.586.059,5.254,5.254,0,0,0-1.084.322,5.624,5.624,0,0,0-1.67,1.025,5.708,5.708,0,0,0-1.23,1.523,5.8,5.8,0,0,0-.7,2.051,4.394,4.394,0,0,0-.059,1,2.655,2.655,0,0,0,.029.469,2.056,2.056,0,0,0,.029.278,1.858,1.858,0,0,0,.059.278,5.361,5.361,0,0,0,.82,1.963A5.886,5.886,0,0,0,4.014-2.7a6.492,6.492,0,0,0,1.9.967,6.02,6.02,0,0,0,2.256.205,5.81,5.81,0,0,0,2.109-.557,6.853,6.853,0,0,0,.938-.586,5.493,5.493,0,0,0,.791-.7q.059-.059.176-.19a2.131,2.131,0,0,0,.176-.22q.059-.088.161-.234a2,2,0,0,0,.132-.205,9.866,9.866,0,0,0,.5-.908q.146-.352.322-.732a.553.553,0,0,1,.059-.19.553.553,0,0,0,.059-.19.628.628,0,0,1,.029-.161.628.628,0,0,0,.029-.161,3.607,3.607,0,0,1-.029.762,1.948,1.948,0,0,1-.117.469,2.806,2.806,0,0,1-.146.439,6.855,6.855,0,0,1-.381.82,3.825,3.825,0,0,1-.586.879,9.834,9.834,0,0,1-.732.762A6.8,6.8,0,0,1,9.844-1.377a6.881,6.881,0,0,1-2.109.439A6.616,6.616,0,0,1,5.508-1.26a6.492,6.492,0,0,1-1.9-.967A6,6,0,0,1,2.168-3.691,6.342,6.342,0,0,1,1.611-4.6a7.2,7.2,0,0,1-.381-.967A7.6,7.6,0,0,1,.938-7.207a6.13,6.13,0,0,1,.176-1.7A6.349,6.349,0,0,1,1.9-10.9a6.808,6.808,0,0,1,1.23-1.465,6.357,6.357,0,0,1,1.611-1.055,7.135,7.135,0,0,1,2.168-.615q.293-.029.85-.029a7.174,7.174,0,0,1,1.113.117,6.554,6.554,0,0,1,1.992.762,6.869,6.869,0,0,1,1.67,1.406,6.964,6.964,0,0,1,1.055,1.729,8.667,8.667,0,0,1,.322.908q.029.146.073.4T14.063-8.379Z" transform="translate(999 546)"/>
    <path id="Path_100" data-name="Path 100" class="cls-1" d="M12.948-7.9a.818.818,0,0,1-.027.243.387.387,0,0,1-.62.189.566.566,0,0,1-.189-.3,2.271,2.271,0,0,0-.054-.377A6.155,6.155,0,0,0,11.466-9.7,4.9,4.9,0,0,0,10.2-11.212,4.98,4.98,0,0,0,8.529-12.1,5.318,5.318,0,0,0,6.8-12.343H6.7a.818.818,0,0,0-.243.027,4.376,4.376,0,0,0-.539.054,4.833,4.833,0,0,0-1,.3,5.174,5.174,0,0,0-1.536.943,5.251,5.251,0,0,0-1.132,1.4A5.335,5.335,0,0,0,1.6-7.735a4.042,4.042,0,0,0-.054.916,2.442,2.442,0,0,0,.027.431,1.891,1.891,0,0,0,.027.256,1.709,1.709,0,0,0,.054.256A4.932,4.932,0,0,0,2.411-4.07,5.414,5.414,0,0,0,3.7-2.668a5.972,5.972,0,0,0,1.752.889,5.537,5.537,0,0,0,2.075.189A5.345,5.345,0,0,0,9.472-2.1a6.3,6.3,0,0,0,.862-.539,5.053,5.053,0,0,0,.728-.647q.054-.054.162-.175a1.961,1.961,0,0,0,.162-.2q.054-.081.148-.216a1.838,1.838,0,0,0,.121-.189,9.076,9.076,0,0,0,.458-.835q.135-.323.3-.674a.509.509,0,0,1,.054-.175.509.509,0,0,0,.054-.175.578.578,0,0,1,.027-.148.578.578,0,0,0,.027-.148,3.318,3.318,0,0,1-.027.7,1.792,1.792,0,0,1-.108.431,2.581,2.581,0,0,1-.135.4,6.305,6.305,0,0,1-.35.755,3.518,3.518,0,0,1-.539.808,9.046,9.046,0,0,1-.674.7,6.253,6.253,0,0,1-1.671.97,6.33,6.33,0,0,1-1.94.4,6.086,6.086,0,0,1-2.048-.3,5.972,5.972,0,0,1-1.752-.889A5.515,5.515,0,0,1,2.007-3.585a5.834,5.834,0,0,1-.512-.835,6.619,6.619,0,0,1-.35-.889A6.988,6.988,0,0,1,.875-6.819a5.639,5.639,0,0,1,.162-1.563,5.841,5.841,0,0,1,.728-1.833A6.262,6.262,0,0,1,2.9-11.562a5.847,5.847,0,0,1,1.482-.97A6.564,6.564,0,0,1,6.373-13.1q.269-.027.782-.027a6.6,6.6,0,0,1,1.024.108,6.028,6.028,0,0,1,1.833.7,6.318,6.318,0,0,1,1.536,1.294,6.406,6.406,0,0,1,.97,1.59,7.973,7.973,0,0,1,.3.835q.027.135.067.364T12.948-7.9Z" transform="translate(999.692 545.692)"/>
  </g>
</svg>
