<svg xmlns="http://www.w3.org/2000/svg" viewBox="0 0 14.032 14.032">
  <defs>
    <style>
      .cls-1 {
        fill: #C33192;
      }
    </style>
  </defs>
  <path id="instagram_icon" data-name="instagram icon" class="cls-1" d="M57.453,49.35a.812.812,0,1,1-.812-.812.812.812,0,0,1,.812.812Zm2.579,3.666v.01l-.046,2.943a4.062,4.062,0,0,1-4.016,4.016l-2.954.046h-.01l-2.943-.046a4.062,4.062,0,0,1-4.016-4.016L46,53.016v-.01l.046-2.944a4.062,4.062,0,0,1,4.016-4.016L53.016,46h.01l2.943.046a4.062,4.062,0,0,1,4.016,4.016Zm-1.307,0-.046-2.933a2.761,2.761,0,0,0-2.73-2.73l-2.933-.046-2.933.046a2.762,2.762,0,0,0-2.73,2.73l-.046,2.933.046,2.933a2.761,2.761,0,0,0,2.73,2.73l2.933.046,2.933-.046a2.761,2.761,0,0,0,2.73-2.73Zm-2.106,0a3.6,3.6,0,1,1-3.6-3.6A3.6,3.6,0,0,1,56.619,53.016Zm-1.307,0a2.3,2.3,0,1,0-2.3,2.3,2.3,2.3,0,0,0,2.3-2.3Z" transform="translate(-46 -46)"/>
</svg>
