<svg xmlns="http://www.w3.org/2000/svg" viewBox="0 0 9.75 11.375">
  <defs>
    <style>
      .cls-1 {
        fill: #fff;
      }
    </style>
  </defs>
  <path id="lock_icon" data-name="lock icon" class="cls-1" d="M2.184-.812A.537.537,0,0,1,1.79-.978a.537.537,0,0,1-.165-.394V-6.754a.537.537,0,0,1,.165-.394.537.537,0,0,1,.394-.165h.559V-8.1a4.11,4.11,0,0,1,1.092-2.92A3.511,3.511,0,0,1,6.5-12.187,3.511,3.511,0,0,1,9.166-11.02,4.11,4.11,0,0,1,10.258-8.1v.787h.559a.537.537,0,0,1,.394.165.537.537,0,0,1,.165.394v5.383a.537.537,0,0,1-.165.394.537.537,0,0,1-.394.165ZM4.088-8.1v.787H8.912V-8.1A2.857,2.857,0,0,0,8.2-10.131v-.025a2.23,2.23,0,0,0-1.7-.736,2.23,2.23,0,0,0-1.7.736v.025A2.857,2.857,0,0,0,4.088-8.1Z" transform="translate(-1.625 12.188)"/>
</svg>
