<svg id="Group_509" data-name="Group 509" xmlns="http://www.w3.org/2000/svg" viewBox="0 0 114.306 118.742">
  <defs>
    <style>
      .cls-1 {
        fill: #61c4f2;
      }

      .cls-2 {
        fill: #f86464;
      }

      .cls-3 {
        fill: #263357;
      }
    </style>
  </defs>
  <g id="Group_538" data-name="Group 538" transform="translate(86.008 100.657)">
    <rect id="Rectangle_242" data-name="Rectangle 242" class="cls-1" width="26.596" height="9.084"/>
  </g>
  <g id="Group_539" data-name="Group 539" transform="translate(1.473 100.657)">
    <path id="Path_443" data-name="Path 443" class="cls-1" d="M33.388,132.084H1.8V123H28.4Z" transform="translate(-1.8 -123)"/>
  </g>
  <g id="Group_540" data-name="Group 540" transform="translate(1.391 1.8)">
    <path id="Path_444" data-name="Path 444" class="cls-2" d="M113.077,7.6a5.4,5.4,0,0,0-5.4-5.4H7.1A5.4,5.4,0,0,0,1.7,7.6v7.692H113V7.6Z" transform="translate(-1.7 -2.2)"/>
  </g>
  <g id="Group_541" data-name="Group 541" transform="translate(4.214 115.469)">
    <path id="Path_445" data-name="Path 445" class="cls-3" d="M102.247,144.373H6.746a1.637,1.637,0,0,1,0-3.273h95.5a1.642,1.642,0,0,1,1.637,1.637A1.7,1.7,0,0,1,102.247,144.373Z" transform="translate(-5.15 -141.1)"/>
  </g>
  <g id="Group_542" data-name="Group 542" transform="translate(0 13.012)">
    <path id="Path_446" data-name="Path 446" class="cls-3" d="M1.637,114.265A1.641,1.641,0,0,1,0,112.629V17.537A1.642,1.642,0,0,1,1.637,15.9H112.6a1.642,1.642,0,0,1,1.637,1.637c0,101.475.327,95.419-.491,96.156C113.014,114.511,120.3,114.265,1.637,114.265Zm1.637-3.273H110.968V19.255H3.273Z" transform="translate(0 -15.9)"/>
  </g>
  <g id="Group_543" data-name="Group 543">
    <path id="Path_447" data-name="Path 447" class="cls-3" d="M112.6,16.285H1.637A1.642,1.642,0,0,1,0,14.648V6.956A6.95,6.95,0,0,1,6.956,0H107.2a6.95,6.95,0,0,1,6.956,6.956v7.692A1.525,1.525,0,0,1,112.6,16.285ZM3.273,13.094H110.968V6.956a3.667,3.667,0,0,0-3.683-3.683H6.956A3.667,3.667,0,0,0,3.273,6.956Z"/>
  </g>
  <g id="Group_544" data-name="Group 544" transform="translate(9.575 6.567)">
    <path id="Path_448" data-name="Path 448" class="cls-3" d="M11.7,9.8a1.841,1.841,0,0,0,3.683,0A1.841,1.841,0,0,0,11.7,9.8Z" transform="translate(-11.7 -8.025)"/>
  </g>
  <g id="Group_545" data-name="Group 545" transform="translate(16.121 6.567)">
    <path id="Path_449" data-name="Path 449" class="cls-3" d="M19.7,9.8a1.841,1.841,0,1,0,3.683,0A1.841,1.841,0,0,0,19.7,9.8Z" transform="translate(-19.7 -8.025)"/>
  </g>
  <g id="Group_546" data-name="Group 546" transform="translate(22.668 6.567)">
    <path id="Path_450" data-name="Path 450" class="cls-3" d="M27.7,9.8a1.841,1.841,0,1,0,3.683,0A1.841,1.841,0,0,0,27.7,9.8Z" transform="translate(-27.7 -8.025)"/>
  </g>
  <g id="Group_555" data-name="Group 555" transform="translate(18.226 56.139)">
    <g id="Group_547" data-name="Group 547" transform="translate(37.766 23.459)">
      <path id="Path_451" data-name="Path 451" class="cls-3" d="M68.895,111.288l13.5-13.5a1.62,1.62,0,1,1,2.291,2.291l-13.5,13.5A1.621,1.621,0,0,1,68.895,111.288Z" transform="translate(-68.42 -97.266)"/>
    </g>
    <g id="Group_548" data-name="Group 548" transform="translate(33.658 32.898)">
      <circle id="Ellipse_32" data-name="Ellipse 32" class="cls-3" cx="5.728" cy="5.728" r="5.728"/>
    </g>
    <g id="Group_549" data-name="Group 549" transform="translate(37.749 15.753)">
      <path id="Path_452" data-name="Path 452" class="cls-2" d="M68.4,93.292V89.446a1.637,1.637,0,0,1,3.273,0v3.846A1.637,1.637,0,1,1,68.4,93.292Z" transform="translate(-68.4 -87.85)"/>
    </g>
    <g id="Group_550" data-name="Group 550" transform="translate(16.595 36.989)">
      <path id="Path_453" data-name="Path 453" class="cls-2" d="M47.992,117.073H44.146a1.637,1.637,0,0,1,0-3.273h3.846a1.637,1.637,0,0,1,0,3.273Z" transform="translate(-42.55 -113.8)"/>
    </g>
    <g id="Group_551" data-name="Group 551" transform="translate(55.221 36.989)">
      <path id="Path_454" data-name="Path 454" class="cls-2" d="M95.192,117.073H91.346a1.637,1.637,0,0,1,0-3.273h3.846a1.637,1.637,0,1,1,0,3.273Z" transform="translate(-89.75 -113.8)"/>
    </g>
    <g id="Group_552" data-name="Group 552" transform="translate(70.043 15.212)">
      <path id="Path_455" data-name="Path 455" class="cls-3" d="M113.867,110.6c0-5.81-1.8-14.812-5.728-20.868a1.658,1.658,0,0,1,2.782-1.8c4.337,6.71,6.219,16.2,6.219,22.668A1.637,1.637,0,0,1,113.867,110.6Z" transform="translate(-107.862 -87.189)"/>
    </g>
    <g id="Group_553" data-name="Group 553" transform="translate(0 9.274)">
      <path id="Path_456" data-name="Path 456" class="cls-3" d="M22.295,102.41A40.826,40.826,0,0,1,34,80.4a1.65,1.65,0,0,1,2.291,2.373,36.493,36.493,0,0,0-10.72,20.213A1.662,1.662,0,0,1,22.295,102.41Z" transform="translate(-22.271 -79.933)"/>
    </g>
    <g id="Group_554" data-name="Group 554" transform="translate(8.456)">
      <path id="Path_457" data-name="Path 457" class="cls-3" d="M37.1,123.184h5.4c-13.094-17.267-.9-42.39,21.032-42.39s34.125,25.123,21.032,42.39h5.483a30.647,30.647,0,0,0-2.128-34.862l2.046-2.046a1.927,1.927,0,0,0,0-2.7l-2.7-2.7a1.927,1.927,0,0,0-2.7,0L82.52,82.921A29.79,29.79,0,0,0,67.462,76.7v-2.21h1.964a1.991,1.991,0,0,0,1.964-1.964V70.564A1.991,1.991,0,0,0,69.426,68.6h-11.7a1.991,1.991,0,0,0-1.964,1.964v1.964a1.991,1.991,0,0,0,1.964,1.964h1.964V76.7C37.347,79.32,25.563,104.28,37.1,123.184Z" transform="translate(-32.604 -68.6)"/>
    </g>
  </g>
  <g id="Group_556" data-name="Group 556" transform="translate(9.37 23.323)">
    <path id="Path_458" data-name="Path 458" class="cls-3" d="M16.565,31.773H13.046a1.637,1.637,0,0,1,0-3.273h3.519a1.637,1.637,0,1,1,0,3.273Z" transform="translate(-11.45 -28.5)"/>
  </g>
  <g id="Group_557" data-name="Group 557" transform="translate(20.991 23.323)">
    <path id="Path_459" data-name="Path 459" class="cls-3" d="M76.756,31.773H27.246a1.637,1.637,0,0,1,0-3.273h49.51a1.637,1.637,0,1,1,0,3.273Z" transform="translate(-25.65 -28.5)"/>
  </g>
  <g id="Group_558" data-name="Group 558" transform="translate(9.37 32.488)">
    <path id="Path_460" data-name="Path 460" class="cls-3" d="M16.565,42.973H13.046a1.637,1.637,0,0,1,0-3.273h3.519a1.637,1.637,0,1,1,0,3.273Z" transform="translate(-11.45 -39.7)"/>
  </g>
  <g id="Group_559" data-name="Group 559" transform="translate(20.991 32.488)">
    <path id="Path_461" data-name="Path 461" class="cls-3" d="M100.161,42.973H27.246a1.637,1.637,0,0,1,0-3.273h72.915a1.637,1.637,0,1,1,0,3.273Z" transform="translate(-25.65 -39.7)"/>
  </g>
  <g id="Group_560" data-name="Group 560" transform="translate(9.37 41.736)">
    <path id="Path_462" data-name="Path 462" class="cls-3" d="M16.565,54.273H13.046a1.637,1.637,0,0,1,0-3.273h3.519a1.637,1.637,0,0,1,0,3.273Z" transform="translate(-11.45 -51)"/>
  </g>
  <g id="Group_561" data-name="Group 561" transform="translate(81.385 41.736)">
    <path id="Path_463" data-name="Path 463" class="cls-3" d="M113.566,54.273H101.046a1.637,1.637,0,0,1,0-3.273h12.521a1.637,1.637,0,0,1,0,3.273Z" transform="translate(-99.45 -51)"/>
  </g>
  <g id="Group_562" data-name="Group 562" transform="translate(20.991 41.736)">
    <path id="Path_464" data-name="Path 464" class="cls-3" d="M76.183,54.273H27.246a1.637,1.637,0,0,1,0-3.273H76.1a1.642,1.642,0,0,1,1.637,1.637A1.573,1.573,0,0,1,76.183,54.273Z" transform="translate(-25.65 -51)"/>
  </g>
  <g id="Group_563" data-name="Group 563" transform="translate(9.37 50.901)">
    <path id="Path_465" data-name="Path 465" class="cls-3" d="M16.565,65.473H13.046a1.637,1.637,0,0,1,0-3.273h3.519a1.637,1.637,0,0,1,0,3.273Z" transform="translate(-11.45 -62.2)"/>
  </g>
  <g id="Group_564" data-name="Group 564" transform="translate(20.991 50.901)">
    <path id="Path_466" data-name="Path 466" class="cls-3" d="M44.677,65.473H27.246a1.637,1.637,0,0,1,0-3.273H44.595a1.642,1.642,0,0,1,1.637,1.637A1.573,1.573,0,0,1,44.677,65.473Z" transform="translate(-25.65 -62.2)"/>
  </g>
  <g id="Group_565" data-name="Group 565" transform="translate(84.413 99.02)">
    <path id="Path_467" data-name="Path 467" class="cls-3" d="M130.933,124.273H104.746a1.637,1.637,0,0,1,0-3.273h26.187a1.637,1.637,0,0,1,0,3.273Z" transform="translate(-103.15 -121)"/>
  </g>
  <g id="Group_566" data-name="Group 566" transform="translate(1.514 99.02)">
    <path id="Path_468" data-name="Path 468" class="cls-3" d="M29.633,124.273H3.446a1.637,1.637,0,0,1,0-3.273H29.633a1.642,1.642,0,0,1,1.637,1.637A1.7,1.7,0,0,1,29.633,124.273Z" transform="translate(-1.85 -121)"/>
  </g>
  <g id="Group_567" data-name="Group 567" transform="translate(84.372 65.386)">
    <path id="Path_469" data-name="Path 469" class="cls-3" d="M103.1,81.619a1.719,1.719,0,1,0,3.437,0C106.619,79.327,103.1,79.327,103.1,81.619Z" transform="translate(-103.1 -79.9)"/>
  </g>
  <g id="Group_568" data-name="Group 568" transform="translate(106.631 114.487)">
    <path id="Path_470" data-name="Path 470" class="cls-3" d="M130.3,141.619a1.719,1.719,0,0,0,3.437,0A1.719,1.719,0,1,0,130.3,141.619Z" transform="translate(-130.3 -139.9)"/>
  </g>
  <g id="Group_569" data-name="Group 569" transform="translate(17.594 92.555)">
    <path id="Path_471" data-name="Path 471" class="cls-3" d="M21.5,114.819a1.719,1.719,0,1,0,3.437,0A1.719,1.719,0,0,0,21.5,114.819Z" transform="translate(-21.5 -113.1)"/>
  </g>
</svg>
