<svg xmlns="http://www.w3.org/2000/svg" viewBox="0 0 16.625 16.625">
  <defs>
    <style>
      .cls-1 {
        fill: #ffa658;
      }
    </style>
  </defs>
  <path id="notice_icon" data-name="notice icon" class="cls-1" d="M15.382-15.382A8.012,8.012,0,0,0,9.5-17.812a8.012,8.012,0,0,0-5.882,2.431A8.012,8.012,0,0,0,1.188-9.5,8.012,8.012,0,0,0,3.618-3.618,8.012,8.012,0,0,0,9.5-1.187a8.012,8.012,0,0,0,5.882-2.431A8.012,8.012,0,0,0,17.813-9.5,8.012,8.012,0,0,0,15.382-15.382ZM13.693-5.307A5.717,5.717,0,0,1,9.5-3.562,5.717,5.717,0,0,1,5.307-5.307,5.717,5.717,0,0,1,3.563-9.5a5.717,5.717,0,0,1,1.744-4.193A5.717,5.717,0,0,1,9.5-15.437a5.717,5.717,0,0,1,4.193,1.744A5.717,5.717,0,0,1,15.438-9.5,5.717,5.717,0,0,1,13.693-5.307ZM8.313-4.75h2.375V-7.125H8.313Zm0-3.562h2.375V-14.25H8.313Z" transform="translate(-1.188 17.813)"/>
</svg>
