<svg xmlns="http://www.w3.org/2000/svg" viewBox="0 0 110.429 106.786">
  <defs>
    <style>
      .cls-1 {
        fill: #ffc258;
      }

      .cls-2 {
        fill: #61c4f2;
      }

      .cls-3 {
        fill: #263357;
      }

      .cls-4 {
        fill: #f86464;
      }

      .cls-5 {
        fill: #fff;
      }
    </style>
  </defs>
  <g id="Group_410" data-name="Group 410" transform="translate(0 -0.025)">
    <g id="Group_374" data-name="Group 374" transform="translate(4.808 12.137)">
      <g id="Group_373" data-name="Group 373">
        <path id="Path_295" data-name="Path 295" class="cls-1" d="M73.586,45.32a7.292,7.292,0,0,1,8.728-6.657,7.473,7.473,0,0,1,5.917,6.657h11.39a3.315,3.315,0,0,0,3.328-3.328V19.728A3.315,3.315,0,0,0,99.621,16.4H10.346C8.5,16.4,6.5,17.879,6.5,19.728V42.066c0,1.849,2,3.328,3.846,3.328H20.775s4.512,3.476,0,12.278c11.76-3.18,12.5-12.2,12.5-12.2C35.494,45.32,49.177,45.32,73.586,45.32Z" transform="translate(-6.5 -16.4)"/>
      </g>
    </g>
    <g id="Group_375" data-name="Group 375" transform="translate(64.793 65.613)">
      <path id="Path_296" data-name="Path 296" class="cls-2" d="M90.559,89.588c2.367,8.432,6.583,23,14.867,23h19.6l-.666,4.956-24.112.444L92.26,106.6,87.6,88.7Z" transform="translate(-87.6 -88.7)"/>
    </g>
    <g id="Group_382" data-name="Group 382" transform="translate(62.821 36.547)">
      <g id="Group_376" data-name="Group 376" transform="translate(18.466 16.566)">
        <path id="Path_297" data-name="Path 297" class="cls-3" d="M117.075,80.972v-4.29c0-2.589-4.216-2.589-4.216,0v3.4a1.48,1.48,0,0,1-2.959,0v-3.4a5.032,5.032,0,0,1,10.059,0v4.29A1.442,1.442,0,1,1,117.075,80.972Z" transform="translate(-109.9 -71.8)"/>
      </g>
      <g id="Group_377" data-name="Group 377" transform="translate(25.64 18.119)">
        <path id="Path_298" data-name="Path 298" class="cls-3" d="M126.775,83.072v-4.29c0-2.589-4.216-2.589-4.216,0v3.4a1.48,1.48,0,0,1-2.959,0v-3.4a5.032,5.032,0,0,1,10.059,0v4.29A1.443,1.443,0,1,1,126.775,83.072Z" transform="translate(-119.6 -73.9)"/>
      </g>
      <g id="Group_378" data-name="Group 378">
        <path id="Path_299" data-name="Path 299" class="cls-3" d="M97.187,107.759c-9.246-13.905-8.062-11.391-12.2-28.624-.666-2.663,5.7-3.107,8.358,1.035,1.627,2.441,1.479,3.772,2.885,6.065V54.5a4.982,4.982,0,0,1,1.849-3.92,5.064,5.064,0,0,1,8.284,4.068V71.738a1.48,1.48,0,0,1-2.959,0V54.652A2.156,2.156,0,0,0,99.924,52.8c-1.109.888-.814-1.109-.814,34.393A2.63,2.63,0,0,1,94.3,88.676c-2.811-4.142-2.515-8.21-6.139-8.58,3.7,15.533,2.811,13.24,11.391,26.035a1.437,1.437,0,1,1-2.367,1.627Z" transform="translate(-84.934 -49.403)"/>
      </g>
      <g id="Group_379" data-name="Group 379" transform="translate(32.811 20.845)">
        <path id="Path_300" data-name="Path 300" class="cls-3" d="M133.662,113.469c2.219-6.361,1.775-11.095,1.775-31.509a1.634,1.634,0,0,0-2.737-1.035c-.592.592-.444,1.109-.444,2.293a1.48,1.48,0,0,1-2.959,0c0-1.331-.148-2.959,1.331-4.364a4.547,4.547,0,0,1,7.692,3.106c0,20.34.518,25.518-1.923,32.544A1.463,1.463,0,0,1,133.662,113.469Z" transform="translate(-129.294 -77.586)"/>
      </g>
      <g id="Group_380" data-name="Group 380" transform="translate(9.22 56.063)">
        <path id="Path_301" data-name="Path 301" class="cls-3" d="M127.134,135.851v-7.766H100.359v3.624a1.48,1.48,0,0,1-2.959,0v-5.03a1.484,1.484,0,0,1,1.479-1.479h29.734a1.484,1.484,0,0,1,1.479,1.479v9.246A1.48,1.48,0,0,1,127.134,135.851Z" transform="translate(-97.4 -125.2)"/>
      </g>
      <g id="Group_381" data-name="Group 381" transform="translate(13.793 60.958)">
        <path id="Path_302" data-name="Path 302" class="cls-3" d="M103.965,134.911a1.939,1.939,0,1,1,3.18-2.219C108.7,134.764,105.444,136.982,103.965,134.911Z" transform="translate(-103.582 -131.819)"/>
      </g>
    </g>
    <g id="Group_383" data-name="Group 383" transform="translate(9.098 16.427)">
      <path id="Path_303" data-name="Path 303" class="cls-4" d="M19.918,22.2l2.367,4.734,5.325.814-3.846,3.7.888,5.251-4.734-2.515L15.259,36.7l.888-5.251-3.846-3.7,5.251-.814Z" transform="translate(-12.3 -22.2)"/>
    </g>
    <g id="Group_384" data-name="Group 384" transform="translate(26.914 16.427)">
      <path id="Path_304" data-name="Path 304" class="cls-5" d="M52.118,22.2l2.367,4.734,5.251.814-3.772,3.7.888,5.251-4.734-2.515L47.385,36.7l.888-5.251-3.772-3.7,5.251-.814Z" transform="translate(-44.5 -22.2)"/>
    </g>
    <g id="Group_385" data-name="Group 385" transform="translate(45.657 16.427)">
      <path id="Path_305" data-name="Path 305" class="cls-5" d="M84.292,22.2l2.293,4.734,5.325.814-3.846,3.7.888,5.251-4.66-2.515L79.559,36.7l.888-5.251-3.846-3.7,5.325-.814Z" transform="translate(-76.6 -22.2)"/>
    </g>
    <g id="Group_386" data-name="Group 386" transform="translate(62.473 16.427)">
      <path id="Path_306" data-name="Path 306" class="cls-5" d="M116.418,22.2l2.367,4.734,5.251.814-3.772,3.7.888,5.251-4.734-2.515L111.685,36.7l.962-5.251-3.846-3.7,5.251-.814Z" transform="translate(-108.8 -22.2)"/>
    </g>
    <g id="Group_411" data-name="Group 411" transform="translate(80.473 16.427)">
      <path id="Path_306-2" data-name="Path 306" class="cls-5" d="M116.418,22.2l2.367,4.734,5.251.814-3.772,3.7.888,5.251-4.734-2.515L111.685,36.7l.962-5.251-3.846-3.7,5.251-.814Z" transform="translate(-108.8 -22.2)"/>
    </g>
    <g id="Group_387" data-name="Group 387" transform="translate(9.098 16.427)">
      <path id="Path_307" data-name="Path 307" class="cls-5" d="M19.918,22.2l2.367,4.734,5.325.814-3.846,3.7.888,5.251-4.734-2.515L15.259,36.7l.888-5.251-3.846-3.7,5.251-.814Z" transform="translate(-12.3 -22.2)"/>
    </g>
    <g id="Group_388" data-name="Group 388" transform="translate(32.803 61.471)">
      <path id="Path_308" data-name="Path 308" class="cls-3" d="M71.976,86.059H45.792a1.48,1.48,0,0,1,0-2.959H71.976a1.479,1.479,0,1,1,0,2.959Z" transform="translate(-44.35 -83.1)"/>
    </g>
    <g id="Group_389" data-name="Group 389" transform="translate(53.957 70.347)">
      <path id="Path_309" data-name="Path 309" class="cls-3" d="M79.422,98.059h-5.03a1.48,1.48,0,0,1,0-2.959h5.03A1.484,1.484,0,0,1,80.9,96.579,1.438,1.438,0,0,1,79.422,98.059Z" transform="translate(-72.95 -95.1)"/>
    </g>
    <g id="Group_390" data-name="Group 390" transform="translate(32.803 70.347)">
      <path id="Path_310" data-name="Path 310" class="cls-3" d="M59.993,98.059h-14.2a1.48,1.48,0,0,1,0-2.959H59.919A1.484,1.484,0,0,1,61.4,96.579,1.38,1.38,0,0,1,59.993,98.059Z" transform="translate(-44.35 -95.1)"/>
    </g>
    <g id="Group_391" data-name="Group 391" transform="translate(32.803 82.699)">
      <path id="Path_311" data-name="Path 311" class="cls-3" d="M71.976,114.759H45.792a1.48,1.48,0,0,1,0-2.959H71.976a1.479,1.479,0,1,1,0,2.959Z" transform="translate(-44.35 -111.8)"/>
    </g>
    <g id="Group_392" data-name="Group 392" transform="translate(32.803 91.574)">
      <path id="Path_312" data-name="Path 312" class="cls-3" d="M57.775,126.759H45.792a1.48,1.48,0,0,1,0-2.959H57.7a1.484,1.484,0,0,1,1.479,1.479A1.422,1.422,0,0,1,57.775,126.759Z" transform="translate(-44.35 -123.8)"/>
    </g>
    <g id="Group_393" data-name="Group 393" transform="translate(8.284 59.03)">
      <path id="Path_313" data-name="Path 313" class="cls-2" d="M23.552,97.33H16.378A5.193,5.193,0,0,1,11.2,92.152V84.978A5.193,5.193,0,0,1,16.378,79.8h7.175a5.193,5.193,0,0,1,5.178,5.178v7.175A5.146,5.146,0,0,1,23.552,97.33Zm-7.175-14.5a2.225,2.225,0,0,0-2.219,2.219v7.175a2.225,2.225,0,0,0,2.219,2.219h7.175a2.225,2.225,0,0,0,2.219-2.219V85.051a2.225,2.225,0,0,0-2.219-2.219Z" transform="translate(-11.2 -79.8)"/>
    </g>
    <g id="Group_394" data-name="Group 394" transform="translate(8.284 80.776)">
      <path id="Path_314" data-name="Path 314" class="cls-2" d="M23.552,126.73H16.378a5.193,5.193,0,0,1-5.178-5.177v-7.175a5.193,5.193,0,0,1,5.178-5.177h7.175a5.193,5.193,0,0,1,5.178,5.177v7.175A5.146,5.146,0,0,1,23.552,126.73Zm-7.175-14.5a2.225,2.225,0,0,0-2.219,2.219v7.175a2.225,2.225,0,0,0,2.219,2.219h7.175a2.225,2.225,0,0,0,2.219-2.219v-7.175a2.225,2.225,0,0,0-2.219-2.219Z" transform="translate(-11.2 -109.2)"/>
    </g>
    <g id="Group_395" data-name="Group 395" transform="translate(12.76 60.432)">
      <path id="Path_315" data-name="Path 315" class="cls-3" d="M17.731,88.651a1.465,1.465,0,0,1,2-2.145l3.033,2.811,6.361-7.1a1.469,1.469,0,0,1,2.219,1.923c-7.988,9.024-7.544,8.728-8.358,8.8C22.169,92.941,22.317,92.867,17.731,88.651Z" transform="translate(-17.252 -81.695)"/>
    </g>
    <g id="Group_396" data-name="Group 396" transform="translate(12.76 82.547)">
      <path id="Path_316" data-name="Path 316" class="cls-3" d="M17.731,118.551a1.465,1.465,0,0,1,2-2.145l3.033,2.811,6.361-7.1a1.469,1.469,0,0,1,2.219,1.923c-7.988,8.95-7.544,8.654-8.358,8.728C22.169,122.767,22.317,122.693,17.731,118.551Z" transform="translate(-17.252 -111.595)"/>
    </g>
    <g id="Group_397" data-name="Group 397" transform="translate(25.481 48.897)">
      <path id="Path_317" data-name="Path 317" class="cls-3" d="M75.463,69.059H35.892a1.48,1.48,0,0,1,0-2.959H75.537a1.484,1.484,0,0,1,1.479,1.479A1.6,1.6,0,0,1,75.463,69.059Z" transform="translate(-34.45 -66.1)"/>
    </g>
    <g id="Group_398" data-name="Group 398" transform="translate(0 48.897)">
      <path id="Path_318" data-name="Path 318" class="cls-3" d="M63.905,124.014H4.66A4.64,4.64,0,0,1,0,119.354V70.76A4.64,4.64,0,0,1,4.66,66.1H18.713a1.48,1.48,0,0,1,0,2.959H4.66a1.674,1.674,0,0,0-1.7,1.7v48.595a1.674,1.674,0,0,0,1.7,1.7H63.905A1.48,1.48,0,0,1,63.905,124.014Z" transform="translate(0 -66.1)"/>
    </g>
    <g id="Group_399" data-name="Group 399" transform="translate(43.842 0.302)">
      <path id="Path_319" data-name="Path 319" class="cls-3" d="M122.9,17.782V12.012a8.665,8.665,0,0,0-8.654-8.654H60.773a1.479,1.479,0,1,1,0-2.959h53.4a11.711,11.711,0,0,1,11.686,11.686v5.769C125.861,19.7,122.9,19.7,122.9,17.782Z" transform="translate(-59.275 -0.4)"/>
    </g>
    <g id="Group_400" data-name="Group 400" transform="translate(0.074 6.885)">
      <path id="Path_320" data-name="Path 320" class="cls-3" d="M16.446,55.824c3.328-6.509,1.553-9.763.74-10.725H5.13A5.035,5.035,0,0,1,.1,40.069V14.33A5.035,5.035,0,0,1,5.13,9.3H98.842a5.035,5.035,0,0,1,5.03,5.03V40.143a5.035,5.035,0,0,1-5.03,5.03H87.156a1.479,1.479,0,1,1,0-2.959H98.842a1.989,1.989,0,0,0,2-2V14.33a1.989,1.989,0,0,0-2-2H5.13a1.989,1.989,0,0,0-2,2V40.143a1.989,1.989,0,0,0,2,2c13.166,0,12.944-.222,13.609.3.222.148,4.512,3.624,1.775,11.612,8.284-3.624,9.024-10.429,9.024-10.5a1.582,1.582,0,0,1,1.479-1.405H70.588a1.479,1.479,0,1,1,0,2.959H32.2c-.74,2.959-3.55,10.059-14.053,12.87A1.487,1.487,0,0,1,16.446,55.824Z" transform="translate(-0.1 -9.3)"/>
    </g>
    <g id="Group_401" data-name="Group 401" transform="translate(38.24 0.025)">
      <path id="Path_321" data-name="Path 321" class="cls-3" d="M51.7,1.634a1.664,1.664,0,0,0,3.328,0A1.665,1.665,0,0,0,51.7,1.634Z" transform="translate(-51.7 -0.025)"/>
    </g>
  </g>
</svg>
