<svg xmlns="http://www.w3.org/2000/svg" viewBox="0 0 104 99">
  <defs>
    <style>
      .cls-1 {
        fill: #39d894;
      }

      .cls-2 {
        fill: #f3f3f3;
      }

      .cls-3 {
        fill: #263357;
      }

      .cls-4 {
        fill: #fff;
        stroke: #263357;
        stroke-width: 2px;
      }

      .cls-5 {
        fill: none;
      }

      .cls-6 {
        stroke: none;
      }
    </style>
  </defs>
  <g id="support" transform="translate(-511 -673)">
    <g id="Group_292" data-name="Group 292" transform="translate(511.5 673.573)">
      <path id="Path_192" data-name="Path 192" class="cls-1" d="M115.527,47.339V45.206A5.194,5.194,0,0,0,110.321,40H108V52.545h2.321A5.194,5.194,0,0,0,115.527,47.339Z" transform="translate(-40.255 -14.909)"/>
      <path id="Path_193" data-name="Path 193" class="cls-1" d="M61.206,52.545h2.321V40H61.206A5.194,5.194,0,0,0,56,45.206v2.133A5.194,5.194,0,0,0,61.206,52.545Z" transform="translate(-20.873 -14.909)"/>
      <path id="Path_194" data-name="Path 194" class="cls-2" d="M96.8,127.326a2.319,2.319,0,0,0,.376-1.317V98.6a2.677,2.677,0,0,0-2.7-2.7H40.97a2.677,2.677,0,0,0-2.7,2.7v27.412a2.469,2.469,0,0,0,.376,1.317H32v.627a4.364,4.364,0,0,0,4.391,4.391H99.118a4.364,4.364,0,0,0,4.391-4.391v-.627ZM67.754,109.763a3.136,3.136,0,1,1-3.136,3.136A3.106,3.106,0,0,1,67.754,109.763Z" transform="translate(-11.927 -35.745)"/>
      <g id="Group_291" data-name="Group 291">
        <path id="Path_195" data-name="Path 195" class="cls-3" d="M78.655,52.1a1.255,1.255,0,1,0,0,2.509H81.54a1.255,1.255,0,1,0,0-2.509Z" transform="translate(-28.849 -19.419)"/>
        <path id="Path_196" data-name="Path 196" class="cls-3" d="M96.2,54.609a1.255,1.255,0,0,0,0-2.509H93.255a1.255,1.255,0,0,0,0,2.509Z" transform="translate(-34.291 -19.419)"/>
        <path id="Path_197" data-name="Path 197" class="cls-3" d="M101.618,124.791H91.895a5.436,5.436,0,0,0,.941-3.136v-.627a1.258,1.258,0,0,0-1.255-1.255H86.5V92.361a3.935,3.935,0,0,0-3.952-3.952H78.534a20.229,20.229,0,0,0-13.863-9.346h-.063A2.717,2.717,0,0,1,64.3,79h-.314a1.007,1.007,0,0,0-.69.314,12.024,12.024,0,0,1-16.058,0l-.063-.063c-.063-.063-.063-.063-.125-.063a.061.061,0,0,1-.063-.063c-.063,0-.063-.063-.125-.063h-.063c-.063,0-.125,0-.125-.063h-.376l-.251.063a20.329,20.329,0,0,0-14.051,9.346H29.043a3.935,3.935,0,0,0-3.952,3.952v27.412H20.073a1.258,1.258,0,0,0-1.255,1.255v.627a5.945,5.945,0,0,0,.941,3.136H1.255a1.255,1.255,0,1,0,0,2.509H101.618a1.255,1.255,0,1,0,0-2.509ZM45.979,81.572a14.45,14.45,0,0,0,18.442,0,18,18,0,0,1,11.04,6.837h-40.4A17.813,17.813,0,0,1,45.979,81.572ZM27.6,92.361a1.419,1.419,0,0,1,1.443-1.443H82.486a1.419,1.419,0,0,1,1.443,1.443v27.412a1.258,1.258,0,0,1-1.255,1.255H28.917a1.358,1.358,0,0,1-1.317-1.255Zm-3.136,32.43a3.155,3.155,0,0,1-3.074-2.509h4.7a3.832,3.832,0,0,0,2.823,1.255H82.674a3.833,3.833,0,0,0,2.823-1.255h4.767a3.155,3.155,0,0,1-3.074,2.509Z" transform="translate(0 -29.446)"/>
        <path id="Path_198" data-name="Path 198" class="cls-3" d="M54,35.412a6.44,6.44,0,0,0,3.826,5.9A9.1,9.1,0,0,0,66.859,49.4h4.893a2.316,2.316,0,0,0,2.321-2.321v-.314a2.316,2.316,0,0,0-2.321-2.321H70.184a2.316,2.316,0,0,0-2.321,2.321v.125h-.941a6.592,6.592,0,0,1-6.4-5.018h2.07a14.736,14.736,0,0,0,.878,2.321,1.311,1.311,0,0,0,1.129.753,1.182,1.182,0,0,0,.5-.125,1.213,1.213,0,0,0,.627-1.631,22.668,22.668,0,0,1-1.505-5.081h0v-.125c0-.063-.063-.125-.063-.188s-.063-.188-.063-.251V31.9c.063-.063.125-.063.125-.125a5.579,5.579,0,0,1,2.509-1.756,4.775,4.775,0,0,1,1.317-.188,10.9,10.9,0,0,1,4.2,1.317c.5.251,1,.439,1.505.69A15.317,15.317,0,0,0,79.4,32.9a5.4,5.4,0,0,0,1-.063c.063,0,.188.063.251.063a1.068,1.068,0,0,0,.439-.063,24.856,24.856,0,0,0,5.332-1.192c.063.063.188.063.251.125v7.59c-1.443,6.649-5.959,11.291-11.1,11.291a10.361,10.361,0,0,1-2.384-.314,1.271,1.271,0,1,0-.69,2.446,12.538,12.538,0,0,0,3.074.439c5.771,0,10.852-4.579,13.047-11.354h1.631a6.452,6.452,0,0,0,6.461-6.461V33.279a6.466,6.466,0,0,0-3.764-5.834V22.992C92.891,14.712,85.8,8,77.083,8H73.571c-8.719,0-15.807,6.712-15.807,14.992v4.454A6.466,6.466,0,0,0,54,33.279Zm32.43-6.524h0a24.516,24.516,0,0,1-5.457,1.317l-4.391-4.391a1.242,1.242,0,0,0-1.756,1.756L77.4,30.143a10.4,10.4,0,0,1-2.823-.753c-.439-.188-.878-.376-1.38-.627a11.8,11.8,0,0,0-5.269-1.568,7.887,7.887,0,0,0-2.07.314,6.378,6.378,0,0,0-1.756.815,10.955,10.955,0,0,1,.376-3.011,10.613,10.613,0,0,1,2.948-4.893c1.882-1.694,4.391-2.446,7.778-2.446,5.834,0,9.284,2.509,10.852,7.841A8.625,8.625,0,0,1,86.43,28.888Zm7.715,4.391v2.133a3.935,3.935,0,0,1-3.952,3.952H89.127V29.39h1.255a3.867,3.867,0,0,1,2.384.941A3.692,3.692,0,0,1,94.145,33.279ZM60.273,22.992c0-6.9,5.959-12.483,13.3-12.483h3.513c7.339,0,13.3,5.583,13.3,12.483v3.826H88.813a12.525,12.525,0,0,0-.314-1.631c-1.882-6.524-6.21-9.66-13.235-9.66-3.952,0-7.151,1.066-9.409,3.136a12.34,12.34,0,0,0-3.7,6.147,11.975,11.975,0,0,0-.376,2.07H60.335V22.992ZM56.509,33.279a3.94,3.94,0,0,1,3.764-3.889h1.255v9.974H60.273A4.127,4.127,0,0,1,57.764,38.3a4.084,4.084,0,0,1-1.255-2.885Z" transform="translate(-20.127 -2.982)"/>
        <path id="Path_199" data-name="Path 199" class="cls-3" d="M39.479,84.509a1.255,1.255,0,1,0,0-2.509A11.484,11.484,0,0,0,28,93.479v9.848a1.255,1.255,0,0,0,2.509,0V93.479A8.968,8.968,0,0,1,39.479,84.509Z" transform="translate(-10.436 -30.564)"/>
        <path id="Path_200" data-name="Path 200" class="cls-3" d="M147.055,129.564a1.258,1.258,0,0,0,1.255-1.255V113.255a1.255,1.255,0,0,0-2.509,0v15.054A1.258,1.258,0,0,0,147.055,129.564Z" transform="translate(-54.344 -41.746)"/>
        <circle id="Ellipse_19" data-name="Ellipse 19" class="cls-3" cx="1.443" cy="1.443" r="1.443" transform="translate(91.581 66.302)"/>
        <circle id="Ellipse_20" data-name="Ellipse 20" class="cls-3" cx="1.443" cy="1.443" r="1.443" transform="translate(77.593 22.393)"/>
        <circle id="Ellipse_21" data-name="Ellipse 21" class="cls-3" cx="1.443" cy="1.443" r="1.443" transform="translate(17.375 75.084)"/>
        <path id="Path_201" data-name="Path 201" class="cls-3" d="M120.175,22.26a1.255,1.255,0,0,0,2.509,0,22.046,22.046,0,0,0-6.837-15.87,1.242,1.242,0,0,0-1.756,1.756A19.427,19.427,0,0,1,120.175,22.26Z" transform="translate(-42.393 -2.25)"/>
        <path id="Path_202" data-name="Path 202" class="cls-3" d="M17.938,26.659a27.627,27.627,0,0,0,4.579-.439A14.832,14.832,0,0,0,25.9,28.729a15.445,15.445,0,0,0,4.454,1.443h.188a1.232,1.232,0,0,0,1.066-.565,1.247,1.247,0,0,0,0-1.317A9.636,9.636,0,0,1,30.358,24.9a7.636,7.636,0,0,1-.063-2.07c3.262-2.509,5.081-5.834,5.081-9.409C35.313,5.959,27.535,0,17.938,0S.5,5.959.5,13.361,8.278,26.659,17.938,26.659Zm0-24.15c8.154,0,14.866,4.83,14.866,10.852,0,2.885-1.568,5.645-4.454,7.715a1.394,1.394,0,0,0-.5.815,9.494,9.494,0,0,0,0,3.262,8.565,8.565,0,0,0,.439,1.819,11.037,11.037,0,0,1-1.255-.565,12.061,12.061,0,0,1-3.2-2.446,1.334,1.334,0,0,0-.941-.439.565.565,0,0,0-.314.063,19.706,19.706,0,0,1-4.7.565C9.658,24.15,2.946,19.32,2.946,13.3S9.721,2.509,17.938,2.509Z" transform="translate(-0.186)"/>
        <circle id="Ellipse_22" data-name="Ellipse 22" class="cls-3" cx="1.631" cy="1.631" r="1.631" transform="translate(22.143 12.169)"/>
        <circle id="Ellipse_23" data-name="Ellipse 23" class="cls-3" cx="1.631" cy="1.631" r="1.631" transform="translate(15.933 12.169)"/>
        <path id="Path_203" data-name="Path 203" class="cls-3" d="M17.431,22.662A1.631,1.631,0,1,0,15.8,21.031,1.62,1.62,0,0,0,17.431,22.662Z" transform="translate(-5.889 -7.231)"/>
      </g>
    </g>
    <g id="Ellipse_27" data-name="Ellipse 27" class="cls-4" transform="translate(563 744)">
      <circle class="cls-6" cx="5" cy="5" r="5"/>
      <circle class="cls-5" cx="5" cy="5" r="4"/>
    </g>
    <rect id="Rectangle_243" data-name="Rectangle 243" class="cls-5" width="104" height="99" transform="translate(511 673)"/>
  </g>
</svg>
