<svg xmlns="http://www.w3.org/2000/svg" viewBox="0 0 8.064 9.75">
  <defs>
    <style>
      .cls-1 {
        fill: #fff;
      }
    </style>
  </defs>
  <path id="trash" class="cls-1" d="M10.512-9.623q-.1.279-.178.279H2.666q-.2,0-.216-.025a.846.846,0,0,1,.038-.254l.1-.33q.076-.2.482-.279l1.346-.178a.316.316,0,0,0,.254-.178q.051-.127.114-.279t.089-.229a.641.641,0,0,1,.076-.152.287.287,0,0,1,.1-.1.283.283,0,0,1,.127-.025H7.795a.283.283,0,0,1,.127.025.276.276,0,0,1,.1.114q.051.089.089.152a1.661,1.661,0,0,1,.1.229q.063.165.114.267a.316.316,0,0,0,.254.178l1.346.152q.406.076.482.279A2.41,2.41,0,0,1,10.512-9.623ZM9.623-8.531A.7.7,0,0,1,10-8.468q.076.063.051.317L9.572-2.006a1.228,1.228,0,0,1-.051.241.2.2,0,0,1-.114.1.711.711,0,0,1-.267.038H3.859q-.279,0-.33-.063a.894.894,0,0,1-.1-.317L2.945-8.15A.38.38,0,0,1,3-8.455a.6.6,0,0,1,.381-.076Z" transform="translate(-2.448 11.375)"/>
</svg>
