<svg xmlns="http://www.w3.org/2000/svg" viewBox="0 0 17.286 14.063">
  <defs>
    <style>
      .cls-1 {
        fill: #20A1EE;
      }
    </style>
  </defs>
  <path id="twitter_icon" data-name="twitter icon" class="cls-1" d="M9.911-12.315a6.919,6.919,0,0,1-1.758,1.831v.439A10.287,10.287,0,0,1,5.388-3.068,9.315,9.315,0,0,1-1.955.063a9.783,9.783,0,0,1-5.42-1.611,7.738,7.738,0,0,0,.842.073A6.889,6.889,0,0,0-2.138-3.013a3.565,3.565,0,0,1-2.051-.714,3.355,3.355,0,0,1-1.245-1.74,4.407,4.407,0,0,0,.659.073,4.117,4.117,0,0,0,.952-.146A3.58,3.58,0,0,1-5.855-6.767a3.375,3.375,0,0,1-.824-2.252v-.037a3.339,3.339,0,0,0,1.611.439,3.326,3.326,0,0,1-1.575-2.967,3.524,3.524,0,0,1,.476-1.758,9.6,9.6,0,0,0,7.288,3.7,3.2,3.2,0,0,1-.073-.806,3.434,3.434,0,0,1,1.025-2.527A3.434,3.434,0,0,1,4.6-14a3.384,3.384,0,0,1,2.564,1.135,6.6,6.6,0,0,0,2.271-.879A3.248,3.248,0,0,1,7.86-11.766,6.048,6.048,0,0,0,9.911-12.315Z" transform="translate(7.375 14)"/>
</svg>
