<svg xmlns="http://www.w3.org/2000/svg" viewBox="0 0 19.189 13.429">
  <defs>
    <style>
      .cls-1 {
        fill:#FF0000;
      }
    </style>
  </defs>
  <path id="youtube_" data-name="youtube" class="cls-1" d="M50.895,76a59.317,59.317,0,0,0-7.507.389,2.5,2.5,0,0,0-1.7,1.708,25.82,25.82,0,0,0-.389,4.622,25.562,25.562,0,0,0,.389,4.612,2.451,2.451,0,0,0,1.7,1.7,57.992,57.992,0,0,0,7.507.4,59.449,59.449,0,0,0,7.516-.389,2.376,2.376,0,0,0,1.68-1.7,25.023,25.023,0,0,0,.4-4.612,24.524,24.524,0,0,0-.4-4.641,2.351,2.351,0,0,0-1.68-1.68C56.911,76,50.895,76,50.895,76Zm-1.908,3.844,4.992,2.885-4.992,2.857V79.844Z" transform="translate(-41.3 -76)"/>
</svg>
