<svg xmlns="http://www.w3.org/2000/svg" width="162" height="459" viewBox="0 0 162 459">
  <defs>
    <style>
      .cls-1 {
        fill: #636363;
      }

      .cls-1, .cls-2, .cls-3 {
        fill-rule: evenodd;
      }

      .cls-2 {
        fill: #fff;
      }

      .cls-3 {
        fill: #fff;
      }
    </style>
  </defs>
  <path id="volume_min" data-name="volume min" class="cls-1" d="M52,404h4v15H52V404Zm-5,3h4v12H47V407Zm-5,3h4v9H42v-9Zm-5,3h4v6H37v-6Zm-5,3h4v3H32v-3Z"/>
  <path id="volume_min-2" data-name="volume min" class="cls-1" d="M118,404h4v15h-4V404Zm-5,3h4v12h-4V407Zm-5,3h4v9h-4v-9Zm-5,3h4v6h-4v-6Zm-5,3h4v3H98v-3Z"/>
  <path id="volume_max" data-name="volume max" class="cls-2" d="M52,349h4v15H52V349Zm-5,3h4v12H47V352Zm-5,3h4v9H42v-9Zm-5,3h4v6H37v-6Zm-5,3h4v3H32v-3Z"/>
  <path id="volume_max-2" data-name="volume max" class="cls-3" d="M118,349h4v15h-4V349Zm-5,3h4v12h-4V352Zm-5,3h4v9h-4v-9Zm-5,3h4v6h-4v-6Zm-5,3h4v3H98v-3Z"/>
  <path id="play" class="cls-2" d="M43,38h0v1H42v1H41v1H40v1H39v1H38v1H37v1H36V44h0V31h2v1h1v1h1v1h1v1h1v1h1v1h1v1H43Zm-7-8h1v1H36V30Z"/>
  <path id="pause" class="cls-2" d="M42,86h2v15H42V86Zm-6,0h2v15H36V86Z"/>
  <path id="fullscreen" class="cls-2" d="M34,145H46v7H34v-7Zm15,11H30V141H50v15H49Zm0-14H31v13H49V142Z"/>
  <path id="restore" class="cls-2" d="M45,210H37v-5H32v-9h9v5h5v9H45Zm0-8H41v3H38v4h7v-7Z"/>
  <path id="volume" class="cls-2" d="M44.667,265H44v-1.041a6.476,6.476,0,0,0,.034-12.914v-0.022l-0.035,0V250h0.667c4.05,0,6.333,3.358,6.333,7.5S48.717,265,44.667,265Zm-0.641-10.988h0l0,1h0L44,259.529v-8.488l0.034,0ZM44,260.342V259.99h0v0.352Zm0,2.437v-1.793h0.005Zm3-5.279c0,1.933-.642,3.5-2.667,3.5-0.11,0-.315-0.013-0.328-0.014l0-1c0.016,0,.161.01,0.242,0.01,1.519,0,1.75-1.119,1.75-2.5s-0.231-2.5-1.75-2.5c-0.076,0-.219.008-0.227,0.009l0-1s0.2-.012.308-0.012C46.358,254,47,255.567,47,257.5Zm-2.992,2.49H44l0.019-4.981h0ZM44,263.959l0-1.18v1.18h0Zm-0.225.027c0.075,0,.151-0.021.225-0.027v0.014Zm0,0c-0.039,0-.079.014-0.118,0.014C43.568,264,43.661,263.993,43.771,263.986Zm0.227-3,0-.644v0.644h0Zm0-1,0-.461v0.461h0Zm-0.283-8.983c0.1,0.006.232,0.012,0.284,0.014v0.02C43.905,251.034,43.809,251.009,43.716,251.007ZM43.653,251c0.021,0,.042.007,0.063,0.007A0.171,0.171,0,1,1,43.653,251ZM39,264H38v-1H37v-1H36v-1H35v-1h0v1H32v-7h3v1h0v-1h1v-1h1v-1h1v-1h1v-1h1v15H39v-1Z"/>
  <path id="mute" class="cls-2" d="M39,309v-1H38v-1H37v-1H36v-1H35v-1h0v1H32v-7h3v1h0v-1h1v-1h1v-1h1v-1h1v-1h1v15H39Z"/>
  <path id="play-2" data-name="play" class="cls-3" d="M109,38h0v1h-1v1h-1v1h-1v1h-1v1h-1v1h-1v1h-1V44h0V31h2v1h1v1h1v1h1v1h1v1h1v1h1v1h-1Zm-7-8h1v1h-1V30Z"/>
  <path id="pause-2" data-name="pause" class="cls-3" d="M108,86h2v15h-2V86Zm-6,0h2v15h-2V86Z"/>
  <path id="fullscreen-2" data-name="fullscreen" class="cls-3" d="M100,145h12v7H100v-7Zm15,11H96V141h20v15h-1Zm0-14H97v13h18V142Z"/>
  <path id="restore-2" data-name="restore" class="cls-3" d="M111,210h-8v-5H98v-9h9v5h5v9h-1Zm0-8h-4v3h-3v4h7v-7Z"/>
  <path id="volume-2" data-name="volume" class="cls-3" d="M110.667,265H110v-1.041a6.476,6.476,0,0,0,.034-12.914v-0.022l-0.034,0V250h0.667c4.05,0,6.333,3.358,6.333,7.5S114.717,265,110.667,265Zm-0.641-10.988h0l0,1h0L110,259.53v-8.489l0.034,0ZM110,260.342V259.99h0v0.352Zm0,2.437v-1.793h0Zm3-5.279c0,1.933-.642,3.5-2.667,3.5-0.109,0-.315-0.013-0.328-0.014l0-1c0.016,0,.162.01,0.242,0.01,1.519,0,1.75-1.119,1.75-2.5s-0.231-2.5-1.75-2.5c-0.076,0-.219.008-0.227,0.009l0-1s0.2-.012.307-0.012C112.358,254,113,255.567,113,257.5Zm-2.992,2.49H110l0.019-4.981h0ZM110,263.959l0-1.18v1.18h0Zm-0.226.027c0.075,0,.151-0.021.226-0.027v0.014Zm0,0c-0.039,0-.079.014-0.118,0.014C109.568,264,109.661,263.993,109.771,263.986Zm0.227-3,0-.644v0.644h0Zm0-1,0-.46v0.46h0Zm-0.282-8.983c0.1,0.006.232,0.012,0.284,0.014v0.02C109.905,251.034,109.809,251.009,109.716,251.007ZM109.653,251c0.02,0,.042.007,0.063,0.007A0.174,0.174,0,1,1,109.653,251ZM105,264h-1v-1h-1v-1h-1v-1h-1v-1h0v1H98v-7h3v1h0v-1h1v-1h1v-1h1v-1h1v-1h1v15h-1v-1Z"/>
  <path id="mute-2" data-name="mute" class="cls-3" d="M105,309v-1h-1v-1h-1v-1h-1v-1h-1v-1h0v1H98v-7h3v1h0v-1h1v-1h1v-1h1v-1h1v-1h1v15h-1Z"/>
</svg>
